<svg width="24" height="24" xmlns="http://www.w3.org/2000/svg">
  <path fill-rule="evenodd" clip-rule="evenodd"
    d="M5 3a3 3 0 0 0-3 3v12a3 3 0 0 0 3 3h14a3 3 0 0 0 3-3V6a3 3 0 0 0-3-3H5Zm6.8 11.5.5 1.2a68.3 68.3 0 0 0 .7 1.1l.4.1c.3 0 .5 0 .7-.3.2-.1.3-.3.3-.6l-.3-1-2.6-6.2a20.4 20.4 0 0 0-.5-1.3l-.5-.4-.7-.2c-.2 0-.5 0-.6.2-.2 0-.4.2-.5.4l-.3.6-.3.7L5.7 15l-.2.6-.1.4c0 .3 0 .5.3.7l.6.2c.3 0 .5 0 .7-.2l.4-1 .5-1.2h3.9ZM9.8 9l1.5 4h-3l1.5-4Zm5.6-.9v7.6c0 .4 0 .7.2 1l.7.2c.3 0 .6 0 .8-.3l.2-.9V8.1c0-.4 0-.7-.2-.9a1 1 0 0 0-.8-.3c-.2 0-.5.1-.7.3l-.2 1Z">
  </path>
</svg>