<svg width="24" height="24" xmlns="http://www.w3.org/2000/svg">
  <g clip-path="url(#a)">
    <path fill-rule="evenodd" clip-rule="evenodd"
      d="M15 6.7a1 1 0 0 0-1.4 0l-9.9 10a1 1 0 0 0 0 1.3l2.1 2.1c.4.4 1 .4 1.4 0l10-9.9c.3-.3.3-1 0-1.4l-2.2-2Zm1.4 2.8-2-2-3 2.7 2.2 2.2 2.8-2.9Z">
    </path>
    <path
      d="m18.5 7.3-.7-1.5-1.5-.8 1.5-.7.7-1.5.7 1.5 1.5.7-1.5.8-.7 1.5ZM18.5 16.5l-.7-1.6-1.5-.7 1.5-.7.7-1.6.7 1.6 1.5.7-1.5.7-.7 1.6ZM9.7 7.3 9 5.8 7.5 5 9 4.3l.7-1.5.7 1.5L12 5l-1.5.8-.7 1.5Z">
    </path>
  </g>
  <defs>
    <clipPath id="a">
      <path d="M0 0h24v24H0z"></path>
    </clipPath>
  </defs>
</svg>