<?xml version="1.0" encoding="UTF-8"?>
<svg width="448px" height="448px" viewBox="0 0 448 448" version="1.1" xmlns="http://www.w3.org/2000/svg" xmlns:xlink="http://www.w3.org/1999/xlink">
    <!-- Generator: Sketch 50.2 (55047) - http://www.bohemiancoding.com/sketch -->
    <title>logos/logo-on-white</title>
    <desc>Created with Sketch.</desc>
    <defs></defs>
    <g id="logos/logo-on-white" stroke="none" stroke-width="1" fill="none" fill-rule="evenodd">
        <circle id="Oval-Copy-2" stroke="#7F776A" stroke-width="14" stroke-linecap="round" stroke-linejoin="round" cx="224" cy="224" r="217"></circle>
        <circle id="Oval-2-Copy" fill="#F58D2C" cx="168" cy="160" r="53"></circle>
        <path d="M418.8492,258.575836 C402.568316,351.594289 321.399057,422.291584 223.71756,422.291584 C122.284667,422.291584 38.6566495,346.059848 27,247.762868 L65.9600604,212.568498 L79.8626558,241.758836 L135.358028,187.882553 L160.555484,212.568498 L223.71756,107 L287.603286,197.423651 L313.822025,169.349323 L352.522656,232.033169 L378.419405,212.568498 L418.849199,251.49784 L418.849199,258.575842 Z M223.986612,131.399788 L223.986612,167.525404 L241.207559,170.167267 L232.872548,193.292088 L254.934384,208.085406 L252.864603,256 L285.882155,222.281509 L223.986612,131.399788 Z M348.486793,246.740545 L312.275464,186.987198 L308.496773,235.332966 L327.345308,231.241958 L327.345308,265 L348.486793,246.740545 Z M379.062744,225.562005 L382.868809,238.992803 L390.046133,241.442008 L396.155366,258.732883 L402.234049,246.045095 L379.062744,225.562005 Z M134.833059,203.537456 L141.416526,222.48112 L134.833059,235.768728 L122.143033,238.611638 L147.761539,248.546092 L147.722455,263 L171.078163,241.402674 L134.833059,203.537456 Z M77.6071183,264.112482 L60.391948,227.089848 L56.6119235,252.348503 L67.1095209,252.348503 L56.6119235,280 L77.6071183,264.112482 Z" id="Combined-Shape-Copy" fill="#7F776A"></path>
        <path d="M85.96925,332 L85.96925,287.648 L77.47325,287.648 L77.47325,280.736 L101.80925,280.736 L101.80925,287.648 L93.31325,287.648 L93.31325,332 L85.96925,332 Z M108.809,332 L108.809,280.736 L116.153,280.736 L116.153,332 L108.809,332 Z M126.53675,332 L126.53675,280.736 L133.59275,280.736 L144.68075,311.624 L144.82475,311.624 L144.82475,280.736 L152.16875,280.736 L152.16875,332 L145.25675,332 L134.02475,301.184 L133.88075,301.184 L133.88075,332 L126.53675,332 Z M169.1765,332 L169.1765,310.328 L159.0965,280.736 L166.8725,280.736 L172.7765,301.112 L172.9205,301.112 L178.8245,280.736 L186.6005,280.736 L176.5205,310.328 L176.5205,332 L169.1765,332 Z M210.752,332 L210.752,280.736 L218.096,280.736 L218.096,324.656 L232.64,324.656 L232.64,332 L210.752,332 Z M240.50375,292.832 C240.50375,290.76799 240.863746,288.944008 241.58375,287.36 C242.303754,285.775992 243.263744,284.456005 244.46375,283.4 C245.615756,282.391995 246.923743,281.624003 248.38775,281.096 C249.851757,280.567997 251.327743,280.304 252.81575,280.304 C254.303757,280.304 255.779743,280.567997 257.24375,281.096 C258.707757,281.624003 260.039744,282.391995 261.23975,283.4 C262.391756,284.456005 263.327746,285.775992 264.04775,287.36 C264.767754,288.944008 265.12775,290.76799 265.12775,292.832 L265.12775,319.904 C265.12775,322.064011 264.767754,323.911992 264.04775,325.448 C263.327746,326.984008 262.391756,328.255995 261.23975,329.264 C260.039744,330.320005 258.707757,331.111997 257.24375,331.64 C255.779743,332.168003 254.303757,332.432 252.81575,332.432 C251.327743,332.432 249.851757,332.168003 248.38775,331.64 C246.923743,331.111997 245.615756,330.320005 244.46375,329.264 C243.263744,328.255995 242.303754,326.984008 241.58375,325.448 C240.863746,323.911992 240.50375,322.064011 240.50375,319.904 L240.50375,292.832 Z M247.84775,319.904 C247.84775,321.680009 248.339745,322.987996 249.32375,323.828 C250.307755,324.668004 251.471743,325.088 252.81575,325.088 C254.159757,325.088 255.323745,324.668004 256.30775,323.828 C257.291755,322.987996 257.78375,321.680009 257.78375,319.904 L257.78375,292.832 C257.78375,291.055991 257.291755,289.748004 256.30775,288.908 C255.323745,288.067996 254.159757,287.648 252.81575,287.648 C251.471743,287.648 250.307755,288.067996 249.32375,288.908 C248.339745,289.748004 247.84775,291.055991 247.84775,292.832 L247.84775,319.904 Z M275.1515,332 L275.1515,280.736 L286.0235,280.736 C290.247521,280.736 293.451489,281.887988 295.6355,284.192 C297.819511,286.496012 298.9115,289.759979 298.9115,293.984 L298.9115,317.96 C298.9115,322.760024 297.747512,326.299989 295.4195,328.58 C293.091488,330.860011 289.743522,332 285.3755,332 L275.1515,332 Z M282.4955,287.648 L282.4955,325.088 L285.8795,325.088 C287.94351,325.088 289.407496,324.572005 290.2715,323.54 C291.135504,322.507995 291.5675,320.888011 291.5675,318.68 L291.5675,293.984 C291.5675,291.96799 291.159504,290.408006 290.3435,289.304 C289.527496,288.199994 288.039511,287.648 285.8795,287.648 L282.4955,287.648 Z M308.93525,292.832 C308.93525,290.76799 309.295246,288.944008 310.01525,287.36 C310.735254,285.775992 311.695244,284.456005 312.89525,283.4 C314.047256,282.391995 315.355243,281.624003 316.81925,281.096 C318.283257,280.567997 319.759243,280.304 321.24725,280.304 C322.735257,280.304 324.211243,280.567997 325.67525,281.096 C327.139257,281.624003 328.471244,282.391995 329.67125,283.4 C330.823256,284.456005 331.759246,285.775992 332.47925,287.36 C333.199254,288.944008 333.55925,290.76799 333.55925,292.832 L333.55925,295.424 L326.21525,295.424 L326.21525,292.832 C326.21525,291.055991 325.723255,289.748004 324.73925,288.908 C323.755245,288.067996 322.591257,287.648 321.24725,287.648 C319.903243,287.648 318.739255,288.067996 317.75525,288.908 C316.771245,289.748004 316.27925,291.055991 316.27925,292.832 L316.27925,319.904 C316.27925,321.680009 316.771245,322.987996 317.75525,323.828 C318.739255,324.668004 319.903243,325.088 321.24725,325.088 C322.591257,325.088 323.755245,324.668004 324.73925,323.828 C325.723255,322.987996 326.21525,321.680009 326.21525,319.904 L326.21525,310.256 L320.38325,310.256 L320.38325,303.776 L333.55925,303.776 L333.55925,319.904 C333.55925,322.064011 333.199254,323.911992 332.47925,325.448 C331.759246,326.984008 330.823256,328.255995 329.67125,329.264 C328.471244,330.320005 327.139257,331.111997 325.67525,331.64 C324.211243,332.168003 322.735257,332.432 321.24725,332.432 C319.759243,332.432 318.283257,332.168003 316.81925,331.64 C315.355243,331.111997 314.047256,330.320005 312.89525,329.264 C311.695244,328.255995 310.735254,326.984008 310.01525,325.448 C309.295246,323.911992 308.93525,322.064011 308.93525,319.904 L308.93525,292.832 Z M343.583,332 L343.583,280.736 L365.471,280.736 L365.471,287.648 L350.927,287.648 L350.927,302.696 L363.599,302.696 L363.599,309.608 L350.927,309.608 L350.927,324.656 L365.471,324.656 L365.471,332 L343.583,332 Z" id="TINY-LODGE-Copy" fill="#FFFFFF"></path>
        <path d="M230.814889,372.814947 L225.712082,382 L201,382 L218.5,351 L230.814889,372.814947 Z M238,364 L248,382 L228,382 L238,364 Z" id="Combined-Shape" fill="#FFFFFF"></path>
    </g>
</svg>