<svg fill="none" height="16" viewBox="0 0 16 16" width="16" xmlns="http://www.w3.org/2000/svg"><g fill="#222f3e"><path d="m11.676 2.226a.345.345 0 0 1 .648 0 4.148 4.148 0 0 0 2.45 2.45.345.345 0 0 1 0 .648l-.21.084a4.148 4.148 0 0 0 -2.24 2.367l-.024.052-.058.076a.35.35 0 0 1 -.484 0l-.058-.076-.024-.052a4.148 4.148 0 0 0 -2.24-2.367l-.21-.084a.346.346 0 0 1 0-.648 4.148 4.148 0 0 0 2.45-2.45zm.324 1.513c-.343.49-.77.916-1.26 1.26.49.343.916.77 1.26 1.259a5.15 5.15 0 0 1 1.259-1.26 5.143 5.143 0 0 1 -1.259-1.258z"/><path d="m10.021 7c.283.285.51.623.668 1h-.689v1.5a.5.5 0 0 1 -1 0v-1.5h-1v2.5a.5.5 0 0 1 -1 0v-2.5h-1v1.5a.5.5 0 0 1 -1 0v-1.5h-1v2.5a.5.5 0 0 1 -1 0v-2.5h-1.071v5h11.141v-4.535l.09-.117.046-.1.024-.054.017-.035.014-.037a3.15 3.15 0 0 1 .46-.834c.172.181.278.433.278.712v5c0 .552-.416 1-.929 1h-11.14c-.514 0-.93-.448-.93-1v-5c0-.552.416-1 .929-1z"/><path d="m12.707 7a4.151 4.151 0 0 0 -.383.775l-.024.052-.058.076-.054.042a.35.35 0 0 1 -.43-.042l-.058-.076-.024-.052a4.151 4.151 0 0 0 -.383-.775z"/></g></svg>