<svg fill="none" height="16" viewBox="0 0 16 16" width="16" xmlns="http://www.w3.org/2000/svg"><g fill="#222f3e"><path d="m8.677 3a.5.5 0 0 1 0 1h-2.188a3.496 3.496 0 0 0 -3.491 3.5c0 1.933 1.563 3.5 3.491 3.5h.691a.5.5 0 0 1 .499.5v.842l2.649-1.498a.502.502 0 0 1 .155-.1 3.5 3.5 0 0 0 2.162-3.641c-.102-.643.858-.84.98-.196a4.497 4.497 0 0 1 -2.674 4.722l-3.429 2.235a.498.498 0 0 1 -.84-.364v-1.5h-.193a4.495 4.495 0 0 1 -4.489-4.5c0-2.485 2.01-4.5 4.49-4.5z"/><path d="m11.603 2.163a.25.25 0 0 1 .468 0c.303.82.949 1.468 1.767 1.771a.25.25 0 0 1 0 .469l-.152.06a2.995 2.995 0 0 0 -1.615 1.71l-.04.072a.251.251 0 0 1 -.388 0l-.04-.072a2.995 2.995 0 0 0 -1.767-1.77.25.25 0 0 1 0-.469 2.997 2.997 0 0 0 1.767-1.771zm.234 1.533c-.144.17-.301.328-.471.472.17.144.328.301.471.471.143-.17.301-.327.47-.47a3.99 3.99 0 0 1 -.47-.473z" fill-rule="evenodd"/><path d="m5.999 7a.5.5 0 1 1 -.002.999.5.5 0 0 1 .003-.999zm4.002 0a.5.5 0 1 1 -.001.999.5.5 0 0 1 .001-.999z"/></g></svg>