<svg xmlns="http://www.w3.org/2000/svg" width="16" height="16" fill="none" viewBox="0 0 16 16">
  <path fill="#222F3E" d="M5.667 5.629a5.541 5.541 0 0 0 4.666 4.686A5.54 5.54 0 0 0 5.667 15 5.541 5.541 0 0 0 1 10.315a5.542 5.542 0 0 0 4.667-4.686Zm-.001 2.767a6.564 6.564 0 0 1-1.912 1.918 6.564 6.564 0 0 1 1.912 1.917 6.564 6.564 0 0 1 1.912-1.916 6.565 6.565 0 0 1-1.912-1.919ZM11.5 1.78A3.587 3.587 0 0 0 15 5.295a3.586 3.586 0 0 0-3.5 3.514A3.586 3.586 0 0 0 8 5.295a3.587 3.587 0 0 0 3.5-3.515Zm0 2.786a4.617 4.617 0 0 1-.727.728c.269.215.513.46.727.728.214-.268.457-.513.726-.728a4.618 4.618 0 0 1-.726-.728ZM3.333 1a3.964 3.964 0 0 0 2.334 2.343 3.964 3.964 0 0 0-2.334 2.343A3.963 3.963 0 0 0 1 3.343 3.963 3.963 0 0 0 3.333 1Zm0 1.915a4.969 4.969 0 0 1-.427.428c.151.134.294.276.427.428.133-.152.276-.294.427-.428a4.967 4.967 0 0 1-.427-.428Z"/>
</svg>
