<svg fill="none" height="16" viewBox="0 0 16 16" width="16" xmlns="http://www.w3.org/2000/svg"><g fill="#222f3e"><path d="m6 8.00045c.27614.00001.5.22387.5.5v2.00005c0 .2761-.22386.4999-.5.5-.27614 0-.5-.2239-.5-.5v-2.00005c0-.27614.22386-.5.5-.5z"/><path d="m10 8c.2761.00001.5.22386.5.5v2c0 .2761-.2239.5-.5.5-.27614 0-.5-.2239-.5-.5v-2c0-.27614.22386-.5.5-.5z"/><path clip-rule="evenodd" d="m8 2c.27614 0 .5.22386.5.5v2.33301h4c.5523 0 1 .44771 1 1v3.16699h.994c.2794 0 .506.22654.506.506 0 .27945-.2266.506-.506.506h-.994v2.988c-.0002.5521-.4478 1-1 1l-8.99999.0005c-.55218 0-.99983-.4479-1-1l-.00001-3h-1c-.27614 0-.5-.2239-.5-.50005.00001-.27614.22386-.5.5-.5h1.00001v-3.16699c0-.55228.44771-1 1-1l3.99999-.00045v-1.83301h-2c-.27614 0-.5-.22386-.5-.5s.22386-.5.5-.5zm-4.49999 11.0005 8.99999-.0005v-7.16699l-8.99999.00045z" fill-rule="evenodd"/></g></svg>