<svg fill="none" height="16" viewBox="0 0 16 16" width="16" xmlns="http://www.w3.org/2000/svg"><g fill="#222f3e" fill-rule="evenodd"><path d="m7.857 3c.176 0 .346.026.505.075-.21.222-.326.504-.353.795a.86.86 0 0 0 -.152-.014h-5.143a.857.857 0 0 0 -.857.858v5.142c0 .474.384.858.857.858h5.143a.857.857 0 0 0 .857-.858v-4.67a1.3 1.3 0 0 0 .141.066l.186.075c.187.081.364.18.53.295v.807h.808c.147.213.268.445.36.692l.013.037.017.036.024.053.046.1.167.218.05.05a1.349 1.349 0 0 0 1.867.018c.05.16.077.332.077.51v5.142c0 .947-.767 1.715-1.714 1.715h-5.143a1.715 1.715 0 0 1 -1.714-1.715v-1.714h-1.715a1.715 1.715 0 0 1 -1.714-1.715v-5.142c0-.947.767-1.714 1.714-1.714zm1.663 6.276h.085a7.958 7.958 0 0 1 -.085.246v.448a1.55 1.55 0 0 1 -1.55 1.548h-.076c.058.088.118.173.18.256-.573.514-1.282.895-2.12 1.156a4.7 4.7 0 0 1 .424.774c.862-.32 1.593-.755 2.21-1.336.596.594 1.334 1.042 2.246 1.316.102-.227.318-.6.482-.794a5.112 5.112 0 0 1 -2.16-1.149c.522-.668.935-1.476 1.242-2.465h.918v-.935h-1.796z"/><path d="m7.788 9.67h-1.167l-.434-1.285h-1.854l-.436 1.285h-1.109l1.861-5h1.286zm-3.227-2.021h1.406l-.679-2.021h-.048l-.678 2.021zm7.115-6.423a.345.345 0 0 1 .648 0 4.147 4.147 0 0 0 2.45 2.45.345.345 0 0 1 0 .648l-.21.084a4.148 4.148 0 0 0 -2.24 2.366l-.024.053-.058.075a.35.35 0 0 1 -.484 0l-.058-.075-.024-.053-.005-.012a4.145 4.145 0 0 0 -2.235-2.354l-.21-.084a.334.334 0 0 1 -.22-.364c.002-.02.002-.04.008-.06a.343.343 0 0 1 .035-.078.332.332 0 0 1 .177-.146 4.147 4.147 0 0 0 2.45-2.45zm.324 1.513c-.343.49-.77.915-1.26 1.259.49.343.916.77 1.26 1.26a5.15 5.15 0 0 1 1.259-1.26 5.146 5.146 0 0 1 -1.259-1.259z"/></g></svg>