<svg fill="none" height="16" viewBox="0 0 16 16" width="16" xmlns="http://www.w3.org/2000/svg"><path d="m6.80957 1c.74858.00012 1.46428.30428 1.99023.8418.52457.53624.81806 1.26104.81934 2.01465l.07031 7.09565v.0059c-.00015.4419-.17169.8678-.48047 1.1836-.30933.3162-.73152.4959-1.17382.4961h-.00098c-.44228-.0002-.86451-.1799-1.17383-.4961-.30761-.3146-.47905-.7386-.48047-1.1787l-.07031-7.09669c-.00273-.27612.219-.50214.49512-.50488.27613-.00273.50215.21899.50488.49512l.07031 7.09565v.0049c.00003.1839.07145.3586.19532.4854.12355.1263.28911.1941.45898.1943.17009 0 .33626-.0679.45996-.1943.12389-.1268.19529-.3015.19531-.4854l-.07031-7.09079v-.00488c-.00007-.49709-.19355-.9721-.53418-1.32031-.34023-.34765-.79918-.54095-1.27539-.54102-.47619.00012-.93519.19336-1.27539.54102-.34063.34821-.53411.82322-.53418 1.32031l.06934 7.09177v.0049c.00011.8103.31481 1.5856.87207 2.1553.55698.5693 1.31092.8867 2.09375.8867.78264-.0001 1.53589-.3175 2.09274-.8867.4877-.4985.7895-1.1546.8575-1.8535l.0146-.3018-.0762-6.54882c-.003-.27597.2182-.50261.4942-.50586.276-.00319.5024.21821.5058.49414l.0762 6.56054-.0049.1992c-.0483.9962-.4563 1.9438-1.1523 2.6553-.7427.7591-1.75257 1.1874-2.80764 1.1875-1.05525 0-2.06585-.4282-2.8086-1.1875-.74115-.7576-1.15585-1.7829-1.15722-2.8496l-.06934-7.09669v-.00488l.01367-.28223c.06349-.65222.34583-1.26723.80567-1.7373.52596-.53757 1.24161-.84168 1.99023-.8418z" fill="#222f3e"/></svg>