<svg xmlns="http://www.w3.org/2000/svg" width="16" height="16" fill="none" viewBox="0 0 16 16">
  <path fill="#222F3E" d="M8 7c.368 0 .667.299.667.667v6.666a.667.667 0 0 1-1.334 0V7.667C7.333 7.299 7.632 7 8 7ZM5.333 9c.368 0 .667.299.667.667v2.666a.667.667 0 0 1-1.333 0V9.667c0-.368.298-.667.666-.667Zm5.334 0c.368 0 .666.299.666.667v2.666a.667.667 0 1 1-1.333 0V9.667c0-.368.299-.667.667-.667Zm-8 1c.368 0 .666.299.666.667v.666a.667.667 0 1 1-1.333 0v-.666c0-.368.299-.667.667-.667Zm10.666 0c.368 0 .667.299.667.667v.666a.667.667 0 0 1-1.333 0v-.666c0-.368.298-.667.666-.667Z"/>
  <path fill="#222F3E" fill-rule="evenodd" d="M10.676 1.226a.345.345 0 0 1 .648 0 4.147 4.147 0 0 0 2.45 2.45.345.345 0 0 1 0 .648l-.21.084a4.147 4.147 0 0 0-2.24 2.366l-.024.053-.058.075a.35.35 0 0 1-.484 0l-.058-.075-.024-.053a4.148 4.148 0 0 0-2.24-2.366l-.21-.084a.346.346 0 0 1 0-.648 4.147 4.147 0 0 0 2.45-2.45ZM11 2.739c-.343.49-.77.915-1.26 1.26.49.342.916.769 1.26 1.259a5.15 5.15 0 0 1 1.259-1.26A5.144 5.144 0 0 1 11 2.739Z"/>
</svg>
