<svg xmlns="http://www.w3.org/2000/svg" width="16" height="16" fill="none" viewBox="0 0 16 16">
  <path fill="#222F3E" d="M7.44 3c-.293.261-.438.63-.438 1h-.266a3.737 3.737 0 0 0-3.731 3.544L3 7.736a3.737 3.737 0 0 0 3.736 3.738h1.949v1.625l3.181-2.188.015-.01.015-.01a3.732 3.732 0 0 0 1.229-5.033c.246-.218.527-.398.833-.53l.012-.007a4.732 4.732 0 0 1-1.537 6.414L7.685 15v-2.526h-.949a4.737 4.737 0 0 1 0-9.474h.704ZM8 7.406h2l-2 3v-2H6l2-3v2Zm2.676-6.18a.345.345 0 0 1 .648 0 4.147 4.147 0 0 0 2.45 2.45.345.345 0 0 1 0 .648l-.21.084a4.147 4.147 0 0 0-2.24 2.366l-.024.053-.058.075a.35.35 0 0 1-.484 0l-.058-.075-.024-.053a4.148 4.148 0 0 0-2.24-2.366l-.21-.084a.346.346 0 0 1-.053-.624l.053-.024a4.147 4.147 0 0 0 2.45-2.45ZM11 2.739c-.142.203-.3.395-.47.574l-.04.042c-.142.146-.29.284-.448.413l-.066.053c-.077.061-.155.12-.236.177.49.343.916.77 1.26 1.26.27-.385.59-.73.953-1.028l.037-.03a5.12 5.12 0 0 1 .269-.202c-.07-.05-.14-.101-.207-.154l-.065-.052a5.176 5.176 0 0 1-.144-.12l-.056-.05A5.136 5.136 0 0 1 11 2.74Z"/>
</svg>
