<svg xmlns="http://www.w3.org/2000/svg" width="16" height="16" fill="none" viewBox="0 0 16 16">
  <path fill="#222F3E" d="M9.5 8.107c0-.32-.03-.703-.089-1.107H6.59a8.034 8.034 0 0 0-.09 1.107c0 .325.032.703.09 1.096h2.818A7.51 7.51 0 0 0 9.5 8.107Zm-2.697 2.096c.05.182.106.36.169.528.156.42.338.757.533.98.192.22.357.289.495.289.137 0 .301-.068.494-.29.195-.224.378-.563.534-.983.063-.167.117-.344.167-.524H6.803Zm3.426 0c-.073.3-.16.595-.263.873a5.804 5.804 0 0 1-.23.528 4.016 4.016 0 0 0 1.602-1.4H10.23Zm-5.567 0a4.016 4.016 0 0 0 1.6 1.4 5.69 5.69 0 0 1-.228-.522 7.914 7.914 0 0 1-.264-.878H4.662Zm5.03-5.828c.103.21.197.433.277.66.108.308.198.635.273.965h1.222A4.016 4.016 0 0 0 9.69 4.375ZM8 4c-.123 0-.286.066-.484.31-.199.243-.384.609-.541 1.057a7.52 7.52 0 0 0-.19.633h2.43a7.52 7.52 0 0 0-.19-.633c-.157-.448-.342-.814-.54-1.057C8.284 4.066 8.122 4 8 4Zm-1.692.375A4.016 4.016 0 0 0 4.536 6h1.222a8.88 8.88 0 0 1 .273-.965c.08-.227.173-.45.277-.66ZM10.5 8.107a8.3 8.3 0 0 1-.08 1.096h1.395A3.995 3.995 0 0 0 11.874 7h-1.453c.052.4.079.78.079 1.107ZM4 8c0 .42.065.823.185 1.203H5.58a8.34 8.34 0 0 1-.08-1.096c0-.327.027-.707.08-1.107H4.125A4.07 4.07 0 0 0 4 8Zm9 0A5 5 0 1 1 3 8a5 5 0 0 1 10 0Z"/>
</svg>
