<svg xmlns="http://www.w3.org/2000/svg" width="16" height="16" fill="none" viewBox="0 0 16 16">
  <path fill="#222F3E" d="M8 3c1.933 0 3.5 1.642 3.5 3.667a3.76 3.76 0 0 1-.82 2.358c-.237.297-.413.557-.494.834l-.356 1.206a.5.5 0 0 1-.134.22.513.513 0 0 1 .013.596.51.51 0 0 1 .09.289.496.496 0 0 1-.382.49l-.096.01h-.146a.937.937 0 0 1-.708.33h-.934a.936.936 0 0 1-.707-.33H6.68a.489.489 0 0 1-.478-.5c0-.108.033-.207.088-.29a.513.513 0 0 1 .015-.594.499.499 0 0 1-.135-.22l-.355-1.207c-.081-.277-.257-.537-.495-.834a3.76 3.76 0 0 1-.82-2.358C4.5 4.642 6.067 3 8 3Zm0 1C6.595 4 5.455 5.194 5.455 6.667c0 .653.223 1.251.595 1.715.25.312.535.7.677 1.182l.252.854H9.02l.252-.854c.142-.481.426-.87.677-1.182a2.732 2.732 0 0 0 .595-1.715C10.545 5.194 9.406 4 8 4Z"/>
</svg>
