<svg fill="none" height="16" viewBox="0 0 16 16" width="16" xmlns="http://www.w3.org/2000/svg"><g fill="#222f3e"><path d="m13.384 9.049a1.012 1.012 0 0 1 .717.298l.616.61c.089.1.158.21.208.332.05.121.075.242.075.363 0 .122-.022.246-.066.373a.886.886 0 0 1 -.217.338l-3.667 3.637h-2.05v-2.034l3.684-3.636a.912.912 0 0 1 .333-.215c.122-.044.245-.066.367-.066zm-3.384 4.33v.629h.634l2.682-2.688-.616-.612-2.7 2.672z" fill-rule="evenodd"/><path d="m5.5 7.037c.276 0 .5.225.5.503a.502.502 0 0 1 -.5.503h-4a.502.502 0 0 1 -.5-.503c0-.278.224-.503.5-.503z"/><path d="m11.676 1.227a.345.345 0 0 1 .648 0 4.16 4.16 0 0 0 2.45 2.465.349.349 0 0 1 0 .653l-.21.084a4.162 4.162 0 0 0 -2.24 2.38l-.024.054-.058.075a.348.348 0 0 1 -.484 0l-.058-.075-.024-.053a4.162 4.162 0 0 0 -2.24-2.381l-.21-.084a.349.349 0 0 1 0-.653 4.16 4.16 0 0 0 2.45-2.465zm.324 1.523a5.16 5.16 0 0 1 -1.26 1.266c.49.346.916.775 1.26 1.268.343-.493.77-.922 1.259-1.268a5.16 5.16 0 0 1 -1.259-1.266z" fill-rule="evenodd"/><path d="m7.5 4.018c.276 0 .5.226.5.503a.502.502 0 0 1 -.5.503h-6a.502.502 0 0 1 -.5-.503c0-.277.224-.503.5-.503zm0-3.018c.276 0 .5.225.5.503a.502.502 0 0 1 -.5.503h-6a.502.502 0 0 1 -.5-.503c0-.278.224-.503.5-.503z"/></g></svg>