<svg fill="none" height="16" viewBox="0 0 16 16" width="16" xmlns="http://www.w3.org/2000/svg"><g fill="#222f3e" fill-rule="evenodd"><path d="m7.05 4.365a1.3 1.3 0 0 0 .624.8 1.7 1.7 0 1 0 2.25 2.294l.04.052.042.054.05.05c.094.092.2.167.311.226.188-.056.376-.104.566-.143.904-.182 1.82-.152 2.963.056a.5.5 0 0 1 .41.492v5.545a.501.501 0 0 1 -.572.494c-1.02-.147-1.782-.16-2.532-.018-.754.142-1.53.446-2.57.981l-.015.006-.027.013-.031.01a.507.507 0 0 1 -.068.018l-.02.003a.548.548 0 0 1 -.136 0l-.023-.004a.433.433 0 0 1 -.124-.04l-.014-.006c-1.04-.535-1.816-.84-2.57-.981-.75-.142-1.513-.13-2.533.018a.5.5 0 0 1 -.571-.494v-5.545a.5.5 0 0 1 .41-.492c1.143-.208 2.059-.238 2.963-.056l.02.004a2.699 2.699 0 0 1 1.157-3.337zm-1.375 4.315c-.643-.13-1.315-.136-2.175-.01v4.556c.832-.088 1.556-.08 2.29.058.68.129 1.353.365 2.112.717v-4.444c-.865-.46-1.545-.741-2.227-.878zm7.63-.01c-.86-.126-1.531-.12-2.174.01-.682.137-1.362.418-2.228.878v4.442c.76-.352 1.432-.588 2.114-.717.733-.138 1.457-.146 2.289-.058v-4.555z"/><path d="m10.676 1.226a.345.345 0 0 1 .648 0 4.147 4.147 0 0 0 2.45 2.45.345.345 0 0 1 0 .648l-.21.084a4.147 4.147 0 0 0 -2.24 2.366l-.024.053-.058.075a.348.348 0 0 1 -.328.086l-.005-.002a.34.34 0 0 1 -.07-.027l-.015-.007a.334.334 0 0 1 -.066-.05l-.058-.075-.024-.053a4.148 4.148 0 0 0 -2.24-2.366l-.21-.084a.36.36 0 0 1 -.066-.033l-.03-.02a.337.337 0 0 1 -.126-.239.34.34 0 0 1 .222-.356 4.147 4.147 0 0 0 2.45-2.45zm.324 1.513c-.343.49-.77.915-1.26 1.26.49.342.916.769 1.26 1.259a5.15 5.15 0 0 1 1.259-1.26 5.144 5.144 0 0 1 -1.259-1.259z"/></g></svg>