<svg fill="none" height="16" viewBox="0 0 16 16" width="16" xmlns="http://www.w3.org/2000/svg"><g fill="#222f3e"><path d="m12.5 11.146a.5.5 0 1 1 .707.707l-3 3a.5.5 0 0 1 -.707 0l-1.5-1.5a.5.5 0 1 1 .707-.707l1.147 1.147 2.646-2.646z"/><path d="m11.676 1.226a.345.345 0 0 1 .648 0 4.147 4.147 0 0 0 2.45 2.45.345.345 0 0 1 0 .648l-.21.084a4.148 4.148 0 0 0 -2.24 2.366l-.024.053-.058.075a.35.35 0 0 1 -.484 0l-.058-.075-.024-.053a4.148 4.148 0 0 0 -2.24-2.366l-.21-.084a.346.346 0 0 1 0-.648 4.147 4.147 0 0 0 2.45-2.45zm.324 1.513c-.343.49-.77.915-1.26 1.26.49.342.916.769 1.26 1.259a5.15 5.15 0 0 1 1.259-1.26 5.144 5.144 0 0 1 -1.259-1.259zm-6.61-1.37a.625.625 0 0 1 1.09-.092l.05.092 4.385 9.756h-1.37l-1.292-2.875h-4.589l-1.293 2.875h-1.371zm-1.164 5.631h3.465l-1.732-3.852z" fill-rule="evenodd"/></g></svg>