<svg fill="none" height="16" viewBox="0 0 16 16" width="16" xmlns="http://www.w3.org/2000/svg"><g fill="#222f3e"><path d="m8 1a7 7 0 0 1 1.604.187 3.148 3.148 0 0 1 -.66.887 6 6 0 1 0 4.546 3.506 3.1 3.1 0 0 1 .468-.253l.188-.074-.002-.001c.087-.034.166-.077.24-.123a7 7 0 1 1 -6.384-4.129z"/><path d="m7.009 4.123c.03.348.19.685.483.92a3 3 0 1 0 3.508 2.957c.342 0 .684-.129.944-.386l.033-.034a4 4 0 1 1 -4.969-3.457z"/><path d="m8 7a1 1 0 1 1 0 2 1 1 0 0 1 0-2z"/><path d="m10.676 1.226a.345.345 0 0 1 .648 0 4.146 4.146 0 0 0 2.45 2.45.345.345 0 0 1 0 .648l-.21.084a4.147 4.147 0 0 0 -2.107 2.052l-.022.049c-.04.087-.077.175-.11.265l-.025.053-.058.075a.33.33 0 0 1 -.135.08l-.03.008a.348.348 0 0 1 -.04.006l-.016.002h-.043l-.017-.002a.34.34 0 0 1 -.203-.094l-.058-.075-.024-.053a4.153 4.153 0 0 0 -2.24-2.366l-.21-.084a.346.346 0 0 1 0-.648 4.145 4.145 0 0 0 2.34-2.189c.04-.086.077-.172.11-.261zm.324 1.513c-.343.49-.77.915-1.26 1.26.49.342.916.769 1.26 1.259a5.15 5.15 0 0 1 1.259-1.26 5.146 5.146 0 0 1 -1.176-1.146z" fill-rule="evenodd"/></g></svg>