<svg fill="none" height="16" viewBox="0 0 16 16" width="16" xmlns="http://www.w3.org/2000/svg"><g fill="#222f3e" fill-rule="evenodd"><path d="m9.061 1.403a.49.49 0 1 1 .235.952 3.658 3.658 0 0 0 -1.714.96l-3.267 3.248a.881.881 0 0 0 -.259.624v4.08l4.973-4.945a.495.495 0 0 1 .697 0 .489.489 0 0 1 0 .693l-2.213 2.201h4.461l.768-.77a3.626 3.626 0 0 0 1.002-1.871.494.494 0 0 1 .968.187 4.603 4.603 0 0 1 -1.27 2.377l-1.85 1.845a.494.494 0 0 1 -.091.089l-1.321 1.321a1.877 1.877 0 0 1 -1.141.539l-.185.008h-4.602c-.141 0-.28-.026-.41-.074l-2.001 1.99a.495.495 0 0 1 -.697 0 .489.489 0 0 1 0-.693l2-1.99a1.171 1.171 0 0 1 -.074-.409v-4.578c0-.494.197-.968.548-1.317l3.267-3.25a4.642 4.642 0 0 1 2.176-1.217zm-4.308 10.557h4.101a.896.896 0 0 0 .34-.066.89.89 0 0 0 .288-.193l1.509-1.504h-4.465z"/><path d="m11.724 1.221a.341.341 0 0 1 .639 0 4.079 4.079 0 0 0 2.415 2.403.339.339 0 0 1 0 .636l-.207.082a4.077 4.077 0 0 0 -2.208 2.32l-.024.052-.057.075a.346.346 0 0 1 -.478 0l-.057-.075-.023-.051a4.077 4.077 0 0 0 -2.208-2.32l-.207-.083a.339.339 0 0 1 0-.636 4.079 4.079 0 0 0 2.415-2.403zm.319 1.484a5.06 5.06 0 0 1 -1.243 1.235c.483.337.903.755 1.242 1.235.338-.48.759-.898 1.241-1.235a5.061 5.061 0 0 1 -1.241-1.235z"/></g></svg>