<svg fill="none" height="16" viewBox="0 0 16 16" width="16" xmlns="http://www.w3.org/2000/svg"><g fill="#222f3e"><path d="m14.86 2.562a.486.486 0 0 1 0 .682l-.997 1.007-1.911-1.93.996-1.008a.474.474 0 0 1 .676 0zm-1.672 2.372-1.912-1.931-6.512 6.577a.484.484 0 0 0 -.115.189l-.769 2.331a.24.24 0 0 0 .302.306l2.307-.777a.477.477 0 0 0 .187-.117l6.511-6.578z"/><path d="m1 13.724c0 .8.642 1.448 1.434 1.448h10.513c.792 0 1.434-.649 1.434-1.448v-5.794a.48.48 0 0 0 -.478-.483.48.48 0 0 0 -.478.482v5.794a.48.48 0 0 1 -.478.482h-10.513a.48.48 0 0 1 -.478-.482v-10.62a.48.48 0 0 1 .478-.483h6.212a.48.48 0 0 0 .478-.483.48.48 0 0 0 -.478-.482h-6.212a1.44 1.44 0 0 0 -1.434 1.448v10.62z" fill-rule="evenodd"/></g></svg>