<svg xmlns="http://www.w3.org/2000/svg" width="16" height="16" fill="none" viewBox="0 0 16 16">
  <path fill="#222F3E" fill-rule="evenodd" d="M4 9a3 3 0 1 1 0 6 3 3 0 0 1 0-6Zm0 1a2 2 0 1 0 0 4 2 2 0 0 0 0-4Zm8-1a3 3 0 1 1 0 6 3 3 0 0 1 0-6Zm0 1a2 2 0 1 0 0 4 2 2 0 0 0 0-4ZM4 1a3 3 0 1 1 0 6 3 3 0 0 1 0-6Zm0 1a2 2 0 1 0 0 4 2 2 0 0 0 0-4Zm7.676-.774a.345.345 0 0 1 .648 0 4.147 4.147 0 0 0 2.45 2.45.345.345 0 0 1 0 .648l-.21.084a4.147 4.147 0 0 0-2.24 2.366l-.024.053-.058.075a.35.35 0 0 1-.484 0l-.058-.075-.024-.053a4.148 4.148 0 0 0-2.24-2.366l-.21-.084a.346.346 0 0 1 0-.648 4.147 4.147 0 0 0 2.45-2.45ZM12 2.739c-.343.49-.77.915-1.26 1.26.49.342.916.769 1.26 1.259a5.15 5.15 0 0 1 1.259-1.26A5.144 5.144 0 0 1 12 2.739Z"/>
</svg>
