<svg fill="none" height="16" viewBox="0 0 16 16" width="16" xmlns="http://www.w3.org/2000/svg"><path d="m9.39258 14c.27614 0 .5.2239.5.5s-.22386.5-.5.5h-3c-.27603-.0001-.5-.2239-.5-.5s.22397-.4999.5-.5zm.75002-2.5996c.2761 0 .5.2238.5.5-.0002.276-.224.5-.5.5h-4.50002c-.2759-.0001-.49979-.2241-.5-.5 0-.2761.22397-.4999.5-.5zm1.75-6.4004c0-.86996-.4979-1.60853-1.2842-2.15137-.78953-.54498-1.81505-.84863-2.71582-.84863-.90178.00005-1.89786.29721-2.65723.83496-.7533.53347-1.23535 1.27097-1.23535 2.16504 0 .56405.09776.96492.23535 1.27637.13874.31393.32957.56339.55664.81738.43759.48944 1.09825 1.05544 1.33789 2.09375.0621.26907-.10593.53752-.375.59961-.26896.06188-.53754-.10604-.59961-.375-.1668-.72231-.57725-1.05619-1.10937-1.65137-.25783-.28839-.52604-.62853-.72559-1.08008-.20054-.45392-.32031-.99502-.32031-1.68066 0-1.30052.71412-2.31356 1.65723-2.98145.93689-.66346 2.13729-1.0185 3.23535-1.01855 1.09902 0 2.32382.36245 3.28422 1.02539.9637.66534 1.7158 1.67727 1.7158 2.97461 0 .80053-.1225 1.40403-.336 1.88574-.2153.48572-.508.81344-.792 1.07715-.5827.54112-.97.73591-1.1347 1.44922-.0621.26907-.3306.43709-.5996.375-.26902-.06215-.4371-.33059-.37503-.59961.25281-1.09551.99093-1.5506 1.42873-1.95703.2262-.21006.4173-.43112.5586-.75.1432-.32309.25-.781.25-1.48047z" fill="#222f3e"/></svg>