<svg fill="none" height="16" viewBox="0 0 16 16" width="16" xmlns="http://www.w3.org/2000/svg"><g fill="#222f3e" fill-rule="evenodd"><path d="m12.124 3.878a2.99 2.99 0 0 0 -4.232 0l-.955.956-.09.089a2.995 2.995 0 0 0 -.87 2.311 3.003 3.003 0 0 0 .87 1.93c.248.247.53.44.828.582l.217-.216.068-.076a.997.997 0 0 0 .221-.573 1.99 1.99 0 0 1 -1.054-1.055 2.007 2.007 0 0 1 .426-2.197l.667-.666.377-.378c.78-.78 2.042-.78 2.821 0 .78.78.78 2.046 0 2.826l-.378.378c.112.42.155.854.128 1.285l.956-.957a3.002 3.002 0 0 0 0-4.24z"/><path d="m3.876 12.122a2.99 2.99 0 0 0 4.232 0l.955-.956.09-.089a2.995 2.995 0 0 0 .87-2.311 3.003 3.003 0 0 0 -.87-1.93 2.984 2.984 0 0 0 -.828-.582l-.217.216-.068.076a.997.997 0 0 0 -.221.573 1.99 1.99 0 0 1 1.054 1.055 2.007 2.007 0 0 1 -.426 2.197l-.667.666-.377.378c-.78.78-2.042.78-2.821 0a2.001 2.001 0 0 1 0-2.826l.378-.378a4.024 4.024 0 0 1 -.128-1.285l-.956.957a3.002 3.002 0 0 0 0 4.24z"/></g></svg>