<svg fill="none" height="16" viewBox="0 0 16 16" width="16" xmlns="http://www.w3.org/2000/svg"><g fill="#222f3e"><path d="m8.797 2.012c-.32.323-.708.577-1.143.738a1.367 1.367 0 0 0 -.439.262l-1.715-.012v2l1.717.012c.116.103.253.19.413.252l.186.075c.37.161.702.39.981.673l-3.297-.012a1 1 0 0 1 -1-1v-.5h-1.5v9.5h9v-6.94c.248-.423.59-.782 1-1.048v8.488a.5.5 0 0 1 -.5.5h-10a.5.5 0 0 1 -.5-.5v-10.5a.5.5 0 0 1 .5-.5h2v-.5a1 1 0 0 1 1-1z"/><path d="m10 11a.5.5 0 0 1 0 1h-5a.5.5 0 0 1 0-1zm0-2a.5.5 0 0 1 0 1h-5a.5.5 0 0 1 0-1z"/><path d="m10.676 1.226a.345.345 0 0 1 .648 0 4.147 4.147 0 0 0 2.45 2.45.345.345 0 0 1 0 .648l-.21.084a4.148 4.148 0 0 0 -2.24 2.366l-.024.053-.058.075a.35.35 0 0 1 -.484 0l-.058-.075-.024-.053a4.148 4.148 0 0 0 -2.24-2.366l-.21-.084a.346.346 0 0 1 0-.648 4.147 4.147 0 0 0 2.45-2.45zm.324 1.513c-.343.49-.77.915-1.26 1.26.49.342.916.769 1.26 1.259a5.15 5.15 0 0 1 1.259-1.26 5.144 5.144 0 0 1 -1.259-1.259z" fill-rule="evenodd"/></g></svg>