<svg xmlns="http://www.w3.org/2000/svg" width="16" height="16" viewBox="0 0 16 16">
  <g fill="none" fill-rule="evenodd">
    <path fill="#000" fill-rule="nonzero" d="M14,0 C15.1045695,0 16,0.8954305 16,2 L16,11 L6,11 L6,16 L2,16 C0.8954305,16 0,15.1045695 0,14 L0,2 C0,0.8954305 0.8954305,0 2,0 L14,0 Z M5,11 L1,11 L1,14 C1,14.5522847 1.44771525,15 2,15 L5,15 L5,11 Z M5,6 L1,6 L1,10 L5,10 L5,6 Z M10,6 L6,6 L6,10 L10,10 L10,6 Z M15,6 L11,6 L11,10 L15,10 L15,6 Z M10,1 L6,1 L6,5 L10,5 L10,1 Z M5,1 L2,1 C1.48716416,1 1.06449284,1.38604019 1.00672773,1.88337887 L1,2 L1,5 L5,5 L5,1 Z M14,1 L11,1 L11,5 L15,5 L15,2 C15,1.44771525 14.5522847,1 14,1 Z"/>
    <circle cx="9" cy="14" r="1" fill="#000"/>
    <circle cx="12" cy="14" r="1" fill="#000"/>
    <circle cx="15" cy="14" r="1" fill="#000"/>
  </g>
</svg>
