<svg xmlns="http://www.w3.org/2000/svg" width="16" height="16" fill="none" viewBox="0 0 16 16">
  <path fill="#222F3E" fill-rule="evenodd" d="M1.636 1.637a.5.5 0 0 1 .707 0l.247.247.019.022L14.38 13.68a.498.498 0 0 1-.725.685L9.543 10.25H8.5v4.5a.5.5 0 0 1-1 0v-4.5H4a.5.5 0 0 1-.47-.669l1.412-3.932-3.306-3.305a.5.5 0 0 1 0-.707ZM4.711 9.25h3.831l-2.82-2.82-1.01 2.82Z"/>
  <path fill="#222F3E" d="M12 1.25a.5.5 0 0 1 .5.5v2.433a.5.5 0 0 1-.5.5h-1.289l1.76 4.898a.502.502 0 0 1-.062.457.493.493 0 0 1-.131.123L11.245 9.13 9.53 4.352a.5.5 0 0 1 .47-.67h1.5V2.25h-7l-.915-.781A.501.501 0 0 1 4 1.25h8Z"/>
</svg>
