<svg xmlns="http://www.w3.org/2000/svg" width="16" height="16" fill="none" viewBox="0 0 16 16">
  <path fill="#222F3E" d="M10.389 8.155c0-.523-.054-1.159-.159-1.822H5.77a12.121 12.121 0 0 0-.159 1.822c0 .531.055 1.159.162 1.805h4.452c.107-.648.164-1.276.164-1.805ZM5.98 10.96c.092.366.2.726.326 1.063.23.619.506 1.133.812 1.484.266.304.523.454.775.486L8 14c.284 0 .578-.146.882-.495.306-.352.58-.868.811-1.487.125-.336.233-.694.325-1.058H5.98Zm5.064 0c-.112.482-.247.96-.413 1.406-.171.46-.379.902-.623 1.288a6.017 6.017 0 0 0 3.21-2.694h-2.174Zm-8.263 0a6.017 6.017 0 0 0 3.207 2.693 6.939 6.939 0 0 1-.619-1.28 11.426 11.426 0 0 1-.415-1.413H2.781Zm7.17-8.634c.271.432.497.938.683 1.465.172.49.313 1.015.426 1.542h2.315a6.016 6.016 0 0 0-3.424-3.007ZM8 2c-.27 0-.561.15-.871.53-.31.38-.588.933-.82 1.593-.135.385-.249.795-.345 1.21h4.072a11.31 11.31 0 0 0-.346-1.21c-.231-.66-.51-1.214-.819-1.594C8.561 2.15 8.271 2 8 2Zm-1.952.326a6.017 6.017 0 0 0-3.423 3.007h2.314c.114-.527.255-1.052.427-1.542.186-.527.41-1.033.682-1.465Zm5.34 5.83c0 .536-.052 1.158-.152 1.804h2.435a5.99 5.99 0 0 0 .093-3.627H11.24c.097.66.148 1.29.148 1.822ZM2 8c0 .687.117 1.346.33 1.96h2.433c-.1-.645-.152-1.267-.152-1.805 0-.532.05-1.162.148-1.822H2.236A6 6 0 0 0 2 8Zm13 0a7 7 0 1 1-7-7l.36.009A7 7 0 0 1 15 8Z"/>
</svg>
