<?xml version="1.0" encoding="UTF-8"?>
<svg width="1119px" height="209px" viewBox="0 0 1119 209" version="1.1" xmlns="http://www.w3.org/2000/svg" xmlns:xlink="http://www.w3.org/1999/xlink">
    <title>logo_spaces/docs/for_secondary/logo_spaces_ docs_for_secondary</title>
    <g id="logo_spaces/docs/for_secondary/logo_spaces_-docs_for_secondary" stroke="none" stroke-width="1" fill="none" fill-rule="evenodd">
        <g id="Group">
            <g transform="translate(0.000000, -0.000000)" fill="#FFFFFF" id="logo">
                <path d="M552.534759,49.7 L573.350649,108 L579.255157,129.1 L586.260504,108 L607.076394,49.7 L638,49.7 L583.558442,201.4 L550.132926,208 L564.44385,167.7 L521.811306,49.7 L552.534759,49.7 Z M132.246934,2.01517744 C166.291577,2.21754334 199.831107,30.4475857 199.831107,71.6290455 C199.831107,71.6290455 199.994763,82.0377353 199.999878,94.6029499 L199.999592,96.2903668 C199.997669,98.8384879 199.988831,101.458199 199.970502,104.083484 L199.956847,105.833775 C199.851028,118.081449 199.526018,130.131002 198.719857,135.27312 C193.870768,166.741016 170.433507,188.394167 138.106249,193.959229 C108.910695,199.625474 91.5347943,203.065695 85.9785469,204.077524 C84.5723112,204.370955 80.4133691,204.970727 76.2809346,205.422774 L75.427238,205.514044 C72.7308368,205.795449 70.1280885,206 68.4006007,206 C32.8406175,206 0.412337467,179.287702 0.00824674934,136.386132 L0.00757747409,136.043653 C0.00749413038,135.998682 0.00740422019,135.949422 0.00730845069,135.895956 L0.00666917918,135.525355 C0.00655280105,135.455398 0.00643197793,135.381401 0.00630741696,135.303448 L0.00552085438,134.788917 C0.00483743595,134.321685 0.00409592949,133.759701 0.00338472982,133.113361 L0.00255149476,132.297926 C0.00241693256,132.155494 0.00228499694,132.009854 0.00215639507,131.861089 L0.000565792978,129.405655 C0.000488207561,129.227722 0.000417491685,129.04708 0.000354352511,128.863812 L0.000384760337,124.657743 C0.000462345755,124.441791 0.000552457985,124.223796 0.000655804186,124.00384 L0.0019623305,121.973555 C0.0053663907,117.816111 0.0137456158,113.104368 0.0312241557,108.323386 L0.0373930046,106.727827 C0.085185622,95.01801 0.190087572,83.2165166 0.412337467,78.408303 C2.12972302,46.9404062 23.3444857,21.5434863 64.6627616,13.4488505 C64.6627616,13.4488505 112.547512,4.14001934 117.295578,3.22937281 C122.144666,2.31872629 127.397845,1.91399449 132.246934,2.01517744 Z M157.098513,37.3280262 L76.2803697,53.0113831 L76.2803697,85.4911093 L42.9428855,91.9668179 L42.9428855,170.788334 L123.862052,155.003794 L123.862052,122.625251 L157.098513,116.149542 L157.098513,37.3280262 Z M296.038961,18 L296.038961,49.8 L326.061879,49.8 L326.061879,76.8 L296.038961,76.8 L296.038961,128.2 C296.239114,137 302.44385,142.5 309.048892,142.8 C314.152788,142.95 318.524876,141.8625 320.391926,141.309375 L320.641415,141.234184 C321.105545,141.091837 321.358289,141 321.358289,141 L327.863254,162.3 C320.957983,166.6 311.750955,168.7 300.042017,168.7 C281.828113,168.7 266.416348,154.6 266.016043,134.7 L266.016043,76.7 L245,76.7 L245,49.7 L266.016043,49.7 L266.016043,23.8 L296.038961,18 Z M467.970206,46.7 C494.621551,46.7 515.583973,68.36021 516.194764,95.8647563 L516.207028,96.7 L516.207028,166.7 L486.18411,166.7 L486.18411,101.2 C485.883881,85.7 474.575248,73.7 458.663102,73.7 C443.603606,73.7 430.309638,86.34329 430.142368,101.247671 L430.141329,101.7 L430.141329,166.7 L400.118411,166.7 L400.118411,49.7 L427.239114,49.7 L428.440031,65 C439.148205,52.6 453.058824,46.7 467.970206,46.7 Z M378.101604,49.7 L378.101604,166.7 L348.078686,166.7 L348.078686,49.7 L378.101604,49.7 Z M123.862052,76.1822781 L123.862052,122.524068 L76.2803697,131.832899 L76.2803697,85.4911093 L123.862052,76.1822781 Z M378.101604,2 L378.101604,31.1 L348.078686,36.9 L348.078686,7.8 L378.101604,2 Z"></path>
            </g>
            <path d="M764.409736,154 C792.567452,154 811.033675,135.533777 811.033675,107.768959 C811.033675,80.3970396 792.567452,62.3237148 764.671668,62.3237148 L728.525019,62.3237148 L728.525019,154 L764.409736,154 Z M764.802634,137.760201 L746.598343,137.760201 L746.598343,78.5635139 L764.409736,78.5635139 C781.697264,78.5635139 792.698418,90.3504649 792.698418,108.554756 C792.698418,126.235182 781.697264,137.760201 764.802634,137.760201 Z M877.96843,156.095458 C907.435807,156.095458 926.818794,136.843438 926.818794,107.768959 C926.818794,79.3493106 907.566774,60.2282569 879.147125,60.2282569 C849.679748,60.2282569 830.296762,79.4802768 830.296762,108.554756 C830.296762,136.974404 849.548782,156.095458 877.96843,156.095458 Z M878.361328,139.855659 C860.680902,139.855659 848.762985,127.020979 848.762985,107.768959 C848.762985,89.3027359 860.811868,76.468056 878.754227,76.468056 C896.434653,76.468056 908.35257,89.3027359 908.35257,108.554756 C908.35257,127.151945 896.172721,139.855659 878.361328,139.855659 Z M994.801277,155.964492 C1009.07658,155.964492 1020.73257,151.380678 1029.24537,143.391744 L1019.29194,130.295132 C1011.69591,136.843438 1004.09987,139.46276 995.063209,139.46276 C976.989885,139.46276 964.548103,126.628081 964.548103,107.768959 C964.548103,89.433702 976.858919,76.8609543 994.670311,76.8609543 C1003.57601,76.8609543 1011.04108,79.8731751 1018.50615,86.2905151 L1028.59054,73.1939029 C1019.68484,65.2049695 1008.15982,60.359223 995.063209,60.359223 C966.250663,60.359223 946.08188,79.8731751 946.08188,108.554756 C946.08188,136.581506 965.595832,155.964492 994.801277,155.964492 Z M1081.90481,155.964492 C1103.77616,155.964492 1118.57533,144.570439 1118.57533,126.759047 C1118.57533,111.566977 1108.49094,102.137416 1085.30993,98.7322967 C1071.95139,96.6368387 1066.45081,93.755584 1066.45081,87.2072779 C1066.45081,80.2660735 1073.26105,75.9441915 1083.47641,75.9441915 C1091.07244,75.9441915 1099.58524,78.0396494 1107.05031,82.8853959 L1114.77731,69.3958854 C1104.43099,62.7166132 1094.60853,60.359223 1082.82158,60.359223 C1062.91473,60.359223 1048.50845,71.3603772 1048.50845,87.9930747 C1048.50845,102.923213 1058.98574,111.043112 1081.38095,113.924367 C1095.65626,115.888859 1100.502,120.079774 1100.502,126.890013 C1100.502,135.140878 1092.775,139.855659 1081.77385,139.855659 C1071.95139,139.855659 1061.99796,136.188607 1053.7471,130.295132 L1045.75817,144.439473 C1055.44966,151.773576 1068.02241,155.964492 1081.90481,155.964492 Z" id="DOCS" fill="#4D71FF"></path>
        </g>
    </g>
</svg>