<svg xmlns="http://www.w3.org/2000/svg" viewBox="0 0 16 16">
    <g>
        <path stroke-width="2"
              d="m15.124516,15.466769l-4.39164,-4.855368c0.989473,-1.049088 1.533342,-2.420938 1.533342,-3.877395c0,-1.499891 -0.576376,-2.910672 -1.623495,-3.971001c-1.047102,-1.060328 -2.43856,-1.64516 -3.918698,-1.64516c-1.480138,0 -2.872338,0.584074 -3.918713,1.64516c-1.04636,1.061086 -1.623493,2.47111 -1.623493,3.971001c0,1.499892 0.57639,2.910675 1.623493,3.971004c1.047103,1.060328 2.438575,1.64516 3.918713,1.64516c1.27544,0 2.484379,-0.433564 3.46424,-1.231806l4.39164,4.854611c0.073156,0.080867 0.172176,0.121301 0.272684,0.121301c0.089409,0 0.17882,-0.032192 0.249762,-0.098093c0.150753,-0.140026 0.160351,-0.376661 0.022909,-0.52867l-0.000744,-0.000744zm-13.20447,-8.732763c0,-2.683778 2.154807,-4.867337 4.803237,-4.867337c2.648429,0 4.803237,2.183558 4.803237,4.867337c0,2.68378 -2.154808,4.867339 -4.803237,4.867339c-2.648429,0 -4.803237,-2.183558 -4.803237,-4.867339l0,0z"></path>
    </g>
</svg>