<svg width="759" height="440" viewBox="0 0 759 440" fill="none" xmlns="http://www.w3.org/2000/svg">
<rect width="208.868" height="47" rx="4" fill="#C6CCDC"/>
<rect x="275.066" width="208.868" height="47" rx="4" fill="#C6CCDC"/>
<rect x="550.132" width="208.868" height="47" rx="4" fill="#101837"/>
<path d="M70.2957 30H75.5947C78.5926 30 80.0627 28.4723 80.0627 26.4332C80.0627 24.4517 78.6565 23.2884 77.263 23.218V23.0902C78.5414 22.7898 79.5514 21.8949 79.5514 20.3033C79.5514 18.3537 78.1451 16.9091 75.3071 16.9091H70.2957V30ZM72.6671 28.0185V24.1832H75.2815C76.7453 24.1832 77.6529 25.0781 77.6529 26.2479C77.6529 27.2898 76.937 28.0185 75.2176 28.0185H72.6671ZM72.6671 22.4766V18.8651H75.0642C76.4576 18.8651 77.1799 19.6001 77.1799 20.6101C77.1799 21.7607 76.2467 22.4766 75.013 22.4766H72.6671ZM82.0235 30H84.3374V24.228C84.3374 22.9815 85.277 22.0994 86.5491 22.0994C86.939 22.0994 87.4248 22.1697 87.6229 22.2337V20.1051C87.412 20.0668 87.0476 20.0412 86.792 20.0412C85.667 20.0412 84.7273 20.6804 84.3694 21.8182H84.2671V20.1818H82.0235V30ZM93.0386 30.1918C95.915 30.1918 97.7431 28.1655 97.7431 25.1293C97.7431 22.0866 95.915 20.054 93.0386 20.054C90.1622 20.054 88.334 22.0866 88.334 25.1293C88.334 28.1655 90.1622 30.1918 93.0386 30.1918ZM93.0514 28.3381C91.4597 28.3381 90.6799 26.919 90.6799 25.1229C90.6799 23.3267 91.4597 21.8885 93.0514 21.8885C94.6174 21.8885 95.3972 23.3267 95.3972 25.1229C95.3972 26.919 94.6174 28.3381 93.0514 28.3381ZM101.47 30H103.886L105.727 23.3651H105.861L107.702 30H110.112L112.892 20.1818H110.527L108.827 27.0469H108.731L106.967 20.1818H104.634L102.87 27.0852H102.78L101.054 20.1818H98.6955L101.47 30ZM122.268 22.777C121.948 21.1151 120.619 20.054 118.318 20.054C115.952 20.054 114.342 21.2173 114.348 23.0327C114.342 24.4645 115.224 25.4105 117.109 25.8004L118.784 26.152C119.685 26.3501 120.107 26.7145 120.107 27.2706C120.107 27.9418 119.379 28.4467 118.279 28.4467C117.218 28.4467 116.528 27.9865 116.33 27.1044L114.073 27.3217C114.361 29.1243 115.876 30.1918 118.286 30.1918C120.74 30.1918 122.472 28.9197 122.479 27.0597C122.472 25.6598 121.571 24.8033 119.717 24.4006L118.043 24.0426C117.046 23.8189 116.649 23.4737 116.656 22.9048C116.649 22.2401 117.384 21.7798 118.349 21.7798C119.417 21.7798 119.979 22.3615 120.158 23.0071L122.268 22.777ZM128.733 30.1918C131.022 30.1918 132.594 29.0732 133.003 27.3665L130.843 27.1236C130.53 27.9545 129.762 28.3892 128.765 28.3892C127.27 28.3892 126.279 27.4048 126.26 25.7237H133.099V25.0142C133.099 21.5689 131.028 20.054 128.612 20.054C125.799 20.054 123.965 22.1186 123.965 25.1484C123.965 28.2294 125.774 30.1918 128.733 30.1918ZM126.266 24.1641C126.336 22.9112 127.263 21.8565 128.644 21.8565C129.973 21.8565 130.868 22.8281 130.881 24.1641H126.266ZM135.057 30H137.371V24.228C137.371 22.9815 138.31 22.0994 139.582 22.0994C139.972 22.0994 140.458 22.1697 140.656 22.2337V20.1051C140.445 20.0668 140.081 20.0412 139.825 20.0412C138.7 20.0412 137.761 20.6804 137.403 21.8182H137.3V20.1818H135.057V30Z" fill="black"/>
<path d="M332.326 16.9091L337.088 25.1165V30H339.453V25.1165L344.215 16.9091H341.537L338.335 22.7003H338.207L335.004 16.9091H332.326ZM348.247 30.1918C351.124 30.1918 352.952 28.1655 352.952 25.1293C352.952 22.0866 351.124 20.054 348.247 20.054C345.371 20.054 343.543 22.0866 343.543 25.1293C343.543 28.1655 345.371 30.1918 348.247 30.1918ZM348.26 28.3381C346.668 28.3381 345.889 26.919 345.889 25.1229C345.889 23.3267 346.668 21.8885 348.26 21.8885C349.826 21.8885 350.606 23.3267 350.606 25.1229C350.606 26.919 349.826 28.3381 348.26 28.3381ZM361.174 25.8707C361.174 27.3665 360.106 28.108 359.083 28.108C357.971 28.108 357.23 27.3217 357.23 26.0753V20.1818H354.916V26.4332C354.916 28.7919 356.258 30.1278 358.188 30.1278C359.659 30.1278 360.694 29.3544 361.142 28.255H361.244V30H363.487V20.1818H361.174V25.8707ZM365.867 30H368.181V24.228C368.181 22.9815 369.12 22.0994 370.392 22.0994C370.782 22.0994 371.268 22.1697 371.466 22.2337V20.1051C371.255 20.0668 370.891 20.0412 370.635 20.0412C369.51 20.0412 368.571 20.6804 368.213 21.8182H368.11V20.1818H365.867V30ZM384.685 20.5078H386.967C386.922 18.2962 385.037 16.7301 382.25 16.7301C379.501 16.7301 377.436 18.277 377.443 20.5909C377.443 22.4702 378.779 23.5504 380.933 24.1065L382.422 24.4901C383.835 24.848 384.768 25.2891 384.775 26.3054C384.768 27.424 383.707 28.1719 382.16 28.1719C380.677 28.1719 379.527 27.5071 379.431 26.1328H377.098C377.194 28.7344 379.13 30.1982 382.179 30.1982C385.318 30.1982 387.14 28.6321 387.146 26.3246C387.14 24.0554 385.267 23.0199 383.298 22.5533L382.071 22.2464C380.997 21.9908 379.834 21.5369 379.846 20.4439C379.853 19.4595 380.735 18.7372 382.218 18.7372C383.63 18.7372 384.564 19.3956 384.685 20.5078ZM393.504 30.1918C395.793 30.1918 397.365 29.0732 397.774 27.3665L395.614 27.1236C395.301 27.9545 394.534 28.3892 393.536 28.3892C392.041 28.3892 391.05 27.4048 391.031 25.7237H397.87V25.0142C397.87 21.5689 395.799 20.054 393.383 20.054C390.571 20.054 388.736 22.1186 388.736 25.1484C388.736 28.2294 390.545 30.1918 393.504 30.1918ZM391.037 24.1641C391.107 22.9112 392.034 21.8565 393.415 21.8565C394.745 21.8565 395.639 22.8281 395.652 24.1641H391.037ZM399.828 30H402.142V24.228C402.142 22.9815 403.081 22.0994 404.353 22.0994C404.743 22.0994 405.229 22.1697 405.427 22.2337V20.1051C405.216 20.0668 404.852 20.0412 404.596 20.0412C403.471 20.0412 402.532 20.6804 402.174 21.8182H402.071V20.1818H399.828V30ZM416.033 20.1818H413.572L411.31 27.4751H411.207L408.951 20.1818H406.484L409.98 30H412.537L416.033 20.1818ZM421.647 30.1918C423.935 30.1918 425.508 29.0732 425.917 27.3665L423.756 27.1236C423.443 27.9545 422.676 28.3892 421.679 28.3892C420.183 28.3892 419.193 27.4048 419.173 25.7237H426.013V25.0142C426.013 21.5689 423.942 20.054 421.526 20.054C418.713 20.054 416.879 22.1186 416.879 25.1484C416.879 28.2294 418.688 30.1918 421.647 30.1918ZM419.18 24.1641C419.25 22.9112 420.177 21.8565 421.558 21.8565C422.887 21.8565 423.782 22.8281 423.795 24.1641H419.18ZM427.97 30H430.284V24.228C430.284 22.9815 431.224 22.0994 432.496 22.0994C432.886 22.0994 433.372 22.1697 433.57 22.2337V20.1051C433.359 20.0668 432.995 20.0412 432.739 20.0412C431.614 20.0412 430.674 20.6804 430.316 21.8182H430.214V20.1818H427.97V30Z" fill="black"/>
<path d="M609.174 18.897H613.22V30H615.572V18.897H619.619V16.9091H609.174V18.897ZM621.53 30H623.844V20.1818H621.53V30ZM622.693 18.7884C623.428 18.7884 624.029 18.2259 624.029 17.5355C624.029 16.8388 623.428 16.2763 622.693 16.2763C621.952 16.2763 621.351 16.8388 621.351 17.5355C621.351 18.2259 621.952 18.7884 622.693 18.7884ZM628.537 24.2472C628.537 22.8281 629.394 22.0099 630.615 22.0099C631.81 22.0099 632.526 22.7962 632.526 24.1065V30H634.84V23.7486C634.846 21.3963 633.504 20.054 631.477 20.054C630.007 20.054 628.997 20.7571 628.55 21.8501H628.435V20.1818H626.223V30H628.537V24.2472ZM638.279 33.6818C640.081 33.6818 641.123 32.755 641.679 31.1889L645.623 20.1946L643.149 20.1818L640.88 27.5966H640.778L638.515 20.1818H636.061L639.621 30.2045L639.423 30.7351C638.995 31.8537 638.317 31.9304 637.307 31.6364L636.77 33.4389C637.083 33.5668 637.646 33.6818 638.279 33.6818ZM663.001 21.326C662.599 18.4176 660.362 16.7301 657.46 16.7301C654.04 16.7301 651.464 19.223 651.464 23.4545C651.464 27.6797 654.008 30.179 657.46 30.179C660.572 30.179 662.637 28.1655 663.001 25.6662L660.611 25.6534C660.31 27.1875 659.058 28.0504 657.492 28.0504C655.369 28.0504 653.848 26.4588 653.848 23.4545C653.848 20.5014 655.357 18.8587 657.498 18.8587C659.09 18.8587 660.336 19.7599 660.611 21.326H663.001ZM667.385 16.9091H665.071V30H667.385V16.9091ZM674.047 30.1918C676.923 30.1918 678.751 28.1655 678.751 25.1293C678.751 22.0866 676.923 20.054 674.047 20.054C671.17 20.054 669.342 22.0866 669.342 25.1293C669.342 28.1655 671.17 30.1918 674.047 30.1918ZM674.06 28.3381C672.468 28.3381 671.688 26.919 671.688 25.1229C671.688 23.3267 672.468 21.8885 674.06 21.8885C675.626 21.8885 676.406 23.3267 676.406 25.1229C676.406 26.919 675.626 28.3381 674.06 28.3381ZM686.973 25.8707C686.973 27.3665 685.906 28.108 684.883 28.108C683.771 28.108 683.029 27.3217 683.029 26.0753V20.1818H680.715V26.4332C680.715 28.7919 682.058 30.1278 683.988 30.1278C685.458 30.1278 686.494 29.3544 686.941 28.255H687.044V30H689.287V20.1818H686.973V25.8707ZM695.31 30.1726C696.998 30.1726 697.758 29.169 698.123 28.4531H698.263V30H700.539V16.9091H698.218V21.8054H698.123C697.771 21.0959 697.049 20.054 695.316 20.054C693.047 20.054 691.264 21.831 691.264 25.1037C691.264 28.3381 692.996 30.1726 695.31 30.1726ZM695.956 28.2741C694.428 28.2741 693.623 26.9318 693.623 25.0909C693.623 23.2628 694.415 21.9524 695.956 21.9524C697.445 21.9524 698.263 23.1861 698.263 25.0909C698.263 26.9957 697.432 28.2741 695.956 28.2741Z" fill="white"/>
<path d="M105.222 407.354C105.417 407.549 105.733 407.549 105.929 407.354L109.111 404.172C109.306 403.976 109.306 403.66 109.111 403.464C108.915 403.269 108.599 403.269 108.404 403.464L105.575 406.293L102.747 403.464C102.551 403.269 102.235 403.269 102.04 403.464C101.844 403.66 101.844 403.976 102.04 404.172L105.222 407.354ZM105.075 47L105.075 49L106.075 49L106.075 47L105.075 47ZM105.075 53L105.075 57L106.075 57L106.075 53L105.075 53ZM105.075 61L105.075 65L106.075 65L106.075 61L105.075 61ZM105.075 69L105.075 73L106.075 73L106.075 69L105.075 69ZM105.075 77L105.075 81L106.075 81L106.075 77L105.075 77ZM105.075 85L105.075 89L106.075 89L106.075 85L105.075 85ZM105.075 93L105.075 97L106.075 97L106.075 93L105.075 93ZM105.075 101L105.075 105L106.075 105L106.075 101L105.075 101ZM105.075 109L105.075 113L106.075 113L106.075 109L105.075 109ZM105.075 117L105.075 121L106.075 121L106.075 117L105.075 117ZM105.075 125L105.075 129L106.075 129L106.075 125L105.075 125ZM105.075 133L105.075 137L106.075 137L106.075 133L105.075 133ZM105.075 141L105.075 145L106.075 145L106.075 141L105.075 141ZM105.075 149L105.075 153L106.075 153L106.075 149L105.075 149ZM105.075 157L105.075 161L106.075 161L106.075 157L105.075 157ZM105.075 165L105.075 169L106.075 169L106.075 165L105.075 165ZM105.075 173L105.075 177L106.075 177L106.075 173L105.075 173ZM105.075 181L105.075 185L106.075 185L106.075 181L105.075 181ZM105.075 189L105.075 193L106.075 193L106.075 189L105.075 189ZM105.075 197L105.075 201L106.075 201L106.075 197L105.075 197ZM105.075 205L105.075 209L106.075 209L106.075 205L105.075 205ZM105.075 213L105.075 217L106.075 217L106.075 213L105.075 213ZM105.075 221L105.075 225L106.075 225L106.075 221L105.075 221ZM105.075 229L105.075 233L106.075 233L106.075 229L105.075 229ZM105.075 237L105.075 241L106.075 241L106.075 237L105.075 237ZM105.075 245L105.075 249L106.075 249L106.075 245L105.075 245ZM105.075 253L105.075 257L106.075 257L106.075 253L105.075 253ZM105.075 261L105.075 265L106.075 265L106.075 261L105.075 261ZM105.075 269L105.075 273L106.075 273L106.075 269L105.075 269ZM105.075 277L105.075 281L106.075 281L106.075 277L105.075 277ZM105.075 285L105.075 289L106.075 289L106.075 285L105.075 285ZM105.075 293L105.075 297L106.075 297L106.075 293L105.075 293ZM105.075 301L105.075 305L106.075 305L106.075 301L105.075 301ZM105.075 309L105.075 313L106.075 313L106.075 309L105.075 309ZM105.075 317L105.075 321L106.075 321L106.075 317L105.075 317ZM105.075 325L105.075 329L106.075 329L106.075 325L105.075 325ZM105.075 333L105.075 337L106.075 337L106.075 333L105.075 333ZM105.075 341L105.075 345L106.075 345L106.075 341L105.075 341ZM105.075 349L105.075 353L106.075 353L106.075 349L105.075 349ZM105.075 357L105.075 361L106.075 361L106.075 357L105.075 357ZM105.075 365L105.075 369L106.075 369L106.075 365L105.075 365ZM105.075 373L105.075 377L106.075 377L106.075 373L105.075 373ZM105.075 381L105.075 385L106.075 385L106.075 381L105.075 381ZM105.075 389L105.075 393L106.075 393L106.075 389L105.075 389ZM105.075 397L105.075 401L106.075 401L106.075 397L105.075 397ZM105.075 405L105.075 407L106.075 407L106.075 405L105.075 405Z" fill="#A0AAC5"/>
<path d="M380.858 407.354C381.054 407.549 381.37 407.549 381.566 407.354L384.748 404.172C384.943 403.976 384.943 403.66 384.748 403.464C384.552 403.269 384.236 403.269 384.04 403.464L381.212 406.293L378.384 403.464C378.188 403.269 377.872 403.269 377.676 403.464C377.481 403.66 377.481 403.976 377.676 404.172L380.858 407.354ZM380.712 47L380.712 49L381.712 49L381.712 47L380.712 47ZM380.712 53L380.712 57L381.712 57L381.712 53L380.712 53ZM380.712 61L380.712 65L381.712 65L381.712 61L380.712 61ZM380.712 69L380.712 73L381.712 73L381.712 69L380.712 69ZM380.712 77L380.712 81L381.712 81L381.712 77L380.712 77ZM380.712 85L380.712 89L381.712 89L381.712 85L380.712 85ZM380.712 93L380.712 97L381.712 97L381.712 93L380.712 93ZM380.712 101L380.712 105L381.712 105L381.712 101L380.712 101ZM380.712 109L380.712 113L381.712 113L381.712 109L380.712 109ZM380.712 117L380.712 121L381.712 121L381.712 117L380.712 117ZM380.712 125L380.712 129L381.712 129L381.712 125L380.712 125ZM380.712 133L380.712 137L381.712 137L381.712 133L380.712 133ZM380.712 141L380.712 145L381.712 145L381.712 141L380.712 141ZM380.712 149L380.712 153L381.712 153L381.712 149L380.712 149ZM380.712 157L380.712 161L381.712 161L381.712 157L380.712 157ZM380.712 165L380.712 169L381.712 169L381.712 165L380.712 165ZM380.712 173L380.712 177L381.712 177L381.712 173L380.712 173ZM380.712 181L380.712 185L381.712 185L381.712 181L380.712 181ZM380.712 189L380.712 193L381.712 193L381.712 189L380.712 189ZM380.712 197L380.712 201L381.712 201L381.712 197L380.712 197ZM380.712 205L380.712 209L381.712 209L381.712 205L380.712 205ZM380.712 213L380.712 217L381.712 217L381.712 213L380.712 213ZM380.712 221L380.712 225L381.712 225L381.712 221L380.712 221ZM380.712 229L380.712 233L381.712 233L381.712 229L380.712 229ZM380.712 237L380.712 241L381.712 241L381.712 237L380.712 237ZM380.712 245L380.712 249L381.712 249L381.712 245L380.712 245ZM380.712 253L380.712 257L381.712 257L381.712 253L380.712 253ZM380.712 261L380.712 265L381.712 265L381.712 261L380.712 261ZM380.712 269L380.712 273L381.712 273L381.712 269L380.712 269ZM380.712 277L380.712 281L381.712 281L381.712 277L380.712 277ZM380.712 285L380.712 289L381.712 289L381.712 285L380.712 285ZM380.712 293L380.712 297L381.712 297L381.712 293L380.712 293ZM380.712 301L380.712 305L381.712 305L381.712 301L380.712 301ZM380.712 309L380.712 313L381.712 313L381.712 309L380.712 309ZM380.712 317L380.712 321L381.712 321L381.712 317L380.712 317ZM380.712 325L380.712 329L381.712 329L381.712 325L380.712 325ZM380.712 333L380.712 337L381.712 337L381.712 333L380.712 333ZM380.712 341L380.712 345L381.712 345L381.712 341L380.712 341ZM380.712 349L380.712 353L381.712 353L381.712 349L380.712 349ZM380.712 357L380.712 361L381.712 361L381.712 357L380.712 357ZM380.712 365L380.712 369L381.712 369L381.712 365L380.712 365ZM380.712 373L380.712 377L381.712 377L381.712 373L380.712 373ZM380.712 381L380.712 385L381.712 385L381.712 381L380.712 381ZM380.712 389L380.712 393L381.712 393L381.712 389L380.712 389ZM380.712 397L380.712 401L381.712 401L381.712 397L380.712 397ZM380.712 405L380.712 407L381.712 407L381.712 405L380.712 405Z" fill="#A0AAC5"/>
<path d="M654.213 407.354C654.408 407.549 654.724 407.549 654.92 407.354L658.102 404.172C658.297 403.976 658.297 403.66 658.102 403.464C657.906 403.269 657.59 403.269 657.395 403.464L654.566 406.293L651.738 403.464C651.542 403.269 651.226 403.269 651.031 403.464C650.835 403.66 650.835 403.976 651.031 404.172L654.213 407.354ZM654.066 47L654.066 49L655.066 49L655.066 47L654.066 47ZM654.066 53L654.066 57L655.066 57L655.066 53L654.066 53ZM654.066 61L654.066 65L655.066 65L655.066 61L654.066 61ZM654.066 69L654.066 73L655.066 73L655.066 69L654.066 69ZM654.066 77L654.066 81L655.066 81L655.066 77L654.066 77ZM654.066 85L654.066 89L655.066 89L655.066 85L654.066 85ZM654.066 93L654.066 97L655.066 97L655.066 93L654.066 93ZM654.066 101L654.066 105L655.066 105L655.066 101L654.066 101ZM654.066 109L654.066 113L655.066 113L655.066 109L654.066 109ZM654.066 117L654.066 121L655.066 121L655.066 117L654.066 117ZM654.066 125L654.066 129L655.066 129L655.066 125L654.066 125ZM654.066 133L654.066 137L655.066 137L655.066 133L654.066 133ZM654.066 141L654.066 145L655.066 145L655.066 141L654.066 141ZM654.066 149L654.066 153L655.066 153L655.066 149L654.066 149ZM654.066 157L654.066 161L655.066 161L655.066 157L654.066 157ZM654.066 165L654.066 169L655.066 169L655.066 165L654.066 165ZM654.066 173L654.066 177L655.066 177L655.066 173L654.066 173ZM654.066 181L654.066 185L655.066 185L655.066 181L654.066 181ZM654.066 189L654.066 193L655.066 193L655.066 189L654.066 189ZM654.066 197L654.066 201L655.066 201L655.066 197L654.066 197ZM654.066 205L654.066 209L655.066 209L655.066 205L654.066 205ZM654.066 213L654.066 217L655.066 217L655.066 213L654.066 213ZM654.066 221L654.066 225L655.066 225L655.066 221L654.066 221ZM654.066 229L654.066 233L655.066 233L655.066 229L654.066 229ZM654.066 237L654.066 241L655.066 241L655.066 237L654.066 237ZM654.066 245L654.066 249L655.066 249L655.066 245L654.066 245ZM654.066 253L654.066 257L655.066 257L655.066 253L654.066 253ZM654.066 261L654.066 265L655.066 265L655.066 261L654.066 261ZM654.066 269L654.066 273L655.066 273L655.066 269L654.066 269ZM654.066 277L654.066 281L655.066 281L655.066 277L654.066 277ZM654.066 285L654.066 289L655.066 289L655.066 285L654.066 285ZM654.066 293L654.066 297L655.066 297L655.066 293L654.066 293ZM654.066 301L654.066 305L655.066 305L655.066 301L654.066 301ZM654.066 309L654.066 313L655.066 313L655.066 309L654.066 309ZM654.066 317L654.066 321L655.066 321L655.066 317L654.066 317ZM654.066 325L654.066 329L655.066 329L655.066 325L654.066 325ZM654.066 333L654.066 337L655.066 337L655.066 333L654.066 333ZM654.066 341L654.066 345L655.066 345L655.066 341L654.066 341ZM654.066 349L654.066 353L655.066 353L655.066 349L654.066 349ZM654.066 357L654.066 361L655.066 361L655.066 357L654.066 357ZM654.066 365L654.066 369L655.066 369L655.066 365L654.066 365ZM654.066 373L654.066 377L655.066 377L655.066 373L654.066 373ZM654.066 381L654.066 385L655.066 385L655.066 381L654.066 381ZM654.066 389L654.066 393L655.066 393L655.066 389L654.066 389ZM654.066 397L654.066 401L655.066 401L655.066 397L654.066 397ZM654.066 405L654.066 407L655.066 407L655.066 405L654.066 405Z" fill="#A0AAC5"/>
<path d="M100.372 105L106.146 110.774L111.919 105L106.146 99.2265L100.372 105ZM378.495 105.707C378.886 105.317 378.886 104.683 378.495 104.293L372.131 97.9289C371.741 97.5384 371.107 97.5384 370.717 97.9289C370.326 98.3195 370.326 98.9526 370.717 99.3431L376.374 105L370.717 110.657C370.326 111.047 370.326 111.681 370.717 112.071C371.107 112.462 371.741 112.462 372.131 112.071L378.495 105.707ZM106.146 106H377.788V104H106.146V106Z" fill="#A0AAC5"/>
<path d="M107.721 203.293C107.331 203.683 107.331 204.317 107.721 204.707L114.085 211.071C114.476 211.462 115.109 211.462 115.5 211.071C115.89 210.681 115.89 210.047 115.5 209.657L109.843 204L115.5 198.343C115.89 197.953 115.89 197.319 115.5 196.929C115.109 196.538 114.476 196.538 114.085 196.929L107.721 203.293ZM386.986 204L381.212 198.227L375.439 204L381.212 209.774L386.986 204ZM108.429 205L381.212 205L381.212 203L108.429 203L108.429 205Z" fill="#A0AAC5"/>
<path d="M107.721 378.293C107.331 378.683 107.331 379.317 107.721 379.707L114.085 386.071C114.476 386.462 115.109 386.462 115.5 386.071C115.89 385.681 115.89 385.047 115.5 384.657L109.843 379L115.5 373.343C115.89 372.953 115.89 372.319 115.5 371.929C115.109 371.538 114.476 371.538 114.085 371.929L107.721 378.293ZM660.91 379L655.137 373.227L649.363 379L655.137 384.774L660.91 379ZM108.429 380L655.137 380L655.137 378L108.429 378L108.429 380Z" fill="#101837"/>
<path d="M100.372 260L106.146 265.774L111.919 260L106.146 254.226L100.372 260ZM652.42 260.707C652.81 260.317 652.81 259.683 652.42 259.293L646.056 252.929C645.665 252.538 645.032 252.538 644.642 252.929C644.251 253.319 644.251 253.953 644.642 254.343L650.299 260L644.642 265.657C644.251 266.047 644.251 266.681 644.642 267.071C645.032 267.462 645.665 267.462 646.056 267.071L652.42 260.707ZM106.146 261L651.713 261L651.713 259L106.146 259L106.146 261Z" fill="#A0AAC5"/>
<path d="M370.395 427.364H368.764V425.534H367.591V427.364H366.438V428.358H367.591V433.131C367.591 434.463 368.665 435.099 369.659 435.099C370.097 435.099 370.375 435.02 370.534 434.96L370.295 433.906C370.196 433.926 370.037 433.966 369.778 433.966C369.261 433.966 368.764 433.807 368.764 432.812V428.358H370.395V427.364ZM372.16 435H373.333V427.364H372.16V435ZM372.756 426.091C373.214 426.091 373.592 425.733 373.592 425.295C373.592 424.858 373.214 424.5 372.756 424.5C372.299 424.5 371.921 424.858 371.921 425.295C371.921 425.733 372.299 426.091 372.756 426.091ZM375.482 435H376.655V430.227C376.655 429.109 377.471 428.318 378.385 428.318C379.275 428.318 379.897 428.9 379.897 429.77V435H381.09V430.028C381.09 429.044 381.706 428.318 382.78 428.318C383.616 428.318 384.331 428.761 384.331 429.889V435H385.505V429.889C385.505 428.094 384.54 427.264 383.178 427.264C382.084 427.264 381.284 427.766 380.891 428.557H380.812C380.434 427.741 379.768 427.264 378.763 427.264C377.769 427.264 377.033 427.741 376.715 428.557H376.616V427.364H375.482V435ZM390.852 435.159C392.403 435.159 393.536 434.384 393.894 433.23L392.761 432.912C392.463 433.707 391.771 434.105 390.852 434.105C389.475 434.105 388.525 433.215 388.47 431.58H394.014V431.082C394.014 428.239 392.323 427.264 390.732 427.264C388.664 427.264 387.292 428.895 387.292 431.241C387.292 433.588 388.644 435.159 390.852 435.159ZM388.47 430.565C388.55 429.377 389.39 428.318 390.732 428.318C392.005 428.318 392.82 429.273 392.82 430.565H388.47Z" fill="#C6CCDC"/>
<path d="M130.206 94H131.439V90.0227H133.666C133.756 90.0227 133.84 90.0227 133.925 90.0178L136.072 94H137.504L135.202 89.794C136.5 89.3516 137.106 88.2926 137.106 86.9403C137.106 85.1406 136.033 83.8182 133.646 83.8182H130.206V94ZM131.439 88.9091V84.9119H133.606C135.257 84.9119 135.893 85.7173 135.893 86.9403C135.893 88.1634 135.257 88.9091 133.626 88.9091H131.439ZM142.122 94.1591C143.673 94.1591 144.806 93.3835 145.164 92.2301L144.031 91.9119C143.732 92.7074 143.041 93.1051 142.122 93.1051C140.744 93.1051 139.795 92.2152 139.74 90.5795H145.283V90.0824C145.283 87.2386 143.593 86.2642 142.002 86.2642C139.934 86.2642 138.562 87.8949 138.562 90.2415C138.562 92.5881 139.914 94.1591 142.122 94.1591ZM139.74 89.5653C139.82 88.3771 140.66 87.3182 142.002 87.3182C143.275 87.3182 144.09 88.2727 144.09 89.5653H139.74ZM153.452 96.8636V86.3636H152.318V87.5767H152.179C151.921 87.179 151.463 86.2642 149.972 86.2642C148.043 86.2642 146.71 87.7955 146.71 90.2017C146.71 92.6278 148.043 94.1591 149.952 94.1591C151.423 94.1591 151.921 93.2443 152.179 92.8267H152.279V96.8636H153.452ZM152.298 90.1818C152.298 91.9119 151.523 93.1051 150.111 93.1051C148.639 93.1051 147.884 91.8125 147.884 90.1818C147.884 88.571 148.619 87.3182 150.111 87.3182C151.543 87.3182 152.298 88.4716 152.298 90.1818ZM160.412 90.8778C160.412 92.3097 159.318 92.9659 158.443 92.9659C157.469 92.9659 156.773 92.25 156.773 91.1364V86.3636H155.6V91.2159C155.6 93.1648 156.634 94.0994 158.065 94.0994C159.219 94.0994 159.975 93.483 160.332 92.7074H160.412V94H161.585V86.3636H160.412V90.8778ZM166.936 94.1591C168.487 94.1591 169.621 93.3835 169.979 92.2301L168.845 91.9119C168.547 92.7074 167.856 93.1051 166.936 93.1051C165.559 93.1051 164.609 92.2152 164.555 90.5795H170.098V90.0824C170.098 87.2386 168.408 86.2642 166.817 86.2642C164.748 86.2642 163.376 87.8949 163.376 90.2415C163.376 92.5881 164.729 94.1591 166.936 94.1591ZM164.555 89.5653C164.634 88.3771 165.474 87.3182 166.817 87.3182C168.089 87.3182 168.905 88.2727 168.905 89.5653H164.555ZM177.292 88.0739C176.924 86.9901 176.099 86.2642 174.587 86.2642C172.976 86.2642 171.783 87.179 171.783 88.4716C171.783 89.5256 172.41 90.2315 173.812 90.5597L175.084 90.858C175.855 91.0369 176.218 91.4048 176.218 91.9318C176.218 92.5881 175.522 93.125 174.428 93.125C173.469 93.125 172.867 92.7124 172.658 91.892L171.545 92.1705C171.818 93.468 172.887 94.1591 174.448 94.1591C176.223 94.1591 177.431 93.1896 177.431 91.8722C177.431 90.8082 176.765 90.1371 175.403 89.804L174.269 89.5256C173.364 89.3018 172.957 88.9986 172.957 88.4119C172.957 87.7557 173.653 87.2784 174.587 87.2784C175.611 87.2784 176.034 87.8452 176.238 88.3722L177.292 88.0739ZM182.518 86.3636H180.888V84.5341H179.714V86.3636H178.561V87.358H179.714V92.1307C179.714 93.4631 180.788 94.0994 181.782 94.0994C182.22 94.0994 182.498 94.0199 182.657 93.9602L182.419 92.9062C182.319 92.9261 182.16 92.9659 181.902 92.9659C181.385 92.9659 180.888 92.8068 180.888 91.8125V87.358H182.518V86.3636ZM192.277 83.8182V91.0966C192.277 92.3643 191.671 93.0455 190.607 93.0455C189.638 93.0455 188.937 92.4787 188.937 91.6136H187.723C187.723 93.1797 188.937 94.1392 190.607 94.1392C192.377 94.1392 193.51 93.0504 193.51 91.0966V83.8182H192.277ZM197.831 94H199.103L201.351 85.8864H201.43L203.677 94H204.95L207.734 83.8182H206.481L204.353 92.1108H204.254L202.086 83.8182H200.694L198.527 92.1108H198.427L196.299 83.8182H195.047L197.831 94ZM208.714 84.9119H211.915V94H213.148V84.9119H216.35V83.8182H208.714V84.9119ZM225.432 86.3636H223.722V85.5881C223.722 84.8324 224.04 84.4347 224.815 84.4347C225.153 84.4347 225.352 84.5142 225.472 84.554L225.81 83.5398C225.631 83.4602 225.273 83.3409 224.696 83.3409C223.602 83.3409 222.548 83.9972 222.548 85.3097V86.3636H221.315V87.358H222.548V94H223.722V87.358H225.432V86.3636ZM229.864 94.1591C231.932 94.1591 233.324 92.5881 233.324 90.2216C233.324 87.8352 231.932 86.2642 229.864 86.2642C227.796 86.2642 226.404 87.8352 226.404 90.2216C226.404 92.5881 227.796 94.1591 229.864 94.1591ZM229.864 93.1051C228.293 93.1051 227.577 91.7528 227.577 90.2216C227.577 88.6903 228.293 87.3182 229.864 87.3182C231.435 87.3182 232.151 88.6903 232.151 90.2216C232.151 91.7528 231.435 93.1051 229.864 93.1051ZM235.115 94H236.288V89.1676C236.288 88.1335 237.104 87.3778 238.217 87.3778C238.531 87.3778 238.854 87.4375 238.933 87.4574V86.2642C238.799 86.2543 238.491 86.2443 238.317 86.2443C237.402 86.2443 236.607 86.7614 236.328 87.517H236.249V86.3636H235.115V94ZM249.074 90.8778C249.074 92.3097 247.98 92.9659 247.105 92.9659C246.131 92.9659 245.435 92.25 245.435 91.1364V86.3636H244.262V91.2159C244.262 93.1648 245.296 94.0994 246.728 94.0994C247.881 94.0994 248.637 93.483 248.995 92.7074H249.074V94H250.247V86.3636H249.074V90.8778ZM257.805 88.0739C257.438 86.9901 256.612 86.2642 255.101 86.2642C253.49 86.2642 252.297 87.179 252.297 88.4716C252.297 89.5256 252.923 90.2315 254.325 90.5597L255.598 90.858C256.369 91.0369 256.732 91.4048 256.732 91.9318C256.732 92.5881 256.036 93.125 254.942 93.125C253.982 93.125 253.381 92.7124 253.172 91.892L252.058 92.1705C252.332 93.468 253.401 94.1591 254.962 94.1591C256.737 94.1591 257.945 93.1896 257.945 91.8722C257.945 90.8082 257.279 90.1371 255.916 89.804L254.783 89.5256C253.878 89.3018 253.47 88.9986 253.47 88.4119C253.47 87.7557 254.166 87.2784 255.101 87.2784C256.125 87.2784 256.548 87.8452 256.752 88.3722L257.805 88.0739ZM262.913 94.1591C264.464 94.1591 265.597 93.3835 265.955 92.2301L264.822 91.9119C264.523 92.7074 263.832 93.1051 262.913 93.1051C261.535 93.1051 260.586 92.2152 260.531 90.5795H266.074V90.0824C266.074 87.2386 264.384 86.2642 262.793 86.2642C260.725 86.2642 259.353 87.8949 259.353 90.2415C259.353 92.5881 260.705 94.1591 262.913 94.1591ZM260.531 89.5653C260.611 88.3771 261.451 87.3182 262.793 87.3182C264.066 87.3182 264.881 88.2727 264.881 89.5653H260.531ZM267.859 94H269.033V89.1676C269.033 88.1335 269.848 87.3778 270.962 87.3778C271.275 87.3778 271.598 87.4375 271.677 87.4574V86.2642C271.543 86.2543 271.235 86.2443 271.061 86.2443C270.146 86.2443 269.351 86.7614 269.072 87.517H268.993V86.3636H267.859V94Z" fill="black"/>
<path d="M135.774 185.364H136.967C136.913 183.827 135.496 182.679 133.527 182.679C131.578 182.679 130.047 183.812 130.047 185.523C130.047 186.895 131.041 187.71 132.632 188.168L133.885 188.526C134.959 188.824 135.913 189.202 135.913 190.216C135.913 191.33 134.839 192.065 133.427 192.065C132.214 192.065 131.141 191.528 131.041 190.375H129.768C129.888 192.045 131.24 193.179 133.427 193.179C135.774 193.179 137.106 191.886 137.106 190.236C137.106 188.327 135.297 187.71 134.243 187.432L133.209 187.153C132.453 186.955 131.24 186.557 131.24 185.463C131.24 184.489 132.135 183.773 133.487 183.773C134.72 183.773 135.655 184.359 135.774 185.364ZM138.974 193H140.148V185.364H138.974V193ZM139.571 184.091C140.028 184.091 140.406 183.733 140.406 183.295C140.406 182.858 140.028 182.5 139.571 182.5C139.114 182.5 138.736 182.858 138.736 183.295C138.736 183.733 139.114 184.091 139.571 184.091ZM145.379 196.023C147.209 196.023 148.68 195.188 148.68 193.219V185.364H147.547V186.577H147.427C147.169 186.179 146.692 185.264 145.2 185.264C143.271 185.264 141.939 186.795 141.939 189.142C141.939 191.528 143.331 192.881 145.18 192.881C146.672 192.881 147.149 192.006 147.408 191.588H147.507V193.139C147.507 194.412 146.612 194.989 145.379 194.989C143.992 194.989 143.505 194.258 143.192 193.835L142.257 194.491C142.734 195.292 143.674 196.023 145.379 196.023ZM145.339 191.827C143.868 191.827 143.112 190.713 143.112 189.122C143.112 187.571 143.848 186.318 145.339 186.318C146.771 186.318 147.527 187.472 147.527 189.122C147.527 190.812 146.751 191.827 145.339 191.827ZM152.001 188.406C152.001 187.074 152.827 186.318 153.95 186.318C155.039 186.318 155.7 187.029 155.7 188.227V193H156.873V188.148C156.873 186.199 155.834 185.264 154.288 185.264C153.135 185.264 152.419 185.781 152.061 186.557H151.962V185.364H150.828V193H152.001V188.406ZM162.219 193.159C163.77 193.159 164.904 192.384 165.262 191.23L164.128 190.912C163.83 191.707 163.139 192.105 162.219 192.105C160.842 192.105 159.892 191.215 159.838 189.58H165.381V189.082C165.381 186.239 163.691 185.264 162.1 185.264C160.032 185.264 158.66 186.895 158.66 189.241C158.66 191.588 160.012 193.159 162.219 193.159ZM159.838 188.565C159.917 187.377 160.758 186.318 162.1 186.318C163.373 186.318 164.188 187.273 164.188 188.565H159.838ZM170.049 193.159C171.521 193.159 172.018 192.244 172.277 191.827H172.416V193H173.549V182.818H172.376V186.577H172.277C172.018 186.179 171.561 185.264 170.069 185.264C168.14 185.264 166.808 186.795 166.808 189.202C166.808 191.628 168.14 193.159 170.049 193.159ZM170.209 192.105C168.737 192.105 167.981 190.812 167.981 189.182C167.981 187.571 168.717 186.318 170.209 186.318C171.64 186.318 172.396 187.472 172.396 189.182C172.396 190.912 171.62 192.105 170.209 192.105ZM183.856 182.818V190.097C183.856 191.364 183.249 192.045 182.185 192.045C181.216 192.045 180.515 191.479 180.515 190.614H179.302C179.302 192.18 180.515 193.139 182.185 193.139C183.955 193.139 185.088 192.05 185.088 190.097V182.818H183.856ZM189.409 193H190.682L192.929 184.886H193.008L195.255 193H196.528L199.312 182.818H198.059L195.932 191.111H195.832L193.664 182.818H192.272L190.105 191.111H190.005L187.878 182.818H186.625L189.409 193ZM200.292 183.912H203.493V193H204.726V183.912H207.928V182.818H200.292V183.912Z" fill="black"/>
<rect width="152" height="60" transform="translate(579 290)" fill="white"/>
<path d="M594.131 304.818V312.097C594.131 313.364 593.524 314.045 592.46 314.045C591.491 314.045 590.79 313.479 590.79 312.614H589.577C589.577 314.18 590.79 315.139 592.46 315.139C594.23 315.139 595.364 314.05 595.364 312.097V304.818H594.131ZM599.684 315H600.957L603.204 306.886H603.283L605.531 315H606.803L609.587 304.818H608.335L606.207 313.111H606.107L603.94 304.818H602.548L600.38 313.111H600.281L598.153 304.818H596.9L599.684 315ZM610.567 305.912H613.768V315H615.001V305.912H618.203V304.818H610.567V305.912ZM623.884 315H625.058V307.364H623.884V315ZM624.481 306.091C624.938 306.091 625.316 305.733 625.316 305.295C625.316 304.858 624.938 304.5 624.481 304.5C624.024 304.5 623.646 304.858 623.646 305.295C623.646 305.733 624.024 306.091 624.481 306.091ZM632.616 309.074C632.248 307.99 631.423 307.264 629.911 307.264C628.3 307.264 627.107 308.179 627.107 309.472C627.107 310.526 627.734 311.232 629.136 311.56L630.408 311.858C631.179 312.037 631.542 312.405 631.542 312.932C631.542 313.588 630.846 314.125 629.752 314.125C628.793 314.125 628.191 313.712 627.982 312.892L626.869 313.17C627.142 314.468 628.211 315.159 629.772 315.159C631.547 315.159 632.755 314.19 632.755 312.872C632.755 311.808 632.089 311.137 630.727 310.804L629.593 310.526C628.688 310.302 628.281 309.999 628.281 309.412C628.281 308.756 628.977 308.278 629.911 308.278C630.935 308.278 631.358 308.845 631.562 309.372L632.616 309.074ZM644.703 307.364H643.43L641.322 313.449H641.243L639.135 307.364H637.862L640.686 315H641.879L644.703 307.364ZM649.18 315.159C650.731 315.159 651.865 314.384 652.222 313.23L651.089 312.912C650.791 313.707 650.1 314.105 649.18 314.105C647.803 314.105 646.853 313.215 646.798 311.58H652.342V311.082C652.342 308.239 650.651 307.264 649.061 307.264C646.992 307.264 645.62 308.895 645.62 311.241C645.62 313.588 646.972 315.159 649.18 315.159ZM646.798 310.565C646.878 309.377 647.718 308.318 649.061 308.318C650.333 308.318 651.149 309.273 651.149 310.565H646.798ZM654.127 315H655.3V310.168C655.3 309.134 656.115 308.378 657.229 308.378C657.542 308.378 657.865 308.438 657.945 308.457V307.264C657.811 307.254 657.502 307.244 657.328 307.244C656.414 307.244 655.618 307.761 655.34 308.517H655.26V307.364H654.127V315ZM659.336 315H660.509V307.364H659.336V315ZM659.932 306.091C660.39 306.091 660.767 305.733 660.767 305.295C660.767 304.858 660.39 304.5 659.932 304.5C659.475 304.5 659.097 304.858 659.097 305.295C659.097 305.733 659.475 306.091 659.932 306.091ZM666.058 307.364H664.348V306.588C664.348 305.832 664.666 305.435 665.442 305.435C665.78 305.435 665.979 305.514 666.098 305.554L666.436 304.54C666.257 304.46 665.899 304.341 665.323 304.341C664.229 304.341 663.175 304.997 663.175 306.31V307.364H661.942V308.358H663.175V315H664.348V308.358H666.058V307.364ZM667.703 315H668.876V307.364H667.703V315ZM668.299 306.091C668.757 306.091 669.135 305.733 669.135 305.295C669.135 304.858 668.757 304.5 668.299 304.5C667.842 304.5 667.464 304.858 667.464 305.295C667.464 305.733 667.842 306.091 668.299 306.091ZM674.227 315.159C675.778 315.159 676.911 314.384 677.269 313.23L676.136 312.912C675.838 313.707 675.146 314.105 674.227 314.105C672.85 314.105 671.9 313.215 671.845 311.58H677.389V311.082C677.389 308.239 675.698 307.264 674.107 307.264C672.039 307.264 670.667 308.895 670.667 311.241C670.667 313.588 672.019 315.159 674.227 315.159ZM671.845 310.565C671.925 309.377 672.765 308.318 674.107 308.318C675.38 308.318 676.195 309.273 676.195 310.565H671.845ZM682.057 315.159C683.529 315.159 684.026 314.244 684.284 313.827H684.423V315H685.557V304.818H684.384V308.577H684.284C684.026 308.179 683.568 307.264 682.077 307.264C680.148 307.264 678.816 308.795 678.816 311.202C678.816 313.628 680.148 315.159 682.057 315.159ZM682.216 314.105C680.744 314.105 679.989 312.812 679.989 311.182C679.989 309.571 680.725 308.318 682.216 308.318C683.648 308.318 684.404 309.472 684.404 311.182C684.404 312.912 683.628 314.105 682.216 314.105ZM594.886 331.878C594.886 333.31 593.793 333.966 592.918 333.966C591.943 333.966 591.247 333.25 591.247 332.136V327.364H590.074V332.216C590.074 334.165 591.108 335.099 592.54 335.099C593.693 335.099 594.449 334.483 594.807 333.707H594.886V335H596.06V327.364H594.886V331.878ZM603.618 329.074C603.25 327.99 602.425 327.264 600.913 327.264C599.302 327.264 598.109 328.179 598.109 329.472C598.109 330.526 598.736 331.232 600.138 331.56L601.41 331.858C602.181 332.037 602.544 332.405 602.544 332.932C602.544 333.588 601.848 334.125 600.754 334.125C599.795 334.125 599.193 333.712 598.984 332.892L597.871 333.17C598.144 334.468 599.213 335.159 600.774 335.159C602.549 335.159 603.757 334.19 603.757 332.872C603.757 331.808 603.091 331.137 601.729 330.804L600.595 330.526C599.69 330.302 599.282 329.999 599.282 329.412C599.282 328.756 599.979 328.278 600.913 328.278C601.937 328.278 602.36 328.845 602.564 329.372L603.618 329.074ZM605.523 335H606.696V327.364H605.523V335ZM606.12 326.091C606.577 326.091 606.955 325.733 606.955 325.295C606.955 324.858 606.577 324.5 606.12 324.5C605.662 324.5 605.284 324.858 605.284 325.295C605.284 325.733 605.662 326.091 606.12 326.091ZM610.019 330.406C610.019 329.074 610.844 328.318 611.968 328.318C613.056 328.318 613.718 329.029 613.718 330.227V335H614.891V330.148C614.891 328.199 613.852 327.264 612.306 327.264C611.152 327.264 610.436 327.781 610.078 328.557H609.979V327.364H608.845V335H610.019V330.406ZM620.117 338.023C621.947 338.023 623.418 337.188 623.418 335.219V327.364H622.285V328.577H622.165C621.907 328.179 621.43 327.264 619.938 327.264C618.009 327.264 616.677 328.795 616.677 331.142C616.677 333.528 618.069 334.881 619.918 334.881C621.41 334.881 621.887 334.006 622.146 333.588H622.245V335.139C622.245 336.412 621.35 336.989 620.117 336.989C618.73 336.989 618.243 336.258 617.93 335.835L616.995 336.491C617.472 337.292 618.412 338.023 620.117 338.023ZM620.077 333.827C618.606 333.827 617.85 332.713 617.85 331.122C617.85 329.571 618.586 328.318 620.077 328.318C621.509 328.318 622.265 329.472 622.265 331.122C622.265 332.812 621.489 333.827 620.077 333.827ZM632.825 327.364H631.194V325.534H630.021V327.364H628.867V328.358H630.021V333.131C630.021 334.463 631.094 335.099 632.089 335.099C632.526 335.099 632.805 335.02 632.964 334.96L632.725 333.906C632.626 333.926 632.467 333.966 632.208 333.966C631.691 333.966 631.194 333.807 631.194 332.812V328.358H632.825V327.364ZM635.927 330.406C635.927 329.074 636.777 328.318 637.935 328.318C639.039 328.318 639.705 329.014 639.705 330.227V335H640.879V330.148C640.879 328.184 639.835 327.264 638.273 327.264C637.07 327.264 636.384 327.766 636.026 328.557H635.927V324.818H634.754V335H635.927V330.406ZM646.227 335.159C647.778 335.159 648.911 334.384 649.269 333.23L648.136 332.912C647.838 333.707 647.146 334.105 646.227 334.105C644.85 334.105 643.9 333.215 643.845 331.58H649.389V331.082C649.389 328.239 647.698 327.264 646.107 327.264C644.039 327.264 642.667 328.895 642.667 331.241C642.667 333.588 644.019 335.159 646.227 335.159ZM643.845 330.565C643.925 329.377 644.765 328.318 646.107 328.318C647.38 328.318 648.195 329.273 648.195 330.565H643.845ZM655.111 337.864H656.284V333.827H656.384C656.642 334.244 657.139 335.159 658.611 335.159C660.52 335.159 661.852 333.628 661.852 331.202C661.852 328.795 660.52 327.264 658.591 327.264C657.1 327.264 656.642 328.179 656.384 328.577H656.244V327.364H655.111V337.864ZM656.264 331.182C656.264 329.472 657.02 328.318 658.452 328.318C659.943 328.318 660.679 329.571 660.679 331.182C660.679 332.812 659.923 334.105 658.452 334.105C657.04 334.105 656.264 332.912 656.264 331.182ZM668.455 331.878C668.455 333.31 667.361 333.966 666.486 333.966C665.512 333.966 664.816 333.25 664.816 332.136V327.364H663.642V332.216C663.642 334.165 664.676 335.099 666.108 335.099C667.262 335.099 668.017 334.483 668.375 333.707H668.455V335H669.628V327.364H668.455V331.878ZM671.936 335H673.07V333.827H673.209C673.467 334.244 673.964 335.159 675.436 335.159C677.345 335.159 678.678 333.628 678.678 331.202C678.678 328.795 677.345 327.264 675.416 327.264C673.925 327.264 673.467 328.179 673.209 328.577H673.109V324.818H671.936V335ZM673.089 331.182C673.089 329.472 673.845 328.318 675.277 328.318C676.768 328.318 677.504 329.571 677.504 331.182C677.504 332.812 676.749 334.105 675.277 334.105C673.865 334.105 673.089 332.912 673.089 331.182ZM681.646 324.818H680.472V335H681.646V324.818ZM683.795 335H684.968V327.364H683.795V335ZM684.391 326.091C684.849 326.091 685.226 325.733 685.226 325.295C685.226 324.858 684.849 324.5 684.391 324.5C683.934 324.5 683.556 324.858 683.556 325.295C683.556 325.733 683.934 326.091 684.391 326.091ZM690.219 335.159C691.909 335.159 693.023 334.125 693.222 332.773H692.049C691.83 333.608 691.134 334.105 690.219 334.105C688.827 334.105 687.932 332.952 687.932 331.182C687.932 329.452 688.847 328.318 690.219 328.318C691.253 328.318 691.87 328.955 692.049 329.651H693.222C693.023 328.219 691.81 327.264 690.199 327.264C688.131 327.264 686.759 328.895 686.759 331.222C686.759 333.509 688.071 335.159 690.219 335.159ZM698.875 335H700.048V332.141L700.868 331.381L703.727 335H705.218L701.753 330.625L704.98 327.364H703.528L700.187 330.764H700.048V324.818H698.875V335ZM709.377 335.159C710.928 335.159 712.062 334.384 712.42 333.23L711.286 332.912C710.988 333.707 710.297 334.105 709.377 334.105C708 334.105 707.05 333.215 706.996 331.58H712.539V331.082C712.539 328.239 710.849 327.264 709.258 327.264C707.19 327.264 705.817 328.895 705.817 331.241C705.817 333.588 707.17 335.159 709.377 335.159ZM706.996 330.565C707.075 329.377 707.915 328.318 709.258 328.318C710.531 328.318 711.346 329.273 711.346 330.565H706.996ZM714.847 337.864C715.906 337.864 716.652 337.302 717.094 336.114L720.346 327.384L719.063 327.364L716.955 333.449H716.876L714.768 327.364H713.495L716.319 335.04L716.1 335.636C715.672 336.8 715.145 336.909 714.29 336.69L713.992 337.724C714.111 337.784 714.449 337.864 714.847 337.864Z" fill="#7A88AE"/>
<rect width="221" height="40" transform="translate(272 134)" fill="white"/>
<path d="M287.886 155.878C287.886 157.31 286.793 157.966 285.918 157.966C284.943 157.966 284.247 157.25 284.247 156.136V151.364H283.074V156.216C283.074 158.165 284.108 159.099 285.54 159.099C286.693 159.099 287.449 158.483 287.807 157.707H287.886V159H289.06V151.364H287.886V155.878ZM296.618 153.074C296.25 151.99 295.425 151.264 293.913 151.264C292.302 151.264 291.109 152.179 291.109 153.472C291.109 154.526 291.736 155.232 293.138 155.56L294.41 155.858C295.181 156.037 295.544 156.405 295.544 156.932C295.544 157.588 294.848 158.125 293.754 158.125C292.795 158.125 292.193 157.712 291.984 156.892L290.871 157.17C291.144 158.468 292.213 159.159 293.774 159.159C295.549 159.159 296.757 158.19 296.757 156.872C296.757 155.808 296.091 155.137 294.729 154.804L293.595 154.526C292.69 154.302 292.282 153.999 292.282 153.412C292.282 152.756 292.979 152.278 293.913 152.278C294.937 152.278 295.36 152.845 295.564 153.372L296.618 153.074ZM301.725 159.159C303.276 159.159 304.409 158.384 304.767 157.23L303.634 156.912C303.336 157.707 302.645 158.105 301.725 158.105C300.348 158.105 299.398 157.215 299.343 155.58H304.887V155.082C304.887 152.239 303.196 151.264 301.605 151.264C299.537 151.264 298.165 152.895 298.165 155.241C298.165 157.588 299.517 159.159 301.725 159.159ZM299.343 154.565C299.423 153.377 300.263 152.318 301.605 152.318C302.878 152.318 303.694 153.273 303.694 154.565H299.343ZM306.672 159H307.845V154.168C307.845 153.134 308.66 152.378 309.774 152.378C310.087 152.378 310.41 152.438 310.49 152.457V151.264C310.355 151.254 310.047 151.244 309.873 151.244C308.958 151.244 308.163 151.761 307.885 152.517H307.805V151.364H306.672V159ZM319.219 151.364H317.508V150.588C317.508 149.832 317.827 149.435 318.602 149.435C318.94 149.435 319.139 149.514 319.258 149.554L319.596 148.54C319.417 148.46 319.059 148.341 318.483 148.341C317.389 148.341 316.335 148.997 316.335 150.31V151.364H315.102V152.358H316.335V159H317.508V152.358H319.219V151.364ZM323.651 159.159C325.719 159.159 327.111 157.588 327.111 155.222C327.111 152.835 325.719 151.264 323.651 151.264C321.583 151.264 320.191 152.835 320.191 155.222C320.191 157.588 321.583 159.159 323.651 159.159ZM323.651 158.105C322.08 158.105 321.364 156.753 321.364 155.222C321.364 153.69 322.08 152.318 323.651 152.318C325.222 152.318 325.938 153.69 325.938 155.222C325.938 156.753 325.222 158.105 323.651 158.105ZM333.714 155.878C333.714 157.31 332.621 157.966 331.746 157.966C330.771 157.966 330.075 157.25 330.075 156.136V151.364H328.902V156.216C328.902 158.165 329.936 159.099 331.368 159.099C332.521 159.099 333.277 158.483 333.635 157.707H333.714V159H334.888V151.364H333.714V155.878ZM338.21 154.406C338.21 153.074 339.035 152.318 340.159 152.318C341.248 152.318 341.909 153.029 341.909 154.227V159H343.082V154.148C343.082 152.199 342.043 151.264 340.497 151.264C339.344 151.264 338.628 151.781 338.27 152.557H338.17V151.364H337.037V159H338.21V154.406ZM348.11 159.159C349.581 159.159 350.078 158.244 350.337 157.827H350.476V159H351.61V148.818H350.436V152.577H350.337C350.078 152.179 349.621 151.264 348.13 151.264C346.201 151.264 344.868 152.795 344.868 155.202C344.868 157.628 346.201 159.159 348.11 159.159ZM348.269 158.105C346.797 158.105 346.042 156.812 346.042 155.182C346.042 153.571 346.777 152.318 348.269 152.318C349.701 152.318 350.456 153.472 350.456 155.182C350.456 156.912 349.681 158.105 348.269 158.105ZM361.26 151.364H359.549V150.588C359.549 149.832 359.868 149.435 360.643 149.435C360.981 149.435 361.18 149.514 361.299 149.554L361.637 148.54C361.458 148.46 361.1 148.341 360.524 148.341C359.43 148.341 358.376 148.997 358.376 150.31V151.364H357.143V152.358H358.376V159H359.549V152.358H361.26V151.364ZM362.904 159H364.077V154.168C364.077 153.134 364.893 152.378 366.006 152.378C366.319 152.378 366.643 152.438 366.722 152.457V151.264C366.588 151.254 366.28 151.244 366.106 151.244C365.191 151.244 364.395 151.761 364.117 152.517H364.037V151.364H362.904V159ZM370.983 159.159C373.051 159.159 374.443 157.588 374.443 155.222C374.443 152.835 373.051 151.264 370.983 151.264C368.915 151.264 367.523 152.835 367.523 155.222C367.523 157.588 368.915 159.159 370.983 159.159ZM370.983 158.105C369.412 158.105 368.696 156.753 368.696 155.222C368.696 153.69 369.412 152.318 370.983 152.318C372.554 152.318 373.27 153.69 373.27 155.222C373.27 156.753 372.554 158.105 370.983 158.105ZM376.234 159H377.407V154.227C377.407 153.109 378.223 152.318 379.137 152.318C380.027 152.318 380.649 152.9 380.649 153.77V159H381.842V154.028C381.842 153.044 382.458 152.318 383.532 152.318C384.368 152.318 385.083 152.761 385.083 153.889V159H386.257V153.889C386.257 152.094 385.292 151.264 383.93 151.264C382.836 151.264 382.036 151.766 381.643 152.557H381.564C381.186 151.741 380.52 151.264 379.515 151.264C378.521 151.264 377.785 151.741 377.467 152.557H377.368V151.364H376.234V159ZM397.749 153.074C397.381 151.99 396.555 151.264 395.044 151.264C393.433 151.264 392.24 152.179 392.24 153.472C392.24 154.526 392.866 155.232 394.268 155.56L395.541 155.858C396.312 156.037 396.675 156.405 396.675 156.932C396.675 157.588 395.979 158.125 394.885 158.125C393.925 158.125 393.324 157.712 393.115 156.892L392.001 157.17C392.275 158.468 393.344 159.159 394.905 159.159C396.68 159.159 397.888 158.19 397.888 156.872C397.888 155.808 397.222 155.137 395.859 154.804L394.726 154.526C393.821 154.302 393.413 153.999 393.413 153.412C393.413 152.756 394.109 152.278 395.044 152.278C396.068 152.278 396.491 152.845 396.695 153.372L397.749 153.074ZM402.856 159.159C404.407 159.159 405.54 158.384 405.898 157.23L404.765 156.912C404.466 157.707 403.775 158.105 402.856 158.105C401.479 158.105 400.529 157.215 400.474 155.58H406.018V155.082C406.018 152.239 404.327 151.264 402.736 151.264C400.668 151.264 399.296 152.895 399.296 155.241C399.296 157.588 400.648 159.159 402.856 159.159ZM400.474 154.565C400.554 153.377 401.394 152.318 402.736 152.318C404.009 152.318 404.824 153.273 404.824 154.565H400.474ZM413.211 153.074C412.844 151.99 412.018 151.264 410.507 151.264C408.896 151.264 407.703 152.179 407.703 153.472C407.703 154.526 408.329 155.232 409.731 155.56L411.004 155.858C411.775 156.037 412.138 156.405 412.138 156.932C412.138 157.588 411.442 158.125 410.348 158.125C409.388 158.125 408.787 157.712 408.578 156.892L407.464 157.17C407.738 158.468 408.807 159.159 410.368 159.159C412.143 159.159 413.351 158.19 413.351 156.872C413.351 155.808 412.684 155.137 411.322 154.804L410.189 154.526C409.284 154.302 408.876 153.999 408.876 153.412C408.876 152.756 409.572 152.278 410.507 152.278C411.531 152.278 411.954 152.845 412.157 153.372L413.211 153.074ZM420.526 153.074C420.158 151.99 419.333 151.264 417.821 151.264C416.211 151.264 415.017 152.179 415.017 153.472C415.017 154.526 415.644 155.232 417.046 155.56L418.319 155.858C419.089 156.037 419.452 156.405 419.452 156.932C419.452 157.588 418.756 158.125 417.662 158.125C416.703 158.125 416.101 157.712 415.892 156.892L414.779 157.17C415.052 158.468 416.121 159.159 417.682 159.159C419.457 159.159 420.665 158.19 420.665 156.872C420.665 155.808 419.999 155.137 418.637 154.804L417.503 154.526C416.598 154.302 416.191 153.999 416.191 153.412C416.191 152.756 416.887 152.278 417.821 152.278C418.846 152.278 419.268 152.845 419.472 153.372L420.526 153.074ZM422.431 159H423.605V151.364H422.431V159ZM423.028 150.091C423.485 150.091 423.863 149.733 423.863 149.295C423.863 148.858 423.485 148.5 423.028 148.5C422.57 148.5 422.193 148.858 422.193 149.295C422.193 149.733 422.57 150.091 423.028 150.091ZM428.856 159.159C430.924 159.159 432.316 157.588 432.316 155.222C432.316 152.835 430.924 151.264 428.856 151.264C426.788 151.264 425.396 152.835 425.396 155.222C425.396 157.588 426.788 159.159 428.856 159.159ZM428.856 158.105C427.285 158.105 426.569 156.753 426.569 155.222C426.569 153.69 427.285 152.318 428.856 152.318C430.427 152.318 431.143 153.69 431.143 155.222C431.143 156.753 430.427 158.105 428.856 158.105ZM435.28 154.406C435.28 153.074 436.106 152.318 437.229 152.318C438.318 152.318 438.979 153.029 438.979 154.227V159H440.153V154.148C440.153 152.199 439.113 151.264 437.567 151.264C436.414 151.264 435.698 151.781 435.34 152.557H435.241V151.364H434.107V159H435.28V154.406ZM449.555 151.364H447.924V149.534H446.751V151.364H445.598V152.358H446.751V157.131C446.751 158.463 447.825 159.099 448.819 159.099C449.257 159.099 449.535 159.02 449.694 158.96L449.456 157.906C449.356 157.926 449.197 157.966 448.939 157.966C448.422 157.966 447.924 157.807 447.924 156.812V152.358H449.555V151.364ZM454.34 159.159C456.408 159.159 457.8 157.588 457.8 155.222C457.8 152.835 456.408 151.264 454.34 151.264C452.272 151.264 450.88 152.835 450.88 155.222C450.88 157.588 452.272 159.159 454.34 159.159ZM454.34 158.105C452.769 158.105 452.053 156.753 452.053 155.222C452.053 153.69 452.769 152.318 454.34 152.318C455.911 152.318 456.627 153.69 456.627 155.222C456.627 156.753 455.911 158.105 454.34 158.105ZM459.591 159H460.765V156.141L461.585 155.381L464.444 159H465.935L462.47 154.625L465.697 151.364H464.245L460.904 154.764H460.765V148.818H459.591V159ZM470.094 159.159C471.645 159.159 472.779 158.384 473.137 157.23L472.003 156.912C471.705 157.707 471.014 158.105 470.094 158.105C468.717 158.105 467.767 157.215 467.713 155.58H473.256V155.082C473.256 152.239 471.566 151.264 469.975 151.264C467.906 151.264 466.534 152.895 466.534 155.241C466.534 157.588 467.887 159.159 470.094 159.159ZM467.713 154.565C467.792 153.377 468.632 152.318 469.975 152.318C471.247 152.318 472.063 153.273 472.063 154.565H467.713ZM476.214 154.406C476.214 153.074 477.039 152.318 478.163 152.318C479.252 152.318 479.913 153.029 479.913 154.227V159H481.086V154.148C481.086 152.199 480.047 151.264 478.501 151.264C477.347 151.264 476.632 151.781 476.274 152.557H476.174V151.364H475.041V159H476.214V154.406Z" fill="#7A88AE"/>
<path d="M130.233 238.818V249H131.386V241.264H131.486L134.668 249H135.781L138.963 241.264H139.062V249H140.216V238.818H138.744L135.284 247.27H135.165L131.705 238.818H130.233ZM144.776 249.179C146.108 249.179 146.805 248.463 147.043 247.966H147.103V249H148.276V243.969C148.276 241.543 146.427 241.264 145.452 241.264C144.299 241.264 142.986 241.662 142.39 243.054L143.503 243.452C143.762 242.895 144.373 242.298 145.492 242.298C146.571 242.298 147.103 242.87 147.103 243.849V243.889C147.103 244.456 146.526 244.406 145.134 244.585C143.717 244.769 142.171 245.082 142.171 246.832C142.171 248.324 143.324 249.179 144.776 249.179ZM144.955 248.125C144.02 248.125 143.344 247.707 143.344 246.892C143.344 245.997 144.16 245.719 145.074 245.599C145.572 245.54 146.904 245.401 147.103 245.162V246.236C147.103 247.19 146.347 248.125 144.955 248.125ZM150.418 249H151.591V246.141L152.411 245.381L155.27 249H156.761L153.296 244.625L156.523 241.364H155.071L151.73 244.764H151.591V238.818H150.418V249ZM160.92 249.159C162.471 249.159 163.605 248.384 163.963 247.23L162.829 246.912C162.531 247.707 161.84 248.105 160.92 248.105C159.543 248.105 158.593 247.215 158.539 245.58H164.082V245.082C164.082 242.239 162.392 241.264 160.801 241.264C158.733 241.264 157.36 242.895 157.36 245.241C157.36 247.588 158.713 249.159 160.92 249.159ZM158.539 244.565C158.618 243.377 159.458 242.318 160.801 242.318C162.074 242.318 162.889 243.273 162.889 244.565H158.539ZM170.381 249L171.405 246.116H175.522L176.546 249H177.838L174.1 238.818H172.827L169.088 249H170.381ZM171.793 245.023L173.424 240.429H173.503L175.134 245.023H171.793ZM179.424 249H180.657V245.281H182.885C185.256 245.281 186.325 243.839 186.325 242.04C186.325 240.24 185.256 238.818 182.865 238.818H179.424V249ZM180.657 244.188V239.912H182.825C184.48 239.912 185.112 240.817 185.112 242.04C185.112 243.263 184.48 244.188 182.845 244.188H180.657ZM189.544 238.818H188.311V249H189.544V238.818ZM195.795 249H196.968V244.168C196.968 243.134 197.783 242.378 198.897 242.378C199.21 242.378 199.533 242.438 199.613 242.457V241.264C199.479 241.254 199.17 241.244 198.996 241.244C198.081 241.244 197.286 241.761 197.008 242.517H196.928V241.364H195.795V249ZM203.973 249.159C205.524 249.159 206.657 248.384 207.015 247.23L205.882 246.912C205.584 247.707 204.893 248.105 203.973 248.105C202.596 248.105 201.646 247.215 201.591 245.58H207.135V245.082C207.135 242.239 205.444 241.264 203.854 241.264C201.785 241.264 200.413 242.895 200.413 245.241C200.413 247.588 201.765 249.159 203.973 249.159ZM201.591 244.565C201.671 243.377 202.511 242.318 203.854 242.318C205.126 242.318 205.942 243.273 205.942 244.565H201.591ZM215.303 251.864V241.364H214.17V242.577H214.03C213.772 242.179 213.314 241.264 211.823 241.264C209.894 241.264 208.562 242.795 208.562 245.202C208.562 247.628 209.894 249.159 211.803 249.159C213.275 249.159 213.772 248.244 214.03 247.827H214.13V251.864H215.303ZM214.15 245.182C214.15 246.912 213.374 248.105 211.962 248.105C210.491 248.105 209.735 246.812 209.735 245.182C209.735 243.571 210.471 242.318 211.962 242.318C213.394 242.318 214.15 243.472 214.15 245.182ZM222.263 245.878C222.263 247.31 221.17 247.966 220.295 247.966C219.32 247.966 218.624 247.25 218.624 246.136V241.364H217.451V246.216C217.451 248.165 218.485 249.099 219.917 249.099C221.07 249.099 221.826 248.483 222.184 247.707H222.263V249H223.437V241.364H222.263V245.878ZM228.787 249.159C230.338 249.159 231.472 248.384 231.83 247.23L230.696 246.912C230.398 247.707 229.707 248.105 228.787 248.105C227.41 248.105 226.461 247.215 226.406 245.58H231.949V245.082C231.949 242.239 230.259 241.264 228.668 241.264C226.6 241.264 225.228 242.895 225.228 245.241C225.228 247.588 226.58 249.159 228.787 249.159ZM226.406 244.565C226.485 243.377 227.326 242.318 228.668 242.318C229.941 242.318 230.756 243.273 230.756 244.565H226.406ZM239.143 243.074C238.775 241.99 237.95 241.264 236.439 241.264C234.828 241.264 233.635 242.179 233.635 243.472C233.635 244.526 234.261 245.232 235.663 245.56L236.936 245.858C237.706 246.037 238.069 246.405 238.069 246.932C238.069 247.588 237.373 248.125 236.279 248.125C235.32 248.125 234.718 247.712 234.51 246.892L233.396 247.17C233.669 248.468 234.738 249.159 236.299 249.159C238.074 249.159 239.282 248.19 239.282 246.872C239.282 245.808 238.616 245.137 237.254 244.804L236.12 244.526C235.216 244.302 234.808 243.999 234.808 243.412C234.808 242.756 235.504 242.278 236.439 242.278C237.463 242.278 237.885 242.845 238.089 243.372L239.143 243.074ZM244.369 241.364H242.739V239.534H241.566V241.364H240.412V242.358H241.566V247.131C241.566 248.463 242.639 249.099 243.634 249.099C244.071 249.099 244.35 249.02 244.509 248.96L244.27 247.906C244.171 247.926 244.012 247.966 243.753 247.966C243.236 247.966 242.739 247.807 242.739 246.812V242.358H244.369V241.364ZM251.802 249H252.955L254.626 243.134H254.745L256.416 249H257.569L259.896 241.364H258.663L257.012 247.19H256.933L255.322 241.364H254.069L252.438 247.21H252.359L250.708 241.364H249.475L251.802 249ZM261.447 249H262.62V241.364H261.447V249ZM262.044 240.091C262.501 240.091 262.879 239.733 262.879 239.295C262.879 238.858 262.501 238.5 262.044 238.5C261.586 238.5 261.208 238.858 261.208 239.295C261.208 239.733 261.586 240.091 262.044 240.091ZM268.09 241.364H266.46V239.534H265.286V241.364H264.133V242.358H265.286V247.131C265.286 248.463 266.36 249.099 267.354 249.099C267.792 249.099 268.07 249.02 268.229 248.96L267.991 247.906C267.891 247.926 267.732 247.966 267.474 247.966C266.957 247.966 266.46 247.807 266.46 246.812V242.358H268.09V241.364ZM271.192 244.406C271.192 243.074 272.043 242.318 273.201 242.318C274.305 242.318 274.971 243.014 274.971 244.227V249H276.144V244.148C276.144 242.184 275.1 241.264 273.539 241.264C272.336 241.264 271.65 241.766 271.292 242.557H271.192V238.818H270.019V249H271.192V244.406ZM286.285 238.818V246.097C286.285 247.364 285.678 248.045 284.615 248.045C283.645 248.045 282.944 247.479 282.944 246.614H281.731C281.731 248.18 282.944 249.139 284.615 249.139C286.384 249.139 287.518 248.05 287.518 246.097V238.818H286.285ZM291.838 249H293.111L295.358 240.886H295.438L297.685 249H298.958L301.742 238.818H300.489L298.361 247.111H298.262L296.094 238.818H294.702L292.534 247.111H292.435L290.307 238.818H289.054L291.838 249ZM302.721 239.912H305.923V249H307.156V239.912H310.357V238.818H302.721V239.912Z" fill="black"/>
<path d="M130.278 277.318C130.278 279.466 130.858 281.256 131.898 282.773H132.784C131.966 281.648 131.318 279.347 131.318 277.318C131.318 275.29 131.966 272.989 132.784 271.864H131.898C130.858 273.381 130.278 275.17 130.278 277.318ZM136.872 281.136C138.201 281.136 139.173 280.472 139.48 279.483L138.508 279.21C138.252 279.892 137.66 280.233 136.872 280.233C135.691 280.233 134.877 279.47 134.831 278.068H139.582V277.642C139.582 275.205 138.133 274.369 136.77 274.369C134.997 274.369 133.821 275.767 133.821 277.778C133.821 279.79 134.98 281.136 136.872 281.136ZM134.831 277.199C134.899 276.18 135.619 275.273 136.77 275.273C137.86 275.273 138.559 276.091 138.559 277.199H134.831ZM141.845 281.068C142.267 281.068 142.612 280.723 142.612 280.301C142.612 279.879 142.267 279.534 141.845 279.534C141.423 279.534 141.078 279.879 141.078 280.301C141.078 280.723 141.423 281.068 141.845 281.068ZM147.059 283.591C148.627 283.591 149.888 282.875 149.888 281.188V274.455H148.917V275.494H148.814C148.593 275.153 148.184 274.369 146.905 274.369C145.252 274.369 144.11 275.682 144.11 277.693C144.11 279.739 145.303 280.898 146.888 280.898C148.167 280.898 148.576 280.148 148.797 279.79H148.882V281.119C148.882 282.21 148.115 282.705 147.059 282.705C145.87 282.705 145.452 282.078 145.184 281.716L144.382 282.278C144.792 282.964 145.597 283.591 147.059 283.591ZM147.025 279.994C145.763 279.994 145.115 279.04 145.115 277.676C145.115 276.347 145.746 275.273 147.025 275.273C148.252 275.273 148.9 276.261 148.9 277.676C148.9 279.125 148.235 279.994 147.025 279.994ZM152.462 281.068C152.884 281.068 153.229 280.723 153.229 280.301C153.229 279.879 152.884 279.534 152.462 279.534C152.04 279.534 151.695 279.879 151.695 280.301C151.695 280.723 152.04 281.068 152.462 281.068ZM160.335 281.153C161.477 281.153 162.074 280.54 162.278 280.114H162.329V281H163.335V276.688C163.335 274.608 161.75 274.369 160.914 274.369C159.926 274.369 158.801 274.71 158.289 275.903L159.244 276.244C159.466 275.767 159.99 275.256 160.949 275.256C161.873 275.256 162.329 275.746 162.329 276.585V276.619C162.329 277.105 161.835 277.062 160.642 277.216C159.427 277.374 158.102 277.642 158.102 279.142C158.102 280.42 159.091 281.153 160.335 281.153ZM160.488 280.25C159.687 280.25 159.108 279.892 159.108 279.193C159.108 278.426 159.806 278.188 160.591 278.085C161.017 278.034 162.159 277.915 162.329 277.71V278.631C162.329 279.449 161.681 280.25 160.488 280.25ZM167.642 281.136C168.903 281.136 169.33 280.352 169.551 279.994H169.67V281H170.642V272.273H169.636V275.494H169.551C169.33 275.153 168.938 274.369 167.659 274.369C166.006 274.369 164.864 275.682 164.864 277.744C164.864 279.824 166.006 281.136 167.642 281.136ZM167.778 280.233C166.517 280.233 165.869 279.125 165.869 277.727C165.869 276.347 166.5 275.273 167.778 275.273C169.006 275.273 169.653 276.261 169.653 277.727C169.653 279.21 168.989 280.233 167.778 280.233ZM175.095 281.136C176.357 281.136 176.783 280.352 177.004 279.994H177.124V281H178.095V272.273H177.089V275.494H177.004C176.783 275.153 176.391 274.369 175.112 274.369C173.459 274.369 172.317 275.682 172.317 277.744C172.317 279.824 173.459 281.136 175.095 281.136ZM175.232 280.233C173.97 280.233 173.322 279.125 173.322 277.727C173.322 276.347 173.953 275.273 175.232 275.273C176.459 275.273 177.107 276.261 177.107 277.727C177.107 279.21 176.442 280.233 175.232 280.233ZM186.111 281.136C187.884 281.136 189.077 279.79 189.077 277.761C189.077 275.716 187.884 274.369 186.111 274.369C184.338 274.369 183.145 275.716 183.145 277.761C183.145 279.79 184.338 281.136 186.111 281.136ZM186.111 280.233C184.764 280.233 184.151 279.074 184.151 277.761C184.151 276.449 184.764 275.273 186.111 275.273C187.457 275.273 188.071 276.449 188.071 277.761C188.071 279.074 187.457 280.233 186.111 280.233ZM190.612 281H191.618V276.858C191.618 275.972 192.316 275.324 193.271 275.324C193.539 275.324 193.816 275.375 193.885 275.392V274.369C193.77 274.361 193.505 274.352 193.356 274.352C192.572 274.352 191.89 274.795 191.652 275.443H191.583V274.455H190.612V281ZM200.923 281.136C202.185 281.136 202.611 280.352 202.832 279.994H202.952V281H203.923V272.273H202.918V275.494H202.832C202.611 275.153 202.219 274.369 200.94 274.369C199.287 274.369 198.145 275.682 198.145 277.744C198.145 279.824 199.287 281.136 200.923 281.136ZM201.06 280.233C199.798 280.233 199.151 279.125 199.151 277.727C199.151 276.347 199.781 275.273 201.06 275.273C202.287 275.273 202.935 276.261 202.935 277.727C202.935 279.21 202.27 280.233 201.06 280.233ZM208.649 281.136C209.979 281.136 210.95 280.472 211.257 279.483L210.286 279.21C210.03 279.892 209.438 280.233 208.649 280.233C207.469 280.233 206.655 279.47 206.608 278.068H211.359V277.642C211.359 275.205 209.911 274.369 208.547 274.369C206.774 274.369 205.598 275.767 205.598 277.778C205.598 279.79 206.757 281.136 208.649 281.136ZM206.608 277.199C206.676 276.18 207.396 275.273 208.547 275.273C209.638 275.273 210.337 276.091 210.337 277.199H206.608ZM213.895 272.273H212.889V281H213.895V272.273ZM218.481 281.136C219.811 281.136 220.782 280.472 221.089 279.483L220.118 279.21C219.862 279.892 219.27 280.233 218.481 280.233C217.301 280.233 216.487 279.47 216.44 278.068H221.191V277.642C221.191 275.205 219.743 274.369 218.379 274.369C216.606 274.369 215.43 275.767 215.43 277.778C215.43 279.79 216.589 281.136 218.481 281.136ZM216.44 277.199C216.508 276.18 217.228 275.273 218.379 275.273C219.47 275.273 220.169 276.091 220.169 277.199H216.44ZM225.568 274.455H224.17V272.886H223.164V274.455H222.176V275.307H223.164V279.398C223.164 280.54 224.085 281.085 224.937 281.085C225.312 281.085 225.551 281.017 225.687 280.966L225.483 280.062C225.397 280.08 225.261 280.114 225.039 280.114C224.596 280.114 224.17 279.977 224.17 279.125V275.307H225.568V274.455ZM229.755 281.136C231.084 281.136 232.056 280.472 232.363 279.483L231.391 279.21C231.135 279.892 230.543 280.233 229.755 280.233C228.574 280.233 227.76 279.47 227.713 278.068H232.465V277.642C232.465 275.205 231.016 274.369 229.652 274.369C227.88 274.369 226.703 275.767 226.703 277.778C226.703 279.79 227.863 281.136 229.755 281.136ZM227.713 277.199C227.782 276.18 228.502 275.273 229.652 275.273C230.743 275.273 231.442 276.091 231.442 277.199H227.713ZM240.029 281.136C241.478 281.136 242.432 280.25 242.603 279.091H241.597C241.409 279.807 240.813 280.233 240.029 280.233C238.836 280.233 238.069 279.244 238.069 277.727C238.069 276.244 238.853 275.273 240.029 275.273C240.915 275.273 241.444 275.818 241.597 276.415H242.603C242.432 275.188 241.392 274.369 240.012 274.369C238.239 274.369 237.063 275.767 237.063 277.761C237.063 279.722 238.188 281.136 240.029 281.136ZM246.732 281.136C248.505 281.136 249.698 279.79 249.698 277.761C249.698 275.716 248.505 274.369 246.732 274.369C244.959 274.369 243.766 275.716 243.766 277.761C243.766 279.79 244.959 281.136 246.732 281.136ZM246.732 280.233C245.385 280.233 244.772 279.074 244.772 277.761C244.772 276.449 245.385 275.273 246.732 275.273C248.078 275.273 248.692 276.449 248.692 277.761C248.692 279.074 248.078 280.233 246.732 280.233ZM252.239 277.062C252.239 275.92 252.946 275.273 253.909 275.273C254.842 275.273 255.409 275.882 255.409 276.909V281H256.415V276.841C256.415 275.17 255.524 274.369 254.199 274.369C253.21 274.369 252.597 274.812 252.29 275.477H252.205V274.455H251.233V281H252.239V277.062ZM261.099 274.455H259.701V272.886H258.696V274.455H257.707V275.307H258.696V279.398C258.696 280.54 259.616 281.085 260.468 281.085C260.843 281.085 261.082 281.017 261.218 280.966L261.014 280.062C260.929 280.08 260.792 280.114 260.571 280.114C260.127 280.114 259.701 279.977 259.701 279.125V275.307H261.099V274.455ZM265.286 281.136C266.615 281.136 267.587 280.472 267.894 279.483L266.922 279.21C266.667 279.892 266.074 280.233 265.286 280.233C264.105 280.233 263.292 279.47 263.245 278.068H267.996V277.642C267.996 275.205 266.547 274.369 265.184 274.369C263.411 274.369 262.235 275.767 262.235 277.778C262.235 279.79 263.394 281.136 265.286 281.136ZM263.245 277.199C263.313 276.18 264.033 275.273 265.184 275.273C266.275 275.273 266.973 276.091 266.973 277.199H263.245ZM270.532 277.062C270.532 275.92 271.239 275.273 272.202 275.273C273.135 275.273 273.702 275.882 273.702 276.909V281H274.708V276.841C274.708 275.17 273.817 274.369 272.492 274.369C271.503 274.369 270.89 274.812 270.583 275.477H270.498V274.455H269.526V281H270.532V277.062ZM279.392 274.455H277.994V272.886H276.989V274.455H276V275.307H276.989V279.398C276.989 280.54 277.909 281.085 278.761 281.085C279.136 281.085 279.375 281.017 279.511 280.966L279.307 280.062C279.222 280.08 279.085 280.114 278.864 280.114C278.42 280.114 277.994 279.977 277.994 279.125V275.307H279.392V274.455ZM283.053 277.318C283.053 275.17 282.473 273.381 281.433 271.864H280.547C281.365 272.989 282.013 275.29 282.013 277.318C282.013 279.347 281.365 281.648 280.547 282.773H281.433C282.473 281.256 283.053 279.466 283.053 277.318Z" fill="#A0AAC5"/>
<path d="M130.206 368H131.439V364.023H133.666C133.756 364.023 133.84 364.023 133.925 364.018L136.072 368H137.504L135.202 363.794C136.5 363.352 137.106 362.293 137.106 360.94C137.106 359.141 136.033 357.818 133.646 357.818H130.206V368ZM131.439 362.909V358.912H133.606C135.257 358.912 135.893 359.717 135.893 360.94C135.893 362.163 135.257 362.909 133.626 362.909H131.439ZM142.122 368.159C143.673 368.159 144.806 367.384 145.164 366.23L144.031 365.912C143.732 366.707 143.041 367.105 142.122 367.105C140.744 367.105 139.795 366.215 139.74 364.58H145.283V364.082C145.283 361.239 143.593 360.264 142.002 360.264C139.934 360.264 138.562 361.895 138.562 364.241C138.562 366.588 139.914 368.159 142.122 368.159ZM139.74 363.565C139.82 362.377 140.66 361.318 142.002 361.318C143.275 361.318 144.09 362.273 144.09 363.565H139.74ZM152.477 362.074C152.109 360.99 151.284 360.264 149.773 360.264C148.162 360.264 146.969 361.179 146.969 362.472C146.969 363.526 147.595 364.232 148.997 364.56L150.27 364.858C151.041 365.037 151.403 365.405 151.403 365.932C151.403 366.588 150.707 367.125 149.614 367.125C148.654 367.125 148.053 366.712 147.844 365.892L146.73 366.17C147.004 367.468 148.073 368.159 149.634 368.159C151.408 368.159 152.617 367.19 152.617 365.872C152.617 364.808 151.95 364.137 150.588 363.804L149.455 363.526C148.55 363.302 148.142 362.999 148.142 362.412C148.142 361.756 148.838 361.278 149.773 361.278C150.797 361.278 151.22 361.845 151.423 362.372L152.477 362.074ZM154.383 370.864H155.556V366.827H155.655C155.914 367.244 156.411 368.159 157.883 368.159C159.792 368.159 161.124 366.628 161.124 364.202C161.124 361.795 159.792 360.264 157.863 360.264C156.371 360.264 155.914 361.179 155.655 361.577H155.516V360.364H154.383V370.864ZM155.536 364.182C155.536 362.472 156.292 361.318 157.724 361.318C159.215 361.318 159.951 362.571 159.951 364.182C159.951 365.812 159.195 367.105 157.724 367.105C156.312 367.105 155.536 365.912 155.536 364.182ZM166.016 368.159C168.084 368.159 169.476 366.588 169.476 364.222C169.476 361.835 168.084 360.264 166.016 360.264C163.948 360.264 162.556 361.835 162.556 364.222C162.556 366.588 163.948 368.159 166.016 368.159ZM166.016 367.105C164.445 367.105 163.729 365.753 163.729 364.222C163.729 362.69 164.445 361.318 166.016 361.318C167.587 361.318 168.303 362.69 168.303 364.222C168.303 365.753 167.587 367.105 166.016 367.105ZM172.441 363.406C172.441 362.074 173.266 361.318 174.39 361.318C175.478 361.318 176.14 362.029 176.14 363.227V368H177.313V363.148C177.313 361.199 176.274 360.264 174.728 360.264C173.574 360.264 172.858 360.781 172.5 361.557H172.401V360.364H171.267V368H172.441V363.406ZM184.866 362.074C184.498 360.99 183.673 360.264 182.161 360.264C180.551 360.264 179.357 361.179 179.357 362.472C179.357 363.526 179.984 364.232 181.386 364.56L182.659 364.858C183.429 365.037 183.792 365.405 183.792 365.932C183.792 366.588 183.096 367.125 182.002 367.125C181.043 367.125 180.441 366.712 180.232 365.892L179.119 366.17C179.392 367.468 180.461 368.159 182.022 368.159C183.797 368.159 185.005 367.19 185.005 365.872C185.005 364.808 184.339 364.137 182.977 363.804L181.843 363.526C180.938 363.302 180.531 362.999 180.531 362.412C180.531 361.756 181.227 361.278 182.161 361.278C183.186 361.278 183.608 361.845 183.812 362.372L184.866 362.074ZM189.973 368.159C191.524 368.159 192.658 367.384 193.016 366.23L191.882 365.912C191.584 366.707 190.893 367.105 189.973 367.105C188.596 367.105 187.646 366.215 187.592 364.58H193.135V364.082C193.135 361.239 191.445 360.264 189.854 360.264C187.786 360.264 186.413 361.895 186.413 364.241C186.413 366.588 187.766 368.159 189.973 368.159ZM187.592 363.565C187.671 362.377 188.511 361.318 189.854 361.318C191.126 361.318 191.942 362.273 191.942 363.565H187.592ZM202.258 360.364H200.548V359.588C200.548 358.832 200.866 358.435 201.641 358.435C201.979 358.435 202.178 358.514 202.298 358.554L202.636 357.54C202.457 357.46 202.099 357.341 201.522 357.341C200.428 357.341 199.374 357.997 199.374 359.31V360.364H198.141V361.358H199.374V368H200.548V361.358H202.258V360.364ZM203.902 368H205.076V363.168C205.076 362.134 205.891 361.378 207.005 361.378C207.318 361.378 207.641 361.438 207.72 361.457V360.264C207.586 360.254 207.278 360.244 207.104 360.244C206.189 360.244 205.394 360.761 205.115 361.517H205.036V360.364H203.902V368ZM211.981 368.159C214.049 368.159 215.441 366.588 215.441 364.222C215.441 361.835 214.049 360.264 211.981 360.264C209.913 360.264 208.521 361.835 208.521 364.222C208.521 366.588 209.913 368.159 211.981 368.159ZM211.981 367.105C210.41 367.105 209.694 365.753 209.694 364.222C209.694 362.69 210.41 361.318 211.981 361.318C213.552 361.318 214.268 362.69 214.268 364.222C214.268 365.753 213.552 367.105 211.981 367.105ZM217.232 368H218.406V363.227C218.406 362.109 219.221 361.318 220.136 361.318C221.026 361.318 221.647 361.9 221.647 362.77V368H222.84V363.028C222.84 362.044 223.457 361.318 224.531 361.318C225.366 361.318 226.082 361.761 226.082 362.889V368H227.255V362.889C227.255 361.094 226.291 360.264 224.928 360.264C223.835 360.264 223.034 360.766 222.641 361.557H222.562C222.184 360.741 221.518 360.264 220.514 360.264C219.519 360.264 218.783 360.741 218.465 361.557H218.366V360.364H217.232V368ZM233.914 368L234.939 365.116H239.055L240.079 368H241.372L237.633 357.818H236.361L232.622 368H233.914ZM235.326 364.023L236.957 359.429H237.037L238.667 364.023H235.326ZM242.958 368H244.191V364.281H246.418C248.789 364.281 249.858 362.839 249.858 361.04C249.858 359.24 248.789 357.818 246.398 357.818H242.958V368ZM244.191 363.188V358.912H246.358C248.014 358.912 248.645 359.817 248.645 361.04C248.645 362.263 248.014 363.188 246.378 363.188H244.191ZM253.077 357.818H251.845V368H253.077V357.818Z" fill="black"/>
</svg>
