<?xml version="1.0" encoding="UTF-8"?>
<svg width="1119px" height="209px" viewBox="0 0 1119 209" version="1.1" xmlns="http://www.w3.org/2000/svg" xmlns:xlink="http://www.w3.org/1999/xlink">
    <title>logo_spaces/docs/for_base/logo_spaces_ docs_for_base</title>
    <g id="logo_spaces/docs/for_base/logo_spaces_-docs_for_base" stroke="none" stroke-width="1" fill="none" fill-rule="evenodd">
        <g id="Group">
            <g transform="translate(0.000000, -0.000000)" fill="#0C132C" id="logo">
                <path d="M554,48.0148681 L575,107.156355 L580,125.19952 L586,107.156355 L607,48.0148681 L640,48.0148681 L584.9,201.983213 L549.3,209 L564,167.30024 L521,48.0148681 L554,48.0148681 Z M132.174917,-1.42108547e-14 C166.168467,0.200392927 199.762092,28.4557957 199.762092,69.6365422 C199.762092,69.6365422 199.98295,80.6368415 199.999072,93.7327309 L199.999546,96.2637525 C199.997047,99.0993124 199.984049,102.004008 199.956455,104.892071 L199.938113,106.622226 C199.810442,117.558547 199.460149,128.006994 198.6623,133.261297 C193.963192,164.722986 170.467651,186.465619 138.073798,191.976424 C108.879338,197.687623 91.5826205,200.994106 85.983683,202.096267 C84.5721862,202.390963 80.3238574,202.997689 76.1284395,203.44738 L75.2909176,203.535085 C72.6464216,203.805308 70.1004227,204 68.3870223,204 C32.7937768,204 0.499905134,177.347741 0,134.363458 L0.000878633264,132.21184 C0.000946220438,132.105988 0.00101900663,131.996583 0.00109739175,131.883703 L0.00196482714,130.776147 C0.00647237175,125.588941 0.021320754,115.481538 0.070233072,105.179065 L0.0821360132,102.80026 L0.0821360132,102.80026 L0.0907751738,101.216914 C0.14881176,90.9420878 0.243953705,81.0779764 0.399924107,76.3497053 C1.59969643,44.9882122 23.2955792,19.6385069 64.5877433,11.5225933 L64.6475408,11.5109641 C66.5880037,11.1335906 115.120154,1.69532417 117.177763,1.30255403 C121.976853,0.400785855 127.275847,-1.42108547e-14 132.174917,-1.42108547e-14 Z M298,15.9381295 L298,48.0148681 L328,48.0148681 L328,77.0844125 L298,77.0844125 L298,127.204317 C298,137.027818 305.4,141.23789 310,141.23789 C314.357895,141.23789 318.267036,140.698094 322.322613,139.448041 L323,139.233094 L330,162.288249 C327,164.293046 318,169.305036 301,169.305036 C284,169.305036 266.4,156.273861 266,134.221103 C265.857895,127.241247 265.783102,119.294257 265.775623,110.380134 L265.775623,107.37294 C265.782763,98.658854 265.851235,89.0635578 265.981039,78.5870509 L266,77.0844125 L245,77.0844125 L245,48.0148681 L266,48.0148681 L266,22.1529976 L298,15.9381295 Z M155.970402,36.5717092 L75.9855804,52.1021611 L75.9855804,83.3634578 L43.9916518,89.5756385 L43.9916518,167.528487 L123.976473,151.998035 L123.976473,120.736739 L155.970402,114.524558 L155.970402,36.5717092 Z M468,45.0076739 C496.116,44.809199 517.3713,67.2070825 517.987654,95.2776343 L518,96.129976 L518,167.30024 L486,167.30024 L486,101.141966 C485.9,86.1059952 475,73.9769784 460,74.0772182 C445.15,74.1764556 432.16219,85.8686073 432.000949,100.691828 L432,167.30024 L400,167.30024 L400,48.0148681 L429,48.0148681 L430.1,61.9482014 C439.4,51.723741 453.1,45.1079137 468,45.0076739 Z M380,48.0148681 L380,167.30024 L348,167.30024 L348,48.0148681 L380,48.0148681 Z M123.976473,74.0451866 L123.976473,120.736739 L75.9855804,130.05501 L75.9855804,83.3634578 L123.976473,74.0451866 Z M380,-2.84217094e-14 L380,31.1745803 L348,37.3894484 L348,6.21486811 L380,-2.84217094e-14 Z"></path>
            </g>
            <path d="M764.409736,154 C792.567452,154 811.033675,135.533777 811.033675,107.768959 C811.033675,80.3970396 792.567452,62.3237148 764.671668,62.3237148 L728.525019,62.3237148 L728.525019,154 L764.409736,154 Z M764.802634,137.760201 L746.598343,137.760201 L746.598343,78.5635139 L764.409736,78.5635139 C781.697264,78.5635139 792.698418,90.3504649 792.698418,108.554756 C792.698418,126.235182 781.697264,137.760201 764.802634,137.760201 Z M877.96843,156.095458 C907.435807,156.095458 926.818794,136.843438 926.818794,107.768959 C926.818794,79.3493106 907.566774,60.2282569 879.147125,60.2282569 C849.679748,60.2282569 830.296762,79.4802768 830.296762,108.554756 C830.296762,136.974404 849.548782,156.095458 877.96843,156.095458 Z M878.361328,139.855659 C860.680902,139.855659 848.762985,127.020979 848.762985,107.768959 C848.762985,89.3027359 860.811868,76.468056 878.754227,76.468056 C896.434653,76.468056 908.35257,89.3027359 908.35257,108.554756 C908.35257,127.151945 896.172721,139.855659 878.361328,139.855659 Z M994.801277,155.964492 C1009.07658,155.964492 1020.73257,151.380678 1029.24537,143.391744 L1019.29194,130.295132 C1011.69591,136.843438 1004.09987,139.46276 995.063209,139.46276 C976.989885,139.46276 964.548103,126.628081 964.548103,107.768959 C964.548103,89.433702 976.858919,76.8609543 994.670311,76.8609543 C1003.57601,76.8609543 1011.04108,79.8731751 1018.50615,86.2905151 L1028.59054,73.1939029 C1019.68484,65.2049695 1008.15982,60.359223 995.063209,60.359223 C966.250663,60.359223 946.08188,79.8731751 946.08188,108.554756 C946.08188,136.581506 965.595832,155.964492 994.801277,155.964492 Z M1081.90481,155.964492 C1103.77616,155.964492 1118.57533,144.570439 1118.57533,126.759047 C1118.57533,111.566977 1108.49094,102.137416 1085.30993,98.7322967 C1071.95139,96.6368387 1066.45081,93.755584 1066.45081,87.2072779 C1066.45081,80.2660735 1073.26105,75.9441915 1083.47641,75.9441915 C1091.07244,75.9441915 1099.58524,78.0396494 1107.05031,82.8853959 L1114.77731,69.3958854 C1104.43099,62.7166132 1094.60853,60.359223 1082.82158,60.359223 C1062.91473,60.359223 1048.50845,71.3603772 1048.50845,87.9930747 C1048.50845,102.923213 1058.98574,111.043112 1081.38095,113.924367 C1095.65626,115.888859 1100.502,120.079774 1100.502,126.890013 C1100.502,135.140878 1092.775,139.855659 1081.77385,139.855659 C1071.95139,139.855659 1061.99796,136.188607 1053.7471,130.295132 L1045.75817,144.439473 C1055.44966,151.773576 1068.02241,155.964492 1081.90481,155.964492 Z" id="DOCS" fill="#335DFF"></path>
        </g>
    </g>
</svg>