<svg fill="none" height="16" viewBox="0 0 16 16" width="16" xmlns="http://www.w3.org/2000/svg"><g fill="#222f3e"><path d="m3 1h1.667v1h-1.667a1 1 0 0 0 -1 1v1.667h-1v-1.667a2 2 0 0 1 2-2zm-2 12v-1.667h1v1.667a1 1 0 0 0 1 1h1.667v1h-1.667a2 2 0 0 1 -2-2zm1-3.333h-1v-3.334h1zm4.333-7.667v-1h3.334v1zm5 0v-1h1.667a2 2 0 0 1 2 2v1.667h-1v-1.667a1 1 0 0 0 -1-1zm2.667 4.333h1v3.334h-1zm0 5h1v1.667a2 2 0 0 1 -2 2h-1.667v-1h1.667a1 1 0 0 0 1-1zm-4.333 2.667v1h-3.334v-1z"/><path d="m9.654 7.154a.312.312 0 0 1 .36-.058l2.986 2.466v2.813a.625.625 0 0 1 -.625.625h-8.75a.625.625 0 0 1 -.625-.625v-1.25l2.279-2.721a.313.313 0 0 1 .394-.039l1.662 1.733zm-3.843-1.029a1.563 1.563 0 1 0 0-3.125 1.563 1.563 0 0 0 0 3.125z"/></g></svg>