<svg xmlns="http://www.w3.org/2000/svg" width="16" height="16" fill="none" viewBox="0 0 16 16">
  <path fill="#222F3E" d="M8.026 2c.347.002.697.03 1.033.086a.5.5 0 0 1-.163.987A5.595 5.595 0 0 0 8.02 3H8c-1.235 0-2.362.399-3.395 1.213-1.045.824-1.88 1.918-2.498 3.295v.004l-.047.118a1.13 1.13 0 0 0-.034.119v.001l-.02.121a1.217 1.217 0 0 0 .02.379v.001c.018.08.045.16.08.237l.001.004c.618 1.377 1.453 2.47 2.498 3.295C5.638 12.601 6.765 13 8 13h.026l.221-.006c.22-.01.436-.031.648-.066v-.001c.886-.148 1.718-.523 2.5-1.139.895-.707 1.634-1.61 2.215-2.716.044-.083.087-.168.13-.254l.123-.261.03-.066v-.003c.036-.078.063-.157.08-.237V8.25a1.164 1.164 0 0 0 0-.5v-.001a1.161 1.161 0 0 0-.08-.237l-.001-.004-.022-.049a10.72 10.72 0 0 0-.25-.516.5.5 0 0 1 .885-.464c.096.184.188.373.276.567l.001.003.023.05-.001.002c.064.14.114.285.147.436v.001a2.168 2.168 0 0 1 0 .925 2.16 2.16 0 0 1-.148.442l-.03.065v.003c-.088.192-.18.38-.277.563v.001c-.64 1.22-1.468 2.236-2.482 3.035l-.342.255c-.808.565-1.68.93-2.612 1.086l-.001.001-.253.036c-.17.021-.341.035-.514.043l-.26.007H8c-1.472 0-2.814-.482-4.014-1.428-1.185-.934-2.113-2.161-2.789-3.667a2.167 2.167 0 0 1-.147-1.367h-.001c.033-.152.083-.298.147-.438v-.001C1.87 5.59 2.8 4.363 3.985 3.428 5.186 2.482 6.528 2 8 2h.026Zm-.378 2.992a.375.375 0 0 1 .704 0 4.496 4.496 0 0 0 2.655 2.655.375.375 0 0 1 0 .704 4.496 4.496 0 0 0-2.44 2.166l-.088.182-.127.308a.375.375 0 0 1-.677.056l-.027-.056a4.516 4.516 0 0 0-.128-.308l-.09-.187a4.497 4.497 0 0 0-2.21-2.07l-.228-.091a.375.375 0 0 1 0-.704 4.496 4.496 0 0 0 2.656-2.655ZM8 6.468a5.487 5.487 0 0 1-1.531 1.531A5.488 5.488 0 0 1 8 9.529 5.489 5.489 0 0 1 9.53 8 5.487 5.487 0 0 1 8 6.468Zm3.127-3.726a.25.25 0 0 1 .469 0 3 3 0 0 0 1.771 1.772.25.25 0 0 1 0 .468l-.152.061a2.999 2.999 0 0 0-1.62 1.71l-.04.071a.252.252 0 0 1-.388 0l-.04-.071a3 3 0 0 0-1.772-1.77.25.25 0 0 1 0-.47 3 3 0 0 0 1.772-1.77Zm.234 1.533c-.144.17-.302.33-.472.473.17.144.329.3.472.47a3.99 3.99 0 0 1 .472-.47 4 4 0 0 1-.472-.473Z"/>
</svg>
