<svg fill="none" height="16" viewBox="0 0 16 16" width="16" xmlns="http://www.w3.org/2000/svg"><g fill="#222f3e"><path d="m3.5 10v-3c0-.616.391-1 1-1h1c.588 0 .94.423.94 1l.06 3h-1v-1h-1v1zm1-2h1v-1h-1zm5 2v-1h-1v-3h-1v4zm1 0v-3h-1v-1h3v1h-1v3z"/><path d="m1.578 13.422a1.91 1.91 0 0 0 1.4.578h10.044a1.91 1.91 0 0 0 1.4-.578 1.91 1.91 0 0 0 .578-1.4v-8.043a1.91 1.91 0 0 0 -.578-1.4 1.906 1.906 0 0 0 -1.4-.578h-10.043a1.91 1.91 0 0 0 -1.4.578 1.906 1.906 0 0 0 -.579 1.399v8.044c0 .548.193 1.014.578 1.4zm1.4-.4a1 1 0 0 1 -1-1v-8.043a1 1 0 0 1 1-1h10.045a1 1 0 0 1 1 1v8.045a1 1 0 0 1 -1 1h-10.046z"/></g></svg>