<svg fill="none" height="16" viewBox="0 0 16 16" width="16" xmlns="http://www.w3.org/2000/svg"><path d="m15.8591 11.629c.1997.2781.1597.6357-.08.8344-.2796.1987-.679.159-.8788-.0795l-1.3981-1.788-1.3582 1.7483c-.1999.2781-.5993.2781-.879.0795-.2796-.1987-.3195-.5563-.1198-.8345l1.598-2.06608-1.5981-2.06621c-.1996-.2782-.1197-.6755.12-.8742.2796-.1986.679-.1192.8789.1192l1.3581 1.78811 1.3981-1.70851c.1997-.2781.5593-.3179.8788-.1192.2797.1987.2797.596.08.8741l-1.558 2.02651 1.558 2.06618zm-7.27046-.2384c-1.03861 0-1.87751-.7947-1.87751-1.82778 0-.9934.8389-1.8278 1.87751-1.8278 1.0386 0 1.87746.8344 1.87746 1.8278-.04 1.03298-.87876 1.82778-1.87746 1.82778zm-5.51273 0c-1.0386 0-1.87751-.7947-1.87751-1.82778 0-.9934.83891-1.8278 1.87751-1.8278 1.03861 0 1.87751.8344 1.87751 1.8278 0 1.03298-.8389 1.82778-1.87751 1.82778zm5.51273-4.84759c-1.15851 0-2.19701.6357-2.71642 1.58941-.5193-.95371-1.558-1.58941-2.75631-1.58941-.719 0-1.3582.2384-1.8775.596v-2.54301c0-.3179-.279706-.596-.599207-.596-.359602 0-.639203.2781-.639203.596v5.00652c.0400002 1.66888 1.39811 2.98008 3.07601 2.98008 1.19831 0 2.23701-.6755 2.75631-1.6291.51931.9536 1.55791 1.6291 2.71632 1.6291 1.71776 0 3.11586-1.351 3.11586-3.05948.04-1.6291-1.3581-2.98011-3.07586-2.98011z" fill="#222f3e"/></svg>