<svg fill="none" height="16" viewBox="0 0 16 16" width="16" xmlns="http://www.w3.org/2000/svg"><g fill="#222f3e"><path d="m15 12c0 .2652-.1054.5196-.2929.7071s-.4419.2929-.7071.2929h-12c-.26522 0-.51957-.1054-.70711-.2929-.18753-.1875-.29289-.4419-.29289-.7071v-6c0-.26522.10536-.51957.29289-.70711.18754-.18753.44189-.29289.70711-.29289h1.172c.79524-.00044 1.55777-.3166 2.12-.879l.83-.828c.187-.18706.4405-.29241.705-.293h2.344c.26519.00006.51951.10545.707.293l.828.828c.2786.27871.6094.4998.9735.65062s.7544.22843 1.1485.22838h1.172c.2652 0 .5196.10536.7071.29289.1875.18754.2929.44189.2929.70711zm-13-8c-.53043 0-1.039141.21071-1.414214.58579-.375072.37507-.585786.88378-.585786 1.41421v6c0 .5304.210714 1.0391.585786 1.4142.375073.3751.883784.5858 1.414214.5858h12c.5304 0 1.0391-.2107 1.4142-.5858s.5858-.8838.5858-1.4142v-6c0-.53043-.2107-1.03914-.5858-1.41421-.3751-.37508-.8838-.58579-1.4142-.58579h-1.172c-.5304-.00011-1.039-.2109-1.414-.586l-.828-.828c-.375-.3751-.88361-.58589-1.414-.586h-2.344c-.53039.00011-1.03901.2109-1.414.586l-.828.828c-.37499.3751-.88361.58589-1.414.586z"/><path d="m8 11c-.66304 0-1.29893-.2634-1.76777-.7322-.46884-.46887-.73223-1.10476-.73223-1.7678s.26339-1.29893.73223-1.76777 1.10473-.73223 1.76777-.73223 1.29893.26339 1.76777.73223c.46883.46884.73223 1.10473.73223 1.76777s-.2634 1.29893-.73223 1.7678c-.46884.4688-1.10473.7322-1.76777.7322zm0 1c.92826 0 1.8185-.3687 2.4749-1.0251s1.0251-1.54664 1.0251-2.4749-.3687-1.8185-1.0251-2.47487c-.6564-.65638-1.54664-1.02513-2.4749-1.02513s-1.8185.36875-2.47487 1.02513c-.65638.65637-1.02513 1.54661-1.02513 2.47487s.36875 1.8185 1.02513 2.4749c.65637.6564 1.54661 1.0251 2.47487 1.0251zm-5-5.5c0 .13261-.05268.25979-.14645.35355-.09376.09377-.22094.14645-.35355.14645s-.25979-.05268-.35355-.14645c-.09377-.09376-.14645-.22094-.14645-.35355s.05268-.25979.14645-.35355c.09376-.09377.22094-.14645.35355-.14645s.25979.05268.35355.14645c.09377.09376.14645.22094.14645.35355z"/></g></svg>