<svg fill="none" height="16" viewBox="0 0 16 16" width="16" xmlns="http://www.w3.org/2000/svg"><g clip-rule="evenodd" fill="#222f3e" fill-rule="evenodd"><path d="m4.55133 11.5026-.00815-1.76751-.99999.00462.00936 2.02779c.00075.1632.08104.3157.21511.4086l4.16823 2.8899c.17091.1185.39734.1188.56859.0008l4.13792-2.8514c.1361-.0937.2171-.2487.2163-.414l-.0094-2.02784-.9999.00461.0081 1.76373-3.63586 2.5054z"/><path d="m11.5889.0800977c.1653-.1067969.3777-.1067969.5429 0l3.6396 2.3528123c.1425.09212.2286.25022.2286.4199 0 .16969-.0861.32779-.2286.41991l-3.6396 2.35281c-.1652.1068-.3776.1068-.5429 0l-3.63956-2.35281c-.1425-.09212-.22856-.25022-.22856-.41991 0-.16968.08606-.32778.22856-.4199zm-2.44712 2.7727123 2.71862 1.75744 2.7186-1.75744-2.7186-1.75743z"/><path d="m11.5889 5.22687c.1653-.1068.3777-.1068.5429 0l3.6396 2.35281c.1425.09212.2286.25022.2286.4199s-.0861.32779-.2286.41991l-3.911 2.52831-3.91106-2.52831c-.1425-.09212-.22856-.25023-.22856-.41991s.08606-.32778.22856-.4199zm-2.44712 2.77271 2.71862 1.75744 2.7186-1.75744-2.7186-1.75743z"/><path d="m3.86817.0800977c.16521-.1067969.37768-.1067969.54289 0l3.63961 2.3528123c.1425.09212.22855.25022.22855.4199 0 .16969-.08605.32779-.22855.41991l-3.63961 2.35281c-.16521.1068-.37768.1068-.54289 0l-3.639611-2.35281c-.1424999-.09212-.2285559-.25022-.2285559-.41991 0-.16968.086056-.32778.2285559-.4199zm-2.44717 2.7727123 2.71861 1.75744 2.71861-1.75744-2.71861-1.75743z"/><path d="m3.86817 5.22687c.1652-.1068.37768-.1068.54288 0l3.63961 2.35281c.1425.09212.22856.25022.22856.4199s-.08606.32779-.22856.41991l-3.91105 2.52831-3.911054-2.52831c-.1425-.09212-.228556-.25023-.228556-.41991s.086056-.32778.228556-.4199zm-2.44717 2.77271 2.71861 1.75744 2.71861-1.75744-2.71861-1.75743z"/></g></svg>