<svg fill="none" height="16" viewBox="0 0 16 16" width="16" xmlns="http://www.w3.org/2000/svg"><path clip-rule="evenodd" d="m5.5087.0274448c-.1954.0574113-.26893.1007212-.47642.2830272-.28302.248782-2.29846 2.248108-3.0861 3.061938-.66678.68893-.85513.91958-.91456 1.11901-.111797.37569.09065 3.14151.32836 4.49218.13798.78865.32835 1.1905.78361 1.6609.54087.56 1.26305.9679 2.34379 1.3235.79671.2619 2.23904.5529 2.74466.5529.21857 0 .37066-.0815.45627-.2457.03122-.0594.52375-1.4141.52375-1.4393 0-.0051.03727.0191.0836.0544.17223.1309.21353.1349 1.61457.144l1.28617.0091v-.9901l-.7111-.0031c-.3908-.002-.91652-.01-1.16832-.0181l-.45829-.0141-.14604-.34848c-.16821-.40289-.1944-.44822-.29612-.51066-.24174-.14806-.54289-.09267-.69196.12691-.0272.04028-.21957.54893-.42605 1.12803-.12463.3565-.25357.7114-.38677 1.0647-.02821.0292-1.02535-.1642-1.53198-.2961-1.12103-.2931-1.9691-.7001-2.45962-1.1815-.39583-.38779-.50361-.65974-.64159-1.61659-.08498-.64022-.15148-1.28275-.19943-1.9268-.0141-.20044-.03022-.39886-.03525-.44016l-.01008-.07655h1.70119c1.09484 0 1.74248-.00906 1.81601-.02517.068-.01656.13205-.04646.18841-.08795.05637-.0415.10393-.09377.13994-.15379.03827-.06849.0423-.2518.05238-2.37702l.01208-2.303506.50562-.00705c.69196-.009065 1.23989.025176 1.42118.088636.30821.10777.67081.38475.84204.6426.04532.06749.11381.21454.1541.32735.09065.25684.12792.33036.20849.4049.10475.09669.22763.12691.66779.16417 1.02437.08662 1.70517.35051 2.25317.87427.43.41094.6667.85311.7957 1.48866.1712.838.2689 2.36393.2709 4.24239.002 1.43331-.0262 2.02451-.1299 2.65201-.2448 1.4957-.6275 2.5261-1.116 3.0075l-.1108.1098h-1.7042l-.08462-.0977c-.30217-.3535-.24375-.9387.12692-1.2691.2276-.2034.557-.3263.9699-.3606l.1823-.0161v-.983h-.1591c-.4043.01-.8021.1036-1.16837.275-.52879.2679-.87023.6526-1.04851 1.1824-.06547.1934-.07655.2649-.08662.5318-.01209.3475.02115.552.13497.83.17122.4129.50662.7564.86419.8843.1118.0393 2.12824.0484 2.26724.0091.1199-.0333.425-.2639.5892-.4462.6285-.694 1.0667-1.8533 1.3416-3.5484.0766-.4664.1068-.9035.132-1.8795.0513-1.99227-.0816-4.32296-.3082-5.4168-.0929-.4735-.2798-.92356-.5497-1.32355s-.6173-.74177-1.0216-1.00513c-.5822-.38778-1.3084-.63455-2.1212-.72016l-.27596-.02921-.0695-.14907c-.31425-.669795-1.01124-1.219734-1.7868-1.4070765-.21151-.05136792-2.25717-.0694978-2.42134-.0221587zm-.56405 3.3399252v1.56219h-2.96121v-.0705c0-.05439.03828-.1108.16921-.25181.16418-.17727 2.77488-2.80308 2.78596-2.80308.00403 0 .00604.70304.00604 1.5632zm5.38055 2.93301c-.2605.08182-.47783.26367-.60433.50562-.10576.19943-.14605.3626-.14605.59527 0 .17223.00705.2095.0413.22763.02216.01108.1682.02719.32332.03525.46336.02216.71006.11482 1.05756.39584.1128.09165.2196.16014.2417.15511.0494-.00907.1803-.26691.2297-.45325.0514-.19338.0705-.65872.0352-.85613-.0211-.12443-.0703-.24239-.144-.34486s-.1698-.18674-.281-.24638c-.0826-.04331-.6134-.05338-.7534-.0141z" fill="#222f3e" fill-rule="evenodd"/></svg>