<svg fill="none" height="16" viewBox="0 0 16 16" width="16" xmlns="http://www.w3.org/2000/svg"><path clip-rule="evenodd" d="m11.1156 10.3747h-1.86476v5.6243c.34095-.0539.67477-.1294.99996-.2251 3.3221-.9781 5.7492-4.0666 5.7492-7.72491 0-4.44544-3.5816-8.04899-7.999-8.04899-4.41945.00099987-8.001 3.60355-8.001 8.04999 0 3.65831 2.42713 6.74681 5.74916 7.72491.32523.0957.65904.1712 1 .2251v-5.6243h-2.02975v-2.32571h2.03175v-1.77477c0-2.01675 1.19485-3.13061 3.02162-3.13061.87592 0 1.79082.15698 1.79082.15698v1.97975h-1.0089c-.9929 0-1.30286.62092-1.30286 1.25784v1.50981h2.21776zm-.8638-3.32571h2.3815l-.6584 4.32571h-1.7241v3.35c2.7585-.9427 4.7492-3.5733 4.7492-6.67571 0-2.13959-.9454-4.05363-2.4364-5.34536v3.57771h-2.0089c-.145 0-.2195.02269-.2478.03413-.0092.00371-.0147.00664-.0177.00845-.0063.01074-.0374.06912-.0374.21526zm.0345-.72299c0-.00003.0004-.0004.0013-.00106zm1.8913-3.93367-.4449-.07634-.1691.9856c.1691-.9856.1692-.98559.1691-.9856l-.0052-.00088-.0104-.00174-.036-.00588c-.0305-.00489-.0737-.01166-.1278-.01966-.108-.01598-.2603-.03705-.4414-.05807-.358-.04154-.8477-.08515-1.33912-.08515-1.11715 0-2.15057.34452-2.9053 1.10426-.75503.76005-1.11632 1.81994-1.11632 3.02635v.77477h-2.03175v4.32571h2.02975v3.35c-2.75846-.9427-4.74916-3.5733-4.74916-6.67571 0-3.89964 3.13931-7.04899 7.001-7.04999m0 0c1.56402.00005 3.0101.51743 4.1766 1.39233z" fill="#222f3e" fill-rule="evenodd"/></svg>