<svg width="16" height="16" viewBox="0 0 16 16" fill="none" xmlns="http://www.w3.org/2000/svg">
<path fill-rule="evenodd" clip-rule="evenodd" d="M4.15127 10.0807C5.36992 10.0807 6.30254 9.13622 6.30254 8.05376C6.30254 6.96024 5.35754 6 4.15127 6C2.96689 6 2 6.96582 2 8.05376C2 9.13049 2.95518 10.0807 4.15127 10.0807ZM11.8487 10.0807C13.0448 10.0807 14 9.13049 14 8.05376C14 6.96582 13.0331 6 11.8487 6C10.6298 6 9.6689 6.97153 9.6689 8.05376C9.6689 9.12482 10.6181 10.0807 11.8487 10.0807ZM7.30254 8.05376C7.30254 9.72897 5.88086 11.0807 4.15127 11.0807C2.45025 11.0807 1 9.72897 1 8.05376C1 6.37856 2.45025 5 4.15127 5C5.87996 5 7.30254 6.37856 7.30254 8.05376ZM15 8.05376C15 9.72897 13.5498 11.0807 11.8487 11.0807C10.1191 11.0807 8.6689 9.72897 8.6689 8.05376C8.6689 6.37856 10.1191 5 11.8487 5C13.5498 5 15 6.37856 15 8.05376Z" fill="#222F3E"/>
</svg>
