<svg fill="none" height="16" viewBox="0 0 16 16" width="16" xmlns="http://www.w3.org/2000/svg"><path d="m.358595 3.93977-.040973-.89115c0-.54333.215836-1.0644.600027-1.44859s.905261-.60003 1.448591-.60003h3.76126c.54328.00012 1.06427.21603 1.44837.60024l.84813.84813c.3841.38422.90509.60013 1.44837.60025h4.07883c.2846-.00003.5662.05927.8267.17412s.4941.28273.6861.49293.3381.4581.4289.7279c.0908.26979.1245.55556.0987.83906l-.6525 7.17017c-.0462.509-.2811.9823-.6584 1.327-.3773.3448-.8699.536-1.381.5362h-10.59954c-.51109-.0002-1.00364-.1914-1.38097-.5362-.377328-.3447-.61217-.818-.658424-1.327l-.65248478-7.17017c-.04277812-.4744.08109518-.94889.35031378-1.34184zm1.690105.13316c-.14229-.00001-.28302.02963-.41322.08702s-.24702.14129-.343.24633c-.09599.10504-.16903.22893-.21448.36377-.04545.13483-.06231.27766-.04951.41937l.65249 7.17018c.023.2545.14029.4912.32886.6637.18857.1724.43479.2682.69032.2684h10.59954c.2555-.0002.5018-.096.6903-.2684.1886-.1725.3059-.4092.3289-.6637l.6525-7.17018c.0128-.14171-.0041-.28454-.0495-.41937-.0455-.13484-.1185-.25873-.2145-.36377s-.2128-.18894-.343-.24633-.2709-.08703-.4132-.08702zm4.80401-1.7485c-.09521-.09524-.20828-.17078-.33272-.22228-.12444-.05149-.25781-.07795-.39249-.07784h-3.76126c-.26833-.00005-.52596.10519-.7175.2931-.19155.1879-.30171.44347-.30681.71175l.00615.14237c.22056-.08126.45411-.12223.70062-.12291h5.52717z" fill="#222f3e"/></svg>