<svg fill="none" height="16" viewBox="0 0 16 16" width="16" xmlns="http://www.w3.org/2000/svg"><path clip-rule="evenodd" d="m5.317 1.24998c.08932-.15469.25438-.24998.433-.24998h4.5c.1786 0 .3437.09529.433.24998l5.25 9.09232c.0893.1546.0893.3452.0001.4999l-2.25 3.9c-.0893.1547-.2544.2501-.4331.2501h-10.5c-.17869 0-.3438-.0954-.43309-.2501l-2.2500028-3.9c-.0892423-.1547-.0892074-.3453.0000915-.4999zm.72166.75002-4.67259 8.0923h3.34901l4.66917-8.0923zm4.21154.5002 4.6725 8.0922-1.6729 2.8997-4.67261-8.09241zm-2.25017 3.89978-2.13043 3.69232h4.2624zm2.70937 4.69232h-5.69688c-.00609.0001-.01218.0001-.01828 0h-3.62854l1.67308 2.9h9.34512z" fill="#222f3e" fill-rule="evenodd"/></svg>