<svg fill="none" height="16" viewBox="0 0 16 16" width="16" xmlns="http://www.w3.org/2000/svg"><path clip-rule="evenodd" d="m7.5.5c0-.276142.22386-.5.5-.5 2.3473 0 4.25 1.90285 4.25 4.25 0 1.30373-.587 2.47038-1.5112 3.25h4.7612c.2761 0 .5.22386.5.5 0 2.3473-1.9027 4.25-4.25 4.25-1.3038 0-2.4704-.587-3.25-1.5112v4.7612c0 .2761-.22386.5-.5.5-2.34715 0-4.25-1.9027-4.25-4.25 0-1.3038.58706-2.4704 1.51125-3.25h-4.76125c-.276142 0-.5-.22386-.5-.5 0-2.34716 1.90284-4.25 4.25-4.25 1.30373 0 2.47038.58708 3.25 1.51128zm-.03823 7c-.24051-1.55751-1.58693-2.75-3.21177-2.75s-2.97126 1.19249-3.21177 2.75zm.03823 1.03823v6.42357c-1.55751-.2405-2.75-1.5869-2.75-3.2118s1.19249-2.97127 2.75-3.21177zm1.03822-.03823h6.42358c-.2405 1.5576-1.5869 2.75-3.2118 2.75s-2.97129-1.1924-3.21178-2.75zm-.03822-1.03822v-6.42356c1.5576.24051 2.75 1.58692 2.75 3.21178s-1.1924 2.97127-2.75 3.21178z" fill="#222f3e" fill-rule="evenodd"/></svg>