<svg xmlns="http://www.w3.org/2000/svg" width="16" height="16" fill="none" viewBox="0 0 16 16">
  <path fill="#222F3E" d="M1.522 14.478c.348.348.767.522 1.256.522h10.444c.49 0 .908-.174 1.256-.522.348-.348.522-.767.522-1.256V7h-1v6a1 1 0 0 1-1 1H2V3a1 1 0 0 1 1-1h6V1H2.778c-.49 0-.908.174-1.256.522A1.712 1.712 0 0 0 1 2.778v10.444c0 .49.174.908.522 1.256Z"/>
  <path fill="#222F3E" d="M15 4.214C13.379 3.961 11.904 2.52 11.762 1c-.156 1.67-1.557 2.96-3.19 3.214 1.633.255 3.034 1.545 3.19 3.215.142-1.52 1.617-2.962 3.238-3.215Zm-4.286 3.929a2.918 2.918 0 0 1-2.857-2.857A2.918 2.918 0 0 1 5 8.143 2.918 2.918 0 0 1 7.857 11a2.918 2.918 0 0 1 2.857-2.857Z"/>
</svg>
