<svg xmlns="http://www.w3.org/2000/svg" width="16" height="16" fill="none" viewBox="0 0 16 16">
  <path fill="#222F3E" d="M7.896 5.97a.699.699 0 0 0 .524-.225.728.728 0 0 0-.516-1.247.717.717 0 0 0-.523.214.706.706 0 0 0-.217.522c0 .19.07.36.213.51a.687.687 0 0 0 .52.227Zm.006 3.583c-.453 0-.833-.165-1.142-.494-.31-.329-.437-.734-.385-1.215-.134.099-.283.17-.448.213a1.945 1.945 0 0 1-.49.064c-.408 0-.75-.142-1.028-.425a1.416 1.416 0 0 1-.416-1.03c0-.297.08-.574.241-.83.161-.257.375-.457.642-.602a1.665 1.665 0 0 1-.645-.6 1.55 1.55 0 0 1-.238-.832c0-.403.14-.747.421-1.03a1.387 1.387 0 0 1 1.022-.424 1.717 1.717 0 0 1 .946.289c-.04-.477.09-.883.389-1.218A1.45 1.45 0 0 1 7.9.916c.452 0 .829.168 1.128.503.3.335.43.74.389 1.218a1.718 1.718 0 0 1 .946-.289c.405 0 .75.141 1.035.424.284.283.427.627.427 1.03 0 .3-.08.578-.242.836a1.646 1.646 0 0 1-.641.596c.271.157.486.36.645.61.158.251.238.525.238.822a1.4 1.4 0 0 1-.427 1.03c-.285.283-.63.425-1.035.425-.163 0-.327-.025-.491-.073a1.962 1.962 0 0 1-.462-.204c.057.481-.067.886-.373 1.215a1.489 1.489 0 0 1-1.136.494ZM7.9 14.916c0-.746.152-1.455.457-2.125a6 6 0 0 1 3.005-3.005 5.08 5.08 0 0 1 2.125-.457c0 .746-.152 1.455-.457 2.125a6.002 6.002 0 0 1-3.005 3.005 5.08 5.08 0 0 1-2.125.457Zm1.114-1.114a5.097 5.097 0 0 0 2.126-1.248 4.675 4.675 0 0 0 1.233-2.111 5.54 5.54 0 0 0-2.135 1.251 4.363 4.363 0 0 0-1.224 2.108ZM7.9 14.916a5.08 5.08 0 0 0-.457-2.125 6 6 0 0 0-3.005-3.005 5.08 5.08 0 0 0-2.125-.457c0 .746.152 1.455.457 2.125a6.003 6.003 0 0 0 3.005 3.005 5.08 5.08 0 0 0 2.125.457Zm-1.114-1.114a5.304 5.304 0 0 1-2.135-1.242 4.42 4.42 0 0 1-1.224-2.117 5.09 5.09 0 0 1 2.126 1.248 4.674 4.674 0 0 1 1.233 2.111Zm3.358-6.395a.766.766 0 0 0 .562-.234.767.767 0 0 0 .234-.563.846.846 0 0 0-.127-.458.595.595 0 0 0-.364-.267l-.902-.332c-.02.11-.045.212-.074.305a1.118 1.118 0 0 1-.135.279 2.528 2.528 0 0 1-.188.253 1.459 1.459 0 0 1-.223.21l.751.609c.07.055.142.102.213.14a.525.525 0 0 0 .253.058Zm-.551-2.38.874-.352a.575.575 0 0 0 .358-.266.847.847 0 0 0 .122-.444.806.806 0 0 0-.225-.573.73.73 0 0 0-.553-.239.557.557 0 0 0-.26.058.872.872 0 0 0-.212.16l-.727.59a.658.658 0 0 1 .23.19c.055.077.113.161.174.254.061.093.106.189.135.288.03.1.057.21.084.333ZM7.327 3.648c.09-.032.186-.06.288-.085a1.25 1.25 0 0 1 .286-.036c.09 0 .188.012.296.036.108.025.206.053.294.085l.198-1.025c.052-.2-.006-.376-.174-.528a.875.875 0 0 0-.608-.228.866.866 0 0 0-.606.228c-.167.152-.224.328-.171.528l.197 1.025ZM7.9 8.583c.24 0 .445-.074.614-.22a.502.502 0 0 0 .175-.536L8.49 6.82a1.03 1.03 0 0 1-.294.106 1.488 1.488 0 0 1-.296.033c-.089 0-.185-.01-.287-.033a1.04 1.04 0 0 1-.287-.106L7.13 7.827a.506.506 0 0 0 .169.535.87.87 0 0 0 .601.22Zm-1.647-3.63a1.781 1.781 0 0 1 .228-.603c.06-.093.117-.177.169-.253a.884.884 0 0 1 .205-.21l-.715-.572a2.459 2.459 0 0 0-.212-.15.467.467 0 0 0-.253-.067.763.763 0 0 0-.563.237.78.78 0 0 0-.234.569.84.84 0 0 0 .128.446.592.592 0 0 0 .364.27l.883.333Zm-.588 2.461a.648.648 0 0 0 .475-.199l.727-.615a1.463 1.463 0 0 1-.212-.228 6.38 6.38 0 0 1-.174-.253 1.509 1.509 0 0 1-.228-.566l-.883.35a.583.583 0 0 0-.362.272.865.865 0 0 0-.125.455.729.729 0 0 0 .221.562c.152.148.34.222.56.222Z"/>
</svg>
