<svg fill="none" height="16" viewBox="0 0 16 16" width="16" xmlns="http://www.w3.org/2000/svg" xmlns:xlink="http://www.w3.org/1999/xlink"><clipPath id="a"><path d="m0 0h16v16h-16z"/></clipPath><g clip-path="url(#a)" fill="#222f3e"><path clip-rule="evenodd" d="m5.63883 4.46625c.69891-.46699 1.5206-.71625 2.36117-.71625 1.12717 0 2.2082.44777 3.0052 1.2448s1.2448 1.87803 1.2448 3.0052c0 .84057-.2493 1.66226-.7163 2.3612-.4669.6989-1.1307 1.2436-1.9073 1.5653-.77658.3217-1.63111.4058-2.45553.2418s-1.5817-.5687-2.17607-1.1631c-.59438-.5944-.99915-1.35165-1.16314-2.17607-.16398-.82442-.07982-1.67895.24185-2.45554.32168-.77658.86641-1.44034 1.56532-1.90734zm2.36117.28375c-.64279 0-1.27114.19061-1.8056.54772-.53446.35712-.95102.8647-1.19701 1.45856-.24598.59386-.31034 1.24732-.18494 1.87776s.43493 1.20954.88945 1.66406c.45452.4545 1.03362.764 1.66406.8895.63044.1254 1.2839.061 1.87776-.185s1.10148-.6625 1.45858-1.197c.3571-.53446.5477-1.16281.5477-1.8056 0-.86195-.3424-1.6886-.9519-2.2981-.60949-.60949-1.43615-.9519-2.2981-.9519z" fill-rule="evenodd"/><path d="m12.375 4.25c.1236 0 .2445-.03666.3472-.10533.1028-.06868.1829-.16629.2302-.28049.0473-.11421.0597-.23987.0356-.36111s-.0837-.2326-.1711-.32001-.1987-.14693-.32-.17105c-.1212-.02412-.2469-.01174-.3611.03557-.1142.0473-.2118.12741-.2805.23019-.0686.10278-.1053.22362-.1053.34723 0 .16576.0658.32473.1831.44194.1172.11721.2761.18306.4419.18306z"/><path clip-rule="evenodd" d="m0 4.5c0-2.48528 2.01472-4.5 4.5-4.5h7c2.4853 0 4.5 2.01472 4.5 4.5v7c0 2.4853-2.0147 4.5-4.5 4.5h-7c-2.48528 0-4.5-2.0147-4.5-4.5zm4.5-3.5c-1.933 0-3.5 1.567-3.5 3.5v7c0 1.933 1.567 3.5 3.5 3.5h7c1.933 0 3.5-1.567 3.5-3.5v-7c0-1.933-1.567-3.5-3.5-3.5z" fill-rule="evenodd"/></g></svg>