<svg fill="none" height="16" viewBox="0 0 16 16" width="16" xmlns="http://www.w3.org/2000/svg"><path clip-rule="evenodd" d="m7.47248 3.02706c-.77578.1007-1.52203.36211-2.19106.76753-.66904.40543-1.24615.94595-1.69447 1.58703l-.13125.18536-.22143.0521c-.53531.13772-1.04139.3709-1.4939.68833-.38186.2911-.72055.63484-1.005945 1.02098-.327885.48437-.558593 1.02779-.6793157 1.6001-.0741437.34667-.0731417 1.30251.001002 1.64621.2314487 1.064.7925357 1.9548 1.6231487 2.578.51206.3818 1.10117.6475 1.72634.7785l.28756.0641h4.59891c4.38453 0 4.61093-.002 4.84033-.0531 1.2895-.2825 2.2845-1.1653 2.6943-2.3886.1202-.3597.1733-.7014.1733-1.1212 0-.97588-.3437-1.81551-1.022-2.49984-.3998-.40278-.9368-.73943-1.4257-.89373l-.1594-.0501-.1062-.2585c-.4158-1.01296-1.032-1.89567-1.7383-2.48982-.8096-.68032-1.67527-1.06807-2.68923-1.20333-.46095-.04583-.92513-.04918-1.38669-.01002zm1.14021.99092c1.49091.15931 2.73231 1.06606 3.49681 2.55495.1653.32062.1793.29257-.1573.32463-.3257.03206-.6874.1543-1.5881.53904l-.89976.38475-1.64218-.92379c-.61133-.34869-1.22793-.68805-1.84959-1.01797-.28691-.13147-.5882-.22899-.89774-.29057-.09662-.01788-.19283-.03792-.28856-.06011-.02905-.00802.04609-.09619.23246-.27454.47276-.45552 1.03939-.80221 1.6602-1.01578s1.2808-.28887 1.93376-.22061zm-3.58895 2.581c.12223.03407.33264.10921.4679.16732.21241.09318 2.70324 1.47486 2.76736 1.53598.01704.01603-5.42952 2.37262-6.8673 2.97172-.04108.0171-.19137-.3166-.27954-.6232-.10079-.352-.141106-.71856-.119234-1.08407.086164-1.51995 1.186294-2.74632 2.712254-3.02486.07214-.01303.34767-.01904.61319-.01303.37973.00802.53003.02305.70537.07014zm7.93636 1.32056c.6412.14233 1.2076.51575 1.5911 1.04903.2344.34166.4088.83562.4439 1.26443.022.2585-.0091.6543-.0511.6543-.0241 0-3.4988-1.94278-4.1781-2.33554l-.1954-.11322.3236-.13927c.5501-.23846.8066-.33565.9939-.37673.3553-.0536.7165-.05461 1.0721-.003zm-.9208 2.49986c1.3587.7615 2.4868 1.3997 2.5069 1.4177.028.0261.002.0732-.1293.2295-.3587.4278-.8427.7324-1.3836.8707l-.2555.0641h-4.45668c-4.20314 0-4.47066-.002-4.6981-.0511-.55511-.1101-1.07303-.3597-1.50491-.7254l-.12825-.1112.10019-.0471c.05411-.0251 1.72134-.7405 3.70418-1.5881l3.60498-1.54199.08517.04809z" fill="#222f3e" fill-rule="evenodd"/></svg>