<svg xmlns="http://www.w3.org/2000/svg" width="16" height="16" fill="none" viewBox="0 0 16 16">
  <path fill="#222F3E" d="M6.103 12.76 6.375 15H8v-1h-.74l-.24-1.988a4.125 4.125 0 0 1-1.065-.44 4.124 4.124 0 0 1-.898-.722l-1.833.787-.722-1.274 1.592-1.22a3.084 3.084 0 0 1-.13-.562 4.601 4.601 0 0 1 0-1.181c.025-.188.068-.375.13-.563l-1.592-1.2.722-1.274 1.833.768c.272-.275.571-.51.898-.703.327-.194.682-.34 1.065-.44L7.28 2h1.462l.241 1.987c.383.1.738.247 1.065.441.327.194.627.434.898.722l1.833-.788.723 1.276-1.593 1.218c.062.175.105.36.13.553a4.685 4.685 0 0 1 0 1.182 2.748 2.748 0 0 1-.084.409h1.047l.013-.128c.03-.29.06-.58.06-.872 0-.241-.014-.48-.044-.717l-.003-.024L14.8 5.902 13.208 3.09l-2.062.886A5.018 5.018 0 0 0 9.9 3.24L9.629 1H6.4l-.29 2.238a5.117 5.117 0 0 0-1.245.728l-2.073-.87L1.2 5.909l1.777 1.34-.003.021a5.599 5.599 0 0 0 0 1.443l.004.028-1.775 1.358 1.593 2.812 2.062-.886a5.008 5.008 0 0 0 1.246.735Z"/>
  <path fill="#222F3E" d="m13.744 14.95-1.767-1.768-1.768 1.768-.707-.707 1.768-1.768-1.768-1.768.707-.707 1.768 1.768L13.744 10l.707.708-1.767 1.767 1.767 1.768-.707.707ZM10 8a2 2 0 1 1-4 0 2 2 0 0 1 4 0ZM9 8a1 1 0 1 1-2 0 1 1 0 0 1 2 0Z"/>
</svg>
