<svg xmlns="http://www.w3.org/2000/svg" width="16" height="16" fill="none" viewBox="0 0 16 16">
  <path fill="#222F3E" d="M4 11.5a.5.5 0 0 0 .5.5h.875v1H4.5A1.5 1.5 0 0 1 3 11.5v-.875h1v.875ZM12.5 9a.5.5 0 0 1 0 1h-1.793l2.146 2.146a.5.5 0 1 1-.707.707L10 10.707V12.5a.5.5 0 0 1-1 0v-3a.5.5 0 0 1 .5-.5h3ZM4 8.875H3v-1.75h1v1.75ZM5.375 4H4.5a.5.5 0 0 0-.5.5v.875H3V4.5A1.5 1.5 0 0 1 4.5 3h.875v1ZM11.5 3A1.5 1.5 0 0 1 13 4.5v.875h-1V4.5a.5.5 0 0 0-.5-.5h-.875V3h.875ZM8.875 4h-1.75V3h1.75v1Z"/>
</svg>
