<?xml version="1.0" encoding="UTF-8"?>
<svg width="24px" height="24px" viewBox="0 0 24 24" version="1.1" xmlns="http://www.w3.org/2000/svg" xmlns:xlink="http://www.w3.org/1999/xlink">
  <path fill-rule="evenodd" clip-rule="evenodd" d="M9 12v4H5a2 2 0 0 0-2 2v3h9.3a6 6 0 0 1-.3-2H5v-1h7a6 6 0 0 1 .8-2H11v-5l-.8-.6a3 3 0 1 1 3.6 0l-.8.6v4.7a6 6 0 0 1 2-1.9V12a5 5 0 1 0-6 0Z"></path>
  <path d="M18 15c.5 0 1 .4 1 .9V18h2a1 1 0 0 1 .1 2H19v2a1 1 0 0 1-2 .1V20h-2a1 1 0 0 1-.1-2H17v-2c0-.6.4-1 1-1Z"></path>
</svg>