<svg fill="none" height="16" viewBox="0 0 16 16" width="16" xmlns="http://www.w3.org/2000/svg"><path clip-rule="evenodd" d="m.0953026 3.20637c.0940594-.12964.2445334-.20637.4047014-.20637h2.642306c.1926 0 .36807.11062.45112.28438.16262.34025.31987.68268.47493 1.02035.35758.77871.70353 1.53209 1.07696 2.17487.26441.45513.52445.82091.78524 1.07735.04722.04643.09343.08828.13867.12582v-2.92131l-.76573-.9471c-.12114-.14982-.14541-.35592-.0624-.52979s.25854-.28457.45121-.28457h3.67308c.27614 0 .5.22386.5.5v3.31558c.33901-.37282.62031-.78663.88241-1.22876.1794-.30259.3455-.61061.5172-.92889.0416-.0772.0836-.155.1261-.23347.2151-.39668.4424-.80476.7031-1.19984.0925-.14023.2493-.22462.4173-.22462h2.5308c.1551 0 .3015.07201.3962.19492.0946.12291.1269.2828.0872.43279-.4905 1.85667-1.4466 3.15526-2.3455 4.37598-.0148.02019-.0297.04035-.0445.0605 1.1967 1.09019 2.1575 2.41631 2.8206 3.89681.0693.1547.0555.334-.0367.4762-.0921.1423-.2501.2282-.4196.2282h-2.7846c-.1199 0-.2358-.0431-.3266-.1214-.3006-.2593-.5581-.5421-.792-.8084-.0485-.0551-.0957-.1092-.1419-.1623-.1832-.21-.3524-.404-.5349-.5871-.3104-.3113-.6369-.5672-1.05461-.7293v1.9085c0 .2518-.18726.4643-.43707.496-3.17777.4032-5.31532-1.1637-6.74618-3.15204-1.37046-1.90441-2.133125-4.24509-2.6125216-5.71638-.0152636-.04684-.03024-.09281-.0449398-.13785-.0496945-.15226-.02343546-.31912.070624-.44876zm1.0947974.79363c.48099 1.44902 1.17566 3.35768 2.30372 4.92526 1.22039 1.69584 2.90806 2.94364 5.37157 2.78594v-2.09966c0-.14577.06361-.28428.17418-.37927.11057-.09498.25708-.13699.40118-.11502.99735.15207 1.65405.628 2.18735 1.16285.2086.2092.4054.435.5905.6474.0438.0502.0869.0997.1294.148.1858.2116.366.4094.559.5899h1.7899c-.6451-1.1981-1.5121-2.26553-2.5571-3.14424-.2009-.16885-.237-.46422-.0828-.67652.1057-.14558.2112-.28913.3158-.43158.7853-1.06897 1.525-2.07599 1.9936-3.41306h-1.5811c-.1792.28903-.3463.58981-.5151.90114-.0401.07385-.0803.14853-.1209.2238-.1724.31974-.3505.65007-.5413.97189-.4757.80228-1.0568 1.59937-1.95254 2.23735-.15245.10859-.35279.12293-.51916.03717s-.27091-.25725-.27091-.44443v-3.92692h-2.12584l.2185.27025c.07194.08898.11118.19994.11118.31437v3.86538c0 .14266-.06093.27853-.16747.3734-.10654.09488-.24854.13973-.39024.12326-.5047-.05866-.92914-.32961-1.2821-.67669-.35231-.34644-.66462-.79893-.94877-1.28803-.39868-.68624-.77786-1.51178-1.1448-2.31068-.10435-.22718-.20771-.4522-.31024-.67126z" fill="#222f3e" fill-rule="evenodd"/></svg>