<svg id="my-svg" width="1014" xmlns="http://www.w3.org/2000/svg" xmlns:xlink="http://www.w3.org/1999/xlink" class="flowchart" style="max-width: 1014.05px; background-color: white;" viewBox="0 0 1014.05078125 544.309326171875" role="graphics-document document" aria-roledescription="flowchart-v2"><style>#my-svg{font-family:"trebuchet ms",verdana,arial,sans-serif;font-size:16px;fill:#333;}@keyframes edge-animation-frame{from{stroke-dashoffset:0;}}@keyframes dash{to{stroke-dashoffset:0;}}#my-svg .edge-animation-slow{stroke-dasharray:9,5!important;stroke-dashoffset:900;animation:dash 50s linear infinite;stroke-linecap:round;}#my-svg .edge-animation-fast{stroke-dasharray:9,5!important;stroke-dashoffset:900;animation:dash 20s linear infinite;stroke-linecap:round;}#my-svg .error-icon{fill:#552222;}#my-svg .error-text{fill:#552222;stroke:#552222;}#my-svg .edge-thickness-normal{stroke-width:1px;}#my-svg .edge-thickness-thick{stroke-width:3.5px;}#my-svg .edge-pattern-solid{stroke-dasharray:0;}#my-svg .edge-thickness-invisible{stroke-width:0;fill:none;}#my-svg .edge-pattern-dashed{stroke-dasharray:3;}#my-svg .edge-pattern-dotted{stroke-dasharray:2;}#my-svg .marker{fill:#333333;stroke:#333333;}#my-svg .marker.cross{stroke:#333333;}#my-svg svg{font-family:"trebuchet ms",verdana,arial,sans-serif;font-size:16px;}#my-svg p{margin:0;}#my-svg .label{font-family:"trebuchet ms",verdana,arial,sans-serif;color:#333;}#my-svg .cluster-label text{fill:#333;}#my-svg .cluster-label span{color:#333;}#my-svg .cluster-label span p{background-color:transparent;}#my-svg .label text,#my-svg span{fill:#333;color:#333;}#my-svg .node rect,#my-svg .node circle,#my-svg .node ellipse,#my-svg .node polygon,#my-svg .node path{fill:#ECECFF;stroke:#9370DB;stroke-width:1px;}#my-svg .rough-node .label text,#my-svg .node .label text,#my-svg .image-shape .label,#my-svg .icon-shape .label{text-anchor:middle;}#my-svg .node .katex path{fill:#000;stroke:#000;stroke-width:1px;}#my-svg .rough-node .label,#my-svg .node .label,#my-svg .image-shape .label,#my-svg .icon-shape .label{text-align:center;}#my-svg .node.clickable{cursor:pointer;}#my-svg .root .anchor path{fill:#333333!important;stroke-width:0;stroke:#333333;}#my-svg .arrowheadPath{fill:#333333;}#my-svg .edgePath .path{stroke:#333333;stroke-width:1px;}#my-svg .flowchart-link{stroke:#333333;fill:none;}#my-svg .edgeLabel{background-color:rgba(232,232,232, 0.8);text-align:center;}#my-svg .edgeLabel p{background-color:rgba(232,232,232, 0.8);}#my-svg .edgeLabel rect{opacity:0.5;background-color:rgba(232,232,232, 0.8);fill:rgba(232,232,232, 0.8);}#my-svg .labelBkg{background-color:rgba(232, 232, 232, 0.5);}#my-svg .cluster rect{fill:#ffffde;stroke:#aaaa33;stroke-width:1px;}#my-svg .cluster text{fill:#333;}#my-svg .cluster span{color:#333;}#my-svg div.mermaidTooltip{position:absolute;text-align:center;max-width:200px;padding:2px;font-family:"trebuchet ms",verdana,arial,sans-serif;font-size:12px;background:hsl(80, 100%, 96.2745098039%);border:1px solid #aaaa33;border-radius:2px;pointer-events:none;z-index:100;}#my-svg .flowchartTitleText{text-anchor:middle;font-size:18px;fill:#333;}#my-svg rect.text{fill:none;stroke-width:0;}#my-svg .icon-shape,#my-svg .image-shape{background-color:rgba(232,232,232, 0.8);text-align:center;}#my-svg .icon-shape p,#my-svg .image-shape p{background-color:rgba(232,232,232, 0.8);padding:2px;}#my-svg .icon-shape .label rect,#my-svg .image-shape .label rect{opacity:0.5;background-color:rgba(232,232,232, 0.8);fill:rgba(232,232,232, 0.8);}#my-svg .label-icon{display:inline-block;height:1em;overflow:visible;vertical-align:-0.125em;}#my-svg .node .label-icon path{fill:currentColor;stroke:revert;stroke-width:revert;}#my-svg .node .neo-node{stroke:#9370DB;}#my-svg [data-look="neo"].node rect,#my-svg [data-look="neo"].cluster rect,#my-svg [data-look="neo"].node polygon{stroke:#9370DB;filter:drop-shadow(1px 2px 2px rgba(185, 185, 185, 1));}#my-svg [data-look="neo"].node path{stroke:#9370DB;stroke-width:1px;}#my-svg [data-look="neo"].node .outer-path{filter:drop-shadow(1px 2px 2px rgba(185, 185, 185, 1));}#my-svg [data-look="neo"].node .neo-line path{stroke:#9370DB;filter:none;}#my-svg [data-look="neo"].node circle{stroke:#9370DB;filter:drop-shadow(1px 2px 2px rgba(185, 185, 185, 1));}#my-svg [data-look="neo"].node circle .state-start{fill:#000000;}#my-svg [data-look="neo"].icon-shape .icon{fill:#9370DB;filter:drop-shadow(1px 2px 2px rgba(185, 185, 185, 1));}#my-svg [data-look="neo"].icon-shape .icon-neo path{stroke:#9370DB;filter:drop-shadow(1px 2px 2px rgba(185, 185, 185, 1));}#my-svg :root{--mermaid-font-family:"trebuchet ms",verdana,arial,sans-serif;}</style><g><marker id="my-svg_flowchart-v2-pointEnd" class="marker flowchart-v2" viewBox="0 0 10 10" refX="5" refY="5" markerUnits="userSpaceOnUse" markerWidth="8" markerHeight="8" orient="auto"><path d="M 0 0 L 10 5 L 0 10 z" class="arrowMarkerPath" style="stroke-width: 1; stroke-dasharray: 1, 0;"/></marker><marker id="my-svg_flowchart-v2-pointStart" class="marker flowchart-v2" viewBox="0 0 10 10" refX="4.5" refY="5" markerUnits="userSpaceOnUse" markerWidth="8" markerHeight="8" orient="auto"><path d="M 0 5 L 10 10 L 10 0 z" class="arrowMarkerPath" style="stroke-width: 1; stroke-dasharray: 1, 0;"/></marker><marker id="my-svg_flowchart-v2-pointEnd-margin" class="marker flowchart-v2" viewBox="0 0 11.5 14" refX="11.5" refY="7" markerUnits="userSpaceOnUse" markerWidth="10.5" markerHeight="14" orient="auto"><path d="M 0 0 L 11.5 7 L 0 14 z" class="arrowMarkerPath" style="stroke-width: 0; stroke-dasharray: 1, 0;"/></marker><marker id="my-svg_flowchart-v2-pointStart-margin" class="marker flowchart-v2" viewBox="0 0 11.5 14" refX="1" refY="7" markerUnits="userSpaceOnUse" markerWidth="11.5" markerHeight="14" orient="auto"><polygon points="0,7 11.5,14 11.5,0" class="arrowMarkerPath" style="stroke-width: 0; stroke-dasharray: 1, 0;"/></marker><marker id="my-svg_flowchart-v2-circleEnd" class="marker flowchart-v2" viewBox="0 0 10 10" refX="11" refY="5" markerUnits="userSpaceOnUse" markerWidth="11" markerHeight="11" orient="auto"><circle cx="5" cy="5" r="5" class="arrowMarkerPath" style="stroke-width: 1; stroke-dasharray: 1, 0;"/></marker><marker id="my-svg_flowchart-v2-circleStart" class="marker flowchart-v2" viewBox="0 0 10 10" refX="-1" refY="5" markerUnits="userSpaceOnUse" markerWidth="11" markerHeight="11" orient="auto"><circle cx="5" cy="5" r="5" class="arrowMarkerPath" style="stroke-width: 1; stroke-dasharray: 1, 0;"/></marker><marker id="my-svg_flowchart-v2-circleEnd-margin" class="marker flowchart-v2" viewBox="0 0 10 10" refY="5" refX="12.25" markerUnits="userSpaceOnUse" markerWidth="14" markerHeight="14" orient="auto"><circle cx="5" cy="5" r="5" class="arrowMarkerPath" style="stroke-width: 0; stroke-dasharray: 1, 0;"/></marker><marker id="my-svg_flowchart-v2-circleStart-margin" class="marker flowchart-v2" viewBox="0 0 10 10" refX="-2" refY="5" markerUnits="userSpaceOnUse" markerWidth="14" markerHeight="14" orient="auto"><circle cx="5" cy="5" r="5" class="arrowMarkerPath" style="stroke-width: 0; stroke-dasharray: 1, 0;"/></marker><marker id="my-svg_flowchart-v2-crossEnd" class="marker cross flowchart-v2" viewBox="0 0 11 11" refX="12" refY="5.2" markerUnits="userSpaceOnUse" markerWidth="11" markerHeight="11" orient="auto"><path d="M 1,1 l 9,9 M 10,1 l -9,9" class="arrowMarkerPath" style="stroke-width: 2; stroke-dasharray: 1, 0;"/></marker><marker id="my-svg_flowchart-v2-crossStart" class="marker cross flowchart-v2" viewBox="0 0 11 11" refX="-1" refY="5.2" markerUnits="userSpaceOnUse" markerWidth="11" markerHeight="11" orient="auto"><path d="M 1,1 l 9,9 M 10,1 l -9,9" class="arrowMarkerPath" style="stroke-width: 2; stroke-dasharray: 1, 0;"/></marker><marker id="my-svg_flowchart-v2-crossEnd-margin" class="marker cross flowchart-v2" viewBox="0 0 15 15" refX="17.7" refY="7.5" markerUnits="userSpaceOnUse" markerWidth="12" markerHeight="12" orient="auto"><path d="M 1,1 L 14,14 M 1,14 L 14,1" class="arrowMarkerPath" style="stroke-width: 2.5;"/></marker><marker id="my-svg_flowchart-v2-crossStart-margin" class="marker cross flowchart-v2" viewBox="0 0 15 15" refX="-3.5" refY="7.5" markerUnits="userSpaceOnUse" markerWidth="12" markerHeight="12" orient="auto"><path d="M 1,1 L 14,14 M 1,14 L 14,1" class="arrowMarkerPath" style="stroke-width: 2.5; stroke-dasharray: 1, 0;"/></marker><g class="root"><g class="clusters"/><g class="edgePaths"><path d="M403.723,42.5L403.639,46.583C403.556,50.667,403.389,58.833,403.306,66.417C403.223,74,403.223,81,403.223,84.5L403.223,88" id="my-svg-L_Internet_Ingress_0" class="edge-thickness-normal edge-pattern-solid edge-thickness-normal edge-pattern-solid flowchart-link" style=";" data-edge="true" data-et="edge" data-id="L_Internet_Ingress_0" data-points="W3sieCI6NDAzLjcyMjY1NjI1LCJ5Ijo0Mi41fSx7IngiOjQwMy4yMjI2NTYyNSwieSI6Njd9LHsieCI6NDAzLjIyMjY1NjI1LCJ5Ijo5Mn1d" data-look="classic" marker-end="url(#my-svg_flowchart-v2-pointEnd)"/><path d="M403.223,193.8L403.223,197.967C403.223,202.133,403.223,210.467,403.223,218.133C403.223,225.8,403.223,232.8,403.223,236.3L403.223,239.8" id="my-svg-L_Ingress_SvcAI_0" class="edge-thickness-normal edge-pattern-solid edge-thickness-normal edge-pattern-solid flowchart-link" style=";" data-edge="true" data-et="edge" data-id="L_Ingress_SvcAI_0" data-points="W3sieCI6NDAzLjIyMjY1NjI1LCJ5IjoxOTMuODAwMDAzMDUxNzU3OH0seyJ4Ijo0MDMuMjIyNjU2MjUsInkiOjIxOC44MDAwMDMwNTE3NTc4fSx7IngiOjQwMy4yMjI2NTYyNSwieSI6MjQzLjgwMDAwMzA1MTc1Nzh9XQ==" data-look="classic" marker-end="url(#my-svg_flowchart-v2-pointEnd)"/><path d="M326.237,292.8L307.121,298.883C288.005,304.967,249.774,317.133,233.209,328.696C216.644,340.258,221.744,351.216,224.295,356.695L226.845,362.174" id="my-svg-L_SvcAI_Pod1_0" class="edge-thickness-normal edge-pattern-solid edge-thickness-normal edge-pattern-solid flowchart-link" style=";" data-edge="true" data-et="edge" data-id="L_SvcAI_Pod1_0" data-points="W3sieCI6MzI2LjIzNjU1MjI1NDA5ODM0LCJ5IjoyOTIuODAwMDAzMDUxNzU3OH0seyJ4IjoyMTEuNTQyOTY4NzUsInkiOjMyOS4zMDAwMDMwNTE3NTc4fSx7IngiOjIyOC41MzMxMzkwODgxMTQ3NSwieSI6MzY1LjgwMDAwMzA1MTc1Nzh9XQ==" data-look="classic" marker-end="url(#my-svg_flowchart-v2-pointEnd)"/><path d="M401.958,292.8L401.644,298.883C401.33,304.967,400.702,317.133,413.238,329.025C425.775,340.917,451.475,352.535,464.325,358.344L477.175,364.152" id="my-svg-L_SvcAI_Pod2_0" class="edge-thickness-normal edge-pattern-solid edge-thickness-normal edge-pattern-solid flowchart-link" style=";" data-edge="true" data-et="edge" data-id="L_SvcAI_Pod2_0" data-points="W3sieCI6NDAxLjk1ODExOTg3NzA0OTE3LCJ5IjoyOTIuODAwMDAzMDUxNzU3OH0seyJ4Ijo0MDAuMDc0MjE4NzUsInkiOjMyOS4zMDAwMDMwNTE3NTc4fSx7IngiOjQ4MC44MjAxODQ0MjYyMjk1LCJ5IjozNjUuODAwMDAzMDUxNzU3OH1d" data-look="classic" marker-end="url(#my-svg_flowchart-v2-pointEnd)"/><path d="M499.074,289.144L529.85,295.837C560.626,302.529,622.178,315.915,666.981,328.435C711.784,340.955,739.837,352.61,753.864,358.438L767.89,364.265" id="my-svg-L_SvcAI_PodN_0" class="edge-thickness-normal edge-pattern-solid edge-thickness-normal edge-pattern-solid flowchart-link" style=";" data-edge="true" data-et="edge" data-id="L_SvcAI_PodN_0" data-points="W3sieCI6NDk5LjA3NDIxODc1LCJ5IjoyODkuMTQ0MTQ3MzIxMzU4MTZ9LHsieCI6NjgzLjczMDQ2ODc1LCJ5IjozMjkuMzAwMDAzMDUxNzU3OH0seyJ4Ijo3NzEuNTg0MzA0NTU5NDI2MiwieSI6MzY1LjgwMDAwMzA1MTc1Nzh9XQ==" data-look="classic" marker-end="url(#my-svg_flowchart-v2-pointEnd)"/><path d="M161.515,414.8L148.178,418.967C134.841,423.133,108.166,431.467,96.127,439.576C84.088,447.685,86.684,455.57,87.981,459.513L89.279,463.455" id="my-svg-L_Pod1_SvcDB_0" class="edge-thickness-normal edge-pattern-solid edge-thickness-normal edge-pattern-solid flowchart-link" style=";" data-edge="true" data-et="edge" data-id="L_Pod1_SvcDB_0" data-points="W3sieCI6MTYxLjUxNTA3MjYwMTAxMDEsInkiOjQxNC44MDAwMDMwNTE3NTc4fSx7IngiOjgxLjQ5MjE4NzUsInkiOjQzOS44MDAwMDMwNTE3NTc4fSx7IngiOjkwLjUzMDA3MDA3OTkyNTQsInkiOjQ2Ny4yNTQ2ODgyNjI5Mzk0NX1d" data-look="classic" marker-end="url(#my-svg_flowchart-v2-pointEnd)"/><path d="M418.418,407.525L382.005,412.904C345.591,418.283,272.764,429.042,229.504,438.646C186.243,448.251,172.549,456.703,165.702,460.928L158.855,465.154" id="my-svg-L_Pod2_SvcDB_0" class="edge-thickness-normal edge-pattern-solid edge-thickness-normal edge-pattern-solid flowchart-link" style=";" data-edge="true" data-et="edge" data-id="L_Pod2_SvcDB_0" data-points="W3sieCI6NDE4LjQxNzk2ODc1LCJ5Ijo0MDcuNTI0OTcxMjg0ODE2NH0seyJ4IjoxOTkuOTM3NSwieSI6NDM5LjgwMDAwMzA1MTc1Nzh9LHsieCI6MTU1LjQ1MDY0MTI1NDA0Njg3LCJ5Ijo0NjcuMjU0Njg4MjYyOTM5NDV9XQ==" data-look="classic" marker-end="url(#my-svg_flowchart-v2-pointEnd)"/><path d="M713.047,399.826L630.862,406.488C548.677,413.151,384.307,426.475,293.795,437.409C203.282,448.343,186.627,456.886,178.299,461.158L169.972,465.429" id="my-svg-L_PodN_SvcDB_0" class="edge-thickness-normal edge-pattern-solid edge-thickness-normal edge-pattern-solid flowchart-link" style=";" data-edge="true" data-et="edge" data-id="L_PodN_SvcDB_0" data-points="W3sieCI6NzEzLjA0Njg3NSwieSI6Mzk5LjgyNTgzNTAwOTY4OTc0fSx7IngiOjIxOS45Mzc1LCJ5Ijo0MzkuODAwMDAzMDUxNzU3OH0seyJ4IjoxNjYuNDEyNzU4Njc0MTIxNDgsInkiOjQ2Ny4yNTQ2ODgyNjI5Mzk0NX1d" data-look="classic" marker-end="url(#my-svg_flowchart-v2-pointEnd)"/><path d="M239.938,414.8L239.938,418.967C239.938,423.133,239.938,431.467,267.975,441.599C296.012,451.731,352.087,463.663,380.124,469.628L408.162,475.594" id="my-svg-L_Pod1_SvcRedis_0" class="edge-thickness-normal edge-pattern-solid edge-thickness-normal edge-pattern-solid flowchart-link" style=";" data-edge="true" data-et="edge" data-id="L_Pod1_SvcRedis_0" data-points="W3sieCI6MjM5LjkzNzUsInkiOjQxNC44MDAwMDMwNTE3NTc4fSx7IngiOjIzOS45Mzc1LCJ5Ijo0MzkuODAwMDAzMDUxNzU3OH0seyJ4Ijo0MTIuMDc0MjE4NzUsInkiOjQ3Ni40MjYzNTgxNjMxOTQ1fV0=" data-look="classic" marker-end="url(#my-svg_flowchart-v2-pointEnd)"/><path d="M535.02,414.8L535.02,418.967C535.02,423.133,535.02,431.467,534.404,439.551C533.788,447.634,532.557,455.469,531.942,459.386L531.326,463.303" id="my-svg-L_Pod2_SvcRedis_0" class="edge-thickness-normal edge-pattern-solid edge-thickness-normal edge-pattern-solid flowchart-link" style=";" data-edge="true" data-et="edge" data-id="L_Pod2_SvcRedis_0" data-points="W3sieCI6NTM1LjAxOTUzMTI1LCJ5Ijo0MTQuODAwMDAzMDUxNzU3OH0seyJ4Ijo1MzUuMDE5NTMxMjUsInkiOjQzOS44MDAwMDMwNTE3NTc4fSx7IngiOjUzMC43MDUzNTQ0ODcyMzg4LCJ5Ijo0NjcuMjU0Njg4MjYyOTM5NDV9XQ==" data-look="classic" marker-end="url(#my-svg_flowchart-v2-pointEnd)"/><path d="M823.117,414.8L821.852,418.967C820.587,423.133,818.057,431.467,788.002,441.664C757.947,451.861,700.367,463.922,671.576,469.952L642.786,475.982" id="my-svg-L_PodN_SvcRedis_0" class="edge-thickness-normal edge-pattern-solid edge-thickness-normal edge-pattern-solid flowchart-link" style=";" data-edge="true" data-et="edge" data-id="L_PodN_SvcRedis_0" data-points="W3sieCI6ODIzLjExNjkxMTMwMDUwNTEsInkiOjQxNC44MDAwMDMwNTE3NTc4fSx7IngiOjgxNS41MjczNDM3NSwieSI6NDM5LjgwMDAwMzA1MTc1Nzh9LHsieCI6NjM4Ljg3MTA5Mzc1LCJ5Ijo0NzYuODAyMzE3Mzk4Mjg4N31d" data-look="classic" marker-end="url(#my-svg_flowchart-v2-pointEnd)"/><path d="M356.539,399.991L436.37,406.626C516.202,413.261,675.865,426.53,762.762,439.084C849.659,451.637,863.79,463.474,870.856,469.392L877.922,475.31" id="my-svg-L_Pod1_S3_0" class="edge-thickness-normal edge-pattern-solid edge-thickness-normal edge-pattern-solid flowchart-link" style=";" data-edge="true" data-et="edge" data-id="L_Pod1_S3_0" data-points="W3sieCI6MzU2LjUzOTA2MjUsInkiOjM5OS45OTA4NjIyOTcxMjI1fSx7IngiOjgzNS41MjczNDM3NSwieSI6NDM5LjgwMDAwMzA1MTc1Nzh9LHsieCI6ODgwLjk4ODI4MTI1LCJ5Ijo0NzcuODc4NzI2NTQ3NTgzNzd9XQ==" data-look="classic" marker-end="url(#my-svg_flowchart-v2-pointEnd)"/><path d="M651.621,408.308L685.605,413.557C719.59,418.805,787.559,429.303,827.068,439.204C866.577,449.106,877.626,458.412,883.151,463.065L888.676,467.718" id="my-svg-L_Pod2_S3_0" class="edge-thickness-normal edge-pattern-solid edge-thickness-normal edge-pattern-solid flowchart-link" style=";" data-edge="true" data-et="edge" data-id="L_Pod2_S3_0" data-points="W3sieCI6NjUxLjYyMTA5Mzc1LCJ5Ijo0MDguMzA4MjI5NzQyNzk5OX0seyJ4Ijo4NTUuNTI3MzQzNzUsInkiOjQzOS44MDAwMDMwNTE3NTc4fSx7IngiOjg5MS43MzUzMjg0OTE4ODUyLCJ5Ijo0NzAuMjk0NzMzNjYwODY1MzV9XQ==" data-look="classic" marker-end="url(#my-svg_flowchart-v2-pointEnd)"/><path d="M893.877,414.8L904.646,418.967C915.416,423.133,936.954,431.467,946.855,439.173C956.756,446.88,955.02,453.96,954.152,457.5L953.284,461.04" id="my-svg-L_PodN_S3_0" class="edge-thickness-normal edge-pattern-solid edge-thickness-normal edge-pattern-solid flowchart-link" style=";" data-edge="true" data-et="edge" data-id="L_PodN_S3_0" data-points="W3sieCI6ODkzLjg3NzI4ODUxMDEwMSwieSI6NDE0LjgwMDAwMzA1MTc1Nzh9LHsieCI6OTU4LjQ5MjE4NzUsInkiOjQzOS44MDAwMDMwNTE3NTc4fSx7IngiOjk1Mi4zMzEwNzU2NTA3NzQ5LCJ5Ijo0NjQuOTI0NzYxNjcwNjE0MX1d" data-look="classic" marker-end="url(#my-svg_flowchart-v2-pointEnd)"/><path d="M549.074,291.46L517.013,297.767C484.952,304.074,420.829,316.687,377.714,328.768C334.599,340.849,312.49,352.399,301.436,358.173L290.382,363.948" id="my-svg-L_HPA_Pod1_0" class="edge-thickness-normal edge-pattern-dotted edge-thickness-normal edge-pattern-solid flowchart-link" style=";" data-edge="true" data-et="edge" data-id="L_HPA_Pod1_0" data-points="W3sieCI6NTQ5LjA3NDIxODc1LCJ5IjoyOTEuNDYwNDU1NTEzMDg2OTd9LHsieCI6MzU2LjcwNzAzMTI1LCJ5IjozMjkuMzAwMDAzMDUxNzU3OH0seyJ4IjoyODYuODM2NzM3OTYxMDY1NiwieSI6MzY1LjgwMDAwMzA1MTc1Nzh9XQ==" data-look="classic" marker-end="url(#my-svg_flowchart-v2-pointEnd)"/><path d="M656.192,292.8L653.554,298.883C650.916,304.967,645.639,317.133,633.073,328.966C620.506,340.799,600.649,352.297,590.72,358.046L580.791,363.796" id="my-svg-L_HPA_Pod2_0" class="edge-thickness-normal edge-pattern-dotted edge-thickness-normal edge-pattern-solid flowchart-link" style=";" data-edge="true" data-et="edge" data-id="L_HPA_Pod2_0" data-points="W3sieCI6NjU2LjE5MTc5MDQ3MTMxMTUsInkiOjI5Mi44MDAwMDMwNTE3NTc4fSx7IngiOjY0MC4zNjMyODEyNSwieSI6MzI5LjMwMDAwMzA1MTc1Nzh9LHsieCI6NTc3LjMyOTcyNTkyMjEzMTIsInkiOjM2NS44MDAwMDMwNTE3NTc4fV0=" data-look="classic" marker-end="url(#my-svg_flowchart-v2-pointEnd)"/><path d="M738.594,292.8L756.416,298.883C774.238,304.967,809.883,317.133,826.371,328.653C842.859,340.172,840.19,351.044,838.856,356.479L837.522,361.915" id="my-svg-L_HPA_PodN_0" class="edge-thickness-normal edge-pattern-dotted edge-thickness-normal edge-pattern-solid flowchart-link" style=";" data-edge="true" data-et="edge" data-id="L_HPA_PodN_0" data-points="W3sieCI6NzM4LjU5Mzc1LCJ5IjoyOTIuODAwMDAzMDUxNzU3OH0seyJ4Ijo4NDUuNTI3MzQzNzUsInkiOjMyOS4zMDAwMDMwNTE3NTc4fSx7IngiOjgzNi41NjgyOTUzMzgxMTQ4LCJ5IjozNjUuODAwMDAzMDUxNzU3OH1d" data-look="classic" marker-end="url(#my-svg_flowchart-v2-pointEnd)"/></g><g class="edgeLabels"><g class="edgeLabel"><g class="label" data-id="L_Internet_Ingress_0" transform="translate(0, 0)"><text y="-10.1" text-anchor="middle"><tspan class="text-outer-tspan row" x="0" y="-0.1em" dy="1.1em" text-anchor="middle"/></text></g></g><g><rect class="background" style="stroke: none"/></g><g class="edgeLabel"><g class="label" data-id="L_Ingress_SvcAI_0" transform="translate(0, 0)"><text y="-10.1" text-anchor="middle"><tspan class="text-outer-tspan row" x="0" y="-0.1em" dy="1.1em" text-anchor="middle"/></text></g></g><g><rect class="background" style="stroke: none"/></g><g class="edgeLabel"><g class="label" data-id="L_SvcAI_Pod1_0" transform="translate(0, 0)"><text y="-10.1" text-anchor="middle"><tspan class="text-outer-tspan row" x="0" y="-0.1em" dy="1.1em" text-anchor="middle"/></text></g></g><g><rect class="background" style="stroke: none"/></g><g class="edgeLabel"><g class="label" data-id="L_SvcAI_Pod2_0" transform="translate(0, 0)"><text y="-10.1" text-anchor="middle"><tspan class="text-outer-tspan row" x="0" y="-0.1em" dy="1.1em" text-anchor="middle"/></text></g></g><g><rect class="background" style="stroke: none"/></g><g class="edgeLabel"><g class="label" data-id="L_SvcAI_PodN_0" transform="translate(0, 0)"><text y="-10.1" text-anchor="middle"><tspan class="text-outer-tspan row" x="0" y="-0.1em" dy="1.1em" text-anchor="middle"/></text></g></g><g><rect class="background" style="stroke: none"/></g><g class="edgeLabel"><g class="label" data-id="L_Pod1_SvcDB_0" transform="translate(0, 0)"><text y="-10.1" text-anchor="middle"><tspan class="text-outer-tspan row" x="0" y="-0.1em" dy="1.1em" text-anchor="middle"/></text></g></g><g><rect class="background" style="stroke: none"/></g><g class="edgeLabel"><g class="label" data-id="L_Pod2_SvcDB_0" transform="translate(0, 0)"><text y="-10.1" text-anchor="middle"><tspan class="text-outer-tspan row" x="0" y="-0.1em" dy="1.1em" text-anchor="middle"/></text></g></g><g><rect class="background" style="stroke: none"/></g><g class="edgeLabel"><g class="label" data-id="L_PodN_SvcDB_0" transform="translate(0, 0)"><text y="-10.1" text-anchor="middle"><tspan class="text-outer-tspan row" x="0" y="-0.1em" dy="1.1em" text-anchor="middle"/></text></g></g><g><rect class="background" style="stroke: none"/></g><g class="edgeLabel"><g class="label" data-id="L_Pod1_SvcRedis_0" transform="translate(0, 0)"><text y="-10.1" text-anchor="middle"><tspan class="text-outer-tspan row" x="0" y="-0.1em" dy="1.1em" text-anchor="middle"/></text></g></g><g><rect class="background" style="stroke: none"/></g><g class="edgeLabel"><g class="label" data-id="L_Pod2_SvcRedis_0" transform="translate(0, 0)"><text y="-10.1" text-anchor="middle"><tspan class="text-outer-tspan row" x="0" y="-0.1em" dy="1.1em" text-anchor="middle"/></text></g></g><g><rect class="background" style="stroke: none"/></g><g class="edgeLabel"><g class="label" data-id="L_PodN_SvcRedis_0" transform="translate(0, 0)"><text y="-10.1" text-anchor="middle"><tspan class="text-outer-tspan row" x="0" y="-0.1em" dy="1.1em" text-anchor="middle"/></text></g></g><g><rect class="background" style="stroke: none"/></g><g class="edgeLabel"><g class="label" data-id="L_Pod1_S3_0" transform="translate(0, 0)"><text y="-10.1" text-anchor="middle"><tspan class="text-outer-tspan row" x="0" y="-0.1em" dy="1.1em" text-anchor="middle"/></text></g></g><g><rect class="background" style="stroke: none"/></g><g class="edgeLabel"><g class="label" data-id="L_Pod2_S3_0" transform="translate(0, 0)"><text y="-10.1" text-anchor="middle"><tspan class="text-outer-tspan row" x="0" y="-0.1em" dy="1.1em" text-anchor="middle"/></text></g></g><g><rect class="background" style="stroke: none"/></g><g class="edgeLabel"><g class="label" data-id="L_PodN_S3_0" transform="translate(0, 0)"><text y="-10.1" text-anchor="middle"><tspan class="text-outer-tspan row" x="0" y="-0.1em" dy="1.1em" text-anchor="middle"/></text></g></g><g><rect class="background" style="stroke: none"/></g><g class="edgeLabel" transform="translate(356.70703125, 329.3000030517578)"><g class="label" data-id="L_HPA_Pod1_0" transform="translate(0, -10.5)"><g><rect class="background" style="" x="-23.3671875" y="-1" width="46.734375" height="23"/><text y="-10.1" text-anchor="middle" style=""><tspan class="text-outer-tspan row" x="0" y="-0.1em" dy="1.1em" text-anchor="middle"><tspan font-style="normal" class="text-inner-tspan" font-weight="normal">scales</tspan></tspan></text></g></g></g><g class="edgeLabel" transform="translate(640.36328125, 329.3000030517578)"><g class="label" data-id="L_HPA_Pod2_0" transform="translate(0, -10.5)"><g><rect class="background" style="" x="-23.3671875" y="-1" width="46.734375" height="23"/><text y="-10.1" text-anchor="middle" style=""><tspan class="text-outer-tspan row" x="0" y="-0.1em" dy="1.1em" text-anchor="middle"><tspan font-style="normal" class="text-inner-tspan" font-weight="normal">scales</tspan></tspan></text></g></g></g><g class="edgeLabel" transform="translate(845.52734375, 329.3000030517578)"><g class="label" data-id="L_HPA_PodN_0" transform="translate(0, -10.5)"><g><rect class="background" style="" x="-23.3671875" y="-1" width="46.734375" height="23"/><text y="-10.1" text-anchor="middle" style=""><tspan class="text-outer-tspan row" x="0" y="-0.1em" dy="1.1em" text-anchor="middle"><tspan font-style="normal" class="text-inner-tspan" font-weight="normal">scales</tspan></tspan></text></g></g></g></g><g class="nodes"><g class="node default" id="my-svg-flowchart-Internet-0" data-look="classic" transform="translate(403.22265625, 25)"><g class="basic label-container outer-path"><path d="M-23.8984375 -17 C-11.850793610475838 -17, 0.19685027904832353 -17, 23.8984375 -17 C23.8984375 -17, 23.8984375 -17, 23.8984375 -17 C24.18008123538514 -16.990968233592472, 24.461724970770277 -16.981936467184944, 24.98763123967212 -16.965071676755716 C25.38677855964906 -16.926566414842426, 25.785925879625996 -16.888061152929136, 26.0723492486366 -16.860430234995185 C26.366254949420348 -16.81291384056522, 26.660160650204094 -16.765397446135253, 27.148134187923326 -16.686505668848113 C27.57052873077137 -16.590096870825036, 27.992923273619414 -16.49368807280196, 28.21056542646162 -16.4440126716635 C28.470828572996727 -16.366767935921015, 28.73109171953183 -16.289523200178532, 29.25527720640155 -16.133947699181366 C29.533425431787663 -16.03158658106527, 29.81157365717377 -15.92922546294917, 30.27797658294936 -15.757584874882369 C30.616586962180694 -15.607692104516675, 30.95519734141203 -15.45779933415098, 31.274461064998487 -15.316470754341125 C31.488201250841207 -15.204962636294102, 31.701941436683928 -15.093454518247077, 32.24063588406694 -14.812417970097622 C32.61152100851463 -14.587585228094515, 32.98240613296231 -14.36275248609141, 33.172530820579325 -14.247497783161291 C33.50080623292914 -14.018507066319621, 33.82908164527896 -13.789516349477951, 34.066316518350675 -13.624031571755262 C34.29546685764319 -13.441290274116108, 34.5246171969357 -13.258548976476956, 34.9183202202324 -12.944581292275288 C35.22023928160189 -12.670386389080138, 35.52215834297137 -12.396191485884986, 35.72504086025927 -12.21193895166137 C35.93927002149491 -11.990729754144327, 36.153499182730556 -11.769520556627285, 36.48316345028036 -11.42911513444239 C36.680259374721565 -11.19759504651794, 36.87735529916277 -10.966074958593488, 37.18957270195651 -10.59932663159847 C37.3819615559289 -10.341543094260619, 37.57435040990131 -10.083759556922766, 37.84136582814825 -9.725983222076888 C37.99609113217921 -9.488283605523714, 38.150816436210164 -9.250583988970542, 38.43586447109088 -8.812673661278927 C38.580329941554474 -8.55616058975565, 38.72479541201807 -8.299647518232373, 38.970625708341004 -7.863150934094199 C39.094905551633374 -7.605081180334934, 39.219185394925745 -7.347011426575668, 39.44345209126881 -6.881316833080699 C39.5565075982845 -6.602067544972417, 39.669563105300185 -6.322818256864135, 39.852400674845924 -5.871205925162238 C39.962841796625135 -5.538574862766376, 40.073282918404345 -5.205943800370513, 40.195791001623235 -4.836968972727556 C40.29280226894155 -4.467022965493602, 40.389813536259865 -4.097076958259647, 40.472212007091 -3.7828558772573464 C40.537195401489114 -3.4491798812683077, 40.60217879588723 -3.115503885279269, 40.68052781804565 -2.713198215567453 C40.71452066421889 -2.449556413294513, 40.74851351039213 -2.1859146110215733, 40.819882420136366 -1.632391440430593 C40.83837679730345 -1.344326587660791, 40.85687117447053 -1.056261734890989, 40.8897031754117 -0.5448768187181379 C40.8897031754117 -0.32495809870627856, 40.8897031754117 -0.1050393786944192, 40.8897031754117 0.5448768187181336 C40.86427867145902 0.9408839900712456, 40.83885416750634 1.3368911614243575, 40.819882420136366 1.6323914404305815 C40.779279327801675 1.9473010065910026, 40.73867623546698 2.2622105727514237, 40.680527818045654 2.7131982155674415 C40.62689503907196 2.988591200305501, 40.57326226009827 3.263984185043561, 40.472212007091 3.782855877257343 C40.41417466598343 4.004177412443258, 40.35613732487586 4.225498947629172, 40.195791001623235 4.836968972727545 C40.122086106226384 5.058956374382551, 40.048381210829525 5.280943776037556, 39.852400674845924 5.871205925162227 C39.73851624938132 6.152502657865379, 39.624631823916715 6.433799390568533, 39.44345209126881 6.881316833080694 C39.274180201463565 7.232813534099518, 39.10490831165833 7.584310235118341, 38.970625708341004 7.863150934094196 C38.76029086701693 8.236621743577338, 38.54995602569284 8.610092553060479, 38.43586447109089 8.812673661278923 C38.227798847453464 9.132318332628973, 38.01973322381604 9.45196300397902, 37.841365828148255 9.725983222076879 C37.68093685821229 9.94094342641124, 37.52050788827633 10.1559036307456, 37.18957270195651 10.599326631598467 C36.90799080239313 10.930088753289597, 36.626408902829745 11.26085087498073, 36.48316345028037 11.42911513444238 C36.317948888028106 11.599712734335668, 36.15273432577584 11.770310334228958, 35.72504086025927 12.211938951661365 C35.52449144071026 12.39407262824891, 35.323942021161244 12.576206304836457, 34.91832022023242 12.944581292275275 C34.73272564271869 13.092588028963345, 34.547131065204965 13.240594765651414, 34.066316518350675 13.62403157175526 C33.83271614947009 13.786981076689372, 33.5991157805895 13.949930581623486, 33.17253082057934 14.247497783161286 C32.85144109139199 14.442144263927354, 32.530351362204634 14.636790744693421, 32.24063588406695 14.81241797009762 C31.92896081221025 14.975018655447847, 31.617285740353548 15.137619340798075, 31.27446106499849 15.316470754341124 C30.890966709386685 15.4862323296146, 30.507472353774876 15.655993904888076, 30.277976582949368 15.757584874882367 C29.977350257012926 15.86821814178627, 29.676723931076484 15.978851408690176, 29.255277206401562 16.133947699181363 C29.005030828520752 16.208219510566344, 28.754784450639942 16.282491321951326, 28.210565426461642 16.444012671663497 C27.996178472112597 16.492945094988045, 27.78179151776355 16.541877518312592, 27.148134187923333 16.68650566884811 C26.921707371887734 16.723112600498563, 26.695280555852133 16.759719532149013, 26.072349248636613 16.86043023499518 C25.770610210470593 16.88953863711277, 25.468871172304578 16.91864703923036, 24.98763123967212 16.965071676755716 C24.63607727341763 16.976345328195215, 24.284523307163138 16.987618979634714, 23.898437500000004 17 C23.898437500000004 17, 23.8984375 17, 23.8984375 17 C10.55264561991251 17, -2.7931462601749786 17, -23.898437499999996 17 C-24.123452032604575 16.992784221903587, -24.348466565209158 16.98556844380718, -24.987631239672112 16.965071676755716 C-25.215126242219252 16.943125507462764, -25.442621244766393 16.92117933816981, -26.072349248636606 16.86043023499518 C-26.44603278533389 16.800015978741072, -26.81971632203118 16.739601722486963, -27.14813418792333 16.68650566884811 C-27.56686562444109 16.590932950940918, -27.98559706095885 16.495360233033725, -28.21056542646162 16.4440126716635 C-28.54918201601782 16.34351304531797, -28.88779860557402 16.24301341897244, -29.255277206401544 16.13394769918137 C-29.521984619047412 16.035796905911393, -29.788692031693277 15.937646112641419, -30.27797658294936 15.757584874882369 C-30.67562637177251 15.58155710923224, -31.073276160595658 15.40552934358211, -31.274461064998484 15.316470754341127 C-31.488455075953397 15.204830215895655, -31.702449086908313 15.09318967745018, -32.24063588406693 14.812417970097624 C-32.45757099797372 14.680910629195097, -32.6745061118805 14.549403288292572, -33.17253082057932 14.247497783161299 C-33.36132426823548 14.11580364681299, -33.55011771589163 13.984109510464684, -34.06631651835067 13.624031571755264 C-34.37137141228513 13.38075841169419, -34.67642630621959 13.137485251633114, -34.9183202202324 12.94458129227529 C-35.17640365924882 12.710196741474187, -35.43448709826523 12.475812190673084, -35.72504086025926 12.211938951661377 C-35.89785736551931 12.033491721481427, -36.07067387077935 11.855044491301479, -36.483163450280365 11.429115134442386 C-36.67116611997439 11.208276500964828, -36.859168789668416 10.987437867487271, -37.18957270195651 10.599326631598473 C-37.41112967301141 10.302460474640197, -37.63268664406631 10.005594317681922, -37.84136582814825 9.72598322207689 C-38.00070471285364 9.481195906687912, -38.16004359755903 9.236408591298932, -38.43586447109088 8.812673661278936 C-38.57922798187328 8.55811723075514, -38.722591492655674 8.303560800231343, -38.970625708341004 7.863150934094201 C-39.11449516050499 7.564402938362554, -39.25836461266896 7.265654942630907, -39.44345209126881 6.881316833080701 C-39.561141508563175 6.590621696993532, -39.67883092585754 6.299926560906362, -39.852400674845924 5.87120592516224 C-39.93454572146367 5.6237981327853825, -40.01669076808142 5.376390340408524, -40.195791001623235 4.8369689727275516 C-40.293205548005304 4.465485087641255, -40.39062009438737 4.09400120255496, -40.472212007091 3.782855877257349 C-40.51981508290236 3.5384241438796518, -40.56741815871372 3.293992410501954, -40.68052781804565 2.713198215567455 C-40.71792499999508 2.4231530572765365, -40.75532218194451 2.1331078989856174, -40.819882420136366 1.6323914404306026 C-40.83800380615796 1.3501362258248126, -40.85612519217955 1.067881011219023, -40.8897031754117 0.54487681871814 C-40.8897031754117 0.3059170545186929, -40.8897031754117 0.0669572903192458, -40.8897031754117 -0.5448768187181317 C-40.8716742333787 -0.8256921435821649, -40.85364529134569 -1.106507468446198, -40.819882420136366 -1.6323914404305793 C-40.76894935022481 -2.02741827279237, -40.71801628031325 -2.4224451051541607, -40.680527818045654 -2.713198215567447 C-40.62619864558087 -2.992167033699428, -40.571869473116095 -3.271135851831409, -40.472212007091 -3.782855877257341 C-40.40281884568496 -4.047482076884975, -40.33342568427892 -4.3121082765126095, -40.195791001623235 -4.836968972727544 C-40.1056511135611 -5.108455953729891, -40.015511225498976 -5.379942934732239, -39.85240067484593 -5.871205925162218 C-39.74236986172095 -6.142984160881975, -39.632339048595966 -6.4147623966017315, -39.44345209126881 -6.881316833080692 C-39.31398215177352 -7.1501639326555795, -39.18451221227824 -7.4190110322304665, -38.970625708341004 -7.863150934094194 C-38.797094815658916 -8.171272605959562, -38.62356392297682 -8.47939427782493, -38.43586447109088 -8.812673661278929 C-38.2440224595093 -9.107394507861375, -38.052180447927725 -9.40211535444382, -37.84136582814825 -9.725983222076884 C-37.58422685020114 -10.070526026683199, -37.32708787225404 -10.415068831289513, -37.18957270195651 -10.599326631598467 C-37.001977481372435 -10.819686652166961, -36.81438226078837 -11.040046672735455, -36.48316345028037 -11.42911513444238 C-36.23951352882844 -11.680703682372075, -35.995863607376506 -11.932292230301769, -35.72504086025928 -12.21193895166136 C-35.461298780719 -12.451462530066811, -35.19755670117872 -12.690986108472263, -34.91832022023242 -12.944581292275274 C-34.6797916420806 -13.134801485839303, -34.44126306392879 -13.325021679403331, -34.066316518350675 -13.624031571755259 C-33.85579274175486 -13.77088384488109, -33.645268965159055 -13.917736118006923, -33.17253082057934 -14.247497783161284 C-32.979358608587354 -14.364599913276749, -32.786186396595376 -14.481702043392211, -32.24063588406695 -14.812417970097618 C-32.01066312355287 -14.93239461195323, -31.780690363038786 -15.052371253808843, -31.27446106499849 -15.316470754341124 C-30.94763994113911 -15.46114477106949, -30.620818817279726 -15.605818787797855, -30.277976582949368 -15.757584874882365 C-29.931361017249078 -15.885142607139239, -29.58474545154879 -16.012700339396112, -29.255277206401566 -16.133947699181363 C-28.857968811950307 -16.251866745140177, -28.460660417499053 -16.369785791098987, -28.210565426461642 -16.444012671663494 C-27.82006360901011 -16.533142163234302, -27.429561791558577 -16.622271654805107, -27.148134187923336 -16.68650566884811 C-26.897762237523047 -16.726983864125355, -26.64739028712276 -16.767462059402597, -26.072349248636613 -16.86043023499518 C-25.785658270651513 -16.88808696884506, -25.498967292666414 -16.915743702694932, -24.98763123967212 -16.965071676755716 C-24.73066108398798 -16.97331220948644, -24.473690928303842 -16.98155274221717, -23.898437500000004 -17 C-23.898437500000004 -17, -23.8984375 -17, -23.8984375 -17" stroke="none" stroke-width="0" fill="#ECECFF" style=""/><path d="M-23.8984375 -17 C-8.283341414812224 -17, 7.3317546703755525 -17, 23.8984375 -17 M-23.8984375 -17 C-12.626745626626924 -17, -1.3550537532538485 -17, 23.8984375 -17 M23.8984375 -17 C23.8984375 -17, 23.8984375 -17, 23.8984375 -17 M23.8984375 -17 C23.8984375 -17, 23.8984375 -17, 23.8984375 -17 M23.8984375 -17 C24.12880550287734 -16.992612546531838, 24.359173505754683 -16.98522509306368, 24.98763123967212 -16.965071676755716 M23.8984375 -17 C24.262768883589988 -16.988316601656287, 24.62710026717998 -16.976633203312574, 24.98763123967212 -16.965071676755716 M24.98763123967212 -16.965071676755716 C25.30491875632594 -16.93446333161819, 25.622206272979756 -16.903854986480667, 26.0723492486366 -16.860430234995185 M24.98763123967212 -16.965071676755716 C25.262378195293746 -16.938567168378455, 25.537125150915372 -16.912062660001197, 26.0723492486366 -16.860430234995185 M26.0723492486366 -16.860430234995185 C26.36165932394756 -16.813656825652053, 26.65096939925852 -16.766883416308918, 27.148134187923326 -16.686505668848113 M26.0723492486366 -16.860430234995185 C26.44559385345111 -16.800086941843915, 26.818838458265628 -16.739743648692645, 27.148134187923326 -16.686505668848113 M27.148134187923326 -16.686505668848113 C27.382767566357973 -16.63295213134629, 27.61740094479262 -16.579398593844466, 28.21056542646162 -16.4440126716635 M27.148134187923326 -16.686505668848113 C27.548458800857325 -16.595134188308165, 27.94878341379133 -16.503762707768214, 28.21056542646162 -16.4440126716635 M28.21056542646162 -16.4440126716635 C28.466096732718363 -16.368172321277697, 28.72162803897511 -16.292331970891894, 29.25527720640155 -16.133947699181366 M28.21056542646162 -16.4440126716635 C28.533502418784295 -16.348166667472995, 28.85643941110697 -16.25232066328249, 29.25527720640155 -16.133947699181366 M29.25527720640155 -16.133947699181366 C29.584061082577474 -16.012952193503793, 29.912844958753393 -15.89195668782622, 30.27797658294936 -15.757584874882369 M29.25527720640155 -16.133947699181366 C29.635551474891898 -15.994003253160114, 30.015825743382248 -15.854058807138863, 30.27797658294936 -15.757584874882369 M30.27797658294936 -15.757584874882369 C30.61869610539388 -15.606758449381708, 30.959415627838403 -15.455932023881047, 31.274461064998487 -15.316470754341125 M30.27797658294936 -15.757584874882369 C30.586696007743377 -15.620923943362417, 30.895415432537394 -15.484263011842463, 31.274461064998487 -15.316470754341125 M31.274461064998487 -15.316470754341125 C31.624596411633632 -15.133805368273963, 31.974731758268778 -14.9511399822068, 32.24063588406694 -14.812417970097622 M31.274461064998487 -15.316470754341125 C31.582492074496596 -15.15577117398924, 31.890523083994708 -14.995071593637354, 32.24063588406694 -14.812417970097622 M32.24063588406694 -14.812417970097622 C32.513544561856015 -14.646979125832473, 32.7864532396451 -14.481540281567325, 33.172530820579325 -14.247497783161291 M32.24063588406694 -14.812417970097622 C32.45076729100488 -14.685035076342627, 32.66089869794282 -14.557652182587633, 33.172530820579325 -14.247497783161291 M33.172530820579325 -14.247497783161291 C33.398639343827455 -14.089774265423612, 33.624747867075584 -13.932050747685933, 34.066316518350675 -13.624031571755262 M33.172530820579325 -14.247497783161291 C33.464186383914466 -14.044051487744545, 33.755841947249614 -13.840605192327796, 34.066316518350675 -13.624031571755262 M34.066316518350675 -13.624031571755262 C34.369032399588185 -13.382623712076263, 34.67174828082569 -13.141215852397265, 34.9183202202324 -12.944581292275288 M34.066316518350675 -13.624031571755262 C34.241406762376364 -13.484401761491851, 34.41649700640205 -13.34477195122844, 34.9183202202324 -12.944581292275288 M34.9183202202324 -12.944581292275288 C35.08773408775727 -12.79072410023451, 35.257147955282136 -12.63686690819373, 35.72504086025927 -12.21193895166137 M34.9183202202324 -12.944581292275288 C35.14307902898687 -12.740461288956688, 35.367837837741334 -12.536341285638086, 35.72504086025927 -12.21193895166137 M35.72504086025927 -12.21193895166137 C35.996025005913246 -11.932125573061517, 36.26700915156723 -11.652312194461665, 36.48316345028036 -11.42911513444239 M35.72504086025927 -12.21193895166137 C35.97219080905774 -11.956736338138782, 36.219340757856216 -11.701533724616192, 36.48316345028036 -11.42911513444239 M36.48316345028036 -11.42911513444239 C36.708929588472444 -11.16391738206478, 36.93469572666453 -10.898719629687168, 37.18957270195651 -10.59932663159847 M36.48316345028036 -11.42911513444239 C36.735139085501324 -11.133130215492029, 36.98711472072229 -10.837145296541669, 37.18957270195651 -10.59932663159847 M37.18957270195651 -10.59932663159847 C37.41825767590865 -10.29290960013232, 37.64694264986078 -9.98649256866617, 37.84136582814825 -9.725983222076888 M37.18957270195651 -10.59932663159847 C37.40443323394705 -10.311433092928281, 37.619293765937606 -10.02353955425809, 37.84136582814825 -9.725983222076888 M37.84136582814825 -9.725983222076888 C38.07831726213503 -9.361962189104071, 38.31526869612181 -8.997941156131256, 38.43586447109088 -8.812673661278927 M37.84136582814825 -9.725983222076888 C38.07568258782194 -9.3660097563581, 38.30999934749562 -9.006036290639312, 38.43586447109088 -8.812673661278927 M38.43586447109088 -8.812673661278927 C38.59256223540662 -8.534440913367105, 38.749259999722355 -8.256208165455282, 38.970625708341004 -7.863150934094199 M38.43586447109088 -8.812673661278927 C38.593665405561964 -8.53248212304819, 38.751466340033055 -8.252290584817453, 38.970625708341004 -7.863150934094199 M38.970625708341004 -7.863150934094199 C39.156826024431396 -7.476501993683964, 39.34302634052179 -7.089853053273728, 39.44345209126881 -6.881316833080699 M38.970625708341004 -7.863150934094199 C39.09755095426554 -7.599587945166693, 39.224476200190075 -7.336024956239186, 39.44345209126881 -6.881316833080699 M39.44345209126881 -6.881316833080699 C39.566026790255485 -6.578554956763018, 39.68860148924217 -6.275793080445336, 39.852400674845924 -5.871205925162238 M39.44345209126881 -6.881316833080699 C39.54577143361041 -6.628586079287039, 39.648090775952014 -6.3758553254933785, 39.852400674845924 -5.871205925162238 M39.852400674845924 -5.871205925162238 C39.92190052209739 -5.661883458537714, 39.991400369348845 -5.452560991913191, 40.195791001623235 -4.836968972727556 M39.852400674845924 -5.871205925162238 C39.982009739480006 -5.480844072884459, 40.11161880411409 -5.090482220606678, 40.195791001623235 -4.836968972727556 M40.195791001623235 -4.836968972727556 C40.29102729654132 -4.473791704533578, 40.386263591459404 -4.110614436339602, 40.472212007091 -3.7828558772573464 M40.195791001623235 -4.836968972727556 C40.30522609201745 -4.41964554358621, 40.41466118241166 -4.002322114444864, 40.472212007091 -3.7828558772573464 M40.472212007091 -3.7828558772573464 C40.53214035912264 -3.4751364554365356, 40.59206871115429 -3.1674170336157252, 40.68052781804565 -2.713198215567453 M40.472212007091 -3.7828558772573464 C40.52362760921387 -3.5188476270477733, 40.575043211336734 -3.2548393768382002, 40.68052781804565 -2.713198215567453 M40.68052781804565 -2.713198215567453 C40.71197446272302 -2.4693042492921253, 40.743421107400394 -2.225410283016797, 40.819882420136366 -1.632391440430593 M40.68052781804565 -2.713198215567453 C40.73434463551932 -2.2958056065742993, 40.78816145299299 -1.8784129975811459, 40.819882420136366 -1.632391440430593 M40.819882420136366 -1.632391440430593 C40.84160964162617 -1.2939724278293416, 40.86333686311598 -0.9555534152280902, 40.8897031754117 -0.5448768187181379 M40.819882420136366 -1.632391440430593 C40.84400183840207 -1.2567120320982335, 40.86812125666778 -0.8810326237658739, 40.8897031754117 -0.5448768187181379 M40.8897031754117 -0.5448768187181379 C40.8897031754117 -0.24172669820372156, 40.8897031754117 0.06142342231069475, 40.8897031754117 0.5448768187181336 M40.8897031754117 -0.5448768187181379 C40.8897031754117 -0.19845448507841423, 40.8897031754117 0.1479678485613094, 40.8897031754117 0.5448768187181336 M40.8897031754117 0.5448768187181336 C40.866540977897884 0.9056467411850673, 40.84337878038407 1.266416663652001, 40.819882420136366 1.6323914404305815 M40.8897031754117 0.5448768187181336 C40.86294930601003 0.9615899299836894, 40.83619543660837 1.3783030412492452, 40.819882420136366 1.6323914404305815 M40.819882420136366 1.6323914404305815 C40.77032376734583 2.0167585650111, 40.72076511455529 2.401125689591618, 40.680527818045654 2.7131982155674415 M40.819882420136366 1.6323914404305815 C40.79048215680427 1.860414077095609, 40.76108189347219 2.0884367137606366, 40.680527818045654 2.7131982155674415 M40.680527818045654 2.7131982155674415 C40.63383772792263 2.9529419603951186, 40.58714763779961 3.1926857052227957, 40.472212007091 3.782855877257343 M40.680527818045654 2.7131982155674415 C40.63720400744936 2.9356568264887692, 40.59388019685308 3.1581154374100975, 40.472212007091 3.782855877257343 M40.472212007091 3.782855877257343 C40.364301934864486 4.1943637511782, 40.25639186263797 4.605871625099057, 40.195791001623235 4.836968972727545 M40.472212007091 3.782855877257343 C40.416796741326785 3.994178302744404, 40.361381475562574 4.205500728231465, 40.195791001623235 4.836968972727545 M40.195791001623235 4.836968972727545 C40.06926919646719 5.218032491345481, 39.942747391311144 5.599096009963415, 39.852400674845924 5.871205925162227 M40.195791001623235 4.836968972727545 C40.12158350345247 5.0604701338587015, 40.0473760052817 5.283971294989858, 39.852400674845924 5.871205925162227 M39.852400674845924 5.871205925162227 C39.74055998867271 6.147454582302638, 39.62871930249949 6.423703239443049, 39.44345209126881 6.881316833080694 M39.852400674845924 5.871205925162227 C39.75363844309237 6.1151505470313605, 39.65487621133882 6.359095168900494, 39.44345209126881 6.881316833080694 M39.44345209126881 6.881316833080694 C39.335634256445864 7.105202874022638, 39.227816421622926 7.329088914964581, 38.970625708341004 7.863150934094196 M39.44345209126881 6.881316833080694 C39.32507376984863 7.127131950400016, 39.20669544842845 7.372947067719338, 38.970625708341004 7.863150934094196 M38.970625708341004 7.863150934094196 C38.81182507630971 8.145117536573443, 38.653024444278415 8.42708413905269, 38.43586447109089 8.812673661278923 M38.970625708341004 7.863150934094196 C38.76916012339305 8.220873480771925, 38.5676945384451 8.578596027449654, 38.43586447109089 8.812673661278923 M38.43586447109089 8.812673661278923 C38.236295538082906 9.119265134141251, 38.036726605074925 9.42585660700358, 37.841365828148255 9.725983222076879 M38.43586447109089 8.812673661278923 C38.29062295353136 9.035803635058729, 38.145381435971835 9.258933608838534, 37.841365828148255 9.725983222076879 M37.841365828148255 9.725983222076879 C37.66453511884992 9.962920262927623, 37.48770440955158 10.199857303778368, 37.18957270195651 10.599326631598467 M37.841365828148255 9.725983222076879 C37.63066438947208 10.008303954607003, 37.419962950795906 10.290624687137125, 37.18957270195651 10.599326631598467 M37.18957270195651 10.599326631598467 C37.04809998190738 10.765508538593991, 36.906627261858254 10.931690445589515, 36.48316345028037 11.42911513444238 M37.18957270195651 10.599326631598467 C37.00008264442547 10.821912435464148, 36.81059258689444 11.044498239329826, 36.48316345028037 11.42911513444238 M36.48316345028037 11.42911513444238 C36.31149398320266 11.606377953525486, 36.13982451612494 11.783640772608592, 35.72504086025927 12.211938951661365 M36.48316345028037 11.42911513444238 C36.20962156455018 11.71156958966528, 35.93607967882 11.994024044888178, 35.72504086025927 12.211938951661365 M35.72504086025927 12.211938951661365 C35.44549545037647 12.465814696550689, 35.16595004049367 12.719690441440013, 34.91832022023242 12.944581292275275 M35.72504086025927 12.211938951661365 C35.55232534974915 12.368794608504672, 35.379609839239016 12.52565026534798, 34.91832022023242 12.944581292275275 M34.91832022023242 12.944581292275275 C34.6252226190685 13.178318829548765, 34.33212501790459 13.412056366822254, 34.066316518350675 13.62403157175526 M34.91832022023242 12.944581292275275 C34.64100967795169 13.165729070200703, 34.36369913567096 13.386876848126132, 34.066316518350675 13.62403157175526 M34.066316518350675 13.62403157175526 C33.7929202457268 13.814740976403787, 33.51952397310291 14.005450381052313, 33.17253082057934 14.247497783161286 M34.066316518350675 13.62403157175526 C33.7531045206123 13.8425147026487, 33.43989252287392 14.060997833542139, 33.17253082057934 14.247497783161286 M33.17253082057934 14.247497783161286 C32.866855880543575 14.432799728156304, 32.56118094050781 14.618101673151324, 32.24063588406695 14.81241797009762 M33.17253082057934 14.247497783161286 C32.86392524740704 14.434576295185986, 32.55531967423474 14.621654807210685, 32.24063588406695 14.81241797009762 M32.24063588406695 14.81241797009762 C32.03263982226028 14.920929382314322, 31.82464376045361 15.029440794531023, 31.27446106499849 15.316470754341124 M32.24063588406695 14.81241797009762 C31.981878617945995 14.947411470090982, 31.72312135182504 15.082404970084344, 31.27446106499849 15.316470754341124 M31.27446106499849 15.316470754341124 C31.006686841428813 15.4350064598753, 30.73891261785914 15.553542165409478, 30.277976582949368 15.757584874882367 M31.27446106499849 15.316470754341124 C31.023945667510358 15.427366489533886, 30.773430270022224 15.538262224726651, 30.277976582949368 15.757584874882367 M30.277976582949368 15.757584874882367 C29.94468164593927 15.880240492646706, 29.611386708929174 16.002896110411047, 29.255277206401562 16.133947699181363 M30.277976582949368 15.757584874882367 C29.976274907216034 15.868613880451953, 29.6745732314827 15.979642886021537, 29.255277206401562 16.133947699181363 M29.255277206401562 16.133947699181363 C29.03393186326963 16.199641835157507, 28.812586520137696 16.26533597113365, 28.210565426461642 16.444012671663497 M29.255277206401562 16.133947699181363 C28.860018960334926 16.25125827186107, 28.464760714268294 16.368568844540775, 28.210565426461642 16.444012671663497 M28.210565426461642 16.444012671663497 C27.928547929774755 16.508381324946125, 27.646530433087865 16.572749978228753, 27.148134187923333 16.68650566884811 M28.210565426461642 16.444012671663497 C27.93373794707927 16.507196737364396, 27.656910467696896 16.570380803065298, 27.148134187923333 16.68650566884811 M27.148134187923333 16.68650566884811 C26.84048541927581 16.736243935911208, 26.53283665062829 16.785982202974303, 26.072349248636613 16.86043023499518 M27.148134187923333 16.68650566884811 C26.750032460053646 16.75086766888507, 26.35193073218396 16.815229668922033, 26.072349248636613 16.86043023499518 M26.072349248636613 16.86043023499518 C25.687031180096394 16.89760140565448, 25.30171311155618 16.934772576313776, 24.98763123967212 16.965071676755716 M26.072349248636613 16.86043023499518 C25.671746823315054 16.899075869171046, 25.271144397993492 16.937721503346914, 24.98763123967212 16.965071676755716 M24.98763123967212 16.965071676755716 C24.663569138643375 16.975463717587093, 24.339507037614627 16.985855758418474, 23.898437500000004 17 M24.98763123967212 16.965071676755716 C24.736216234247987 16.97313406663005, 24.48480122882386 16.981196456504378, 23.898437500000004 17 M23.898437500000004 17 C23.898437500000004 17, 23.8984375 17, 23.8984375 17 M23.898437500000004 17 C23.898437500000004 17, 23.8984375 17, 23.8984375 17 M23.8984375 17 C13.540005442709031 17, 3.181573385418062 17, -23.898437499999996 17 M23.8984375 17 C14.338832301432355 17, 4.779227102864709 17, -23.898437499999996 17 M-23.898437499999996 17 C-24.272594015686973 16.988001528793397, -24.646750531373947 16.97600305758679, -24.987631239672112 16.965071676755716 M-23.898437499999996 17 C-24.228956246816235 16.989400907105317, -24.559474993632474 16.97880181421063, -24.987631239672112 16.965071676755716 M-24.987631239672112 16.965071676755716 C-25.37845271850707 16.927369598724106, -25.76927419734203 16.88966752069249, -26.072349248636606 16.86043023499518 M-24.987631239672112 16.965071676755716 C-25.396478004084596 16.92563072110302, -25.805324768497083 16.886189765450318, -26.072349248636606 16.86043023499518 M-26.072349248636606 16.86043023499518 C-26.4363769087545 16.801577065983988, -26.8004045688724 16.742723896972795, -27.14813418792333 16.68650566884811 M-26.072349248636606 16.86043023499518 C-26.457957545405893 16.798088076010526, -26.84356584217518 16.735745917025874, -27.14813418792333 16.68650566884811 M-27.14813418792333 16.68650566884811 C-27.529097245856445 16.59955333689116, -27.91006030378956 16.512601004934208, -28.21056542646162 16.4440126716635 M-27.14813418792333 16.68650566884811 C-27.537277821740034 16.597686173828976, -27.92642145555674 16.508866678809845, -28.21056542646162 16.4440126716635 M-28.21056542646162 16.4440126716635 C-28.614867239215535 16.32401801586166, -29.01916905196945 16.20402336005982, -29.255277206401544 16.13394769918137 M-28.21056542646162 16.4440126716635 C-28.42134051050333 16.381455733100914, -28.63211559454504 16.318898794538327, -29.255277206401544 16.13394769918137 M-29.255277206401544 16.13394769918137 C-29.635120166544073 15.994161978619086, -30.014963126686602 15.854376258056801, -30.27797658294936 15.757584874882369 M-29.255277206401544 16.13394769918137 C-29.555374532290045 16.02350910918513, -29.855471858178543 15.913070519188892, -30.27797658294936 15.757584874882369 M-30.27797658294936 15.757584874882369 C-30.56925997399372 15.628642358281825, -30.860543365038083 15.49969984168128, -31.274461064998484 15.316470754341127 M-30.27797658294936 15.757584874882369 C-30.564991479292228 15.63053189426578, -30.852006375635096 15.50347891364919, -31.274461064998484 15.316470754341127 M-31.274461064998484 15.316470754341127 C-31.61330165222648 15.139697837022037, -31.95214223945447 14.962924919702946, -32.24063588406693 14.812417970097624 M-31.274461064998484 15.316470754341127 C-31.525782511169613 15.18535651685272, -31.77710395734074 15.05424227936431, -32.24063588406693 14.812417970097624 M-32.24063588406693 14.812417970097624 C-32.5763725136879 14.60889245221396, -32.91210914330886 14.405366934330297, -33.17253082057932 14.247497783161299 M-32.24063588406693 14.812417970097624 C-32.609588183764004 14.588756917816882, -32.97854048346107 14.36509586553614, -33.17253082057932 14.247497783161299 M-33.17253082057932 14.247497783161299 C-33.35936398049629 14.117171058680357, -33.54619714041326 13.986844334199414, -34.06631651835067 13.624031571755264 M-33.17253082057932 14.247497783161299 C-33.478638731729156 14.033970155541073, -33.78474664287899 13.820442527920848, -34.06631651835067 13.624031571755264 M-34.06631651835067 13.624031571755264 C-34.37644477000074 13.37671254392371, -34.68657302165081 13.129393516092154, -34.9183202202324 12.94458129227529 M-34.06631651835067 13.624031571755264 C-34.35454057089377 13.3941805598163, -34.64276462343687 13.164329547877337, -34.9183202202324 12.94458129227529 M-34.9183202202324 12.94458129227529 C-35.096552088520006 12.782715825253307, -35.27478395680761 12.620850358231323, -35.72504086025926 12.211938951661377 M-34.9183202202324 12.94458129227529 C-35.12294708000688 12.758744592358132, -35.32757393978136 12.572907892440977, -35.72504086025926 12.211938951661377 M-35.72504086025926 12.211938951661377 C-35.879506065481756 12.052440945439955, -36.03397127070425 11.89294293921853, -36.483163450280365 11.429115134442386 M-35.72504086025926 12.211938951661377 C-36.009363854051216 11.918352117219266, -36.29368684784317 11.624765282777156, -36.483163450280365 11.429115134442386 M-36.483163450280365 11.429115134442386 C-36.70105341043209 11.173169188958212, -36.91894337058381 10.91722324347404, -37.18957270195651 10.599326631598473 M-36.483163450280365 11.429115134442386 C-36.74831687339332 11.11765083599672, -37.01347029650628 10.806186537551053, -37.18957270195651 10.599326631598473 M-37.18957270195651 10.599326631598473 C-37.36696874311039 10.36163209756408, -37.54436478426428 10.123937563529685, -37.84136582814825 9.72598322207689 M-37.18957270195651 10.599326631598473 C-37.336339725294046 10.402672191077055, -37.48310674863159 10.206017750555636, -37.84136582814825 9.72598322207689 M-37.84136582814825 9.72598322207689 C-37.968357046343506 9.530890609012172, -38.095348264538764 9.335797995947454, -38.43586447109088 8.812673661278936 M-37.84136582814825 9.72598322207689 C-37.97771193136484 9.51651899348104, -38.11405803458143 9.307054764885189, -38.43586447109088 8.812673661278936 M-38.43586447109088 8.812673661278936 C-38.625485530204486 8.475982269608389, -38.81510658931809 8.139290877937844, -38.970625708341004 7.863150934094201 M-38.43586447109088 8.812673661278936 C-38.63168837605641 8.464968488692044, -38.82751228102194 8.117263316105154, -38.970625708341004 7.863150934094201 M-38.970625708341004 7.863150934094201 C-39.158142279003876 7.473768762900871, -39.345658849666755 7.084386591707542, -39.44345209126881 6.881316833080701 M-38.970625708341004 7.863150934094201 C-39.0696713376148 7.657480565670195, -39.168716966888596 7.451810197246189, -39.44345209126881 6.881316833080701 M-39.44345209126881 6.881316833080701 C-39.60581436936949 6.4802788671109255, -39.76817664747017 6.079240901141151, -39.852400674845924 5.87120592516224 M-39.44345209126881 6.881316833080701 C-39.54716849844261 6.625135302141092, -39.650884905616415 6.3689537712014825, -39.852400674845924 5.87120592516224 M-39.852400674845924 5.87120592516224 C-39.96533464370923 5.531066804530346, -40.07826861257252 5.190927683898454, -40.195791001623235 4.8369689727275516 M-39.852400674845924 5.87120592516224 C-39.96729175409847 5.525172299861142, -40.082182833351006 5.179138674560043, -40.195791001623235 4.8369689727275516 M-40.195791001623235 4.8369689727275516 C-40.27465127210869 4.536240583109066, -40.35351154259415 4.235512193490582, -40.472212007091 3.782855877257349 M-40.195791001623235 4.8369689727275516 C-40.28179998876205 4.50897942823641, -40.36780897590087 4.1809898837452675, -40.472212007091 3.782855877257349 M-40.472212007091 3.782855877257349 C-40.53591227623764 3.4557684582460135, -40.599612545384275 3.1286810392346784, -40.68052781804565 2.713198215567455 M-40.472212007091 3.782855877257349 C-40.51473849068134 3.5644913719964637, -40.557264974271675 3.3461268667355784, -40.68052781804565 2.713198215567455 M-40.68052781804565 2.713198215567455 C-40.73401685700985 2.298347791966568, -40.78750589597405 1.8834973683656808, -40.819882420136366 1.6323914404306026 M-40.68052781804565 2.713198215567455 C-40.72380273419229 2.3775665115328413, -40.76707765033894 2.0419348074982273, -40.819882420136366 1.6323914404306026 M-40.819882420136366 1.6323914404306026 C-40.83976859311595 1.3226482444436756, -40.85965476609554 1.0129050484567488, -40.8897031754117 0.54487681871814 M-40.819882420136366 1.6323914404306026 C-40.8468551551765 1.2122693201807537, -40.873827890216624 0.7921471999309049, -40.8897031754117 0.54487681871814 M-40.8897031754117 0.54487681871814 C-40.8897031754117 0.15919213789244652, -40.8897031754117 -0.22649254293324694, -40.8897031754117 -0.5448768187181317 M-40.8897031754117 0.54487681871814 C-40.8897031754117 0.14698279141353698, -40.8897031754117 -0.250911235891066, -40.8897031754117 -0.5448768187181317 M-40.8897031754117 -0.5448768187181317 C-40.866558755778236 -0.9053698363485039, -40.843414336144775 -1.265862853978876, -40.819882420136366 -1.6323914404305793 M-40.8897031754117 -0.5448768187181317 C-40.86892006870627 -0.8685904814769863, -40.84813696200084 -1.192304144235841, -40.819882420136366 -1.6323914404305793 M-40.819882420136366 -1.6323914404305793 C-40.786091098684174 -1.8944702567626102, -40.75229977723198 -2.156549073094641, -40.680527818045654 -2.713198215567447 M-40.819882420136366 -1.6323914404305793 C-40.777242079924314 -1.9631014988277093, -40.73460173971226 -2.2938115572248394, -40.680527818045654 -2.713198215567447 M-40.680527818045654 -2.713198215567447 C-40.59762429044276 -3.138890308141536, -40.514720762839865 -3.564582400715625, -40.472212007091 -3.782855877257341 M-40.680527818045654 -2.713198215567447 C-40.61105006749313 -3.069951780526882, -40.5415723169406 -3.4267053454863166, -40.472212007091 -3.782855877257341 M-40.472212007091 -3.782855877257341 C-40.3988279011199 -4.06270127819786, -40.32544379514881 -4.342546679138378, -40.195791001623235 -4.836968972727544 M-40.472212007091 -3.782855877257341 C-40.389869901956665 -4.096862011428683, -40.30752779682233 -4.410868145600025, -40.195791001623235 -4.836968972727544 M-40.195791001623235 -4.836968972727544 C-40.126866009153794 -5.044560068339288, -40.05794101668436 -5.252151163951032, -39.85240067484593 -5.871205925162218 M-40.195791001623235 -4.836968972727544 C-40.081026187763804 -5.182622306782241, -39.96626137390438 -5.528275640836938, -39.85240067484593 -5.871205925162218 M-39.85240067484593 -5.871205925162218 C-39.7319414167372 -6.168742621612096, -39.611482158628476 -6.466279318061975, -39.44345209126881 -6.881316833080692 M-39.85240067484593 -5.871205925162218 C-39.76543724730562 -6.086007272510281, -39.67847381976531 -6.300808619858345, -39.44345209126881 -6.881316833080692 M-39.44345209126881 -6.881316833080692 C-39.317270978851745 -7.143334612858031, -39.19108986643468 -7.405352392635371, -38.970625708341004 -7.863150934094194 M-39.44345209126881 -6.881316833080692 C-39.34426619403907 -7.087278470916467, -39.245080296809334 -7.293240108752242, -38.970625708341004 -7.863150934094194 M-38.970625708341004 -7.863150934094194 C-38.767207456867595 -8.224340637916802, -38.56378920539418 -8.58553034173941, -38.43586447109088 -8.812673661278929 M-38.970625708341004 -7.863150934094194 C-38.86086907877949 -8.058034943944573, -38.75111244921797 -8.252918953794953, -38.43586447109088 -8.812673661278929 M-38.43586447109088 -8.812673661278929 C-38.25532560304845 -9.09002984406622, -38.074786735006015 -9.367386026853513, -37.84136582814825 -9.725983222076884 M-38.43586447109088 -8.812673661278929 C-38.28407992543775 -9.045855483259556, -38.13229537978463 -9.279037305240186, -37.84136582814825 -9.725983222076884 M-37.84136582814825 -9.725983222076884 C-37.601549186882316 -10.047315673627763, -37.361732545616384 -10.368648125178643, -37.18957270195651 -10.599326631598467 M-37.84136582814825 -9.725983222076884 C-37.616046059923235 -10.027891184445235, -37.39072629169822 -10.329799146813585, -37.18957270195651 -10.599326631598467 M-37.18957270195651 -10.599326631598467 C-37.01056473577906 -10.809599574512326, -36.83155676960161 -11.019872517426183, -36.48316345028037 -11.42911513444238 M-37.18957270195651 -10.599326631598467 C-37.00897560075404 -10.811466262937058, -36.828378499551576 -11.023605894275647, -36.48316345028037 -11.42911513444238 M-36.48316345028037 -11.42911513444238 C-36.22803298255965 -11.692558288964984, -35.972902514838914 -11.956001443487587, -35.72504086025928 -12.21193895166136 M-36.48316345028037 -11.42911513444238 C-36.20410585637524 -11.717265011203974, -35.925048262470106 -12.005414887965568, -35.72504086025928 -12.21193895166136 M-35.72504086025928 -12.21193895166136 C-35.50570035409178 -12.411138195930908, -35.28635984792428 -12.610337440200459, -34.91832022023242 -12.944581292275274 M-35.72504086025928 -12.21193895166136 C-35.45639856612729 -12.455912775306425, -35.18775627199531 -12.69988659895149, -34.91832022023242 -12.944581292275274 M-34.91832022023242 -12.944581292275274 C-34.597086161638515 -13.200756905606601, -34.27585210304461 -13.45693251893793, -34.066316518350675 -13.624031571755259 M-34.91832022023242 -12.944581292275274 C-34.59026768194602 -13.206194461714006, -34.26221514365961 -13.467807631152736, -34.066316518350675 -13.624031571755259 M-34.066316518350675 -13.624031571755259 C-33.792093903216156 -13.815317397167417, -33.517871288081636 -14.006603222579576, -33.17253082057934 -14.247497783161284 M-34.066316518350675 -13.624031571755259 C-33.73426469302012 -13.855656550814006, -33.40221286768958 -14.087281529872755, -33.17253082057934 -14.247497783161284 M-33.17253082057934 -14.247497783161284 C-32.93661049345622 -14.39051407188505, -32.7006901663331 -14.533530360608816, -32.24063588406695 -14.812417970097618 M-33.17253082057934 -14.247497783161284 C-32.821398768638964 -14.46035609652852, -32.470266716698596 -14.673214409895753, -32.24063588406695 -14.812417970097618 M-32.24063588406695 -14.812417970097618 C-31.9033968219497 -14.988355372792258, -31.566157759832453 -15.164292775486896, -31.27446106499849 -15.316470754341124 M-32.24063588406695 -14.812417970097618 C-31.928396151549546 -14.975313238552852, -31.616156419032144 -15.138208507008088, -31.27446106499849 -15.316470754341124 M-31.27446106499849 -15.316470754341124 C-31.058172660769962 -15.412215214925542, -30.841884256541434 -15.507959675509959, -30.277976582949368 -15.757584874882365 M-31.27446106499849 -15.316470754341124 C-30.892048047827867 -15.485753653163453, -30.50963503065724 -15.655036551985782, -30.277976582949368 -15.757584874882365 M-30.277976582949368 -15.757584874882365 C-29.97984528409725 -15.867299948755461, -29.681713985245135 -15.977015022628557, -29.255277206401566 -16.133947699181363 M-30.277976582949368 -15.757584874882365 C-30.04850577236849 -15.84203225438105, -29.819034961787608 -15.926479633879733, -29.255277206401566 -16.133947699181363 M-29.255277206401566 -16.133947699181363 C-28.92732021108369 -16.23128361391031, -28.59936321576581 -16.32861952863926, -28.210565426461642 -16.444012671663494 M-29.255277206401566 -16.133947699181363 C-28.89890570191977 -16.239716891079357, -28.542534197437977 -16.345486082977356, -28.210565426461642 -16.444012671663494 M-28.210565426461642 -16.444012671663494 C-27.874453942351142 -16.520727924579305, -27.538342458240642 -16.597443177495116, -27.148134187923336 -16.68650566884811 M-28.210565426461642 -16.444012671663494 C-27.80136475251058 -16.537410055208877, -27.392164078559517 -16.63080743875426, -27.148134187923336 -16.68650566884811 M-27.148134187923336 -16.68650566884811 C-26.829977093935668 -16.73794284045892, -26.511819999948003 -16.789380012069735, -26.072349248636613 -16.86043023499518 M-27.148134187923336 -16.68650566884811 C-26.89240588974219 -16.727849836895466, -26.636677591561046 -16.769194004942822, -26.072349248636613 -16.86043023499518 M-26.072349248636613 -16.86043023499518 C-25.701583597322585 -16.89619755146651, -25.330817946008562 -16.93196486793784, -24.98763123967212 -16.965071676755716 M-26.072349248636613 -16.86043023499518 C-25.673242703516664 -16.898931563407057, -25.274136158396715 -16.937432891818933, -24.98763123967212 -16.965071676755716 M-24.98763123967212 -16.965071676755716 C-24.57758722920564 -16.97822099006913, -24.167543218739162 -16.991370303382542, -23.898437500000004 -17 M-24.98763123967212 -16.965071676755716 C-24.705389137510434 -16.974122631621118, -24.42314703534875 -16.98317358648652, -23.898437500000004 -17 M-23.898437500000004 -17 C-23.898437500000004 -17, -23.898437500000004 -17, -23.8984375 -17 M-23.898437500000004 -17 C-23.898437500000004 -17, -23.898437500000004 -17, -23.8984375 -17" stroke="#9370DB" stroke-width="1.3" fill="none" stroke-dasharray="0 0" style=""/></g><g class="label" style="" transform="translate(0, -9.5)"><rect/><g><rect class="background" style="stroke: none"/><text y="-10.1" style=""><tspan class="text-outer-tspan row" x="0" y="-0.1em" dy="1.1em"><tspan font-style="normal" class="text-inner-tspan" font-weight="normal">Internet</tspan></tspan></text></g></g></g><g class="node default" id="my-svg-flowchart-Ingress-1" data-look="classic" transform="translate(403.22265625, 142.9000015258789)"><rect class="basic label-container" style="" x="-98.2890625" y="-50.900001525878906" width="196.578125" height="101.80000305175781"/><g class="label" style="" transform="translate(0, -35.900001525878906)"><rect/><g><rect class="background" style="stroke: none"/><text y="-10.1" style=""><tspan class="text-outer-tspan row" x="0" y="-0.1em" dy="1.1em"><tspan font-style="normal" class="text-inner-tspan" font-weight="normal">Ingress</tspan><tspan font-style="normal" class="text-inner-tspan" font-weight="normal"> controller</tspan></tspan><tspan class="text-outer-tspan row" x="0" y="1em" dy="1.1em"><tspan font-style="normal" class="text-inner-tspan" font-weight="normal">nginx-ingress</tspan><tspan font-style="normal" class="text-inner-tspan" font-weight="normal"> ·</tspan><tspan font-style="normal" class="text-inner-tspan" font-weight="normal"> ALB</tspan></tspan><tspan class="text-outer-tspan row" x="0" y="2.1em" dy="1.1em"><tspan font-style="normal" class="text-inner-tspan" font-weight="normal">controller</tspan></tspan><tspan class="text-outer-tspan row" x="0" y="3.2em" dy="1.1em"><tspan font-style="normal" class="text-inner-tspan" font-weight="normal">proxy-buffering</tspan><tspan font-style="normal" class="text-inner-tspan" font-weight="normal"> off</tspan></tspan></text></g></g></g><g class="node default" id="my-svg-flowchart-SvcAI-3" data-look="classic" transform="translate(403.22265625, 268.3000030517578)"><rect class="basic label-container" style="" x="-95.8515625" y="-24.5" width="191.703125" height="49"/><g class="label" style="" transform="translate(0, -9.5)"><rect/><g><rect class="background" style="stroke: none"/><text y="-10.1" style=""><tspan class="text-outer-tspan row" x="0" y="-0.1em" dy="1.1em"><tspan font-style="normal" class="text-inner-tspan" font-weight="normal">Service:</tspan><tspan font-style="normal" class="text-inner-tspan" font-weight="normal"> ai-service</tspan></tspan></text></g></g></g><g class="node default" id="my-svg-flowchart-Pod1-5" data-look="classic" transform="translate(239.9375, 390.3000030517578)"><rect class="basic label-container" style="" x="-116.6015625" y="-24.5" width="233.203125" height="49"/><g class="label" style="" transform="translate(0, -9.5)"><rect/><g><rect class="background" style="stroke: none"/><text y="-10.1" style=""><tspan class="text-outer-tspan row" x="0" y="-0.1em" dy="1.1em"><tspan font-style="normal" class="text-inner-tspan" font-weight="normal">Pod:</tspan><tspan font-style="normal" class="text-inner-tspan" font-weight="normal"> ai-service</tspan><tspan font-style="normal" class="text-inner-tspan" font-weight="normal"> replica</tspan><tspan font-style="normal" class="text-inner-tspan" font-weight="normal"> 1</tspan></tspan></text></g></g></g><g class="node default" id="my-svg-flowchart-Pod2-7" data-look="classic" transform="translate(535.01953125, 390.3000030517578)"><rect class="basic label-container" style="" x="-116.6015625" y="-24.5" width="233.203125" height="49"/><g class="label" style="" transform="translate(0, -9.5)"><rect/><g><rect class="background" style="stroke: none"/><text y="-10.1" style=""><tspan class="text-outer-tspan row" x="0" y="-0.1em" dy="1.1em"><tspan font-style="normal" class="text-inner-tspan" font-weight="normal">Pod:</tspan><tspan font-style="normal" class="text-inner-tspan" font-weight="normal"> ai-service</tspan><tspan font-style="normal" class="text-inner-tspan" font-weight="normal"> replica</tspan><tspan font-style="normal" class="text-inner-tspan" font-weight="normal"> 2</tspan></tspan></text></g></g></g><g class="node default" id="my-svg-flowchart-PodN-9" data-look="classic" transform="translate(830.5546875, 390.3000030517578)"><rect class="basic label-container" style="" x="-117.5078125" y="-24.5" width="235.015625" height="49"/><g class="label" style="" transform="translate(0, -9.5)"><rect/><g><rect class="background" style="stroke: none"/><text y="-10.1" style=""><tspan class="text-outer-tspan row" x="0" y="-0.1em" dy="1.1em"><tspan font-style="normal" class="text-inner-tspan" font-weight="normal">Pod:</tspan><tspan font-style="normal" class="text-inner-tspan" font-weight="normal"> ai-service</tspan><tspan font-style="normal" class="text-inner-tspan" font-weight="normal"> replica</tspan><tspan font-style="normal" class="text-inner-tspan" font-weight="normal"> N</tspan></tspan></text></g></g></g><g class="node default" id="my-svg-flowchart-SvcDB-11" data-look="classic" transform="translate(101.4921875, 500.5546875)"><rect class="basic label-container" style="" x="-93.4921875" y="-33.29999923706055" width="186.984375" height="66.5999984741211"/><g class="label" style="" transform="translate(0, -18.299999237060547)"><rect/><g><rect class="background" style="stroke: none"/><text y="-10.1" style=""><tspan class="text-outer-tspan row" x="0" y="-0.1em" dy="1.1em"><tspan font-style="normal" class="text-inner-tspan" font-weight="normal">Service:</tspan><tspan font-style="normal" class="text-inner-tspan" font-weight="normal"> database</tspan></tspan><tspan class="text-outer-tspan row" x="0" y="1em" dy="1.1em"><tspan font-style="normal" class="text-inner-tspan" font-weight="normal">or</tspan><tspan font-style="normal" class="text-inner-tspan" font-weight="normal"> external</tspan><tspan font-style="normal" class="text-inner-tspan" font-weight="normal"> RDS</tspan></tspan></text></g></g></g><g class="node default" id="my-svg-flowchart-SvcRedis-17" data-look="classic" transform="translate(525.47265625, 500.5546875)"><rect class="basic label-container" style="" x="-113.3984375" y="-33.29999923706055" width="226.796875" height="66.5999984741211"/><g class="label" style="" transform="translate(0, -18.299999237060547)"><rect/><g><rect class="background" style="stroke: none"/><text y="-10.1" style=""><tspan class="text-outer-tspan row" x="0" y="-0.1em" dy="1.1em"><tspan font-style="normal" class="text-inner-tspan" font-weight="normal">Service:</tspan><tspan font-style="normal" class="text-inner-tspan" font-weight="normal"> redis</tspan></tspan><tspan class="text-outer-tspan row" x="0" y="1em" dy="1.1em"><tspan font-style="normal" class="text-inner-tspan" font-weight="normal">or</tspan><tspan font-style="normal" class="text-inner-tspan" font-weight="normal"> external</tspan><tspan font-style="normal" class="text-inner-tspan" font-weight="normal"> ElastiCache</tspan></tspan></text></g></g></g><g class="node default" id="my-svg-flowchart-S3-23" data-look="classic" transform="translate(943.51953125, 500.5546875)"><path d="M0,12.503124218945262 a62.53125,12.503124218945262 0,0,0 125.0625,0 a62.53125,12.503124218945262 0,0,0 -125.0625,0 l0,46.50312421894526 a62.53125,12.503124218945262 0,0,0 125.0625,0 l0,-46.50312421894526" class="basic label-container outer-path" style="" transform="translate(-62.53125, -35.75468632841789)"/><g class="label" style="" transform="translate(0, -0.5)"><rect/><g><rect class="background" style="stroke: none"/><text y="-10.1" style=""><tspan class="text-outer-tspan row" x="0" y="-0.1em" dy="1.1em"><tspan font-style="normal" class="text-inner-tspan" font-weight="normal">S3</tspan><tspan font-style="normal" class="text-inner-tspan" font-weight="normal"> /</tspan><tspan font-style="normal" class="text-inner-tspan" font-weight="normal"> Azure</tspan><tspan font-style="normal" class="text-inner-tspan" font-weight="normal"> Blob</tspan></tspan></text></g></g></g><g class="node default" id="my-svg-flowchart-HPA-28" data-look="classic" transform="translate(666.81640625, 268.3000030517578)"><rect class="basic label-container" style="" x="-117.7421875" y="-24.5" width="235.484375" height="49"/><g class="label" style="" transform="translate(0, -9.5)"><rect/><g><rect class="background" style="stroke: none"/><text y="-10.1" style=""><tspan class="text-outer-tspan row" x="0" y="-0.1em" dy="1.1em"><tspan font-style="normal" class="text-inner-tspan" font-weight="normal">HorizontalPodAutoscaler</tspan></tspan></text></g></g></g></g></g></g><defs><filter id="my-svg-drop-shadow" height="130%" width="130%"><feDropShadow dx="4" dy="4" stdDeviation="0" flood-opacity="0.06" flood-color="#000000"/></filter></defs><defs><filter id="my-svg-drop-shadow-small" height="150%" width="150%"><feDropShadow dx="2" dy="2" stdDeviation="0" flood-opacity="0.06" flood-color="#000000"/></filter></defs></svg>