<svg id="my-svg" width="1014" xmlns="http://www.w3.org/2000/svg" xmlns:xlink="http://www.w3.org/1999/xlink" class="flowchart" style="max-width: 1014.05px; background-color: white;" viewBox="0 0 1014.05078125 544.309326171875" role="graphics-document document" aria-roledescription="flowchart-v2"><style>#my-svg{font-family:"trebuchet ms",verdana,arial,sans-serif;font-size:16px;fill:#333;}@keyframes edge-animation-frame{from{stroke-dashoffset:0;}}@keyframes dash{to{stroke-dashoffset:0;}}#my-svg .edge-animation-slow{stroke-dasharray:9,5!important;stroke-dashoffset:900;animation:dash 50s linear infinite;stroke-linecap:round;}#my-svg .edge-animation-fast{stroke-dasharray:9,5!important;stroke-dashoffset:900;animation:dash 20s linear infinite;stroke-linecap:round;}#my-svg .error-icon{fill:#552222;}#my-svg .error-text{fill:#552222;stroke:#552222;}#my-svg .edge-thickness-normal{stroke-width:1px;}#my-svg .edge-thickness-thick{stroke-width:3.5px;}#my-svg .edge-pattern-solid{stroke-dasharray:0;}#my-svg .edge-thickness-invisible{stroke-width:0;fill:none;}#my-svg .edge-pattern-dashed{stroke-dasharray:3;}#my-svg .edge-pattern-dotted{stroke-dasharray:2;}#my-svg .marker{fill:#333333;stroke:#333333;}#my-svg .marker.cross{stroke:#333333;}#my-svg svg{font-family:"trebuchet ms",verdana,arial,sans-serif;font-size:16px;}#my-svg p{margin:0;}#my-svg .label{font-family:"trebuchet ms",verdana,arial,sans-serif;color:#333;}#my-svg .cluster-label text{fill:#333;}#my-svg .cluster-label span{color:#333;}#my-svg .cluster-label span p{background-color:transparent;}#my-svg .label text,#my-svg span{fill:#333;color:#333;}#my-svg .node rect,#my-svg .node circle,#my-svg .node ellipse,#my-svg .node polygon,#my-svg .node path{fill:#ECECFF;stroke:#9370DB;stroke-width:1px;}#my-svg .rough-node .label text,#my-svg .node .label text,#my-svg .image-shape .label,#my-svg .icon-shape .label{text-anchor:middle;}#my-svg .node .katex path{fill:#000;stroke:#000;stroke-width:1px;}#my-svg .rough-node .label,#my-svg .node .label,#my-svg .image-shape .label,#my-svg .icon-shape .label{text-align:center;}#my-svg .node.clickable{cursor:pointer;}#my-svg .root .anchor path{fill:#333333!important;stroke-width:0;stroke:#333333;}#my-svg .arrowheadPath{fill:#333333;}#my-svg .edgePath .path{stroke:#333333;stroke-width:1px;}#my-svg .flowchart-link{stroke:#333333;fill:none;}#my-svg .edgeLabel{background-color:rgba(232,232,232, 0.8);text-align:center;}#my-svg .edgeLabel p{background-color:rgba(232,232,232, 0.8);}#my-svg .edgeLabel rect{opacity:0.5;background-color:rgba(232,232,232, 0.8);fill:rgba(232,232,232, 0.8);}#my-svg .labelBkg{background-color:rgba(232, 232, 232, 0.5);}#my-svg .cluster rect{fill:#ffffde;stroke:#aaaa33;stroke-width:1px;}#my-svg .cluster text{fill:#333;}#my-svg .cluster span{color:#333;}#my-svg div.mermaidTooltip{position:absolute;text-align:center;max-width:200px;padding:2px;font-family:"trebuchet ms",verdana,arial,sans-serif;font-size:12px;background:hsl(80, 100%, 96.2745098039%);border:1px solid #aaaa33;border-radius:2px;pointer-events:none;z-index:100;}#my-svg .flowchartTitleText{text-anchor:middle;font-size:18px;fill:#333;}#my-svg rect.text{fill:none;stroke-width:0;}#my-svg .icon-shape,#my-svg .image-shape{background-color:rgba(232,232,232, 0.8);text-align:center;}#my-svg .icon-shape p,#my-svg .image-shape p{background-color:rgba(232,232,232, 0.8);padding:2px;}#my-svg .icon-shape .label rect,#my-svg .image-shape .label rect{opacity:0.5;background-color:rgba(232,232,232, 0.8);fill:rgba(232,232,232, 0.8);}#my-svg .label-icon{display:inline-block;height:1em;overflow:visible;vertical-align:-0.125em;}#my-svg .node .label-icon path{fill:currentColor;stroke:revert;stroke-width:revert;}#my-svg .node .neo-node{stroke:#9370DB;}#my-svg [data-look="neo"].node rect,#my-svg [data-look="neo"].cluster rect,#my-svg [data-look="neo"].node polygon{stroke:#9370DB;filter:drop-shadow(1px 2px 2px rgba(185, 185, 185, 1));}#my-svg [data-look="neo"].node path{stroke:#9370DB;stroke-width:1px;}#my-svg [data-look="neo"].node .outer-path{filter:drop-shadow(1px 2px 2px rgba(185, 185, 185, 1));}#my-svg [data-look="neo"].node .neo-line path{stroke:#9370DB;filter:none;}#my-svg [data-look="neo"].node circle{stroke:#9370DB;filter:drop-shadow(1px 2px 2px rgba(185, 185, 185, 1));}#my-svg [data-look="neo"].node circle .state-start{fill:#000000;}#my-svg [data-look="neo"].icon-shape .icon{fill:#9370DB;filter:drop-shadow(1px 2px 2px rgba(185, 185, 185, 1));}#my-svg [data-look="neo"].icon-shape .icon-neo path{stroke:#9370DB;filter:drop-shadow(1px 2px 2px rgba(185, 185, 185, 1));}#my-svg :root{--mermaid-font-family:"trebuchet ms",verdana,arial,sans-serif;}</style><g><marker id="my-svg_flowchart-v2-pointEnd" class="marker flowchart-v2" viewBox="0 0 10 10" refX="5" refY="5" markerUnits="userSpaceOnUse" markerWidth="8" markerHeight="8" orient="auto"><path d="M 0 0 L 10 5 L 0 10 z" class="arrowMarkerPath" style="stroke-width: 1; stroke-dasharray: 1, 0;"/></marker><marker id="my-svg_flowchart-v2-pointStart" class="marker flowchart-v2" viewBox="0 0 10 10" refX="4.5" refY="5" markerUnits="userSpaceOnUse" markerWidth="8" markerHeight="8" orient="auto"><path d="M 0 5 L 10 10 L 10 0 z" class="arrowMarkerPath" style="stroke-width: 1; stroke-dasharray: 1, 0;"/></marker><marker id="my-svg_flowchart-v2-pointEnd-margin" class="marker flowchart-v2" viewBox="0 0 11.5 14" refX="11.5" refY="7" markerUnits="userSpaceOnUse" markerWidth="10.5" markerHeight="14" orient="auto"><path d="M 0 0 L 11.5 7 L 0 14 z" class="arrowMarkerPath" style="stroke-width: 0; stroke-dasharray: 1, 0;"/></marker><marker id="my-svg_flowchart-v2-pointStart-margin" class="marker flowchart-v2" viewBox="0 0 11.5 14" refX="1" refY="7" markerUnits="userSpaceOnUse" markerWidth="11.5" markerHeight="14" orient="auto"><polygon points="0,7 11.5,14 11.5,0" class="arrowMarkerPath" style="stroke-width: 0; stroke-dasharray: 1, 0;"/></marker><marker id="my-svg_flowchart-v2-circleEnd" class="marker flowchart-v2" viewBox="0 0 10 10" refX="11" refY="5" markerUnits="userSpaceOnUse" markerWidth="11" markerHeight="11" orient="auto"><circle cx="5" cy="5" r="5" class="arrowMarkerPath" style="stroke-width: 1; stroke-dasharray: 1, 0;"/></marker><marker id="my-svg_flowchart-v2-circleStart" class="marker flowchart-v2" viewBox="0 0 10 10" refX="-1" refY="5" markerUnits="userSpaceOnUse" markerWidth="11" markerHeight="11" orient="auto"><circle cx="5" cy="5" r="5" class="arrowMarkerPath" style="stroke-width: 1; stroke-dasharray: 1, 0;"/></marker><marker id="my-svg_flowchart-v2-circleEnd-margin" class="marker flowchart-v2" viewBox="0 0 10 10" refY="5" refX="12.25" markerUnits="userSpaceOnUse" markerWidth="14" markerHeight="14" orient="auto"><circle cx="5" cy="5" r="5" class="arrowMarkerPath" style="stroke-width: 0; stroke-dasharray: 1, 0;"/></marker><marker id="my-svg_flowchart-v2-circleStart-margin" class="marker flowchart-v2" viewBox="0 0 10 10" refX="-2" refY="5" markerUnits="userSpaceOnUse" markerWidth="14" markerHeight="14" orient="auto"><circle cx="5" cy="5" r="5" class="arrowMarkerPath" style="stroke-width: 0; stroke-dasharray: 1, 0;"/></marker><marker id="my-svg_flowchart-v2-crossEnd" class="marker cross flowchart-v2" viewBox="0 0 11 11" refX="12" refY="5.2" markerUnits="userSpaceOnUse" markerWidth="11" markerHeight="11" orient="auto"><path d="M 1,1 l 9,9 M 10,1 l -9,9" class="arrowMarkerPath" style="stroke-width: 2; stroke-dasharray: 1, 0;"/></marker><marker id="my-svg_flowchart-v2-crossStart" class="marker cross flowchart-v2" viewBox="0 0 11 11" refX="-1" refY="5.2" markerUnits="userSpaceOnUse" markerWidth="11" markerHeight="11" orient="auto"><path d="M 1,1 l 9,9 M 10,1 l -9,9" class="arrowMarkerPath" style="stroke-width: 2; stroke-dasharray: 1, 0;"/></marker><marker id="my-svg_flowchart-v2-crossEnd-margin" class="marker cross flowchart-v2" viewBox="0 0 15 15" refX="17.7" refY="7.5" markerUnits="userSpaceOnUse" markerWidth="12" markerHeight="12" orient="auto"><path d="M 1,1 L 14,14 M 1,14 L 14,1" class="arrowMarkerPath" style="stroke-width: 2.5;"/></marker><marker id="my-svg_flowchart-v2-crossStart-margin" class="marker cross flowchart-v2" viewBox="0 0 15 15" refX="-3.5" refY="7.5" markerUnits="userSpaceOnUse" markerWidth="12" markerHeight="12" orient="auto"><path d="M 1,1 L 14,14 M 1,14 L 14,1" class="arrowMarkerPath" style="stroke-width: 2.5; stroke-dasharray: 1, 0;"/></marker><g class="root"><g class="clusters"/><g class="edgePaths"><path d="M403.723,42.5L403.639,46.583C403.556,50.667,403.389,58.833,403.306,66.417C403.223,74,403.223,81,403.223,84.5L403.223,88" id="my-svg-L_Internet_Ingress_0" class="edge-thickness-normal edge-pattern-solid edge-thickness-normal edge-pattern-solid flowchart-link" style=";" data-edge="true" data-et="edge" data-id="L_Internet_Ingress_0" data-points="W3sieCI6NDAzLjcyMjY1NjI1LCJ5Ijo0Mi41fSx7IngiOjQwMy4yMjI2NTYyNSwieSI6Njd9LHsieCI6NDAzLjIyMjY1NjI1LCJ5Ijo5Mn1d" data-look="classic" marker-end="url(#my-svg_flowchart-v2-pointEnd)"/><path d="M403.223,193.8L403.223,197.967C403.223,202.133,403.223,210.467,403.223,218.133C403.223,225.8,403.223,232.8,403.223,236.3L403.223,239.8" id="my-svg-L_Ingress_SvcAI_0" class="edge-thickness-normal edge-pattern-solid edge-thickness-normal edge-pattern-solid flowchart-link" style=";" data-edge="true" data-et="edge" data-id="L_Ingress_SvcAI_0" data-points="W3sieCI6NDAzLjIyMjY1NjI1LCJ5IjoxOTMuODAwMDAzMDUxNzU3OH0seyJ4Ijo0MDMuMjIyNjU2MjUsInkiOjIxOC44MDAwMDMwNTE3NTc4fSx7IngiOjQwMy4yMjI2NTYyNSwieSI6MjQzLjgwMDAwMzA1MTc1Nzh9XQ==" data-look="classic" marker-end="url(#my-svg_flowchart-v2-pointEnd)"/><path d="M326.237,292.8L307.121,298.883C288.005,304.967,249.774,317.133,233.209,328.696C216.644,340.258,221.744,351.216,224.295,356.695L226.845,362.174" id="my-svg-L_SvcAI_Pod1_0" class="edge-thickness-normal edge-pattern-solid edge-thickness-normal edge-pattern-solid flowchart-link" style=";" data-edge="true" data-et="edge" data-id="L_SvcAI_Pod1_0" data-points="W3sieCI6MzI2LjIzNjU1MjI1NDA5ODM0LCJ5IjoyOTIuODAwMDAzMDUxNzU3OH0seyJ4IjoyMTEuNTQyOTY4NzUsInkiOjMyOS4zMDAwMDMwNTE3NTc4fSx7IngiOjIyOC41MzMxMzkwODgxMTQ3NSwieSI6MzY1LjgwMDAwMzA1MTc1Nzh9XQ==" data-look="classic" marker-end="url(#my-svg_flowchart-v2-pointEnd)"/><path d="M401.958,292.8L401.644,298.883C401.33,304.967,400.702,317.133,413.238,329.025C425.775,340.917,451.475,352.535,464.325,358.344L477.175,364.152" id="my-svg-L_SvcAI_Pod2_0" class="edge-thickness-normal edge-pattern-solid edge-thickness-normal edge-pattern-solid flowchart-link" style=";" data-edge="true" data-et="edge" data-id="L_SvcAI_Pod2_0" data-points="W3sieCI6NDAxLjk1ODExOTg3NzA0OTE3LCJ5IjoyOTIuODAwMDAzMDUxNzU3OH0seyJ4Ijo0MDAuMDc0MjE4NzUsInkiOjMyOS4zMDAwMDMwNTE3NTc4fSx7IngiOjQ4MC44MjAxODQ0MjYyMjk1LCJ5IjozNjUuODAwMDAzMDUxNzU3OH1d" data-look="classic" marker-end="url(#my-svg_flowchart-v2-pointEnd)"/><path d="M499.074,289.144L529.85,295.837C560.626,302.529,622.178,315.915,666.981,328.435C711.784,340.955,739.837,352.61,753.864,358.438L767.89,364.265" id="my-svg-L_SvcAI_PodN_0" class="edge-thickness-normal edge-pattern-solid edge-thickness-normal edge-pattern-solid flowchart-link" style=";" data-edge="true" data-et="edge" data-id="L_SvcAI_PodN_0" data-points="W3sieCI6NDk5LjA3NDIxODc1LCJ5IjoyODkuMTQ0MTQ3MzIxMzU4MTZ9LHsieCI6NjgzLjczMDQ2ODc1LCJ5IjozMjkuMzAwMDAzMDUxNzU3OH0seyJ4Ijo3NzEuNTg0MzA0NTU5NDI2MiwieSI6MzY1LjgwMDAwMzA1MTc1Nzh9XQ==" data-look="classic" marker-end="url(#my-svg_flowchart-v2-pointEnd)"/><path d="M161.515,414.8L148.178,418.967C134.841,423.133,108.166,431.467,96.127,439.576C84.088,447.685,86.684,455.57,87.981,459.513L89.279,463.455" id="my-svg-L_Pod1_SvcDB_0" class="edge-thickness-normal edge-pattern-solid edge-thickness-normal edge-pattern-solid flowchart-link" style=";" data-edge="true" data-et="edge" data-id="L_Pod1_SvcDB_0" data-points="W3sieCI6MTYxLjUxNTA3MjYwMTAxMDEsInkiOjQxNC44MDAwMDMwNTE3NTc4fSx7IngiOjgxLjQ5MjE4NzUsInkiOjQzOS44MDAwMDMwNTE3NTc4fSx7IngiOjkwLjUzMDA3MDA3OTkyNTQsInkiOjQ2Ny4yNTQ2ODgyNjI5Mzk0NX1d" data-look="classic" marker-end="url(#my-svg_flowchart-v2-pointEnd)"/><path d="M418.418,407.525L382.005,412.904C345.591,418.283,272.764,429.042,229.504,438.646C186.243,448.251,172.549,456.703,165.702,460.928L158.855,465.154" id="my-svg-L_Pod2_SvcDB_0" class="edge-thickness-normal edge-pattern-solid edge-thickness-normal edge-pattern-solid flowchart-link" style=";" data-edge="true" data-et="edge" data-id="L_Pod2_SvcDB_0" data-points="W3sieCI6NDE4LjQxNzk2ODc1LCJ5Ijo0MDcuNTI0OTcxMjg0ODE2NH0seyJ4IjoxOTkuOTM3NSwieSI6NDM5LjgwMDAwMzA1MTc1Nzh9LHsieCI6MTU1LjQ1MDY0MTI1NDA0Njg3LCJ5Ijo0NjcuMjU0Njg4MjYyOTM5NDV9XQ==" data-look="classic" marker-end="url(#my-svg_flowchart-v2-pointEnd)"/><path d="M713.047,399.826L630.862,406.488C548.677,413.151,384.307,426.475,293.795,437.409C203.282,448.343,186.627,456.886,178.299,461.158L169.972,465.429" id="my-svg-L_PodN_SvcDB_0" class="edge-thickness-normal edge-pattern-solid edge-thickness-normal edge-pattern-solid flowchart-link" style=";" data-edge="true" data-et="edge" data-id="L_PodN_SvcDB_0" data-points="W3sieCI6NzEzLjA0Njg3NSwieSI6Mzk5LjgyNTgzNTAwOTY4OTc0fSx7IngiOjIxOS45Mzc1LCJ5Ijo0MzkuODAwMDAzMDUxNzU3OH0seyJ4IjoxNjYuNDEyNzU4Njc0MTIxNDgsInkiOjQ2Ny4yNTQ2ODgyNjI5Mzk0NX1d" data-look="classic" marker-end="url(#my-svg_flowchart-v2-pointEnd)"/><path d="M239.938,414.8L239.938,418.967C239.938,423.133,239.938,431.467,267.975,441.599C296.012,451.731,352.087,463.663,380.124,469.628L408.162,475.594" id="my-svg-L_Pod1_SvcRedis_0" class="edge-thickness-normal edge-pattern-solid edge-thickness-normal edge-pattern-solid flowchart-link" style=";" data-edge="true" data-et="edge" data-id="L_Pod1_SvcRedis_0" data-points="W3sieCI6MjM5LjkzNzUsInkiOjQxNC44MDAwMDMwNTE3NTc4fSx7IngiOjIzOS45Mzc1LCJ5Ijo0MzkuODAwMDAzMDUxNzU3OH0seyJ4Ijo0MTIuMDc0MjE4NzUsInkiOjQ3Ni40MjYzNTgxNjMxOTQ1fV0=" data-look="classic" marker-end="url(#my-svg_flowchart-v2-pointEnd)"/><path d="M535.02,414.8L535.02,418.967C535.02,423.133,535.02,431.467,534.404,439.551C533.788,447.634,532.557,455.469,531.942,459.386L531.326,463.303" id="my-svg-L_Pod2_SvcRedis_0" class="edge-thickness-normal edge-pattern-solid edge-thickness-normal edge-pattern-solid flowchart-link" style=";" data-edge="true" data-et="edge" data-id="L_Pod2_SvcRedis_0" data-points="W3sieCI6NTM1LjAxOTUzMTI1LCJ5Ijo0MTQuODAwMDAzMDUxNzU3OH0seyJ4Ijo1MzUuMDE5NTMxMjUsInkiOjQzOS44MDAwMDMwNTE3NTc4fSx7IngiOjUzMC43MDUzNTQ0ODcyMzg4LCJ5Ijo0NjcuMjU0Njg4MjYyOTM5NDV9XQ==" data-look="classic" marker-end="url(#my-svg_flowchart-v2-pointEnd)"/><path d="M823.117,414.8L821.852,418.967C820.587,423.133,818.057,431.467,788.002,441.664C757.947,451.861,700.367,463.922,671.576,469.952L642.786,475.982" id="my-svg-L_PodN_SvcRedis_0" class="edge-thickness-normal edge-pattern-solid edge-thickness-normal edge-pattern-solid flowchart-link" style=";" data-edge="true" data-et="edge" data-id="L_PodN_SvcRedis_0" data-points="W3sieCI6ODIzLjExNjkxMTMwMDUwNTEsInkiOjQxNC44MDAwMDMwNTE3NTc4fSx7IngiOjgxNS41MjczNDM3NSwieSI6NDM5LjgwMDAwMzA1MTc1Nzh9LHsieCI6NjM4Ljg3MTA5Mzc1LCJ5Ijo0NzYuODAyMzE3Mzk4Mjg4N31d" data-look="classic" marker-end="url(#my-svg_flowchart-v2-pointEnd)"/><path d="M356.539,399.991L436.37,406.626C516.202,413.261,675.865,426.53,762.762,439.084C849.659,451.637,863.79,463.474,870.856,469.392L877.922,475.31" id="my-svg-L_Pod1_S3_0" class="edge-thickness-normal edge-pattern-solid edge-thickness-normal edge-pattern-solid flowchart-link" style=";" data-edge="true" data-et="edge" data-id="L_Pod1_S3_0" data-points="W3sieCI6MzU2LjUzOTA2MjUsInkiOjM5OS45OTA4NjIyOTcxMjI1fSx7IngiOjgzNS41MjczNDM3NSwieSI6NDM5LjgwMDAwMzA1MTc1Nzh9LHsieCI6ODgwLjk4ODI4MTI1LCJ5Ijo0NzcuODc4NzI2NTQ3NTgzNzd9XQ==" data-look="classic" marker-end="url(#my-svg_flowchart-v2-pointEnd)"/><path d="M651.621,408.308L685.605,413.557C719.59,418.805,787.559,429.303,827.068,439.204C866.577,449.106,877.626,458.412,883.151,463.065L888.676,467.718" id="my-svg-L_Pod2_S3_0" class="edge-thickness-normal edge-pattern-solid edge-thickness-normal edge-pattern-solid flowchart-link" style=";" data-edge="true" data-et="edge" data-id="L_Pod2_S3_0" data-points="W3sieCI6NjUxLjYyMTA5Mzc1LCJ5Ijo0MDguMzA4MjI5NzQyNzk5OX0seyJ4Ijo4NTUuNTI3MzQzNzUsInkiOjQzOS44MDAwMDMwNTE3NTc4fSx7IngiOjg5MS43MzUzMjg0OTE4ODUyLCJ5Ijo0NzAuMjk0NzMzNjYwODY1MzV9XQ==" data-look="classic" marker-end="url(#my-svg_flowchart-v2-pointEnd)"/><path d="M893.877,414.8L904.646,418.967C915.416,423.133,936.954,431.467,946.855,439.173C956.756,446.88,955.02,453.96,954.152,457.5L953.284,461.04" id="my-svg-L_PodN_S3_0" class="edge-thickness-normal edge-pattern-solid edge-thickness-normal edge-pattern-solid flowchart-link" style=";" data-edge="true" data-et="edge" data-id="L_PodN_S3_0" data-points="W3sieCI6ODkzLjg3NzI4ODUxMDEwMSwieSI6NDE0LjgwMDAwMzA1MTc1Nzh9LHsieCI6OTU4LjQ5MjE4NzUsInkiOjQzOS44MDAwMDMwNTE3NTc4fSx7IngiOjk1Mi4zMzEwNzU2NTA3NzQ5LCJ5Ijo0NjQuOTI0NzYxNjcwNjE0MX1d" data-look="classic" marker-end="url(#my-svg_flowchart-v2-pointEnd)"/><path d="M549.074,291.46L517.013,297.767C484.952,304.074,420.829,316.687,377.714,328.768C334.599,340.849,312.49,352.399,301.436,358.173L290.382,363.948" id="my-svg-L_HPA_Pod1_0" class="edge-thickness-normal edge-pattern-dotted edge-thickness-normal edge-pattern-solid flowchart-link" style=";" data-edge="true" data-et="edge" data-id="L_HPA_Pod1_0" data-points="W3sieCI6NTQ5LjA3NDIxODc1LCJ5IjoyOTEuNDYwNDU1NTEzMDg2OTd9LHsieCI6MzU2LjcwNzAzMTI1LCJ5IjozMjkuMzAwMDAzMDUxNzU3OH0seyJ4IjoyODYuODM2NzM3OTYxMDY1NiwieSI6MzY1LjgwMDAwMzA1MTc1Nzh9XQ==" data-look="classic" marker-end="url(#my-svg_flowchart-v2-pointEnd)"/><path d="M656.192,292.8L653.554,298.883C650.916,304.967,645.639,317.133,633.073,328.966C620.506,340.799,600.649,352.297,590.72,358.046L580.791,363.796" id="my-svg-L_HPA_Pod2_0" class="edge-thickness-normal edge-pattern-dotted edge-thickness-normal edge-pattern-solid flowchart-link" style=";" data-edge="true" data-et="edge" data-id="L_HPA_Pod2_0" data-points="W3sieCI6NjU2LjE5MTc5MDQ3MTMxMTUsInkiOjI5Mi44MDAwMDMwNTE3NTc4fSx7IngiOjY0MC4zNjMyODEyNSwieSI6MzI5LjMwMDAwMzA1MTc1Nzh9LHsieCI6NTc3LjMyOTcyNTkyMjEzMTIsInkiOjM2NS44MDAwMDMwNTE3NTc4fV0=" data-look="classic" marker-end="url(#my-svg_flowchart-v2-pointEnd)"/><path d="M738.594,292.8L756.416,298.883C774.238,304.967,809.883,317.133,826.371,328.653C842.859,340.172,840.19,351.044,838.856,356.479L837.522,361.915" id="my-svg-L_HPA_PodN_0" class="edge-thickness-normal edge-pattern-dotted edge-thickness-normal edge-pattern-solid flowchart-link" style=";" data-edge="true" data-et="edge" data-id="L_HPA_PodN_0" data-points="W3sieCI6NzM4LjU5Mzc1LCJ5IjoyOTIuODAwMDAzMDUxNzU3OH0seyJ4Ijo4NDUuNTI3MzQzNzUsInkiOjMyOS4zMDAwMDMwNTE3NTc4fSx7IngiOjgzNi41NjgyOTUzMzgxMTQ4LCJ5IjozNjUuODAwMDAzMDUxNzU3OH1d" data-look="classic" marker-end="url(#my-svg_flowchart-v2-pointEnd)"/></g><g class="edgeLabels"><g class="edgeLabel"><g class="label" data-id="L_Internet_Ingress_0" transform="translate(0, 0)"><text y="-10.1" text-anchor="middle"><tspan class="text-outer-tspan row" x="0" y="-0.1em" dy="1.1em" text-anchor="middle"/></text></g></g><g><rect class="background" style="stroke: none"/></g><g class="edgeLabel"><g class="label" data-id="L_Ingress_SvcAI_0" transform="translate(0, 0)"><text y="-10.1" text-anchor="middle"><tspan class="text-outer-tspan row" x="0" y="-0.1em" dy="1.1em" text-anchor="middle"/></text></g></g><g><rect class="background" style="stroke: none"/></g><g class="edgeLabel"><g class="label" data-id="L_SvcAI_Pod1_0" transform="translate(0, 0)"><text y="-10.1" text-anchor="middle"><tspan class="text-outer-tspan row" x="0" y="-0.1em" dy="1.1em" text-anchor="middle"/></text></g></g><g><rect class="background" style="stroke: none"/></g><g class="edgeLabel"><g class="label" data-id="L_SvcAI_Pod2_0" transform="translate(0, 0)"><text y="-10.1" text-anchor="middle"><tspan class="text-outer-tspan row" x="0" y="-0.1em" dy="1.1em" text-anchor="middle"/></text></g></g><g><rect class="background" style="stroke: none"/></g><g class="edgeLabel"><g class="label" data-id="L_SvcAI_PodN_0" transform="translate(0, 0)"><text y="-10.1" text-anchor="middle"><tspan class="text-outer-tspan row" x="0" y="-0.1em" dy="1.1em" text-anchor="middle"/></text></g></g><g><rect class="background" style="stroke: none"/></g><g class="edgeLabel"><g class="label" data-id="L_Pod1_SvcDB_0" transform="translate(0, 0)"><text y="-10.1" text-anchor="middle"><tspan class="text-outer-tspan row" x="0" y="-0.1em" dy="1.1em" text-anchor="middle"/></text></g></g><g><rect class="background" style="stroke: none"/></g><g class="edgeLabel"><g class="label" data-id="L_Pod2_SvcDB_0" transform="translate(0, 0)"><text y="-10.1" text-anchor="middle"><tspan class="text-outer-tspan row" x="0" y="-0.1em" dy="1.1em" text-anchor="middle"/></text></g></g><g><rect class="background" style="stroke: none"/></g><g class="edgeLabel"><g class="label" data-id="L_PodN_SvcDB_0" transform="translate(0, 0)"><text y="-10.1" text-anchor="middle"><tspan class="text-outer-tspan row" x="0" y="-0.1em" dy="1.1em" text-anchor="middle"/></text></g></g><g><rect class="background" style="stroke: none"/></g><g class="edgeLabel"><g class="label" data-id="L_Pod1_SvcRedis_0" transform="translate(0, 0)"><text y="-10.1" text-anchor="middle"><tspan class="text-outer-tspan row" x="0" y="-0.1em" dy="1.1em" text-anchor="middle"/></text></g></g><g><rect class="background" style="stroke: none"/></g><g class="edgeLabel"><g class="label" data-id="L_Pod2_SvcRedis_0" transform="translate(0, 0)"><text y="-10.1" text-anchor="middle"><tspan class="text-outer-tspan row" x="0" y="-0.1em" dy="1.1em" text-anchor="middle"/></text></g></g><g><rect class="background" style="stroke: none"/></g><g class="edgeLabel"><g class="label" data-id="L_PodN_SvcRedis_0" transform="translate(0, 0)"><text y="-10.1" text-anchor="middle"><tspan class="text-outer-tspan row" x="0" y="-0.1em" dy="1.1em" text-anchor="middle"/></text></g></g><g><rect class="background" style="stroke: none"/></g><g class="edgeLabel"><g class="label" data-id="L_Pod1_S3_0" transform="translate(0, 0)"><text y="-10.1" text-anchor="middle"><tspan class="text-outer-tspan row" x="0" y="-0.1em" dy="1.1em" text-anchor="middle"/></text></g></g><g><rect class="background" style="stroke: none"/></g><g class="edgeLabel"><g class="label" data-id="L_Pod2_S3_0" transform="translate(0, 0)"><text y="-10.1" text-anchor="middle"><tspan class="text-outer-tspan row" x="0" y="-0.1em" dy="1.1em" text-anchor="middle"/></text></g></g><g><rect class="background" style="stroke: none"/></g><g class="edgeLabel"><g class="label" data-id="L_PodN_S3_0" transform="translate(0, 0)"><text y="-10.1" text-anchor="middle"><tspan class="text-outer-tspan row" x="0" y="-0.1em" dy="1.1em" text-anchor="middle"/></text></g></g><g><rect class="background" style="stroke: none"/></g><g class="edgeLabel" transform="translate(356.70703125, 329.3000030517578)"><g class="label" data-id="L_HPA_Pod1_0" transform="translate(0, -10.5)"><g><rect class="background" style="" x="-23.3671875" y="-1" width="46.734375" height="23"/><text y="-10.1" text-anchor="middle" style=""><tspan class="text-outer-tspan row" x="0" y="-0.1em" dy="1.1em" text-anchor="middle"><tspan font-style="normal" class="text-inner-tspan" font-weight="normal">scales</tspan></tspan></text></g></g></g><g class="edgeLabel" transform="translate(640.36328125, 329.3000030517578)"><g class="label" data-id="L_HPA_Pod2_0" transform="translate(0, -10.5)"><g><rect class="background" style="" x="-23.3671875" y="-1" width="46.734375" height="23"/><text y="-10.1" text-anchor="middle" style=""><tspan class="text-outer-tspan row" x="0" y="-0.1em" dy="1.1em" text-anchor="middle"><tspan font-style="normal" class="text-inner-tspan" font-weight="normal">scales</tspan></tspan></text></g></g></g><g class="edgeLabel" transform="translate(845.52734375, 329.3000030517578)"><g class="label" data-id="L_HPA_PodN_0" transform="translate(0, -10.5)"><g><rect class="background" style="" x="-23.3671875" y="-1" width="46.734375" height="23"/><text y="-10.1" text-anchor="middle" style=""><tspan class="text-outer-tspan row" x="0" y="-0.1em" dy="1.1em" text-anchor="middle"><tspan font-style="normal" class="text-inner-tspan" font-weight="normal">scales</tspan></tspan></text></g></g></g></g><g class="nodes"><g class="node default" id="my-svg-flowchart-Internet-0" data-look="classic" transform="translate(403.22265625, 25)"><g class="basic label-container outer-path"><path d="M-23.8984375 -17 C-13.406681254641022 -17, -2.914925009282044 -17, 23.8984375 -17 C23.8984375 -17, 23.8984375 -17, 23.8984375 -17 C24.150541938059913 -16.99191550136294, 24.40264637611983 -16.98383100272588, 24.98763123967212 -16.965071676755716 C25.403312840946818 -16.924971372611015, 25.818994442221513 -16.884871068466314, 26.0723492486366 -16.860430234995185 C26.292030864081703 -16.82491381506639, 26.511712479526807 -16.789397395137602, 27.148134187923326 -16.686505668848113 C27.447687373902845 -16.618134608915508, 27.74724055988236 -16.549763548982906, 28.21056542646162 -16.4440126716635 C28.527264988069163 -16.350017904168304, 28.843964549676706 -16.256023136673107, 29.25527720640155 -16.133947699181366 C29.620874421963205 -15.999404544311064, 29.98647163752486 -15.864861389440762, 30.27797658294936 -15.757584874882369 C30.479829369019875 -15.668230634239107, 30.68168215509039 -15.578876393595843, 31.274461064998487 -15.316470754341125 C31.5036203668968 -15.196918493324313, 31.732779668795114 -15.0773662323075, 32.24063588406694 -14.812417970097622 C32.44231141612638 -14.69016107738621, 32.64398694818582 -14.567904184674797, 33.172530820579325 -14.247497783161291 C33.44873307663641 -14.054831045938828, 33.72493533269349 -13.862164308716366, 34.066316518350675 -13.624031571755262 C34.380669020818814 -13.37334381630833, 34.695021523286954 -13.122656060861397, 34.9183202202324 -12.944581292275288 C35.212784425224385 -12.677156692397496, 35.50724863021637 -12.409732092519704, 35.72504086025927 -12.21193895166137 C35.91306590826019 -12.017787652456887, 36.10109095626111 -11.823636353252406, 36.48316345028036 -11.42911513444239 C36.624650631208006 -11.26291624087611, 36.76613781213565 -11.096717347309832, 37.18957270195651 -10.59932663159847 C37.44762664239551 -10.253557860607806, 37.70568058283452 -9.907789089617141, 37.84136582814825 -9.725983222076888 C38.04921147276243 -9.406676497579173, 38.25705711737661 -9.08736977308146, 38.43586447109088 -8.812673661278927 C38.628353929675676 -8.470889135890337, 38.82084338826048 -8.129104610501747, 38.970625708341004 -7.863150934094199 C39.13654766195245 -7.51861044725895, 39.30246961556389 -7.174069960423699, 39.44345209126881 -6.881316833080699 C39.540068871715604 -6.64267151741875, 39.63668565216239 -6.404026201756801, 39.852400674845924 -5.871205925162238 C39.931855203245696 -5.631901544982058, 40.01130973164547 -5.3925971648018765, 40.195791001623235 -4.836968972727556 C40.28295708570478 -4.504566916104819, 40.37012316978632 -4.172164859482082, 40.472212007091 -3.7828558772573464 C40.516618940093586 -3.5548356616976737, 40.56102587309618 -3.326815446138001, 40.68052781804565 -2.713198215567453 C40.73125643308505 -2.3197570948199573, 40.78198504812445 -1.9263159740724616, 40.819882420136366 -1.632391440430593 C40.8398434665288 -1.321482030601849, 40.85980451292123 -1.0105726207731052, 40.8897031754117 -0.5448768187181379 C40.8897031754117 -0.29225379929435347, 40.8897031754117 -0.039630779870569066, 40.8897031754117 0.5448768187181336 C40.86199057986364 0.976522863583614, 40.83427798431558 1.4081689084490943, 40.819882420136366 1.6323914404305815 C40.788671228199576 1.8744592817453956, 40.75746003626278 2.1165271230602096, 40.680527818045654 2.7131982155674415 C40.6034027278938 3.1092192531036247, 40.52627763774195 3.5052402906398075, 40.472212007091 3.782855877257343 C40.3740492775076 4.157192909154984, 40.275886547924195 4.531529941052627, 40.195791001623235 4.836968972727545 C40.119324502491416 5.067273884830458, 40.042858003359605 5.29757879693337, 39.852400674845924 5.871205925162227 C39.70984588004582 6.223319024427949, 39.567291085245714 6.57543212369367, 39.44345209126881 6.881316833080694 C39.32020815831167 7.137235496863914, 39.19696422535454 7.393154160647135, 38.970625708341004 7.863150934094196 C38.79732008892626 8.170872610461997, 38.62401446951152 8.478594286829797, 38.43586447109089 8.812673661278923 C38.30603232597129 9.012130700995128, 38.17620018085169 9.211587740711332, 37.841365828148255 9.725983222076879 C37.61760158600071 10.025806921212762, 37.393837343853164 10.325630620348646, 37.18957270195651 10.599326631598467 C37.03451205069026 10.78146969577681, 36.87945139942401 10.963612759955152, 36.48316345028037 11.42911513444238 C36.32622273143181 11.591169311726162, 36.16928201258326 11.753223489009942, 35.72504086025927 12.211938951661365 C35.429320338325326 12.480504505345525, 35.13359981639138 12.749070059029684, 34.91832022023242 12.944581292275275 C34.63941679229373 13.166999354124458, 34.36051336435504 13.389417415973641, 34.066316518350675 13.62403157175526 C33.76706374276637 13.832777353559008, 33.46781096718206 14.041523135362757, 33.17253082057934 14.247497783161286 C32.88957960976854 14.419024469960675, 32.606628398957746 14.590551156760064, 32.24063588406695 14.81241797009762 C31.96063270871782 14.958495447326664, 31.680629533368695 15.10457292455571, 31.27446106499849 15.316470754341124 C31.02174857811924 15.428339075832994, 30.769036091239986 15.540207397324865, 30.277976582949368 15.757584874882367 C30.03737058052816 15.846130107910875, 29.79676457810696 15.934675340939384, 29.255277206401562 16.133947699181363 C28.891521463314486 16.241908494336748, 28.527765720227407 16.349869289492137, 28.210565426461642 16.444012671663497 C27.81984344066598 16.533192415222118, 27.42912145487032 16.62237215878074, 27.148134187923333 16.68650566884811 C26.886408943974224 16.72881937658022, 26.624683700025116 16.771133084312332, 26.072349248636613 16.86043023499518 C25.662323336652143 16.899984941596017, 25.252297424667674 16.939539648196853, 24.98763123967212 16.965071676755716 C24.682914223914086 16.974843358355386, 24.378197208156053 16.984615039955056, 23.898437500000004 17 C23.898437500000004 17, 23.8984375 17, 23.8984375 17 C8.363194460637576 17, -7.172048578724848 17, -23.898437499999996 17 C-24.179845290661394 16.990975799880523, -24.46125308132279 16.98195159976105, -24.987631239672112 16.965071676755716 C-25.249521394751532 16.939807448464197, -25.51141154983095 16.91454322017268, -26.072349248636606 16.86043023499518 C-26.392399012550403 16.808687071188587, -26.712448776464203 16.75694390738199, -27.14813418792333 16.68650566884811 C-27.479574343496708 16.61085661618763, -27.811014499070083 16.535207563527152, -28.21056542646162 16.4440126716635 C-28.470481840526332 16.36687084429819, -28.730398254591048 16.289729016932885, -29.255277206401544 16.13394769918137 C-29.50536393962518 16.041913469578652, -29.755450672848816 15.949879239975933, -30.27797658294936 15.757584874882369 C-30.605257630622255 15.612707263524916, -30.93253867829515 15.467829652167465, -31.274461064998484 15.316470754341127 C-31.53113255467137 15.182565402584718, -31.787804044344256 15.048660050828309, -32.24063588406693 14.812417970097624 C-32.44317786998075 14.689635827967841, -32.64571985589457 14.56685368583806, -33.17253082057932 14.247497783161299 C-33.49553608799869 14.02218329128221, -33.818541355418056 13.796868799403123, -34.06631651835067 13.624031571755264 C-34.27077150007689 13.460984164604167, -34.475226481803105 13.29793675745307, -34.9183202202324 12.94458129227529 C-35.21326400964386 12.676721146516838, -35.50820779905531 12.408861000758389, -35.72504086025926 12.211938951661377 C-35.96152836408235 11.967746187978888, -36.19801586790544 11.723553424296398, -36.483163450280365 11.429115134442386 C-36.65016057813332 11.232950805660547, -36.81715770598626 11.036786476878707, -37.18957270195651 10.599326631598473 C-37.32469652913688 10.418273013210671, -37.45982035631725 10.23721939482287, -37.84136582814825 9.72598322207689 C-37.98462268067519 9.505902226744325, -38.12787953320212 9.285821231411763, -38.43586447109088 8.812673661278936 C-38.64839437628933 8.435305293612535, -38.860924281487776 8.057936925946134, -38.970625708341004 7.863150934094201 C-39.11720302503106 7.558779999735146, -39.26378034172111 7.25440906537609, -39.44345209126881 6.881316833080701 C-39.56205003825473 6.588377611090154, -39.680647985240654 6.295438389099607, -39.852400674845924 5.87120592516224 C-39.942880024861154 5.598696538843085, -40.033359374876376 5.3261871525239295, -40.195791001623235 4.8369689727275516 C-40.305611818480436 4.418174601407928, -40.41543263533764 3.9993802300883057, -40.472212007091 3.782855877257349 C-40.555171531731986 3.356876251727632, -40.63813105637297 2.9308966261979146, -40.68052781804565 2.713198215567455 C-40.727264169394694 2.3507203036407107, -40.77400052074374 1.988242391713966, -40.819882420136366 1.6323914404306026 C-40.84171021794283 1.292405870513667, -40.8635380157493 0.9524203005967314, -40.8897031754117 0.54487681871814 C-40.8897031754117 0.1357768012970425, -40.8897031754117 -0.27332321612405497, -40.8897031754117 -0.5448768187181317 C-40.8736636586308 -0.7947052394455301, -40.8576241418499 -1.0445336601729283, -40.819882420136366 -1.6323914404305793 C-40.77546974721697 -1.9768473613192004, -40.73105707429757 -2.3213032822078215, -40.680527818045654 -2.713198215567447 C-40.63796959719447 -2.9317256849551305, -40.59541137634328 -3.150253154342814, -40.472212007091 -3.782855877257341 C-40.376750551317016 -4.146891781380196, -40.28128909554303 -4.510927685503051, -40.195791001623235 -4.836968972727544 C-40.10232075498418 -5.118486463143012, -40.00885050834513 -5.400003953558479, -39.85240067484593 -5.871205925162218 C-39.75280397574841 -6.117211697504292, -39.653207276650875 -6.363217469846367, -39.44345209126881 -6.881316833080692 C-39.28431804197893 -7.211762091354335, -39.125183992689045 -7.542207349627978, -38.970625708341004 -7.863150934094194 C-38.7713987315369 -8.216898605328868, -38.57217175473279 -8.570646276563544, -38.43586447109088 -8.812673661278929 C-38.307111205295065 -9.010473252634135, -38.17835793949925 -9.208272843989342, -37.84136582814825 -9.725983222076884 C-37.58513374288931 -10.069310873100681, -37.32890165763037 -10.412638524124477, -37.18957270195651 -10.599326631598467 C-36.90826571976017 -10.929765819707024, -36.62695873756384 -11.260205007815578, -36.48316345028037 -11.42911513444238 C-36.323616993689264 -11.593859949880393, -36.164070537098155 -11.758604765318406, -35.72504086025928 -12.21193895166136 C-35.56062311925064 -12.361258793790363, -35.39620537824201 -12.510578635919364, -34.91832022023242 -12.944581292275274 C-34.66035088310038 -13.150304973785707, -34.402381545968346 -13.356028655296138, -34.066316518350675 -13.624031571755259 C-33.752939576963854 -13.842629760197555, -33.43956263557704 -14.06122794863985, -33.17253082057934 -14.247497783161284 C-32.98117007996636 -14.363501788681408, -32.78980933935338 -14.47950579420153, -32.24063588406695 -14.812417970097618 C-31.929273652539116 -14.974855446848661, -31.617911421011282 -15.137292923599702, -31.27446106499849 -15.316470754341124 C-30.98244594882333 -15.445737183951218, -30.690430832648172 -15.575003613561313, -30.277976582949368 -15.757584874882365 C-29.88907354985371 -15.900704786041798, -29.50017051675805 -16.04382469720123, -29.255277206401566 -16.133947699181363 C-29.01361450358321 -16.20567192086444, -28.77195180076485 -16.277396142547513, -28.210565426461642 -16.444012671663494 C-27.825879047123312 -16.531814827434243, -27.441192667784982 -16.619616983204992, -27.148134187923336 -16.68650566884811 C-26.861003618542895 -16.732926712574717, -26.57387304916245 -16.779347756301327, -26.072349248636613 -16.86043023499518 C-25.680818005005776 -16.898200783183036, -25.28928676137494 -16.93597133137089, -24.98763123967212 -16.965071676755716 C-24.57670007735807 -16.978249439302143, -24.16576891504402 -16.99142720184857, -23.898437500000004 -17 C-23.898437500000004 -17, -23.8984375 -17, -23.8984375 -17" stroke="none" stroke-width="0" fill="#ECECFF" style=""/><path d="M-23.8984375 -17 C-7.719530051923165 -17, 8.45937739615367 -17, 23.8984375 -17 M-23.8984375 -17 C-5.861955682658909 -17, 12.174526134682182 -17, 23.8984375 -17 M23.8984375 -17 C23.8984375 -17, 23.8984375 -17, 23.8984375 -17 M23.8984375 -17 C23.8984375 -17, 23.8984375 -17, 23.8984375 -17 M23.8984375 -17 C24.125178437374636 -16.992728859462858, 24.351919374749272 -16.985457718925712, 24.98763123967212 -16.965071676755716 M23.8984375 -17 C24.184810004471576 -16.99081659117186, 24.47118250894315 -16.981633182343725, 24.98763123967212 -16.965071676755716 M24.98763123967212 -16.965071676755716 C25.217831452367356 -16.942864539093268, 25.448031665062597 -16.92065740143082, 26.0723492486366 -16.860430234995185 M24.98763123967212 -16.965071676755716 C25.291536386297217 -16.935754312760206, 25.59544153292231 -16.906436948764696, 26.0723492486366 -16.860430234995185 M26.0723492486366 -16.860430234995185 C26.29397936780376 -16.824598796095483, 26.515609486970924 -16.78876735719578, 27.148134187923326 -16.686505668848113 M26.0723492486366 -16.860430234995185 C26.328401706251956 -16.8190336593644, 26.584454163867314 -16.777637083733616, 27.148134187923326 -16.686505668848113 M27.148134187923326 -16.686505668848113 C27.46824105453374 -16.613443365436808, 27.78834792114415 -16.540381062025503, 28.21056542646162 -16.4440126716635 M27.148134187923326 -16.686505668848113 C27.469464134907014 -16.613164205322953, 27.790794081890702 -16.539822741797792, 28.21056542646162 -16.4440126716635 M28.21056542646162 -16.4440126716635 C28.4908768781383 -16.360817704190698, 28.771188329814983 -16.277622736717895, 29.25527720640155 -16.133947699181366 M28.21056542646162 -16.4440126716635 C28.59283494828536 -16.33055708415988, 28.975104470109102 -16.217101496656262, 29.25527720640155 -16.133947699181366 M29.25527720640155 -16.133947699181366 C29.636927399610897 -15.993496900144615, 30.01857759282024 -15.853046101107864, 30.27797658294936 -15.757584874882369 M29.25527720640155 -16.133947699181366 C29.63021714901653 -15.995966334392218, 30.00515709163151 -15.85798496960307, 30.27797658294936 -15.757584874882369 M30.27797658294936 -15.757584874882369 C30.60272663929687 -15.613827658305475, 30.92747669564438 -15.470070441728579, 31.274461064998487 -15.316470754341125 M30.27797658294936 -15.757584874882369 C30.49794775125159 -15.66021016388784, 30.717918919553817 -15.562835452893308, 31.274461064998487 -15.316470754341125 M31.274461064998487 -15.316470754341125 C31.48365071599237 -15.207336647409983, 31.69284036698625 -15.098202540478843, 32.24063588406694 -14.812417970097622 M31.274461064998487 -15.316470754341125 C31.6353892485528 -15.128174752166375, 31.996317432107116 -14.939878749991625, 32.24063588406694 -14.812417970097622 M32.24063588406694 -14.812417970097622 C32.46369400117896 -14.67719882866932, 32.686752118290975 -14.541979687241017, 33.172530820579325 -14.247497783161291 M32.24063588406694 -14.812417970097622 C32.58015597574535 -14.60659889528064, 32.919676067423765 -14.40077982046366, 33.172530820579325 -14.247497783161291 M33.172530820579325 -14.247497783161291 C33.44210622338778 -14.059453651893216, 33.71168162619624 -13.871409520625141, 34.066316518350675 -13.624031571755262 M33.172530820579325 -14.247497783161291 C33.50621283018457 -14.014735658122058, 33.839894839789814 -13.781973533082827, 34.066316518350675 -13.624031571755262 M34.066316518350675 -13.624031571755262 C34.40465981003986 -13.354211800326262, 34.743003101729045 -13.08439202889726, 34.9183202202324 -12.944581292275288 M34.066316518350675 -13.624031571755262 C34.283915248466144 -13.45050237503357, 34.50151397858161 -13.276973178311879, 34.9183202202324 -12.944581292275288 M34.9183202202324 -12.944581292275288 C35.23105242014232 -12.66056618275769, 35.54378462005223 -12.37655107324009, 35.72504086025927 -12.21193895166137 M34.9183202202324 -12.944581292275288 C35.23094029326407 -12.660668013421798, 35.543560366295736 -12.37675473456831, 35.72504086025927 -12.21193895166137 M35.72504086025927 -12.21193895166137 C35.932250219059085 -11.997978276495814, 36.13945957785891 -11.78401760133026, 36.48316345028036 -11.42911513444239 M35.72504086025927 -12.21193895166137 C35.98284609828506 -11.945733877196062, 36.24065133631085 -11.679528802730756, 36.48316345028036 -11.42911513444239 M36.48316345028036 -11.42911513444239 C36.64406253503756 -11.240113914069294, 36.80496161979477 -11.051112693696199, 37.18957270195651 -10.59932663159847 M36.48316345028036 -11.42911513444239 C36.704915732063185 -11.168632286197997, 36.926668013846005 -10.908149437953607, 37.18957270195651 -10.59932663159847 M37.18957270195651 -10.59932663159847 C37.399035151493315 -10.318666031640866, 37.60849760103012 -10.03800543168326, 37.84136582814825 -9.725983222076888 M37.18957270195651 -10.59932663159847 C37.40375259884889 -10.312345081952689, 37.61793249574127 -10.025363532306907, 37.84136582814825 -9.725983222076888 M37.84136582814825 -9.725983222076888 C38.074386481364535 -9.368000923929978, 38.30740713458083 -9.010018625783069, 38.43586447109088 -8.812673661278927 M37.84136582814825 -9.725983222076888 C38.0234340282055 -9.446277574631685, 38.20550222826275 -9.166571927186482, 38.43586447109088 -8.812673661278927 M38.43586447109088 -8.812673661278927 C38.60849860169716 -8.506144281286181, 38.781132732303426 -8.199614901293435, 38.970625708341004 -7.863150934094199 M38.43586447109088 -8.812673661278927 C38.55197865092347 -8.606501177150475, 38.668092830756066 -8.400328693022026, 38.970625708341004 -7.863150934094199 M38.970625708341004 -7.863150934094199 C39.11630897959575 -7.560636504211067, 39.2619922508505 -7.258122074327935, 39.44345209126881 -6.881316833080699 M38.970625708341004 -7.863150934094199 C39.073469381078766 -7.649593847152157, 39.17631305381652 -7.436036760210114, 39.44345209126881 -6.881316833080699 M39.44345209126881 -6.881316833080699 C39.596920547280064 -6.502246779622164, 39.75038900329131 -6.123176726163629, 39.852400674845924 -5.871205925162238 M39.44345209126881 -6.881316833080699 C39.54691196068314 -6.6257689553668015, 39.65037183009747 -6.370221077652905, 39.852400674845924 -5.871205925162238 M39.852400674845924 -5.871205925162238 C39.92377601421675 -5.656234775093287, 39.99515135358757 -5.441263625024336, 40.195791001623235 -4.836968972727556 M39.852400674845924 -5.871205925162238 C39.96671434631391 -5.526911360110804, 40.08102801778188 -5.18261679505937, 40.195791001623235 -4.836968972727556 M40.195791001623235 -4.836968972727556 C40.253618127039815 -4.616449081079432, 40.3114452524564 -4.395929189431309, 40.472212007091 -3.7828558772573464 M40.195791001623235 -4.836968972727556 C40.30249262408552 -4.430069441503171, 40.4091942465478 -4.023169910278787, 40.472212007091 -3.7828558772573464 M40.472212007091 -3.7828558772573464 C40.53970495963561 -3.4362938305813566, 40.60719791218021 -3.089731783905367, 40.68052781804565 -2.713198215567453 M40.472212007091 -3.7828558772573464 C40.52285766039265 -3.5228011515159916, 40.573503313694296 -3.262746425774637, 40.68052781804565 -2.713198215567453 M40.68052781804565 -2.713198215567453 C40.72041054808701 -2.403875637102486, 40.76029327812837 -2.094553058637519, 40.819882420136366 -1.632391440430593 M40.68052781804565 -2.713198215567453 C40.72011692134506 -2.4061529481299093, 40.75970602464447 -2.0991076806923656, 40.819882420136366 -1.632391440430593 M40.819882420136366 -1.632391440430593 C40.84144799540144 -1.2964901982580594, 40.86301357066651 -0.9605889560855259, 40.8897031754117 -0.5448768187181379 M40.819882420136366 -1.632391440430593 C40.84132907152319 -1.298342533655422, 40.862775722910015 -0.9642936268802507, 40.8897031754117 -0.5448768187181379 M40.8897031754117 -0.5448768187181379 C40.8897031754117 -0.16287668332733074, 40.8897031754117 0.2191234520634764, 40.8897031754117 0.5448768187181336 M40.8897031754117 -0.5448768187181379 C40.8897031754117 -0.277631530552778, 40.8897031754117 -0.010386242387418143, 40.8897031754117 0.5448768187181336 M40.8897031754117 0.5448768187181336 C40.87004613178234 0.8510511401253458, 40.85038908815299 1.157225461532558, 40.819882420136366 1.6323914404305815 M40.8897031754117 0.5448768187181336 C40.875492963870464 0.7662123337490981, 40.86128275232923 0.9875478487800626, 40.819882420136366 1.6323914404305815 M40.819882420136366 1.6323914404305815 C40.76590900324812 2.050998603559139, 40.71193558635988 2.469605766687697, 40.680527818045654 2.7131982155674415 M40.819882420136366 1.6323914404305815 C40.784574888133704 1.9062296863824093, 40.74926735613105 2.1800679323342367, 40.680527818045654 2.7131982155674415 M40.680527818045654 2.7131982155674415 C40.61939887171922 3.027082435346283, 40.55826992539279 3.3409666551251247, 40.472212007091 3.782855877257343 M40.680527818045654 2.7131982155674415 C40.60678543679182 3.0918497578480837, 40.53304305553799 3.470501300128726, 40.472212007091 3.782855877257343 M40.472212007091 3.782855877257343 C40.39761206313229 4.067337795392138, 40.32301211917358 4.351819713526934, 40.195791001623235 4.836968972727545 M40.472212007091 3.782855877257343 C40.399257997102275 4.0610611358123, 40.32630398711355 4.3392663943672565, 40.195791001623235 4.836968972727545 M40.195791001623235 4.836968972727545 C40.093484260296236 5.145100577238873, 39.99117751896923 5.4532321817502005, 39.852400674845924 5.871205925162227 M40.195791001623235 4.836968972727545 C40.111850253962544 5.089785130539645, 40.02790950630185 5.342601288351745, 39.852400674845924 5.871205925162227 M39.852400674845924 5.871205925162227 C39.702112762208436 6.242419974995953, 39.55182484957094 6.613634024829681, 39.44345209126881 6.881316833080694 M39.852400674845924 5.871205925162227 C39.6948637288292 6.260325227593192, 39.53732678281247 6.649444530024159, 39.44345209126881 6.881316833080694 M39.44345209126881 6.881316833080694 C39.278824309557805 7.223169944273835, 39.1141965278468 7.565023055466975, 38.970625708341004 7.863150934094196 M39.44345209126881 6.881316833080694 C39.266150847828634 7.249486658723103, 39.08884960438846 7.617656484365512, 38.970625708341004 7.863150934094196 M38.970625708341004 7.863150934094196 C38.84232628894606 8.090959544954902, 38.71402686955112 8.318768155815608, 38.43586447109089 8.812673661278923 M38.970625708341004 7.863150934094196 C38.838842326903986 8.097145672350024, 38.70705894546696 8.331140410605853, 38.43586447109089 8.812673661278923 M38.43586447109089 8.812673661278923 C38.24732507987328 9.102320796104573, 38.05878568865567 9.391967930930223, 37.841365828148255 9.725983222076879 M38.43586447109089 8.812673661278923 C38.22617339793816 9.134815459578787, 38.016482324785436 9.456957257878651, 37.841365828148255 9.725983222076879 M37.841365828148255 9.725983222076879 C37.59131130581102 10.061033501573153, 37.34125678347378 10.396083781069425, 37.18957270195651 10.599326631598467 M37.841365828148255 9.725983222076879 C37.68502687017653 9.935463182986922, 37.528687912204795 10.144943143896963, 37.18957270195651 10.599326631598467 M37.18957270195651 10.599326631598467 C36.9405519354718 10.891840593594422, 36.691531168987105 11.184354555590378, 36.48316345028037 11.42911513444238 M37.18957270195651 10.599326631598467 C37.01255020358129 10.807267331055508, 36.835527705206076 11.015208030512548, 36.48316345028037 11.42911513444238 M36.48316345028037 11.42911513444238 C36.23576161476236 11.684577841683177, 35.98835977924434 11.940040548923974, 35.72504086025927 12.211938951661365 M36.48316345028037 11.42911513444238 C36.256224054623615 11.663448692528874, 36.02928465896686 11.897782250615368, 35.72504086025927 12.211938951661365 M35.72504086025927 12.211938951661365 C35.45388680369022 12.458193891494188, 35.18273274712116 12.70444883132701, 34.91832022023242 12.944581292275275 M35.72504086025927 12.211938951661365 C35.45906532714127 12.453490893512166, 35.19308979402326 12.695042835362969, 34.91832022023242 12.944581292275275 M34.91832022023242 12.944581292275275 C34.70801533601391 13.112293840991532, 34.4977104517954 13.280006389707788, 34.066316518350675 13.62403157175526 M34.91832022023242 12.944581292275275 C34.59832658593707 13.19976770023758, 34.27833295164173 13.454954108199882, 34.066316518350675 13.62403157175526 M34.066316518350675 13.62403157175526 C33.8800663788747 13.753951606415107, 33.693816239398735 13.883871641074954, 33.17253082057934 14.247497783161286 M34.066316518350675 13.62403157175526 C33.852619599253714 13.773097291726769, 33.63892268015675 13.922163011698277, 33.17253082057934 14.247497783161286 M33.17253082057934 14.247497783161286 C32.9082935290312 14.407679982128457, 32.644056237483056 14.567862181095627, 32.24063588406695 14.81241797009762 M33.17253082057934 14.247497783161286 C32.93959215115852 14.388706573463752, 32.70665348173771 14.529915363766218, 32.24063588406695 14.81241797009762 M32.24063588406695 14.81241797009762 C31.969436939574607 14.95390228572806, 31.698237995082266 15.095386601358497, 31.27446106499849 15.316470754341124 M32.24063588406695 14.81241797009762 C31.985860090970462 14.94533433816437, 31.73108429787398 15.078250706231122, 31.27446106499849 15.316470754341124 M31.27446106499849 15.316470754341124 C31.065670376828226 15.408896198438393, 30.856879688657962 15.501321642535661, 30.277976582949368 15.757584874882367 M31.27446106499849 15.316470754341124 C30.910926620830857 15.477396668908002, 30.54739217666322 15.638322583474878, 30.277976582949368 15.757584874882367 M30.277976582949368 15.757584874882367 C29.91004431842844 15.892987349354637, 29.54211205390751 16.02838982382691, 29.255277206401562 16.133947699181363 M30.277976582949368 15.757584874882367 C29.874541818470085 15.906052597520825, 29.471107053990806 16.05452032015928, 29.255277206401562 16.133947699181363 M29.255277206401562 16.133947699181363 C29.01517735302176 16.20520807535464, 28.775077499641956 16.27646845152792, 28.210565426461642 16.444012671663497 M29.255277206401562 16.133947699181363 C28.93337991185288 16.229485126530033, 28.611482617304205 16.325022553878703, 28.210565426461642 16.444012671663497 M28.210565426461642 16.444012671663497 C27.8485813225093 16.526633181223584, 27.48659721855696 16.60925369078367, 27.148134187923333 16.68650566884811 M28.210565426461642 16.444012671663497 C27.930029248991563 16.5080432235014, 27.649493071521484 16.5720737753393, 27.148134187923333 16.68650566884811 M27.148134187923333 16.68650566884811 C26.874289512999386 16.73077875219264, 26.600444838075436 16.775051835537173, 26.072349248636613 16.86043023499518 M27.148134187923333 16.68650566884811 C26.899390373046174 16.726720639800355, 26.65064655816901 16.766935610752597, 26.072349248636613 16.86043023499518 M26.072349248636613 16.86043023499518 C25.745936120633818 16.89191891688439, 25.419522992631027 16.923407598773597, 24.98763123967212 16.965071676755716 M26.072349248636613 16.86043023499518 C25.73663133344207 16.892816538514133, 25.40091341824753 16.925202842033087, 24.98763123967212 16.965071676755716 M24.98763123967212 16.965071676755716 C24.632161703746863 16.97647089289336, 24.27669216782161 16.987870109031007, 23.898437500000004 17 M24.98763123967212 16.965071676755716 C24.600884048080086 16.977473906432333, 24.214136856488054 16.989876136108947, 23.898437500000004 17 M23.898437500000004 17 C23.898437500000004 17, 23.898437500000004 17, 23.8984375 17 M23.898437500000004 17 C23.898437500000004 17, 23.8984375 17, 23.8984375 17 M23.8984375 17 C11.352615376223147 17, -1.193206747553706 17, -23.898437499999996 17 M23.8984375 17 C12.633313076008223 17, 1.3681886520164461 17, -23.898437499999996 17 M-23.898437499999996 17 C-24.162237597619676 16.99154044432508, -24.426037695239355 16.983080888650154, -24.987631239672112 16.965071676755716 M-23.898437499999996 17 C-24.207328318620807 16.990094472666335, -24.516219137241617 16.98018894533267, -24.987631239672112 16.965071676755716 M-24.987631239672112 16.965071676755716 C-25.319146606883468 16.933090787986398, -25.65066197409482 16.90110989921708, -26.072349248636606 16.86043023499518 M-24.987631239672112 16.965071676755716 C-25.330047415264254 16.932039200112044, -25.672463590856392 16.89900672346837, -26.072349248636606 16.86043023499518 M-26.072349248636606 16.86043023499518 C-26.493185105263258 16.792392757326596, -26.91402096188991 16.72435527965801, -27.14813418792333 16.68650566884811 M-26.072349248636606 16.86043023499518 C-26.30900780333147 16.822169115186618, -26.54566635802633 16.783907995378055, -27.14813418792333 16.68650566884811 M-27.14813418792333 16.68650566884811 C-27.49628947557083 16.607041496368144, -27.844444763218327 16.527577323888174, -28.21056542646162 16.4440126716635 M-27.14813418792333 16.68650566884811 C-27.477610298164095 16.611304896718206, -27.807086408404864 16.536104124588302, -28.21056542646162 16.4440126716635 M-28.21056542646162 16.4440126716635 C-28.56279056970509 16.339474098016346, -28.91501571294856 16.234935524369188, -29.255277206401544 16.13394769918137 M-28.21056542646162 16.4440126716635 C-28.54303804462612 16.345336543776664, -28.87551066279062 16.246660415889824, -29.255277206401544 16.13394769918137 M-29.255277206401544 16.13394769918137 C-29.60426272783377 16.005517801307516, -29.953248249265997 15.877087903433658, -30.27797658294936 15.757584874882369 M-29.255277206401544 16.13394769918137 C-29.59182550905997 16.01009481278466, -29.928373811718394 15.886241926387955, -30.27797658294936 15.757584874882369 M-30.27797658294936 15.757584874882369 C-30.567200410051164 15.6295540661444, -30.856424237152964 15.501523257406435, -31.274461064998484 15.316470754341127 M-30.27797658294936 15.757584874882369 C-30.489137997827168 15.66410998039678, -30.700299412704975 15.570635085911192, -31.274461064998484 15.316470754341127 M-31.274461064998484 15.316470754341127 C-31.568050526472312 15.163305320343255, -31.86163998794614 15.010139886345383, -32.24063588406693 14.812417970097624 M-31.274461064998484 15.316470754341127 C-31.642044229047393 15.124702853105065, -32.0096273930963 14.932934951869003, -32.24063588406693 14.812417970097624 M-32.24063588406693 14.812417970097624 C-32.512126278082974 14.647838897790452, -32.783616672099015 14.48325982548328, -33.17253082057932 14.247497783161299 M-32.24063588406693 14.812417970097624 C-32.46492395115354 14.676453225766743, -32.689212018240134 14.54048848143586, -33.17253082057932 14.247497783161299 M-33.17253082057932 14.247497783161299 C-33.35291654688358 14.121668509263683, -33.533302273187836 13.99583923536607, -34.06631651835067 13.624031571755264 M-33.17253082057932 14.247497783161299 C-33.42660481815129 14.070266761141177, -33.68067881572326 13.893035739121055, -34.06631651835067 13.624031571755264 M-34.06631651835067 13.624031571755264 C-34.31738528098763 13.423810914772657, -34.56845404362459 13.22359025779005, -34.9183202202324 12.94458129227529 M-34.06631651835067 13.624031571755264 C-34.283735388688726 13.45064580841979, -34.50115425902679 13.277260045084313, -34.9183202202324 12.94458129227529 M-34.9183202202324 12.94458129227529 C-35.126041023271796 12.75593475494619, -35.33376182631119 12.56728821761709, -35.72504086025926 12.211938951661377 M-34.9183202202324 12.94458129227529 C-35.16913517973249 12.716797782257482, -35.41995013923258 12.489014272239674, -35.72504086025926 12.211938951661377 M-35.72504086025926 12.211938951661377 C-35.924075943665144 12.006418886960551, -36.12311102707103 11.800898822259725, -36.483163450280365 11.429115134442386 M-35.72504086025926 12.211938951661377 C-35.90483162729523 12.026290223600247, -36.0846223943312 11.840641495539117, -36.483163450280365 11.429115134442386 M-36.483163450280365 11.429115134442386 C-36.66667286220284 11.2135545372169, -36.850182274125316 10.997993939991416, -37.18957270195651 10.599326631598473 M-36.483163450280365 11.429115134442386 C-36.6422597402963 11.242231579354305, -36.80135603031225 11.055348024266225, -37.18957270195651 10.599326631598473 M-37.18957270195651 10.599326631598473 C-37.416393745712845 10.29540709678716, -37.643214789469184 9.991487561975848, -37.84136582814825 9.72598322207689 M-37.18957270195651 10.599326631598473 C-37.411128046182036 10.302462654443346, -37.63268339040757 10.00559867728822, -37.84136582814825 9.72598322207689 M-37.84136582814825 9.72598322207689 C-38.05329506416597 9.400403004585504, -38.265224300183704 9.074822787094117, -38.43586447109088 8.812673661278936 M-37.84136582814825 9.72598322207689 C-38.02887631371854 9.437916762625372, -38.216386799288834 9.149850303173855, -38.43586447109088 8.812673661278936 M-38.43586447109088 8.812673661278936 C-38.644592379743706 8.442056123473181, -38.85332028839654 8.071438585667428, -38.970625708341004 7.863150934094201 M-38.43586447109088 8.812673661278936 C-38.61487527033237 8.494821860416648, -38.79388606957386 8.17697005955436, -38.970625708341004 7.863150934094201 M-38.970625708341004 7.863150934094201 C-39.094035750550596 7.606887340894091, -39.21744579276018 7.35062374769398, -39.44345209126881 6.881316833080701 M-38.970625708341004 7.863150934094201 C-39.071160836513876 7.654387589336084, -39.171695964686755 7.445624244577966, -39.44345209126881 6.881316833080701 M-39.44345209126881 6.881316833080701 C-39.55729707597274 6.600117519818954, -39.671142060676665 6.318918206557207, -39.852400674845924 5.87120592516224 M-39.44345209126881 6.881316833080701 C-39.5617485229899 6.58912235962368, -39.680044954711 6.296927886166658, -39.852400674845924 5.87120592516224 M-39.852400674845924 5.87120592516224 C-39.9416532376905 5.602391426339094, -40.03090580053507 5.333576927515947, -40.195791001623235 4.8369689727275516 M-39.852400674845924 5.87120592516224 C-39.9739063411559 5.5052502175354805, -40.095412007465875 5.13929450990872, -40.195791001623235 4.8369689727275516 M-40.195791001623235 4.8369689727275516 C-40.26815717803246 4.561005378379933, -40.34052335444168 4.285041784032314, -40.472212007091 3.782855877257349 M-40.195791001623235 4.8369689727275516 C-40.30525267564542 4.419544168691325, -40.41471434966761 4.002119364655098, -40.472212007091 3.782855877257349 M-40.472212007091 3.782855877257349 C-40.552711833287624 3.3695062833819596, -40.63321165948425 2.95615668950657, -40.68052781804565 2.713198215567455 M-40.472212007091 3.782855877257349 C-40.547646090499356 3.395517801954602, -40.62308017390772 3.008179726651855, -40.68052781804565 2.713198215567455 M-40.68052781804565 2.713198215567455 C-40.71684585031851 2.431522729065791, -40.75316388259137 2.149847242564127, -40.819882420136366 1.6323914404306026 M-40.68052781804565 2.713198215567455 C-40.718074405376406 2.4219942986424, -40.755620992707165 2.130790381717345, -40.819882420136366 1.6323914404306026 M-40.819882420136366 1.6323914404306026 C-40.8464532576405 1.218529198709811, -40.87302409514463 0.8046669569890197, -40.8897031754117 0.54487681871814 M-40.819882420136366 1.6323914404306026 C-40.83716928635786 1.363134545323507, -40.85445615257937 1.0938776502164114, -40.8897031754117 0.54487681871814 M-40.8897031754117 0.54487681871814 C-40.8897031754117 0.1726019353466876, -40.8897031754117 -0.19967294802476476, -40.8897031754117 -0.5448768187181317 M-40.8897031754117 0.54487681871814 C-40.8897031754117 0.30201854109417653, -40.8897031754117 0.05916026347021308, -40.8897031754117 -0.5448768187181317 M-40.8897031754117 -0.5448768187181317 C-40.86314741162083 -0.9585042751876076, -40.836591647829955 -1.3721317316570838, -40.819882420136366 -1.6323914404305793 M-40.8897031754117 -0.5448768187181317 C-40.86929728854978 -0.8627149779278156, -40.84889140168787 -1.1805531371374998, -40.819882420136366 -1.6323914404305793 M-40.819882420136366 -1.6323914404305793 C-40.77797345174818 -1.9574291233875134, -40.73606448335999 -2.2824668063444475, -40.680527818045654 -2.713198215567447 M-40.819882420136366 -1.6323914404305793 C-40.782721239641255 -1.920606218045599, -40.745560059146136 -2.2088209956606186, -40.680527818045654 -2.713198215567447 M-40.680527818045654 -2.713198215567447 C-40.633897028828045 -2.952637462779065, -40.58726623961044 -3.192076709990683, -40.472212007091 -3.782855877257341 M-40.680527818045654 -2.713198215567447 C-40.62164031617029 -3.015573091819505, -40.56275281429493 -3.3179479680715636, -40.472212007091 -3.782855877257341 M-40.472212007091 -3.782855877257341 C-40.36922042231662 -4.175607426837251, -40.26622883754224 -4.56835897641716, -40.195791001623235 -4.836968972727544 M-40.472212007091 -3.782855877257341 C-40.36275960290989 -4.200245331371964, -40.25330719872878 -4.6176347854865885, -40.195791001623235 -4.836968972727544 M-40.195791001623235 -4.836968972727544 C-40.08926199543135 -5.157817366285357, -39.982732989239466 -5.478665759843172, -39.85240067484593 -5.871205925162218 M-40.195791001623235 -4.836968972727544 C-40.09600672101008 -5.137503327468311, -39.99622244039692 -5.438037682209078, -39.85240067484593 -5.871205925162218 M-39.85240067484593 -5.871205925162218 C-39.737505506790384 -6.154999211606383, -39.62261033873483 -6.438792498050549, -39.44345209126881 -6.881316833080692 M-39.85240067484593 -5.871205925162218 C-39.70269918927376 -6.240971488806813, -39.552997703701585 -6.610737052451407, -39.44345209126881 -6.881316833080692 M-39.44345209126881 -6.881316833080692 C-39.298993295372576 -7.181288613682299, -39.15453449947634 -7.481260394283906, -38.970625708341004 -7.863150934094194 M-39.44345209126881 -6.881316833080692 C-39.320270168038235 -7.137106732339909, -39.19708824480767 -7.392896631599125, -38.970625708341004 -7.863150934094194 M-38.970625708341004 -7.863150934094194 C-38.766180823466065 -8.226163529479113, -38.561735938591134 -8.589176124864032, -38.43586447109088 -8.812673661278929 M-38.970625708341004 -7.863150934094194 C-38.800047071845555 -8.166030576151822, -38.629468435350105 -8.468910218209452, -38.43586447109088 -8.812673661278929 M-38.43586447109088 -8.812673661278929 C-38.26175349073871 -9.080154882444447, -38.087642510386544 -9.347636103609965, -37.84136582814825 -9.725983222076884 M-38.43586447109088 -8.812673661278929 C-38.312047986969525 -9.002889030270676, -38.18823150284816 -9.193104399262422, -37.84136582814825 -9.725983222076884 M-37.84136582814825 -9.725983222076884 C-37.62867245032891 -10.010972971589469, -37.41597907250956 -10.295962721102052, -37.18957270195651 -10.599326631598467 M-37.84136582814825 -9.725983222076884 C-37.70475963948403 -9.90902306980713, -37.568153450819814 -10.092062917537376, -37.18957270195651 -10.599326631598467 M-37.18957270195651 -10.599326631598467 C-37.00549930124301 -10.815549722149756, -36.82142590052952 -11.031772812701044, -36.48316345028037 -11.42911513444238 M-37.18957270195651 -10.599326631598467 C-36.967027383148 -10.86074102625831, -36.7444820643395 -11.122155420918153, -36.48316345028037 -11.42911513444238 M-36.48316345028037 -11.42911513444238 C-36.21836862757681 -11.702537528943063, -35.953573804873244 -11.975959923443746, -35.72504086025928 -12.21193895166136 M-36.48316345028037 -11.42911513444238 C-36.298327879462 -11.619973036594933, -36.11349230864363 -11.810830938747484, -35.72504086025928 -12.21193895166136 M-35.72504086025928 -12.21193895166136 C-35.55615361270234 -12.365317881380868, -35.3872663651454 -12.518696811100375, -34.91832022023242 -12.944581292275274 M-35.72504086025928 -12.21193895166136 C-35.555989021740174 -12.36546735853787, -35.386937183221065 -12.518995765414381, -34.91832022023242 -12.944581292275274 M-34.91832022023242 -12.944581292275274 C-34.652466753238 -13.156592357545447, -34.38661328624358 -13.368603422815621, -34.066316518350675 -13.624031571755259 M-34.91832022023242 -12.944581292275274 C-34.57850260092701 -13.215576800744705, -34.23868498162161 -13.486572309214136, -34.066316518350675 -13.624031571755259 M-34.066316518350675 -13.624031571755259 C-33.85852516903519 -13.768977821895207, -33.6507338197197 -13.913924072035156, -33.17253082057934 -14.247497783161284 M-34.066316518350675 -13.624031571755259 C-33.873895421494005 -13.758256199147443, -33.681474324637335 -13.892480826539627, -33.17253082057934 -14.247497783161284 M-33.17253082057934 -14.247497783161284 C-32.82103498063232 -14.460576626956003, -32.469539140685306 -14.673655470750722, -32.24063588406695 -14.812417970097618 M-33.17253082057934 -14.247497783161284 C-32.81235418614403 -14.465838975588817, -32.452177551708715 -14.684180168016349, -32.24063588406695 -14.812417970097618 M-32.24063588406695 -14.812417970097618 C-31.926408413059406 -14.97635024044995, -31.612180942051868 -15.140282510802283, -31.27446106499849 -15.316470754341124 M-32.24063588406695 -14.812417970097618 C-31.94187199384974 -14.968282900256531, -31.64310810363253 -15.124147830415442, -31.27446106499849 -15.316470754341124 M-31.27446106499849 -15.316470754341124 C-30.98004800609033 -15.446798682066675, -30.685634947182166 -15.577126609792225, -30.277976582949368 -15.757584874882365 M-31.27446106499849 -15.316470754341124 C-30.98784890169636 -15.44334545698723, -30.701236738394233 -15.570220159633335, -30.277976582949368 -15.757584874882365 M-30.277976582949368 -15.757584874882365 C-29.8972560411669 -15.897693553600423, -29.51653549938443 -16.03780223231848, -29.255277206401566 -16.133947699181363 M-30.277976582949368 -15.757584874882365 C-29.931313007718554 -15.885160275090266, -29.584649432487737 -16.012735675298167, -29.255277206401566 -16.133947699181363 M-29.255277206401566 -16.133947699181363 C-28.942114198012927 -16.226892836244936, -28.628951189624285 -16.31983797330851, -28.210565426461642 -16.444012671663494 M-29.255277206401566 -16.133947699181363 C-29.02637922531058 -16.201883418459147, -28.797481244219597 -16.269819137736928, -28.210565426461642 -16.444012671663494 M-28.210565426461642 -16.444012671663494 C-27.830051139150477 -16.53086257465449, -27.449536851839312 -16.61771247764548, -27.148134187923336 -16.68650566884811 M-28.210565426461642 -16.444012671663494 C-27.833820559929805 -16.530002228959376, -27.45707569339797 -16.615991786255254, -27.148134187923336 -16.68650566884811 M-27.148134187923336 -16.68650566884811 C-26.802647503093446 -16.74236127676215, -26.45716081826356 -16.79821688467619, -26.072349248636613 -16.86043023499518 M-27.148134187923336 -16.68650566884811 C-26.839926396080294 -16.736334314446168, -26.53171860423725 -16.78616296004423, -26.072349248636613 -16.86043023499518 M-26.072349248636613 -16.86043023499518 C-25.846704470220075 -16.882197915391476, -25.621059691803538 -16.903965595787767, -24.98763123967212 -16.965071676755716 M-26.072349248636613 -16.86043023499518 C-25.828897217407917 -16.88391575965391, -25.585445186179218 -16.907401284312638, -24.98763123967212 -16.965071676755716 M-24.98763123967212 -16.965071676755716 C-24.76142721636705 -16.972325599503687, -24.53522319306198 -16.97957952225166, -23.898437500000004 -17 M-24.98763123967212 -16.965071676755716 C-24.752518428871685 -16.97261128697876, -24.51740561807125 -16.98015089720181, -23.898437500000004 -17 M-23.898437500000004 -17 C-23.898437500000004 -17, -23.8984375 -17, -23.8984375 -17 M-23.898437500000004 -17 C-23.898437500000004 -17, -23.8984375 -17, -23.8984375 -17" stroke="#9370DB" stroke-width="1.3" fill="none" stroke-dasharray="0 0" style=""/></g><g class="label" style="" transform="translate(0, -9.5)"><rect/><g><rect class="background" style="stroke: none"/><text y="-10.1" style=""><tspan class="text-outer-tspan row" x="0" y="-0.1em" dy="1.1em"><tspan font-style="normal" class="text-inner-tspan" font-weight="normal">Internet</tspan></tspan></text></g></g></g><g class="node default" id="my-svg-flowchart-Ingress-1" data-look="classic" transform="translate(403.22265625, 142.9000015258789)"><rect class="basic label-container" style="" x="-98.2890625" y="-50.900001525878906" width="196.578125" height="101.80000305175781"/><g class="label" style="" transform="translate(0, -35.900001525878906)"><rect/><g><rect class="background" style="stroke: none"/><text y="-10.1" style=""><tspan class="text-outer-tspan row" x="0" y="-0.1em" dy="1.1em"><tspan font-style="normal" class="text-inner-tspan" font-weight="normal">Ingress</tspan><tspan font-style="normal" class="text-inner-tspan" font-weight="normal"> controller</tspan></tspan><tspan class="text-outer-tspan row" x="0" y="1em" dy="1.1em"><tspan font-style="normal" class="text-inner-tspan" font-weight="normal">nginx-ingress</tspan><tspan font-style="normal" class="text-inner-tspan" font-weight="normal"> ·</tspan><tspan font-style="normal" class="text-inner-tspan" font-weight="normal"> ALB</tspan></tspan><tspan class="text-outer-tspan row" x="0" y="2.1em" dy="1.1em"><tspan font-style="normal" class="text-inner-tspan" font-weight="normal">controller</tspan></tspan><tspan class="text-outer-tspan row" x="0" y="3.2em" dy="1.1em"><tspan font-style="normal" class="text-inner-tspan" font-weight="normal">proxy-buffering</tspan><tspan font-style="normal" class="text-inner-tspan" font-weight="normal"> off</tspan></tspan></text></g></g></g><g class="node default" id="my-svg-flowchart-SvcAI-3" data-look="classic" transform="translate(403.22265625, 268.3000030517578)"><rect class="basic label-container" style="" x="-95.8515625" y="-24.5" width="191.703125" height="49"/><g class="label" style="" transform="translate(0, -9.5)"><rect/><g><rect class="background" style="stroke: none"/><text y="-10.1" style=""><tspan class="text-outer-tspan row" x="0" y="-0.1em" dy="1.1em"><tspan font-style="normal" class="text-inner-tspan" font-weight="normal">Service:</tspan><tspan font-style="normal" class="text-inner-tspan" font-weight="normal"> ai-service</tspan></tspan></text></g></g></g><g class="node default" id="my-svg-flowchart-Pod1-5" data-look="classic" transform="translate(239.9375, 390.3000030517578)"><rect class="basic label-container" style="" x="-116.6015625" y="-24.5" width="233.203125" height="49"/><g class="label" style="" transform="translate(0, -9.5)"><rect/><g><rect class="background" style="stroke: none"/><text y="-10.1" style=""><tspan class="text-outer-tspan row" x="0" y="-0.1em" dy="1.1em"><tspan font-style="normal" class="text-inner-tspan" font-weight="normal">Pod:</tspan><tspan font-style="normal" class="text-inner-tspan" font-weight="normal"> ai-service</tspan><tspan font-style="normal" class="text-inner-tspan" font-weight="normal"> replica</tspan><tspan font-style="normal" class="text-inner-tspan" font-weight="normal"> 1</tspan></tspan></text></g></g></g><g class="node default" id="my-svg-flowchart-Pod2-7" data-look="classic" transform="translate(535.01953125, 390.3000030517578)"><rect class="basic label-container" style="" x="-116.6015625" y="-24.5" width="233.203125" height="49"/><g class="label" style="" transform="translate(0, -9.5)"><rect/><g><rect class="background" style="stroke: none"/><text y="-10.1" style=""><tspan class="text-outer-tspan row" x="0" y="-0.1em" dy="1.1em"><tspan font-style="normal" class="text-inner-tspan" font-weight="normal">Pod:</tspan><tspan font-style="normal" class="text-inner-tspan" font-weight="normal"> ai-service</tspan><tspan font-style="normal" class="text-inner-tspan" font-weight="normal"> replica</tspan><tspan font-style="normal" class="text-inner-tspan" font-weight="normal"> 2</tspan></tspan></text></g></g></g><g class="node default" id="my-svg-flowchart-PodN-9" data-look="classic" transform="translate(830.5546875, 390.3000030517578)"><rect class="basic label-container" style="" x="-117.5078125" y="-24.5" width="235.015625" height="49"/><g class="label" style="" transform="translate(0, -9.5)"><rect/><g><rect class="background" style="stroke: none"/><text y="-10.1" style=""><tspan class="text-outer-tspan row" x="0" y="-0.1em" dy="1.1em"><tspan font-style="normal" class="text-inner-tspan" font-weight="normal">Pod:</tspan><tspan font-style="normal" class="text-inner-tspan" font-weight="normal"> ai-service</tspan><tspan font-style="normal" class="text-inner-tspan" font-weight="normal"> replica</tspan><tspan font-style="normal" class="text-inner-tspan" font-weight="normal"> N</tspan></tspan></text></g></g></g><g class="node default" id="my-svg-flowchart-SvcDB-11" data-look="classic" transform="translate(101.4921875, 500.5546875)"><rect class="basic label-container" style="" x="-93.4921875" y="-33.29999923706055" width="186.984375" height="66.5999984741211"/><g class="label" style="" transform="translate(0, -18.299999237060547)"><rect/><g><rect class="background" style="stroke: none"/><text y="-10.1" style=""><tspan class="text-outer-tspan row" x="0" y="-0.1em" dy="1.1em"><tspan font-style="normal" class="text-inner-tspan" font-weight="normal">Service:</tspan><tspan font-style="normal" class="text-inner-tspan" font-weight="normal"> database</tspan></tspan><tspan class="text-outer-tspan row" x="0" y="1em" dy="1.1em"><tspan font-style="normal" class="text-inner-tspan" font-weight="normal">or</tspan><tspan font-style="normal" class="text-inner-tspan" font-weight="normal"> external</tspan><tspan font-style="normal" class="text-inner-tspan" font-weight="normal"> RDS</tspan></tspan></text></g></g></g><g class="node default" id="my-svg-flowchart-SvcRedis-17" data-look="classic" transform="translate(525.47265625, 500.5546875)"><rect class="basic label-container" style="" x="-113.3984375" y="-33.29999923706055" width="226.796875" height="66.5999984741211"/><g class="label" style="" transform="translate(0, -18.299999237060547)"><rect/><g><rect class="background" style="stroke: none"/><text y="-10.1" style=""><tspan class="text-outer-tspan row" x="0" y="-0.1em" dy="1.1em"><tspan font-style="normal" class="text-inner-tspan" font-weight="normal">Service:</tspan><tspan font-style="normal" class="text-inner-tspan" font-weight="normal"> redis</tspan></tspan><tspan class="text-outer-tspan row" x="0" y="1em" dy="1.1em"><tspan font-style="normal" class="text-inner-tspan" font-weight="normal">or</tspan><tspan font-style="normal" class="text-inner-tspan" font-weight="normal"> external</tspan><tspan font-style="normal" class="text-inner-tspan" font-weight="normal"> ElastiCache</tspan></tspan></text></g></g></g><g class="node default" id="my-svg-flowchart-S3-23" data-look="classic" transform="translate(943.51953125, 500.5546875)"><path d="M0,12.503124218945262 a62.53125,12.503124218945262 0,0,0 125.0625,0 a62.53125,12.503124218945262 0,0,0 -125.0625,0 l0,46.50312421894526 a62.53125,12.503124218945262 0,0,0 125.0625,0 l0,-46.50312421894526" class="basic label-container outer-path" style="" transform="translate(-62.53125, -35.75468632841789)"/><g class="label" style="" transform="translate(0, -0.5)"><rect/><g><rect class="background" style="stroke: none"/><text y="-10.1" style=""><tspan class="text-outer-tspan row" x="0" y="-0.1em" dy="1.1em"><tspan font-style="normal" class="text-inner-tspan" font-weight="normal">S3</tspan><tspan font-style="normal" class="text-inner-tspan" font-weight="normal"> /</tspan><tspan font-style="normal" class="text-inner-tspan" font-weight="normal"> Azure</tspan><tspan font-style="normal" class="text-inner-tspan" font-weight="normal"> Blob</tspan></tspan></text></g></g></g><g class="node default" id="my-svg-flowchart-HPA-28" data-look="classic" transform="translate(666.81640625, 268.3000030517578)"><rect class="basic label-container" style="" x="-117.7421875" y="-24.5" width="235.484375" height="49"/><g class="label" style="" transform="translate(0, -9.5)"><rect/><g><rect class="background" style="stroke: none"/><text y="-10.1" style=""><tspan class="text-outer-tspan row" x="0" y="-0.1em" dy="1.1em"><tspan font-style="normal" class="text-inner-tspan" font-weight="normal">HorizontalPodAutoscaler</tspan></tspan></text></g></g></g></g></g></g><defs><filter id="my-svg-drop-shadow" height="130%" width="130%"><feDropShadow dx="4" dy="4" stdDeviation="0" flood-opacity="0.06" flood-color="#000000"/></filter></defs><defs><filter id="my-svg-drop-shadow-small" height="150%" width="150%"><feDropShadow dx="2" dy="2" stdDeviation="0" flood-opacity="0.06" flood-color="#000000"/></filter></defs></svg>