<svg id="my-svg" width="1014" xmlns="http://www.w3.org/2000/svg" xmlns:xlink="http://www.w3.org/1999/xlink" class="flowchart" style="max-width: 1014.05px; background-color: white;" viewBox="0 0 1014.05078125 544.309326171875" role="graphics-document document" aria-roledescription="flowchart-v2"><style>#my-svg{font-family:"trebuchet ms",verdana,arial,sans-serif;font-size:16px;fill:#333;}@keyframes edge-animation-frame{from{stroke-dashoffset:0;}}@keyframes dash{to{stroke-dashoffset:0;}}#my-svg .edge-animation-slow{stroke-dasharray:9,5!important;stroke-dashoffset:900;animation:dash 50s linear infinite;stroke-linecap:round;}#my-svg .edge-animation-fast{stroke-dasharray:9,5!important;stroke-dashoffset:900;animation:dash 20s linear infinite;stroke-linecap:round;}#my-svg .error-icon{fill:#552222;}#my-svg .error-text{fill:#552222;stroke:#552222;}#my-svg .edge-thickness-normal{stroke-width:1px;}#my-svg .edge-thickness-thick{stroke-width:3.5px;}#my-svg .edge-pattern-solid{stroke-dasharray:0;}#my-svg .edge-thickness-invisible{stroke-width:0;fill:none;}#my-svg .edge-pattern-dashed{stroke-dasharray:3;}#my-svg .edge-pattern-dotted{stroke-dasharray:2;}#my-svg .marker{fill:#333333;stroke:#333333;}#my-svg .marker.cross{stroke:#333333;}#my-svg svg{font-family:"trebuchet ms",verdana,arial,sans-serif;font-size:16px;}#my-svg p{margin:0;}#my-svg .label{font-family:"trebuchet ms",verdana,arial,sans-serif;color:#333;}#my-svg .cluster-label text{fill:#333;}#my-svg .cluster-label span{color:#333;}#my-svg .cluster-label span p{background-color:transparent;}#my-svg .label text,#my-svg span{fill:#333;color:#333;}#my-svg .node rect,#my-svg .node circle,#my-svg .node ellipse,#my-svg .node polygon,#my-svg .node path{fill:#ECECFF;stroke:#9370DB;stroke-width:1px;}#my-svg .rough-node .label text,#my-svg .node .label text,#my-svg .image-shape .label,#my-svg .icon-shape .label{text-anchor:middle;}#my-svg .node .katex path{fill:#000;stroke:#000;stroke-width:1px;}#my-svg .rough-node .label,#my-svg .node .label,#my-svg .image-shape .label,#my-svg .icon-shape .label{text-align:center;}#my-svg .node.clickable{cursor:pointer;}#my-svg .root .anchor path{fill:#333333!important;stroke-width:0;stroke:#333333;}#my-svg .arrowheadPath{fill:#333333;}#my-svg .edgePath .path{stroke:#333333;stroke-width:1px;}#my-svg .flowchart-link{stroke:#333333;fill:none;}#my-svg .edgeLabel{background-color:rgba(232,232,232, 0.8);text-align:center;}#my-svg .edgeLabel p{background-color:rgba(232,232,232, 0.8);}#my-svg .edgeLabel rect{opacity:0.5;background-color:rgba(232,232,232, 0.8);fill:rgba(232,232,232, 0.8);}#my-svg .labelBkg{background-color:rgba(232, 232, 232, 0.5);}#my-svg .cluster rect{fill:#ffffde;stroke:#aaaa33;stroke-width:1px;}#my-svg .cluster text{fill:#333;}#my-svg .cluster span{color:#333;}#my-svg div.mermaidTooltip{position:absolute;text-align:center;max-width:200px;padding:2px;font-family:"trebuchet ms",verdana,arial,sans-serif;font-size:12px;background:hsl(80, 100%, 96.2745098039%);border:1px solid #aaaa33;border-radius:2px;pointer-events:none;z-index:100;}#my-svg .flowchartTitleText{text-anchor:middle;font-size:18px;fill:#333;}#my-svg rect.text{fill:none;stroke-width:0;}#my-svg .icon-shape,#my-svg .image-shape{background-color:rgba(232,232,232, 0.8);text-align:center;}#my-svg .icon-shape p,#my-svg .image-shape p{background-color:rgba(232,232,232, 0.8);padding:2px;}#my-svg .icon-shape .label rect,#my-svg .image-shape .label rect{opacity:0.5;background-color:rgba(232,232,232, 0.8);fill:rgba(232,232,232, 0.8);}#my-svg .label-icon{display:inline-block;height:1em;overflow:visible;vertical-align:-0.125em;}#my-svg .node .label-icon path{fill:currentColor;stroke:revert;stroke-width:revert;}#my-svg .node .neo-node{stroke:#9370DB;}#my-svg [data-look="neo"].node rect,#my-svg [data-look="neo"].cluster rect,#my-svg [data-look="neo"].node polygon{stroke:#9370DB;filter:drop-shadow(1px 2px 2px rgba(185, 185, 185, 1));}#my-svg [data-look="neo"].node path{stroke:#9370DB;stroke-width:1px;}#my-svg [data-look="neo"].node .outer-path{filter:drop-shadow(1px 2px 2px rgba(185, 185, 185, 1));}#my-svg [data-look="neo"].node .neo-line path{stroke:#9370DB;filter:none;}#my-svg [data-look="neo"].node circle{stroke:#9370DB;filter:drop-shadow(1px 2px 2px rgba(185, 185, 185, 1));}#my-svg [data-look="neo"].node circle .state-start{fill:#000000;}#my-svg [data-look="neo"].icon-shape .icon{fill:#9370DB;filter:drop-shadow(1px 2px 2px rgba(185, 185, 185, 1));}#my-svg [data-look="neo"].icon-shape .icon-neo path{stroke:#9370DB;filter:drop-shadow(1px 2px 2px rgba(185, 185, 185, 1));}#my-svg :root{--mermaid-font-family:"trebuchet ms",verdana,arial,sans-serif;}</style><g><marker id="my-svg_flowchart-v2-pointEnd" class="marker flowchart-v2" viewBox="0 0 10 10" refX="5" refY="5" markerUnits="userSpaceOnUse" markerWidth="8" markerHeight="8" orient="auto"><path d="M 0 0 L 10 5 L 0 10 z" class="arrowMarkerPath" style="stroke-width: 1; stroke-dasharray: 1, 0;"/></marker><marker id="my-svg_flowchart-v2-pointStart" class="marker flowchart-v2" viewBox="0 0 10 10" refX="4.5" refY="5" markerUnits="userSpaceOnUse" markerWidth="8" markerHeight="8" orient="auto"><path d="M 0 5 L 10 10 L 10 0 z" class="arrowMarkerPath" style="stroke-width: 1; stroke-dasharray: 1, 0;"/></marker><marker id="my-svg_flowchart-v2-pointEnd-margin" class="marker flowchart-v2" viewBox="0 0 11.5 14" refX="11.5" refY="7" markerUnits="userSpaceOnUse" markerWidth="10.5" markerHeight="14" orient="auto"><path d="M 0 0 L 11.5 7 L 0 14 z" class="arrowMarkerPath" style="stroke-width: 0; stroke-dasharray: 1, 0;"/></marker><marker id="my-svg_flowchart-v2-pointStart-margin" class="marker flowchart-v2" viewBox="0 0 11.5 14" refX="1" refY="7" markerUnits="userSpaceOnUse" markerWidth="11.5" markerHeight="14" orient="auto"><polygon points="0,7 11.5,14 11.5,0" class="arrowMarkerPath" style="stroke-width: 0; stroke-dasharray: 1, 0;"/></marker><marker id="my-svg_flowchart-v2-circleEnd" class="marker flowchart-v2" viewBox="0 0 10 10" refX="11" refY="5" markerUnits="userSpaceOnUse" markerWidth="11" markerHeight="11" orient="auto"><circle cx="5" cy="5" r="5" class="arrowMarkerPath" style="stroke-width: 1; stroke-dasharray: 1, 0;"/></marker><marker id="my-svg_flowchart-v2-circleStart" class="marker flowchart-v2" viewBox="0 0 10 10" refX="-1" refY="5" markerUnits="userSpaceOnUse" markerWidth="11" markerHeight="11" orient="auto"><circle cx="5" cy="5" r="5" class="arrowMarkerPath" style="stroke-width: 1; stroke-dasharray: 1, 0;"/></marker><marker id="my-svg_flowchart-v2-circleEnd-margin" class="marker flowchart-v2" viewBox="0 0 10 10" refY="5" refX="12.25" markerUnits="userSpaceOnUse" markerWidth="14" markerHeight="14" orient="auto"><circle cx="5" cy="5" r="5" class="arrowMarkerPath" style="stroke-width: 0; stroke-dasharray: 1, 0;"/></marker><marker id="my-svg_flowchart-v2-circleStart-margin" class="marker flowchart-v2" viewBox="0 0 10 10" refX="-2" refY="5" markerUnits="userSpaceOnUse" markerWidth="14" markerHeight="14" orient="auto"><circle cx="5" cy="5" r="5" class="arrowMarkerPath" style="stroke-width: 0; stroke-dasharray: 1, 0;"/></marker><marker id="my-svg_flowchart-v2-crossEnd" class="marker cross flowchart-v2" viewBox="0 0 11 11" refX="12" refY="5.2" markerUnits="userSpaceOnUse" markerWidth="11" markerHeight="11" orient="auto"><path d="M 1,1 l 9,9 M 10,1 l -9,9" class="arrowMarkerPath" style="stroke-width: 2; stroke-dasharray: 1, 0;"/></marker><marker id="my-svg_flowchart-v2-crossStart" class="marker cross flowchart-v2" viewBox="0 0 11 11" refX="-1" refY="5.2" markerUnits="userSpaceOnUse" markerWidth="11" markerHeight="11" orient="auto"><path d="M 1,1 l 9,9 M 10,1 l -9,9" class="arrowMarkerPath" style="stroke-width: 2; stroke-dasharray: 1, 0;"/></marker><marker id="my-svg_flowchart-v2-crossEnd-margin" class="marker cross flowchart-v2" viewBox="0 0 15 15" refX="17.7" refY="7.5" markerUnits="userSpaceOnUse" markerWidth="12" markerHeight="12" orient="auto"><path d="M 1,1 L 14,14 M 1,14 L 14,1" class="arrowMarkerPath" style="stroke-width: 2.5;"/></marker><marker id="my-svg_flowchart-v2-crossStart-margin" class="marker cross flowchart-v2" viewBox="0 0 15 15" refX="-3.5" refY="7.5" markerUnits="userSpaceOnUse" markerWidth="12" markerHeight="12" orient="auto"><path d="M 1,1 L 14,14 M 1,14 L 14,1" class="arrowMarkerPath" style="stroke-width: 2.5; stroke-dasharray: 1, 0;"/></marker><g class="root"><g class="clusters"/><g class="edgePaths"><path d="M403.723,42.5L403.639,46.583C403.556,50.667,403.389,58.833,403.306,66.417C403.223,74,403.223,81,403.223,84.5L403.223,88" id="my-svg-L_Internet_Ingress_0" class="edge-thickness-normal edge-pattern-solid edge-thickness-normal edge-pattern-solid flowchart-link" style=";" data-edge="true" data-et="edge" data-id="L_Internet_Ingress_0" data-points="W3sieCI6NDAzLjcyMjY1NjI1LCJ5Ijo0Mi41fSx7IngiOjQwMy4yMjI2NTYyNSwieSI6Njd9LHsieCI6NDAzLjIyMjY1NjI1LCJ5Ijo5Mn1d" data-look="classic" marker-end="url(#my-svg_flowchart-v2-pointEnd)"/><path d="M403.223,193.8L403.223,197.967C403.223,202.133,403.223,210.467,403.223,218.133C403.223,225.8,403.223,232.8,403.223,236.3L403.223,239.8" id="my-svg-L_Ingress_SvcAI_0" class="edge-thickness-normal edge-pattern-solid edge-thickness-normal edge-pattern-solid flowchart-link" style=";" data-edge="true" data-et="edge" data-id="L_Ingress_SvcAI_0" data-points="W3sieCI6NDAzLjIyMjY1NjI1LCJ5IjoxOTMuODAwMDAzMDUxNzU3OH0seyJ4Ijo0MDMuMjIyNjU2MjUsInkiOjIxOC44MDAwMDMwNTE3NTc4fSx7IngiOjQwMy4yMjI2NTYyNSwieSI6MjQzLjgwMDAwMzA1MTc1Nzh9XQ==" data-look="classic" marker-end="url(#my-svg_flowchart-v2-pointEnd)"/><path d="M326.237,292.8L307.121,298.883C288.005,304.967,249.774,317.133,233.209,328.696C216.644,340.258,221.744,351.216,224.295,356.695L226.845,362.174" id="my-svg-L_SvcAI_Pod1_0" class="edge-thickness-normal edge-pattern-solid edge-thickness-normal edge-pattern-solid flowchart-link" style=";" data-edge="true" data-et="edge" data-id="L_SvcAI_Pod1_0" data-points="W3sieCI6MzI2LjIzNjU1MjI1NDA5ODM0LCJ5IjoyOTIuODAwMDAzMDUxNzU3OH0seyJ4IjoyMTEuNTQyOTY4NzUsInkiOjMyOS4zMDAwMDMwNTE3NTc4fSx7IngiOjIyOC41MzMxMzkwODgxMTQ3NSwieSI6MzY1LjgwMDAwMzA1MTc1Nzh9XQ==" data-look="classic" marker-end="url(#my-svg_flowchart-v2-pointEnd)"/><path d="M401.958,292.8L401.644,298.883C401.33,304.967,400.702,317.133,413.238,329.025C425.775,340.917,451.475,352.535,464.325,358.344L477.175,364.152" id="my-svg-L_SvcAI_Pod2_0" class="edge-thickness-normal edge-pattern-solid edge-thickness-normal edge-pattern-solid flowchart-link" style=";" data-edge="true" data-et="edge" data-id="L_SvcAI_Pod2_0" data-points="W3sieCI6NDAxLjk1ODExOTg3NzA0OTE3LCJ5IjoyOTIuODAwMDAzMDUxNzU3OH0seyJ4Ijo0MDAuMDc0MjE4NzUsInkiOjMyOS4zMDAwMDMwNTE3NTc4fSx7IngiOjQ4MC44MjAxODQ0MjYyMjk1LCJ5IjozNjUuODAwMDAzMDUxNzU3OH1d" data-look="classic" marker-end="url(#my-svg_flowchart-v2-pointEnd)"/><path d="M499.074,289.144L529.85,295.837C560.626,302.529,622.178,315.915,666.981,328.435C711.784,340.955,739.837,352.61,753.864,358.438L767.89,364.265" id="my-svg-L_SvcAI_PodN_0" class="edge-thickness-normal edge-pattern-solid edge-thickness-normal edge-pattern-solid flowchart-link" style=";" data-edge="true" data-et="edge" data-id="L_SvcAI_PodN_0" data-points="W3sieCI6NDk5LjA3NDIxODc1LCJ5IjoyODkuMTQ0MTQ3MzIxMzU4MTZ9LHsieCI6NjgzLjczMDQ2ODc1LCJ5IjozMjkuMzAwMDAzMDUxNzU3OH0seyJ4Ijo3NzEuNTg0MzA0NTU5NDI2MiwieSI6MzY1LjgwMDAwMzA1MTc1Nzh9XQ==" data-look="classic" marker-end="url(#my-svg_flowchart-v2-pointEnd)"/><path d="M161.515,414.8L148.178,418.967C134.841,423.133,108.166,431.467,96.127,439.576C84.088,447.685,86.684,455.57,87.981,459.513L89.279,463.455" id="my-svg-L_Pod1_SvcDB_0" class="edge-thickness-normal edge-pattern-solid edge-thickness-normal edge-pattern-solid flowchart-link" style=";" data-edge="true" data-et="edge" data-id="L_Pod1_SvcDB_0" data-points="W3sieCI6MTYxLjUxNTA3MjYwMTAxMDEsInkiOjQxNC44MDAwMDMwNTE3NTc4fSx7IngiOjgxLjQ5MjE4NzUsInkiOjQzOS44MDAwMDMwNTE3NTc4fSx7IngiOjkwLjUzMDA3MDA3OTkyNTQsInkiOjQ2Ny4yNTQ2ODgyNjI5Mzk0NX1d" data-look="classic" marker-end="url(#my-svg_flowchart-v2-pointEnd)"/><path d="M418.418,407.525L382.005,412.904C345.591,418.283,272.764,429.042,229.504,438.646C186.243,448.251,172.549,456.703,165.702,460.928L158.855,465.154" id="my-svg-L_Pod2_SvcDB_0" class="edge-thickness-normal edge-pattern-solid edge-thickness-normal edge-pattern-solid flowchart-link" style=";" data-edge="true" data-et="edge" data-id="L_Pod2_SvcDB_0" data-points="W3sieCI6NDE4LjQxNzk2ODc1LCJ5Ijo0MDcuNTI0OTcxMjg0ODE2NH0seyJ4IjoxOTkuOTM3NSwieSI6NDM5LjgwMDAwMzA1MTc1Nzh9LHsieCI6MTU1LjQ1MDY0MTI1NDA0Njg3LCJ5Ijo0NjcuMjU0Njg4MjYyOTM5NDV9XQ==" data-look="classic" marker-end="url(#my-svg_flowchart-v2-pointEnd)"/><path d="M713.047,399.826L630.862,406.488C548.677,413.151,384.307,426.475,293.795,437.409C203.282,448.343,186.627,456.886,178.299,461.158L169.972,465.429" id="my-svg-L_PodN_SvcDB_0" class="edge-thickness-normal edge-pattern-solid edge-thickness-normal edge-pattern-solid flowchart-link" style=";" data-edge="true" data-et="edge" data-id="L_PodN_SvcDB_0" data-points="W3sieCI6NzEzLjA0Njg3NSwieSI6Mzk5LjgyNTgzNTAwOTY4OTc0fSx7IngiOjIxOS45Mzc1LCJ5Ijo0MzkuODAwMDAzMDUxNzU3OH0seyJ4IjoxNjYuNDEyNzU4Njc0MTIxNDgsInkiOjQ2Ny4yNTQ2ODgyNjI5Mzk0NX1d" data-look="classic" marker-end="url(#my-svg_flowchart-v2-pointEnd)"/><path d="M239.938,414.8L239.938,418.967C239.938,423.133,239.938,431.467,267.975,441.599C296.012,451.731,352.087,463.663,380.124,469.628L408.162,475.594" id="my-svg-L_Pod1_SvcRedis_0" class="edge-thickness-normal edge-pattern-solid edge-thickness-normal edge-pattern-solid flowchart-link" style=";" data-edge="true" data-et="edge" data-id="L_Pod1_SvcRedis_0" data-points="W3sieCI6MjM5LjkzNzUsInkiOjQxNC44MDAwMDMwNTE3NTc4fSx7IngiOjIzOS45Mzc1LCJ5Ijo0MzkuODAwMDAzMDUxNzU3OH0seyJ4Ijo0MTIuMDc0MjE4NzUsInkiOjQ3Ni40MjYzNTgxNjMxOTQ1fV0=" data-look="classic" marker-end="url(#my-svg_flowchart-v2-pointEnd)"/><path d="M535.02,414.8L535.02,418.967C535.02,423.133,535.02,431.467,534.404,439.551C533.788,447.634,532.557,455.469,531.942,459.386L531.326,463.303" id="my-svg-L_Pod2_SvcRedis_0" class="edge-thickness-normal edge-pattern-solid edge-thickness-normal edge-pattern-solid flowchart-link" style=";" data-edge="true" data-et="edge" data-id="L_Pod2_SvcRedis_0" data-points="W3sieCI6NTM1LjAxOTUzMTI1LCJ5Ijo0MTQuODAwMDAzMDUxNzU3OH0seyJ4Ijo1MzUuMDE5NTMxMjUsInkiOjQzOS44MDAwMDMwNTE3NTc4fSx7IngiOjUzMC43MDUzNTQ0ODcyMzg4LCJ5Ijo0NjcuMjU0Njg4MjYyOTM5NDV9XQ==" data-look="classic" marker-end="url(#my-svg_flowchart-v2-pointEnd)"/><path d="M823.117,414.8L821.852,418.967C820.587,423.133,818.057,431.467,788.002,441.664C757.947,451.861,700.367,463.922,671.576,469.952L642.786,475.982" id="my-svg-L_PodN_SvcRedis_0" class="edge-thickness-normal edge-pattern-solid edge-thickness-normal edge-pattern-solid flowchart-link" style=";" data-edge="true" data-et="edge" data-id="L_PodN_SvcRedis_0" data-points="W3sieCI6ODIzLjExNjkxMTMwMDUwNTEsInkiOjQxNC44MDAwMDMwNTE3NTc4fSx7IngiOjgxNS41MjczNDM3NSwieSI6NDM5LjgwMDAwMzA1MTc1Nzh9LHsieCI6NjM4Ljg3MTA5Mzc1LCJ5Ijo0NzYuODAyMzE3Mzk4Mjg4N31d" data-look="classic" marker-end="url(#my-svg_flowchart-v2-pointEnd)"/><path d="M356.539,399.991L436.37,406.626C516.202,413.261,675.865,426.53,762.762,439.084C849.659,451.637,863.79,463.474,870.856,469.392L877.922,475.31" id="my-svg-L_Pod1_S3_0" class="edge-thickness-normal edge-pattern-solid edge-thickness-normal edge-pattern-solid flowchart-link" style=";" data-edge="true" data-et="edge" data-id="L_Pod1_S3_0" data-points="W3sieCI6MzU2LjUzOTA2MjUsInkiOjM5OS45OTA4NjIyOTcxMjI1fSx7IngiOjgzNS41MjczNDM3NSwieSI6NDM5LjgwMDAwMzA1MTc1Nzh9LHsieCI6ODgwLjk4ODI4MTI1LCJ5Ijo0NzcuODc4NzI2NTQ3NTgzNzd9XQ==" data-look="classic" marker-end="url(#my-svg_flowchart-v2-pointEnd)"/><path d="M651.621,408.308L685.605,413.557C719.59,418.805,787.559,429.303,827.068,439.204C866.577,449.106,877.626,458.412,883.151,463.065L888.676,467.718" id="my-svg-L_Pod2_S3_0" class="edge-thickness-normal edge-pattern-solid edge-thickness-normal edge-pattern-solid flowchart-link" style=";" data-edge="true" data-et="edge" data-id="L_Pod2_S3_0" data-points="W3sieCI6NjUxLjYyMTA5Mzc1LCJ5Ijo0MDguMzA4MjI5NzQyNzk5OX0seyJ4Ijo4NTUuNTI3MzQzNzUsInkiOjQzOS44MDAwMDMwNTE3NTc4fSx7IngiOjg5MS43MzUzMjg0OTE4ODUyLCJ5Ijo0NzAuMjk0NzMzNjYwODY1MzV9XQ==" data-look="classic" marker-end="url(#my-svg_flowchart-v2-pointEnd)"/><path d="M893.877,414.8L904.646,418.967C915.416,423.133,936.954,431.467,946.855,439.173C956.756,446.88,955.02,453.96,954.152,457.5L953.284,461.04" id="my-svg-L_PodN_S3_0" class="edge-thickness-normal edge-pattern-solid edge-thickness-normal edge-pattern-solid flowchart-link" style=";" data-edge="true" data-et="edge" data-id="L_PodN_S3_0" data-points="W3sieCI6ODkzLjg3NzI4ODUxMDEwMSwieSI6NDE0LjgwMDAwMzA1MTc1Nzh9LHsieCI6OTU4LjQ5MjE4NzUsInkiOjQzOS44MDAwMDMwNTE3NTc4fSx7IngiOjk1Mi4zMzEwNzU2NTA3NzQ5LCJ5Ijo0NjQuOTI0NzYxNjcwNjE0MX1d" data-look="classic" marker-end="url(#my-svg_flowchart-v2-pointEnd)"/><path d="M549.074,291.46L517.013,297.767C484.952,304.074,420.829,316.687,377.714,328.768C334.599,340.849,312.49,352.399,301.436,358.173L290.382,363.948" id="my-svg-L_HPA_Pod1_0" class="edge-thickness-normal edge-pattern-dotted edge-thickness-normal edge-pattern-solid flowchart-link" style=";" data-edge="true" data-et="edge" data-id="L_HPA_Pod1_0" data-points="W3sieCI6NTQ5LjA3NDIxODc1LCJ5IjoyOTEuNDYwNDU1NTEzMDg2OTd9LHsieCI6MzU2LjcwNzAzMTI1LCJ5IjozMjkuMzAwMDAzMDUxNzU3OH0seyJ4IjoyODYuODM2NzM3OTYxMDY1NiwieSI6MzY1LjgwMDAwMzA1MTc1Nzh9XQ==" data-look="classic" marker-end="url(#my-svg_flowchart-v2-pointEnd)"/><path d="M656.192,292.8L653.554,298.883C650.916,304.967,645.639,317.133,633.073,328.966C620.506,340.799,600.649,352.297,590.72,358.046L580.791,363.796" id="my-svg-L_HPA_Pod2_0" class="edge-thickness-normal edge-pattern-dotted edge-thickness-normal edge-pattern-solid flowchart-link" style=";" data-edge="true" data-et="edge" data-id="L_HPA_Pod2_0" data-points="W3sieCI6NjU2LjE5MTc5MDQ3MTMxMTUsInkiOjI5Mi44MDAwMDMwNTE3NTc4fSx7IngiOjY0MC4zNjMyODEyNSwieSI6MzI5LjMwMDAwMzA1MTc1Nzh9LHsieCI6NTc3LjMyOTcyNTkyMjEzMTIsInkiOjM2NS44MDAwMDMwNTE3NTc4fV0=" data-look="classic" marker-end="url(#my-svg_flowchart-v2-pointEnd)"/><path d="M738.594,292.8L756.416,298.883C774.238,304.967,809.883,317.133,826.371,328.653C842.859,340.172,840.19,351.044,838.856,356.479L837.522,361.915" id="my-svg-L_HPA_PodN_0" class="edge-thickness-normal edge-pattern-dotted edge-thickness-normal edge-pattern-solid flowchart-link" style=";" data-edge="true" data-et="edge" data-id="L_HPA_PodN_0" data-points="W3sieCI6NzM4LjU5Mzc1LCJ5IjoyOTIuODAwMDAzMDUxNzU3OH0seyJ4Ijo4NDUuNTI3MzQzNzUsInkiOjMyOS4zMDAwMDMwNTE3NTc4fSx7IngiOjgzNi41NjgyOTUzMzgxMTQ4LCJ5IjozNjUuODAwMDAzMDUxNzU3OH1d" data-look="classic" marker-end="url(#my-svg_flowchart-v2-pointEnd)"/></g><g class="edgeLabels"><g class="edgeLabel"><g class="label" data-id="L_Internet_Ingress_0" transform="translate(0, 0)"><text y="-10.1" text-anchor="middle"><tspan class="text-outer-tspan row" x="0" y="-0.1em" dy="1.1em" text-anchor="middle"/></text></g></g><g><rect class="background" style="stroke: none"/></g><g class="edgeLabel"><g class="label" data-id="L_Ingress_SvcAI_0" transform="translate(0, 0)"><text y="-10.1" text-anchor="middle"><tspan class="text-outer-tspan row" x="0" y="-0.1em" dy="1.1em" text-anchor="middle"/></text></g></g><g><rect class="background" style="stroke: none"/></g><g class="edgeLabel"><g class="label" data-id="L_SvcAI_Pod1_0" transform="translate(0, 0)"><text y="-10.1" text-anchor="middle"><tspan class="text-outer-tspan row" x="0" y="-0.1em" dy="1.1em" text-anchor="middle"/></text></g></g><g><rect class="background" style="stroke: none"/></g><g class="edgeLabel"><g class="label" data-id="L_SvcAI_Pod2_0" transform="translate(0, 0)"><text y="-10.1" text-anchor="middle"><tspan class="text-outer-tspan row" x="0" y="-0.1em" dy="1.1em" text-anchor="middle"/></text></g></g><g><rect class="background" style="stroke: none"/></g><g class="edgeLabel"><g class="label" data-id="L_SvcAI_PodN_0" transform="translate(0, 0)"><text y="-10.1" text-anchor="middle"><tspan class="text-outer-tspan row" x="0" y="-0.1em" dy="1.1em" text-anchor="middle"/></text></g></g><g><rect class="background" style="stroke: none"/></g><g class="edgeLabel"><g class="label" data-id="L_Pod1_SvcDB_0" transform="translate(0, 0)"><text y="-10.1" text-anchor="middle"><tspan class="text-outer-tspan row" x="0" y="-0.1em" dy="1.1em" text-anchor="middle"/></text></g></g><g><rect class="background" style="stroke: none"/></g><g class="edgeLabel"><g class="label" data-id="L_Pod2_SvcDB_0" transform="translate(0, 0)"><text y="-10.1" text-anchor="middle"><tspan class="text-outer-tspan row" x="0" y="-0.1em" dy="1.1em" text-anchor="middle"/></text></g></g><g><rect class="background" style="stroke: none"/></g><g class="edgeLabel"><g class="label" data-id="L_PodN_SvcDB_0" transform="translate(0, 0)"><text y="-10.1" text-anchor="middle"><tspan class="text-outer-tspan row" x="0" y="-0.1em" dy="1.1em" text-anchor="middle"/></text></g></g><g><rect class="background" style="stroke: none"/></g><g class="edgeLabel"><g class="label" data-id="L_Pod1_SvcRedis_0" transform="translate(0, 0)"><text y="-10.1" text-anchor="middle"><tspan class="text-outer-tspan row" x="0" y="-0.1em" dy="1.1em" text-anchor="middle"/></text></g></g><g><rect class="background" style="stroke: none"/></g><g class="edgeLabel"><g class="label" data-id="L_Pod2_SvcRedis_0" transform="translate(0, 0)"><text y="-10.1" text-anchor="middle"><tspan class="text-outer-tspan row" x="0" y="-0.1em" dy="1.1em" text-anchor="middle"/></text></g></g><g><rect class="background" style="stroke: none"/></g><g class="edgeLabel"><g class="label" data-id="L_PodN_SvcRedis_0" transform="translate(0, 0)"><text y="-10.1" text-anchor="middle"><tspan class="text-outer-tspan row" x="0" y="-0.1em" dy="1.1em" text-anchor="middle"/></text></g></g><g><rect class="background" style="stroke: none"/></g><g class="edgeLabel"><g class="label" data-id="L_Pod1_S3_0" transform="translate(0, 0)"><text y="-10.1" text-anchor="middle"><tspan class="text-outer-tspan row" x="0" y="-0.1em" dy="1.1em" text-anchor="middle"/></text></g></g><g><rect class="background" style="stroke: none"/></g><g class="edgeLabel"><g class="label" data-id="L_Pod2_S3_0" transform="translate(0, 0)"><text y="-10.1" text-anchor="middle"><tspan class="text-outer-tspan row" x="0" y="-0.1em" dy="1.1em" text-anchor="middle"/></text></g></g><g><rect class="background" style="stroke: none"/></g><g class="edgeLabel"><g class="label" data-id="L_PodN_S3_0" transform="translate(0, 0)"><text y="-10.1" text-anchor="middle"><tspan class="text-outer-tspan row" x="0" y="-0.1em" dy="1.1em" text-anchor="middle"/></text></g></g><g><rect class="background" style="stroke: none"/></g><g class="edgeLabel" transform="translate(356.70703125, 329.3000030517578)"><g class="label" data-id="L_HPA_Pod1_0" transform="translate(0, -10.5)"><g><rect class="background" style="" x="-23.3671875" y="-1" width="46.734375" height="23"/><text y="-10.1" text-anchor="middle" style=""><tspan class="text-outer-tspan row" x="0" y="-0.1em" dy="1.1em" text-anchor="middle"><tspan font-style="normal" class="text-inner-tspan" font-weight="normal">scales</tspan></tspan></text></g></g></g><g class="edgeLabel" transform="translate(640.36328125, 329.3000030517578)"><g class="label" data-id="L_HPA_Pod2_0" transform="translate(0, -10.5)"><g><rect class="background" style="" x="-23.3671875" y="-1" width="46.734375" height="23"/><text y="-10.1" text-anchor="middle" style=""><tspan class="text-outer-tspan row" x="0" y="-0.1em" dy="1.1em" text-anchor="middle"><tspan font-style="normal" class="text-inner-tspan" font-weight="normal">scales</tspan></tspan></text></g></g></g><g class="edgeLabel" transform="translate(845.52734375, 329.3000030517578)"><g class="label" data-id="L_HPA_PodN_0" transform="translate(0, -10.5)"><g><rect class="background" style="" x="-23.3671875" y="-1" width="46.734375" height="23"/><text y="-10.1" text-anchor="middle" style=""><tspan class="text-outer-tspan row" x="0" y="-0.1em" dy="1.1em" text-anchor="middle"><tspan font-style="normal" class="text-inner-tspan" font-weight="normal">scales</tspan></tspan></text></g></g></g></g><g class="nodes"><g class="node default" id="my-svg-flowchart-Internet-0" data-look="classic" transform="translate(403.22265625, 25)"><g class="basic label-container outer-path"><path d="M-23.8984375 -17 C-5.095031715897129 -17, 13.708374068205742 -17, 23.8984375 -17 C23.8984375 -17, 23.8984375 -17, 23.8984375 -17 C24.23025994933098 -16.989359099903172, 24.56208239866196 -16.97871819980634, 24.98763123967212 -16.965071676755716 C25.22131185606929 -16.94252878873394, 25.454992472466454 -16.919985900712167, 26.0723492486366 -16.860430234995185 C26.340858147510748 -16.817019798542823, 26.609367046384897 -16.77360936209046, 27.148134187923326 -16.686505668848113 C27.37943192835125 -16.63371346895425, 27.61072966877917 -16.580921269060394, 28.21056542646162 -16.4440126716635 C28.433409628692083 -16.377873682174588, 28.656253830922548 -16.311734692685672, 29.25527720640155 -16.133947699181366 C29.62923606632288 -15.996327381892511, 30.00319492624421 -15.858707064603655, 30.27797658294936 -15.757584874882369 C30.600103719116483 -15.614988747263169, 30.922230855283605 -15.47239261964397, 31.274461064998487 -15.316470754341125 C31.513571899980548 -15.191726784888784, 31.752682734962608 -15.066982815436443, 32.24063588406694 -14.812417970097622 C32.4839686071575 -14.664908243378315, 32.72730133024807 -14.517398516659009, 33.172530820579325 -14.247497783161291 C33.36658052557333 -14.112137109233814, 33.56063023056734 -13.976776435306336, 34.066316518350675 -13.624031571755262 C34.28643475264403 -13.448493137498534, 34.50655298693737 -13.272954703241805, 34.9183202202324 -12.944581292275288 C35.09611026637007 -12.783117076439906, 35.273900312507735 -12.621652860604524, 35.72504086025927 -12.21193895166137 C35.900460833964445 -12.030803426563088, 36.07588080766962 -11.849667901464807, 36.48316345028036 -11.42911513444239 C36.70284306446452 -11.171066959497516, 36.92252267864868 -10.91301878455264, 37.18957270195651 -10.59932663159847 C37.43625696085013 -10.268792198079327, 37.682941219743746 -9.93825776456018, 37.84136582814825 -9.725983222076888 C38.06903287999563 -9.376225493275877, 38.29669993184301 -9.026467764474864, 38.43586447109088 -8.812673661278927 C38.58569441810993 -8.546635418419287, 38.735524365128974 -8.280597175559645, 38.970625708341004 -7.863150934094199 C39.07257000466725 -7.65146142151424, 39.17451430099349 -7.439771908934281, 39.44345209126881 -6.881316833080699 C39.52525952011953 -6.6792509021803745, 39.60706694897026 -6.477184971280051, 39.852400674845924 -5.871205925162238 C39.94356160581298 -5.596643725611353, 40.03472253678004 -5.322081526060467, 40.195791001623235 -4.836968972727556 C40.26942792085252 -4.556159485263605, 40.34306484008181 -4.275349997799655, 40.472212007091 -3.7828558772573464 C40.549704549093654 -3.3849480521282858, 40.6271970910963 -2.9870402269992247, 40.68052781804565 -2.713198215567453 C40.723432077413726 -2.3804412523129317, 40.766336336781805 -2.0476842890584104, 40.819882420136366 -1.632391440430593 C40.8411414754817 -1.3012644934264321, 40.86240053082703 -0.9701375464222712, 40.8897031754117 -0.5448768187181379 C40.8897031754117 -0.2354771181200766, 40.8897031754117 0.07392258247798467, 40.8897031754117 0.5448768187181336 C40.861868007921 0.9784320205285508, 40.8340328404303 1.411987222338968, 40.819882420136366 1.6323914404305815 C40.76657067536796 2.045866805259639, 40.713258930599544 2.459342170088697, 40.680527818045654 2.7131982155674415 C40.61075317266258 3.0714762727330323, 40.54097852727949 3.429754329898623, 40.472212007091 3.782855877257343 C40.36815381479365 4.179674863592966, 40.2640956224963 4.576493849928589, 40.195791001623235 4.836968972727545 C40.10508001636768 5.110176007484505, 40.014369031112125 5.383383042241463, 39.852400674845924 5.871205925162227 C39.71959165476804 6.199246772442334, 39.58678263469015 6.52728761972244, 39.44345209126881 6.881316833080694 C39.28635267055555 7.207537141580892, 39.1292532498423 7.53375745008109, 38.970625708341004 7.863150934094196 C38.77597194844242 8.208778395624694, 38.58131818854383 8.554405857155192, 38.43586447109089 8.812673661278923 C38.2259699505864 9.135128009344347, 38.016075430081926 9.45758235740977, 37.841365828148255 9.725983222076879 C37.6737223643551 9.950610190925968, 37.506078900561945 10.175237159775058, 37.18957270195651 10.599326631598467 C36.925828769121956 10.909135262560858, 36.6620848362874 11.218943893523248, 36.48316345028037 11.42911513444238 C36.25773492004235 11.661888599939669, 36.03230638980433 11.894662065436956, 35.72504086025927 12.211938951661365 C35.405494979624585 12.502142065733095, 35.08594909898989 12.792345179804823, 34.91832022023242 12.944581292275275 C34.69194674651822 13.125108113511219, 34.46557327280402 13.305634934747161, 34.066316518350675 13.62403157175526 C33.71563570914843 13.868651323527189, 33.364954899946184 14.113271075299117, 33.17253082057934 14.247497783161286 C32.82048803986727 14.460908185661957, 32.46844525915521 14.674318588162627, 32.24063588406695 14.81241797009762 C31.99185116675024 14.942208797767528, 31.743066449433535 15.071999625437437, 31.27446106499849 15.316470754341124 C30.98438076133269 15.444880699847499, 30.69430045766689 15.573290645353874, 30.277976582949368 15.757584874882367 C29.993079259693836 15.86242972340239, 29.7081819364383 15.967274571922413, 29.255277206401562 16.133947699181363 C28.855750032065135 16.25252526736348, 28.456222857728708 16.371102835545603, 28.210565426461642 16.444012671663497 C27.950466808141265 16.503378483993018, 27.69036818982089 16.56274429632254, 27.148134187923333 16.68650566884811 C26.828799224243394 16.738133269296252, 26.509464260563455 16.789760869744395, 26.072349248636613 16.86043023499518 C25.642312497659976 16.901915363167035, 25.212275746683343 16.943400491338892, 24.98763123967212 16.965071676755716 C24.74394559659619 16.972886201023833, 24.500259953520267 16.980700725291946, 23.898437500000004 17 C23.898437500000004 17, 23.8984375 17, 23.8984375 17 C8.83361005378884 17, -6.2312173924223195 17, -23.898437499999996 17 C-24.259625066224537 16.98841741776013, -24.620812632449073 16.976834835520254, -24.987631239672112 16.965071676755716 C-25.216195676309084 16.9430223404423, -25.444760112946057 16.920973004128886, -26.072349248636606 16.86043023499518 C-26.436805318022962 16.801507804095827, -26.801261387409323 16.74258537319647, -27.14813418792333 16.68650566884811 C-27.55560968221922 16.59350204630117, -27.96308517651511 16.500498423754234, -28.21056542646162 16.4440126716635 C-28.515083162540847 16.353633406041403, -28.819600898620074 16.263254140419303, -29.255277206401544 16.13394769918137 C-29.53989229273713 16.02920671645686, -29.824507379072713 15.924465733732344, -30.27797658294936 15.757584874882369 C-30.512719887037754 15.653670977575143, -30.747463191126148 15.549757080267918, -31.274461064998484 15.316470754341127 C-31.612489192464647 15.14012169675938, -31.950517319930807 14.96377263917763, -32.24063588406693 14.812417970097624 C-32.5761924463025 14.609001610121181, -32.91174900853807 14.405585250144739, -33.17253082057932 14.247497783161299 C-33.4176596321968 14.076506535632168, -33.66278844381429 13.905515288103036, -34.06631651835067 13.624031571755264 C-34.39432413737442 13.362454224233149, -34.72233175639816 13.100876876711034, -34.9183202202324 12.94458129227529 C-35.16630142886333 12.719371319819922, -35.414282637494246 12.494161347364555, -35.72504086025926 12.211938951661377 C-35.8900343534427 12.041569623731762, -36.05502784662614 11.871200295802145, -36.483163450280365 11.429115134442386 C-36.71251746514362 11.159702857970856, -36.94187148000687 10.890290581499329, -37.18957270195651 10.599326631598473 C-37.39058221335744 10.329992198664431, -37.59159172475837 10.06065776573039, -37.84136582814825 9.72598322207689 C-38.05624298333754 9.39587420911084, -38.27112013852684 9.06576519614479, -38.43586447109088 8.812673661278936 C-38.63600859503231 8.45729750243073, -38.836152718973736 8.101921343582525, -38.970625708341004 7.863150934094201 C-39.09854615023945 7.59752139943309, -39.226466592137896 7.331891864771979, -39.44345209126881 6.881316833080701 C-39.56709415466248 6.57591854604167, -39.690736218056145 6.270520259002638, -39.852400674845924 5.87120592516224 C-39.93486566308438 5.622834519599585, -40.01733065132283 5.3744631140369306, -40.195791001623235 4.8369689727275516 C-40.270592862111535 4.551717059354251, -40.345394722599835 4.266465145980952, -40.472212007091 3.782855877257349 C-40.54297098758305 3.419523467346499, -40.6137299680751 3.0561910574356492, -40.68052781804565 2.713198215567455 C-40.708937552613556 2.492857924395395, -40.737347287181464 2.2725176332233348, -40.819882420136366 1.6323914404306026 C-40.83840056299579 1.3439564178192305, -40.856918705855215 1.0555213952078584, -40.8897031754117 0.54487681871814 C-40.8897031754117 0.19212945447420615, -40.8897031754117 -0.16061790976972767, -40.8897031754117 -0.5448768187181317 C-40.867859162949074 -0.8851149449929079, -40.84601515048646 -1.225353071267684, -40.819882420136366 -1.6323914404305793 C-40.77243961434642 -2.0003484734957726, -40.72499680855647 -2.368305506560966, -40.680527818045654 -2.713198215567447 C-40.62859165778341 -2.979879421802705, -40.576655497521166 -3.2465606280379635, -40.472212007091 -3.782855877257341 C-40.41226141904713 -4.01147345221785, -40.35231083100326 -4.24009102717836, -40.195791001623235 -4.836968972727544 C-40.07546587675569 -5.199369077623441, -39.955140751888145 -5.561769182519338, -39.85240067484593 -5.871205925162218 C-39.734359089220256 -6.162770923836446, -39.61631750359457 -6.4543359225106745, -39.44345209126881 -6.881316833080692 C-39.29295754035681 -7.193821988117014, -39.1424629894448 -7.506327143153334, -38.970625708341004 -7.863150934094194 C-38.78478626537443 -8.193127683365526, -38.59894682240786 -8.52310443263686, -38.43586447109088 -8.812673661278929 C-38.250415134057626 -9.097573643081674, -38.06496579702437 -9.382473624884419, -37.84136582814825 -9.725983222076884 C-37.685365493224324 -9.935009458952068, -37.52936515830039 -10.14403569582725, -37.18957270195651 -10.599326631598467 C-37.033700329816284 -10.782423189303607, -36.87782795767606 -10.965519747008745, -36.48316345028037 -11.42911513444238 C-36.23857198975749 -11.681675898764624, -35.99398052923461 -11.934236663086867, -35.72504086025928 -12.21193895166136 C-35.427277417987376 -12.482359831543743, -35.12951397571547 -12.752780711426128, -34.91832022023242 -12.944581292275274 C-34.63983458110061 -13.1666661786688, -34.3613489419688 -13.388751065062326, -34.066316518350675 -13.624031571755259 C-33.73750348349291 -13.853397310785171, -33.40869044863515 -14.082763049815082, -33.17253082057934 -14.247497783161284 C-32.86615577539938 -14.433224136008992, -32.559780730219416 -14.618950488856697, -32.24063588406695 -14.812417970097618 C-31.90797527287562 -14.985966797876843, -31.575314661684292 -15.159515625656066, -31.27446106499849 -15.316470754341124 C-30.916086528169338 -15.475112530992467, -30.557711991340188 -15.633754307643809, -30.277976582949368 -15.757584874882365 C-29.984215286516452 -15.865691747469336, -29.690453990083533 -15.973798620056307, -29.255277206401566 -16.133947699181363 C-28.86381947236274 -16.25013029984051, -28.47236173832391 -16.366312900499654, -28.210565426461642 -16.444012671663494 C-27.941317107315403 -16.50546684349914, -27.672068788169163 -16.56692101533479, -27.148134187923336 -16.68650566884811 C-26.792657630291842 -16.743976361924094, -26.437181072660348 -16.801447055000075, -26.072349248636613 -16.86043023499518 C-25.732875029572778 -16.893178904630787, -25.393400810508943 -16.925927574266396, -24.98763123967212 -16.965071676755716 C-24.63826587960068 -16.97627514385479, -24.288900519529246 -16.987478610953858, -23.898437500000004 -17 C-23.898437500000004 -17, -23.8984375 -17, -23.8984375 -17" stroke="none" stroke-width="0" fill="#ECECFF" style=""/><path d="M-23.8984375 -17 C-13.506129493765876 -17, -3.1138214875317516 -17, 23.8984375 -17 M-23.8984375 -17 C-10.466066862710171 -17, 2.966303774579657 -17, 23.8984375 -17 M23.8984375 -17 C23.8984375 -17, 23.8984375 -17, 23.8984375 -17 M23.8984375 -17 C23.8984375 -17, 23.8984375 -17, 23.8984375 -17 M23.8984375 -17 C24.291914095746357 -16.987381971430146, 24.68539069149271 -16.974763942860292, 24.98763123967212 -16.965071676755716 M23.8984375 -17 C24.31839842487254 -16.98653267054369, 24.73835934974508 -16.973065341087377, 24.98763123967212 -16.965071676755716 M24.98763123967212 -16.965071676755716 C25.21592226853589 -16.94304871576136, 25.444213297399664 -16.921025754767005, 26.0723492486366 -16.860430234995185 M24.98763123967212 -16.965071676755716 C25.295646765404886 -16.935357789431144, 25.603662291137653 -16.905643902106572, 26.0723492486366 -16.860430234995185 M26.0723492486366 -16.860430234995185 C26.397276791065714 -16.80789846978597, 26.722204333494826 -16.75536670457676, 27.148134187923326 -16.686505668848113 M26.0723492486366 -16.860430234995185 C26.359711757835473 -16.813971693037452, 26.647074267034352 -16.767513151079722, 27.148134187923326 -16.686505668848113 M27.148134187923326 -16.686505668848113 C27.502293350211364 -16.605671151160387, 27.8564525124994 -16.52483663347266, 28.21056542646162 -16.4440126716635 M27.148134187923326 -16.686505668848113 C27.473308142584283 -16.61228683565511, 27.79848209724524 -16.538068002462108, 28.21056542646162 -16.4440126716635 M28.21056542646162 -16.4440126716635 C28.451197075916415 -16.37259446120662, 28.691828725371213 -16.30117625074974, 29.25527720640155 -16.133947699181366 M28.21056542646162 -16.4440126716635 C28.45684491708185 -16.370918211594844, 28.70312440770208 -16.297823751526185, 29.25527720640155 -16.133947699181366 M29.25527720640155 -16.133947699181366 C29.51409611255472 -16.038699949221257, 29.77291501870789 -15.94345219926115, 30.27797658294936 -15.757584874882369 M29.25527720640155 -16.133947699181366 C29.656780943362655 -15.986190612519822, 30.05828468032376 -15.838433525858276, 30.27797658294936 -15.757584874882369 M30.27797658294936 -15.757584874882369 C30.51804550534529 -15.651313484329249, 30.758114427741226 -15.545042093776129, 31.274461064998487 -15.316470754341125 M30.27797658294936 -15.757584874882369 C30.485361917422253 -15.66578153917859, 30.692747251895142 -15.573978203474812, 31.274461064998487 -15.316470754341125 M31.274461064998487 -15.316470754341125 C31.556572573801773 -15.169293360899498, 31.838684082605056 -15.02211596745787, 32.24063588406694 -14.812417970097622 M31.274461064998487 -15.316470754341125 C31.629940378994576 -15.131017423924735, 31.98541969299066 -14.945564093508343, 32.24063588406694 -14.812417970097622 M32.24063588406694 -14.812417970097622 C32.60959510243161 -14.588752723679917, 32.978554320796285 -14.365087477262213, 33.172530820579325 -14.247497783161291 M32.24063588406694 -14.812417970097622 C32.45699954695726 -14.681257046159491, 32.67336320984759 -14.55009612222136, 33.172530820579325 -14.247497783161291 M33.172530820579325 -14.247497783161291 C33.467881111943726 -14.041474205413536, 33.76323140330812 -13.83545062766578, 34.066316518350675 -13.624031571755262 M33.172530820579325 -14.247497783161291 C33.41647138863431 -14.07733540290313, 33.660411956689295 -13.907173022644965, 34.066316518350675 -13.624031571755262 M34.066316518350675 -13.624031571755262 C34.381532146345684 -13.37265549666939, 34.696747774340686 -13.121279421583516, 34.9183202202324 -12.944581292275288 M34.066316518350675 -13.624031571755262 C34.31019400128518 -13.429545768967369, 34.55407148421969 -13.235059966179474, 34.9183202202324 -12.944581292275288 M34.9183202202324 -12.944581292275288 C35.095021919570094 -12.784105484207561, 35.27172361890779 -12.623629676139837, 35.72504086025927 -12.21193895166137 M34.9183202202324 -12.944581292275288 C35.09838694003454 -12.781049461655318, 35.27845365983667 -12.61751763103535, 35.72504086025927 -12.21193895166137 M35.72504086025927 -12.21193895166137 C35.89829255524551 -12.033042352359379, 36.07154425023176 -11.854145753057388, 36.48316345028036 -11.42911513444239 M35.72504086025927 -12.21193895166137 C35.91361846424326 -12.017217093038678, 36.10219606822725 -11.822495234415985, 36.48316345028036 -11.42911513444239 M36.48316345028036 -11.42911513444239 C36.6294747402383 -11.257249567909545, 36.775786030196244 -11.0853840013767, 37.18957270195651 -10.59932663159847 M36.48316345028036 -11.42911513444239 C36.69904719708683 -11.175525801310325, 36.914930943893296 -10.92193646817826, 37.18957270195651 -10.59932663159847 M37.18957270195651 -10.59932663159847 C37.438187157262306 -10.266205910731514, 37.68680161256811 -9.933085189864558, 37.84136582814825 -9.725983222076888 M37.18957270195651 -10.59932663159847 C37.34921923318937 -10.38541482384463, 37.50886576442223 -10.17150301609079, 37.84136582814825 -9.725983222076888 M37.84136582814825 -9.725983222076888 C38.04578039580944 -9.411947553152137, 38.250194963470626 -9.097911884227388, 38.43586447109088 -8.812673661278927 M37.84136582814825 -9.725983222076888 C38.05064716501988 -9.404470888734375, 38.259928501891515 -9.082958555391864, 38.43586447109088 -8.812673661278927 M38.43586447109088 -8.812673661278927 C38.64377624155999 -8.443505259461324, 38.85168801202909 -8.07433685764372, 38.970625708341004 -7.863150934094199 M38.43586447109088 -8.812673661278927 C38.635611696503396 -8.458002235959144, 38.835358921915905 -8.10333081063936, 38.970625708341004 -7.863150934094199 M38.970625708341004 -7.863150934094199 C39.144743307648596 -7.501592013612169, 39.31886090695619 -7.140033093130138, 39.44345209126881 -6.881316833080699 M38.970625708341004 -7.863150934094199 C39.10797694329525 -7.577938155866074, 39.245328178249494 -7.29272537763795, 39.44345209126881 -6.881316833080699 M39.44345209126881 -6.881316833080699 C39.56001442491803 -6.593405615387708, 39.67657675856726 -6.3054943976947175, 39.852400674845924 -5.871205925162238 M39.44345209126881 -6.881316833080699 C39.58874851745364 -6.522431851288882, 39.73404494363846 -6.163546869497066, 39.852400674845924 -5.871205925162238 M39.852400674845924 -5.871205925162238 C39.96336889263292 -5.5369873335722755, 40.07433711041991 -5.202768741982313, 40.195791001623235 -4.836968972727556 M39.852400674845924 -5.871205925162238 C39.92252682137021 -5.659997144915204, 39.9926529678945 -5.448788364668169, 40.195791001623235 -4.836968972727556 M40.195791001623235 -4.836968972727556 C40.29243429044201 -4.468426226995229, 40.389077579260785 -4.099883481262901, 40.472212007091 -3.7828558772573464 M40.195791001623235 -4.836968972727556 C40.25376297732363 -4.615896704168726, 40.311734953024036 -4.394824435609896, 40.472212007091 -3.7828558772573464 M40.472212007091 -3.7828558772573464 C40.52654286796346 -3.503878389508812, 40.580873728835904 -3.2249009017602774, 40.68052781804565 -2.713198215567453 M40.472212007091 -3.7828558772573464 C40.54269889556816 -3.420920602336309, 40.61318578404531 -3.058985327415271, 40.68052781804565 -2.713198215567453 M40.68052781804565 -2.713198215567453 C40.72806412334607 -2.3445160187626115, 40.77560042864649 -1.9758338219577698, 40.819882420136366 -1.632391440430593 M40.68052781804565 -2.713198215567453 C40.73165867978022 -2.3166373488847904, 40.782789541514795 -1.9200764822021283, 40.819882420136366 -1.632391440430593 M40.819882420136366 -1.632391440430593 C40.83746210381253 -1.3585736771092083, 40.85504178748868 -1.0847559137878235, 40.8897031754117 -0.5448768187181379 M40.819882420136366 -1.632391440430593 C40.83888838001971 -1.3363582739128481, 40.857894339903055 -1.0403251073951032, 40.8897031754117 -0.5448768187181379 M40.8897031754117 -0.5448768187181379 C40.8897031754117 -0.20305410234192617, 40.8897031754117 0.13876861403428553, 40.8897031754117 0.5448768187181336 M40.8897031754117 -0.5448768187181379 C40.8897031754117 -0.13904073975367298, 40.8897031754117 0.2667953392107919, 40.8897031754117 0.5448768187181336 M40.8897031754117 0.5448768187181336 C40.86198530785748 0.9766049793349778, 40.834267440303265 1.408333139951822, 40.819882420136366 1.6323914404305815 M40.8897031754117 0.5448768187181336 C40.86335178217724 0.955321038806481, 40.83700038894279 1.3657652588948284, 40.819882420136366 1.6323914404305815 M40.819882420136366 1.6323914404305815 C40.76679585938095 2.044120322522474, 40.71370929862553 2.455849204614366, 40.680527818045654 2.7131982155674415 M40.819882420136366 1.6323914404305815 C40.769668701602825 2.021839125556486, 40.71945498306928 2.41128681068239, 40.680527818045654 2.7131982155674415 M40.680527818045654 2.7131982155674415 C40.636324312194844 2.940173875697095, 40.59212080634403 3.1671495358267485, 40.472212007091 3.782855877257343 M40.680527818045654 2.7131982155674415 C40.59740954222379 3.1399929948589094, 40.51429126640192 3.566787774150377, 40.472212007091 3.782855877257343 M40.472212007091 3.782855877257343 C40.393230854739734 4.0840452418206805, 40.31424970238847 4.385234606384018, 40.195791001623235 4.836968972727545 M40.472212007091 3.782855877257343 C40.36785385890873 4.180818725383864, 40.26349571072647 4.578781573510384, 40.195791001623235 4.836968972727545 M40.195791001623235 4.836968972727545 C40.12581067760437 5.047738558821913, 40.055830353585506 5.258508144916281, 39.852400674845924 5.871205925162227 M40.195791001623235 4.836968972727545 C40.09600813162187 5.137499078930341, 39.9962252616205 5.4380291851331375, 39.852400674845924 5.871205925162227 M39.852400674845924 5.871205925162227 C39.690020028917566 6.272289260021486, 39.527639382989214 6.673372594880744, 39.44345209126881 6.881316833080694 M39.852400674845924 5.871205925162227 C39.734770892489756 6.161753761799085, 39.617141110133595 6.452301598435943, 39.44345209126881 6.881316833080694 M39.44345209126881 6.881316833080694 C39.26595905805493 7.249884914291842, 39.088466024841054 7.618452995502989, 38.970625708341004 7.863150934094196 M39.44345209126881 6.881316833080694 C39.29382818199952 7.192014082117175, 39.14420427273023 7.502711331153654, 38.970625708341004 7.863150934094196 M38.970625708341004 7.863150934094196 C38.78863344808648 8.186296620890793, 38.60664118783196 8.50944230768739, 38.43586447109089 8.812673661278923 M38.970625708341004 7.863150934094196 C38.85228130388642 8.073283407873726, 38.73393689943184 8.283415881653255, 38.43586447109089 8.812673661278923 M38.43586447109089 8.812673661278923 C38.244931091792004 9.105998604673214, 38.05399771249313 9.399323548067505, 37.841365828148255 9.725983222076879 M38.43586447109089 8.812673661278923 C38.2927941323833 9.032468121299, 38.149723793675705 9.25226258131908, 37.841365828148255 9.725983222076879 M37.841365828148255 9.725983222076879 C37.59018701438783 10.062539949655172, 37.339008200627404 10.399096677233462, 37.18957270195651 10.599326631598467 M37.841365828148255 9.725983222076879 C37.5860304010714 10.068109432823926, 37.33069497399454 10.41023564357097, 37.18957270195651 10.599326631598467 M37.18957270195651 10.599326631598467 C37.04428246891459 10.769992806577966, 36.898992235872676 10.940658981557464, 36.48316345028037 11.42911513444238 M37.18957270195651 10.599326631598467 C36.994492518416685 10.828478915561249, 36.79941233487686 11.05763119952403, 36.48316345028037 11.42911513444238 M36.48316345028037 11.42911513444238 C36.25123892392586 11.668596249261144, 36.01931439757136 11.908077364079906, 35.72504086025927 12.211938951661365 M36.48316345028037 11.42911513444238 C36.202455856368466 11.71896877167849, 35.92174826245655 12.0088224089146, 35.72504086025927 12.211938951661365 M35.72504086025927 12.211938951661365 C35.5288023597712 12.39015756561843, 35.332563859283134 12.568376179575495, 34.91832022023242 12.944581292275275 M35.72504086025927 12.211938951661365 C35.54916494462586 12.3716648048179, 35.37328902899245 12.531390657974438, 34.91832022023242 12.944581292275275 M34.91832022023242 12.944581292275275 C34.68702773293748 13.12903089594141, 34.455735245642536 13.313480499607545, 34.066316518350675 13.62403157175526 M34.91832022023242 12.944581292275275 C34.71090020398208 13.109993235556473, 34.503480187731746 13.275405178837673, 34.066316518350675 13.62403157175526 M34.066316518350675 13.62403157175526 C33.76892936912328 13.83147597337409, 33.47154221989588 14.038920374992921, 33.17253082057934 14.247497783161286 M34.066316518350675 13.62403157175526 C33.75544908525599 13.840879235847826, 33.44458165216131 14.057726899940391, 33.17253082057934 14.247497783161286 M33.17253082057934 14.247497783161286 C32.81723663899488 14.462879203978156, 32.461942457410416 14.678260624795024, 32.24063588406695 14.81241797009762 M33.17253082057934 14.247497783161286 C32.801063659783566 14.47268335901903, 32.42959649898779 14.697868934876773, 32.24063588406695 14.81241797009762 M32.24063588406695 14.81241797009762 C32.01987576539892 14.927588382603123, 31.7991156467309 15.042758795108625, 31.27446106499849 15.316470754341124 M32.24063588406695 14.81241797009762 C31.87906979301452 15.001046768205537, 31.51750370196209 15.189675566313452, 31.27446106499849 15.316470754341124 M31.27446106499849 15.316470754341124 C31.04836471260322 15.416556902636513, 30.822268360207946 15.516643050931902, 30.277976582949368 15.757584874882367 M31.27446106499849 15.316470754341124 C31.07198827863281 15.406099450723403, 30.869515492267126 15.495728147105682, 30.277976582949368 15.757584874882367 M30.277976582949368 15.757584874882367 C29.93403032497912 15.884160277219774, 29.590084067008867 16.010735679557182, 29.255277206401562 16.133947699181363 M30.277976582949368 15.757584874882367 C30.0306225371731 15.848613450243768, 29.783268491396836 15.939642025605167, 29.255277206401562 16.133947699181363 M29.255277206401562 16.133947699181363 C28.865914923391735 16.24950838097435, 28.47655264038191 16.365069062767336, 28.210565426461642 16.444012671663497 M29.255277206401562 16.133947699181363 C28.927180442793148 16.231325096405286, 28.599083679184737 16.328702493629205, 28.210565426461642 16.444012671663497 M28.210565426461642 16.444012671663497 C27.8247925383946 16.532062815961442, 27.439019650327555 16.620112960259384, 27.148134187923333 16.68650566884811 M28.210565426461642 16.444012671663497 C27.90794696826447 16.51308335997701, 27.6053285100673 16.582154048290523, 27.148134187923333 16.68650566884811 M27.148134187923333 16.68650566884811 C26.73540780251241 16.753232070100424, 26.32268141710149 16.81995847135274, 26.072349248636613 16.86043023499518 M27.148134187923333 16.68650566884811 C26.87463049346631 16.730723625115093, 26.601126799009286 16.774941581382077, 26.072349248636613 16.86043023499518 M26.072349248636613 16.86043023499518 C25.84096396226924 16.88275169528952, 25.609578675901865 16.90507315558386, 24.98763123967212 16.965071676755716 M26.072349248636613 16.86043023499518 C25.8166810496909 16.885094238661477, 25.56101285074519 16.909758242327776, 24.98763123967212 16.965071676755716 M24.98763123967212 16.965071676755716 C24.710741719086645 16.973950984748136, 24.433852198501175 16.982830292740555, 23.898437500000004 17 M24.98763123967212 16.965071676755716 C24.56101209292161 16.978752522428213, 24.134392946171108 16.992433368100706, 23.898437500000004 17 M23.898437500000004 17 C23.898437500000004 17, 23.8984375 17, 23.8984375 17 M23.898437500000004 17 C23.898437500000004 17, 23.8984375 17, 23.8984375 17 M23.8984375 17 C7.43875096162618 17, -9.02093557674764 17, -23.898437499999996 17 M23.8984375 17 C11.416758430040877 17, -1.0649206399182454 17, -23.898437499999996 17 M-23.898437499999996 17 C-24.206349449480008 16.990125863094427, -24.514261398960016 16.980251726188854, -24.987631239672112 16.965071676755716 M-23.898437499999996 17 C-24.140582155497764 16.992234892204166, -24.382726810995532 16.984469784408333, -24.987631239672112 16.965071676755716 M-24.987631239672112 16.965071676755716 C-25.267598781471964 16.938063544708516, -25.54756632327182 16.911055412661316, -26.072349248636606 16.86043023499518 M-24.987631239672112 16.965071676755716 C-25.21201170328583 16.94342596328789, -25.43639216689955 16.921780249820063, -26.072349248636606 16.86043023499518 M-26.072349248636606 16.86043023499518 C-26.359302358687728 16.81403788151672, -26.646255468738847 16.76764552803826, -27.14813418792333 16.68650566884811 M-26.072349248636606 16.86043023499518 C-26.34327559133779 16.816628964972423, -26.61420193403897 16.77282769494966, -27.14813418792333 16.68650566884811 M-27.14813418792333 16.68650566884811 C-27.400167817236913 16.62898063763042, -27.652201446550496 16.571455606412727, -28.21056542646162 16.4440126716635 M-27.14813418792333 16.68650566884811 C-27.433827268849047 16.621298087448398, -27.719520349774765 16.556090506048687, -28.21056542646162 16.4440126716635 M-28.21056542646162 16.4440126716635 C-28.49006054583857 16.361059987332244, -28.769555665215517 16.278107303000983, -29.255277206401544 16.13394769918137 M-28.21056542646162 16.4440126716635 C-28.48721929724068 16.361903255002076, -28.763873168019746 16.27979383834065, -29.255277206401544 16.13394769918137 M-29.255277206401544 16.13394769918137 C-29.510134021586396 16.04015803532277, -29.76499083677125 15.94636837146417, -30.27797658294936 15.757584874882369 M-29.255277206401544 16.13394769918137 C-29.53976389341229 16.02925396859531, -29.824250580423033 15.924560238009247, -30.27797658294936 15.757584874882369 M-30.27797658294936 15.757584874882369 C-30.527393994327085 15.647175185570083, -30.776811405704805 15.536765496257798, -31.274461064998484 15.316470754341127 M-30.27797658294936 15.757584874882369 C-30.490513135762523 15.663501247624817, -30.703049688575682 15.569417620367265, -31.274461064998484 15.316470754341127 M-31.274461064998484 15.316470754341127 C-31.620033999973142 15.136185575514876, -31.965606934947804 14.955900396688625, -32.24063588406693 14.812417970097624 M-31.274461064998484 15.316470754341127 C-31.558719497605125 15.168173312126457, -31.84297793021177 15.019875869911788, -32.24063588406693 14.812417970097624 M-32.24063588406693 14.812417970097624 C-32.56350530417389 14.616692630237468, -32.88637472428085 14.420967290377313, -33.17253082057932 14.247497783161299 M-32.24063588406693 14.812417970097624 C-32.58763337036507 14.60206605472012, -32.934630856663205 14.391714139342618, -33.17253082057932 14.247497783161299 M-33.17253082057932 14.247497783161299 C-33.450984169150075 14.05326078124952, -33.72943751772083 13.859023779337742, -34.06631651835067 13.624031571755264 M-33.17253082057932 14.247497783161299 C-33.4099604941009 14.081877121077552, -33.64739016762249 13.916256458993805, -34.06631651835067 13.624031571755264 M-34.06631651835067 13.624031571755264 C-34.30937898861312 13.430195719884939, -34.55244145887557 13.236359868014615, -34.9183202202324 12.94458129227529 M-34.06631651835067 13.624031571755264 C-34.27426945443273 13.458194639089852, -34.482222390514806 13.292357706424442, -34.9183202202324 12.94458129227529 M-34.9183202202324 12.94458129227529 C-35.227826811339305 12.66349559532765, -35.537333402446215 12.38240989838001, -35.72504086025926 12.211938951661377 M-34.9183202202324 12.94458129227529 C-35.18497965881534 12.702408245576386, -35.45163909739828 12.46023519887748, -35.72504086025926 12.211938951661377 M-35.72504086025926 12.211938951661377 C-35.939571838470215 11.990418103337694, -36.15410281668117 11.76889725501401, -36.483163450280365 11.429115134442386 M-35.72504086025926 12.211938951661377 C-36.02719268100773 11.899942389612749, -36.329344501756204 11.58794582756412, -36.483163450280365 11.429115134442386 M-36.483163450280365 11.429115134442386 C-36.65892020345993 11.222661251315108, -36.834676956639484 11.01620736818783, -37.18957270195651 10.599326631598473 M-36.483163450280365 11.429115134442386 C-36.7365981670598 11.13141629526935, -36.99003288383924 10.833717456096315, -37.18957270195651 10.599326631598473 M-37.18957270195651 10.599326631598473 C-37.435468614577246 10.269848510265165, -37.681364527197985 9.940370388931857, -37.84136582814825 9.72598322207689 M-37.18957270195651 10.599326631598473 C-37.34575216848388 10.390060374693897, -37.50193163501125 10.180794117789322, -37.84136582814825 9.72598322207689 M-37.84136582814825 9.72598322207689 C-38.06923639666876 9.375912837014084, -38.29710696518926 9.025842451951279, -38.43586447109088 8.812673661278936 M-37.84136582814825 9.72598322207689 C-38.07610844782417 9.365355521035255, -38.31085106750008 9.00472781999362, -38.43586447109088 8.812673661278936 M-38.43586447109088 8.812673661278936 C-38.57879682703637 8.558882789827226, -38.72172918298187 8.305091918375517, -38.970625708341004 7.863150934094201 M-38.43586447109088 8.812673661278936 C-38.59516850684281 8.529813214518548, -38.75447254259474 8.246952767758161, -38.970625708341004 7.863150934094201 M-38.970625708341004 7.863150934094201 C-39.1275588957377 7.537275812632667, -39.284492083134396 7.211400691171134, -39.44345209126881 6.881316833080701 M-38.970625708341004 7.863150934094201 C-39.08835190830252 7.618689960936956, -39.20607810826404 7.374228987779711, -39.44345209126881 6.881316833080701 M-39.44345209126881 6.881316833080701 C-39.58377426661973 6.5347183470192345, -39.724096441970644 6.188119860957767, -39.852400674845924 5.87120592516224 M-39.44345209126881 6.881316833080701 C-39.55436451586705 6.60736099997719, -39.6652769404653 6.333405166873679, -39.852400674845924 5.87120592516224 M-39.852400674845924 5.87120592516224 C-39.936108794317434 5.6190904063916784, -40.019816913788944 5.366974887621117, -40.195791001623235 4.8369689727275516 M-39.852400674845924 5.87120592516224 C-39.98927587777402 5.4589596220448025, -40.12615108070212 5.046713318927365, -40.195791001623235 4.8369689727275516 M-40.195791001623235 4.8369689727275516 C-40.30204840312178 4.431763448564484, -40.40830580462032 4.026557924401417, -40.472212007091 3.782855877257349 M-40.195791001623235 4.8369689727275516 C-40.28411076666924 4.500167430578845, -40.37243053171524 4.163365888430138, -40.472212007091 3.782855877257349 M-40.472212007091 3.782855877257349 C-40.536886461975165 3.4507662203780307, -40.601560916859334 3.118676563498712, -40.68052781804565 2.713198215567455 M-40.472212007091 3.782855877257349 C-40.54337993901135 3.41742358819407, -40.61454787093171 3.0519912991307914, -40.68052781804565 2.713198215567455 M-40.68052781804565 2.713198215567455 C-40.71933193345235 2.4122411592123543, -40.75813604885906 2.111284102857253, -40.819882420136366 1.6323914404306026 M-40.68052781804565 2.713198215567455 C-40.72378463902407 2.3777068540843014, -40.76704146000249 2.0422154926011475, -40.819882420136366 1.6323914404306026 M-40.819882420136366 1.6323914404306026 C-40.83667581669453 1.3708207336515275, -40.85346921325269 1.109250026872452, -40.8897031754117 0.54487681871814 M-40.819882420136366 1.6323914404306026 C-40.83879235425173 1.3378539527597864, -40.857702288367086 1.04331646508897, -40.8897031754117 0.54487681871814 M-40.8897031754117 0.54487681871814 C-40.8897031754117 0.15569737298364883, -40.8897031754117 -0.23348207275084232, -40.8897031754117 -0.5448768187181317 M-40.8897031754117 0.54487681871814 C-40.8897031754117 0.30404086786310847, -40.8897031754117 0.06320491700807701, -40.8897031754117 -0.5448768187181317 M-40.8897031754117 -0.5448768187181317 C-40.86696675513433 -0.899014917046204, -40.84423033485697 -1.2531530153742763, -40.819882420136366 -1.6323914404305793 M-40.8897031754117 -0.5448768187181317 C-40.869985140189485 -0.8520011334156676, -40.850267104967266 -1.1591254481132036, -40.819882420136366 -1.6323914404305793 M-40.819882420136366 -1.6323914404305793 C-40.76457779641822 -2.061323180855302, -40.70927317270008 -2.4902549212800245, -40.680527818045654 -2.713198215567447 M-40.819882420136366 -1.6323914404305793 C-40.776778150238535 -1.9666996458573351, -40.7336738803407 -2.301007851284091, -40.680527818045654 -2.713198215567447 M-40.680527818045654 -2.713198215567447 C-40.6256735432299 -2.9948633232912583, -40.57081926841414 -3.2765284310150697, -40.472212007091 -3.782855877257341 M-40.680527818045654 -2.713198215567447 C-40.624644715497794 -3.000146136252804, -40.568761612949935 -3.2870940569381615, -40.472212007091 -3.782855877257341 M-40.472212007091 -3.782855877257341 C-40.37833197690106 -4.1408611202340575, -40.284451946711116 -4.498866363210774, -40.195791001623235 -4.836968972727544 M-40.472212007091 -3.782855877257341 C-40.409966093667556 -4.020226522690478, -40.34772018024411 -4.257597168123613, -40.195791001623235 -4.836968972727544 M-40.195791001623235 -4.836968972727544 C-40.09251254274704 -5.148027235674889, -39.98923408387084 -5.459085498622235, -39.85240067484593 -5.871205925162218 M-40.195791001623235 -4.836968972727544 C-40.08337663627691 -5.17554313035388, -39.97096227093059 -5.514117287980216, -39.85240067484593 -5.871205925162218 M-39.85240067484593 -5.871205925162218 C-39.749356660473886 -6.125726632881654, -39.64631264610184 -6.380247340601091, -39.44345209126881 -6.881316833080692 M-39.85240067484593 -5.871205925162218 C-39.75461374292291 -6.1127415375937915, -39.65682681099989 -6.354277150025366, -39.44345209126881 -6.881316833080692 M-39.44345209126881 -6.881316833080692 C-39.276144964810904 -7.228733660969568, -39.108837838353 -7.576150488858444, -38.970625708341004 -7.863150934094194 M-39.44345209126881 -6.881316833080692 C-39.2906524194743 -7.198608620951225, -39.137852747679794 -7.515900408821756, -38.970625708341004 -7.863150934094194 M-38.970625708341004 -7.863150934094194 C-38.85067632440034 -8.076133211473055, -38.730726940459675 -8.289115488851916, -38.43586447109088 -8.812673661278929 M-38.970625708341004 -7.863150934094194 C-38.77029069757921 -8.218866031821339, -38.56995568681743 -8.574581129548484, -38.43586447109088 -8.812673661278929 M-38.43586447109088 -8.812673661278929 C-38.28015328277953 -9.05188786083378, -38.12444209446818 -9.29110206038863, -37.84136582814825 -9.725983222076884 M-38.43586447109088 -8.812673661278929 C-38.2524194820955 -9.094494426252696, -38.068974493100114 -9.376315191226464, -37.84136582814825 -9.725983222076884 M-37.84136582814825 -9.725983222076884 C-37.59663148076166 -10.053904951817199, -37.351897133375076 -10.381826681557511, -37.18957270195651 -10.599326631598467 M-37.84136582814825 -9.725983222076884 C-37.606577659564515 -10.040577978336898, -37.37178949098079 -10.355172734596913, -37.18957270195651 -10.599326631598467 M-37.18957270195651 -10.599326631598467 C-37.03302324565203 -10.78321853089012, -36.87647378934756 -10.967110430181773, -36.48316345028037 -11.42911513444238 M-37.18957270195651 -10.599326631598467 C-36.976188092485984 -10.849980335810788, -36.76280348301547 -11.100634040023108, -36.48316345028037 -11.42911513444238 M-36.48316345028037 -11.42911513444238 C-36.31354436521072 -11.60426076576267, -36.14392528014106 -11.779406397082958, -35.72504086025928 -12.21193895166136 M-36.48316345028037 -11.42911513444238 C-36.245463527587354 -11.674559820149513, -36.007763604894336 -11.920004505856646, -35.72504086025928 -12.21193895166136 M-35.72504086025928 -12.21193895166136 C-35.51772662459731 -12.400216255255465, -35.31041238893534 -12.588493558849569, -34.91832022023242 -12.944581292275274 M-35.72504086025928 -12.21193895166136 C-35.538500805269436 -12.381349694023742, -35.35196075027959 -12.550760436386124, -34.91832022023242 -12.944581292275274 M-34.91832022023242 -12.944581292275274 C-34.621471808198194 -13.181310001404563, -34.32462339616398 -13.418038710533851, -34.066316518350675 -13.624031571755259 M-34.91832022023242 -12.944581292275274 C-34.62790827314777 -13.176177091888803, -34.337496326063125 -13.407772891502335, -34.066316518350675 -13.624031571755259 M-34.066316518350675 -13.624031571755259 C-33.73142161685439 -13.857639757672441, -33.3965267153581 -14.091247943589623, -33.17253082057934 -14.247497783161284 M-34.066316518350675 -13.624031571755259 C-33.74345232966923 -13.849247653213968, -33.42058814098779 -14.074463734672678, -33.17253082057934 -14.247497783161284 M-33.17253082057934 -14.247497783161284 C-32.97448130159426 -14.367556565438202, -32.77643178260917 -14.48761534771512, -32.24063588406695 -14.812417970097618 M-33.17253082057934 -14.247497783161284 C-32.84968174125102 -14.443210792321898, -32.5268326619227 -14.63892380148251, -32.24063588406695 -14.812417970097618 M-32.24063588406695 -14.812417970097618 C-31.959961378549156 -14.958845679845648, -31.679286873031366 -15.105273389593679, -31.27446106499849 -15.316470754341124 M-32.24063588406695 -14.812417970097618 C-31.92784196408314 -14.9756023577991, -31.615048044099336 -15.138786745500585, -31.27446106499849 -15.316470754341124 M-31.27446106499849 -15.316470754341124 C-30.87735377169285 -15.49225837331821, -30.48024647838721 -15.668045992295298, -30.277976582949368 -15.757584874882365 M-31.27446106499849 -15.316470754341124 C-30.96708180866938 -15.452538433036347, -30.65970255234027 -15.58860611173157, -30.277976582949368 -15.757584874882365 M-30.277976582949368 -15.757584874882365 C-29.880077478639546 -15.904015423407381, -29.482178374329724 -16.050445971932398, -29.255277206401566 -16.133947699181363 M-30.277976582949368 -15.757584874882365 C-29.99843396993565 -15.860459140535001, -29.718891356921937 -15.963333406187637, -29.255277206401566 -16.133947699181363 M-29.255277206401566 -16.133947699181363 C-28.917283612446568 -16.234262423702628, -28.579290018491573 -16.33457714822389, -28.210565426461642 -16.444012671663494 M-29.255277206401566 -16.133947699181363 C-29.01116084884704 -16.206400152710636, -28.767044491292516 -16.27885260623991, -28.210565426461642 -16.444012671663494 M-28.210565426461642 -16.444012671663494 C-27.885346810007874 -16.51824169861926, -27.560128193554107 -16.592470725575026, -27.148134187923336 -16.68650566884811 M-28.210565426461642 -16.444012671663494 C-27.794003981608927 -16.53909010313366, -27.377442536756213 -16.634167534603826, -27.148134187923336 -16.68650566884811 M-27.148134187923336 -16.68650566884811 C-26.893313390264936 -16.72770311924872, -26.638492592606532 -16.76890056964933, -26.072349248636613 -16.86043023499518 M-27.148134187923336 -16.68650566884811 C-26.919847639274725 -16.723413267644993, -26.691561090626113 -16.760320866441873, -26.072349248636613 -16.86043023499518 M-26.072349248636613 -16.86043023499518 C-25.78753542516532 -16.88790588200672, -25.50272160169403 -16.91538152901826, -24.98763123967212 -16.965071676755716 M-26.072349248636613 -16.86043023499518 C-25.774812498899337 -16.889133247402043, -25.47727574916206 -16.9178362598089, -24.98763123967212 -16.965071676755716 M-24.98763123967212 -16.965071676755716 C-24.595662973761925 -16.97764133612351, -24.203694707851728 -16.990210995491307, -23.898437500000004 -17 M-24.98763123967212 -16.965071676755716 C-24.696483202692285 -16.974408227616383, -24.405335165712447 -16.983744778477053, -23.898437500000004 -17 M-23.898437500000004 -17 C-23.898437500000004 -17, -23.8984375 -17, -23.8984375 -17 M-23.898437500000004 -17 C-23.898437500000004 -17, -23.8984375 -17, -23.8984375 -17" stroke="#9370DB" stroke-width="1.3" fill="none" stroke-dasharray="0 0" style=""/></g><g class="label" style="" transform="translate(0, -9.5)"><rect/><g><rect class="background" style="stroke: none"/><text y="-10.1" style=""><tspan class="text-outer-tspan row" x="0" y="-0.1em" dy="1.1em"><tspan font-style="normal" class="text-inner-tspan" font-weight="normal">Internet</tspan></tspan></text></g></g></g><g class="node default" id="my-svg-flowchart-Ingress-1" data-look="classic" transform="translate(403.22265625, 142.9000015258789)"><rect class="basic label-container" style="" x="-98.2890625" y="-50.900001525878906" width="196.578125" height="101.80000305175781"/><g class="label" style="" transform="translate(0, -35.900001525878906)"><rect/><g><rect class="background" style="stroke: none"/><text y="-10.1" style=""><tspan class="text-outer-tspan row" x="0" y="-0.1em" dy="1.1em"><tspan font-style="normal" class="text-inner-tspan" font-weight="normal">Ingress</tspan><tspan font-style="normal" class="text-inner-tspan" font-weight="normal"> controller</tspan></tspan><tspan class="text-outer-tspan row" x="0" y="1em" dy="1.1em"><tspan font-style="normal" class="text-inner-tspan" font-weight="normal">nginx-ingress</tspan><tspan font-style="normal" class="text-inner-tspan" font-weight="normal"> ·</tspan><tspan font-style="normal" class="text-inner-tspan" font-weight="normal"> ALB</tspan></tspan><tspan class="text-outer-tspan row" x="0" y="2.1em" dy="1.1em"><tspan font-style="normal" class="text-inner-tspan" font-weight="normal">controller</tspan></tspan><tspan class="text-outer-tspan row" x="0" y="3.2em" dy="1.1em"><tspan font-style="normal" class="text-inner-tspan" font-weight="normal">proxy-buffering</tspan><tspan font-style="normal" class="text-inner-tspan" font-weight="normal"> off</tspan></tspan></text></g></g></g><g class="node default" id="my-svg-flowchart-SvcAI-3" data-look="classic" transform="translate(403.22265625, 268.3000030517578)"><rect class="basic label-container" style="" x="-95.8515625" y="-24.5" width="191.703125" height="49"/><g class="label" style="" transform="translate(0, -9.5)"><rect/><g><rect class="background" style="stroke: none"/><text y="-10.1" style=""><tspan class="text-outer-tspan row" x="0" y="-0.1em" dy="1.1em"><tspan font-style="normal" class="text-inner-tspan" font-weight="normal">Service:</tspan><tspan font-style="normal" class="text-inner-tspan" font-weight="normal"> ai-service</tspan></tspan></text></g></g></g><g class="node default" id="my-svg-flowchart-Pod1-5" data-look="classic" transform="translate(239.9375, 390.3000030517578)"><rect class="basic label-container" style="" x="-116.6015625" y="-24.5" width="233.203125" height="49"/><g class="label" style="" transform="translate(0, -9.5)"><rect/><g><rect class="background" style="stroke: none"/><text y="-10.1" style=""><tspan class="text-outer-tspan row" x="0" y="-0.1em" dy="1.1em"><tspan font-style="normal" class="text-inner-tspan" font-weight="normal">Pod:</tspan><tspan font-style="normal" class="text-inner-tspan" font-weight="normal"> ai-service</tspan><tspan font-style="normal" class="text-inner-tspan" font-weight="normal"> replica</tspan><tspan font-style="normal" class="text-inner-tspan" font-weight="normal"> 1</tspan></tspan></text></g></g></g><g class="node default" id="my-svg-flowchart-Pod2-7" data-look="classic" transform="translate(535.01953125, 390.3000030517578)"><rect class="basic label-container" style="" x="-116.6015625" y="-24.5" width="233.203125" height="49"/><g class="label" style="" transform="translate(0, -9.5)"><rect/><g><rect class="background" style="stroke: none"/><text y="-10.1" style=""><tspan class="text-outer-tspan row" x="0" y="-0.1em" dy="1.1em"><tspan font-style="normal" class="text-inner-tspan" font-weight="normal">Pod:</tspan><tspan font-style="normal" class="text-inner-tspan" font-weight="normal"> ai-service</tspan><tspan font-style="normal" class="text-inner-tspan" font-weight="normal"> replica</tspan><tspan font-style="normal" class="text-inner-tspan" font-weight="normal"> 2</tspan></tspan></text></g></g></g><g class="node default" id="my-svg-flowchart-PodN-9" data-look="classic" transform="translate(830.5546875, 390.3000030517578)"><rect class="basic label-container" style="" x="-117.5078125" y="-24.5" width="235.015625" height="49"/><g class="label" style="" transform="translate(0, -9.5)"><rect/><g><rect class="background" style="stroke: none"/><text y="-10.1" style=""><tspan class="text-outer-tspan row" x="0" y="-0.1em" dy="1.1em"><tspan font-style="normal" class="text-inner-tspan" font-weight="normal">Pod:</tspan><tspan font-style="normal" class="text-inner-tspan" font-weight="normal"> ai-service</tspan><tspan font-style="normal" class="text-inner-tspan" font-weight="normal"> replica</tspan><tspan font-style="normal" class="text-inner-tspan" font-weight="normal"> N</tspan></tspan></text></g></g></g><g class="node default" id="my-svg-flowchart-SvcDB-11" data-look="classic" transform="translate(101.4921875, 500.5546875)"><rect class="basic label-container" style="" x="-93.4921875" y="-33.29999923706055" width="186.984375" height="66.5999984741211"/><g class="label" style="" transform="translate(0, -18.299999237060547)"><rect/><g><rect class="background" style="stroke: none"/><text y="-10.1" style=""><tspan class="text-outer-tspan row" x="0" y="-0.1em" dy="1.1em"><tspan font-style="normal" class="text-inner-tspan" font-weight="normal">Service:</tspan><tspan font-style="normal" class="text-inner-tspan" font-weight="normal"> database</tspan></tspan><tspan class="text-outer-tspan row" x="0" y="1em" dy="1.1em"><tspan font-style="normal" class="text-inner-tspan" font-weight="normal">or</tspan><tspan font-style="normal" class="text-inner-tspan" font-weight="normal"> external</tspan><tspan font-style="normal" class="text-inner-tspan" font-weight="normal"> RDS</tspan></tspan></text></g></g></g><g class="node default" id="my-svg-flowchart-SvcRedis-17" data-look="classic" transform="translate(525.47265625, 500.5546875)"><rect class="basic label-container" style="" x="-113.3984375" y="-33.29999923706055" width="226.796875" height="66.5999984741211"/><g class="label" style="" transform="translate(0, -18.299999237060547)"><rect/><g><rect class="background" style="stroke: none"/><text y="-10.1" style=""><tspan class="text-outer-tspan row" x="0" y="-0.1em" dy="1.1em"><tspan font-style="normal" class="text-inner-tspan" font-weight="normal">Service:</tspan><tspan font-style="normal" class="text-inner-tspan" font-weight="normal"> redis</tspan></tspan><tspan class="text-outer-tspan row" x="0" y="1em" dy="1.1em"><tspan font-style="normal" class="text-inner-tspan" font-weight="normal">or</tspan><tspan font-style="normal" class="text-inner-tspan" font-weight="normal"> external</tspan><tspan font-style="normal" class="text-inner-tspan" font-weight="normal"> ElastiCache</tspan></tspan></text></g></g></g><g class="node default" id="my-svg-flowchart-S3-23" data-look="classic" transform="translate(943.51953125, 500.5546875)"><path d="M0,12.503124218945262 a62.53125,12.503124218945262 0,0,0 125.0625,0 a62.53125,12.503124218945262 0,0,0 -125.0625,0 l0,46.50312421894526 a62.53125,12.503124218945262 0,0,0 125.0625,0 l0,-46.50312421894526" class="basic label-container outer-path" style="" transform="translate(-62.53125, -35.75468632841789)"/><g class="label" style="" transform="translate(0, -0.5)"><rect/><g><rect class="background" style="stroke: none"/><text y="-10.1" style=""><tspan class="text-outer-tspan row" x="0" y="-0.1em" dy="1.1em"><tspan font-style="normal" class="text-inner-tspan" font-weight="normal">S3</tspan><tspan font-style="normal" class="text-inner-tspan" font-weight="normal"> /</tspan><tspan font-style="normal" class="text-inner-tspan" font-weight="normal"> Azure</tspan><tspan font-style="normal" class="text-inner-tspan" font-weight="normal"> Blob</tspan></tspan></text></g></g></g><g class="node default" id="my-svg-flowchart-HPA-28" data-look="classic" transform="translate(666.81640625, 268.3000030517578)"><rect class="basic label-container" style="" x="-117.7421875" y="-24.5" width="235.484375" height="49"/><g class="label" style="" transform="translate(0, -9.5)"><rect/><g><rect class="background" style="stroke: none"/><text y="-10.1" style=""><tspan class="text-outer-tspan row" x="0" y="-0.1em" dy="1.1em"><tspan font-style="normal" class="text-inner-tspan" font-weight="normal">HorizontalPodAutoscaler</tspan></tspan></text></g></g></g></g></g></g><defs><filter id="my-svg-drop-shadow" height="130%" width="130%"><feDropShadow dx="4" dy="4" stdDeviation="0" flood-opacity="0.06" flood-color="#000000"/></filter></defs><defs><filter id="my-svg-drop-shadow-small" height="150%" width="150%"><feDropShadow dx="2" dy="2" stdDeviation="0" flood-opacity="0.06" flood-color="#000000"/></filter></defs></svg>