<svg id="my-svg" width="1466" xmlns="http://www.w3.org/2000/svg" xmlns:xlink="http://www.w3.org/1999/xlink" class="flowchart" style="max-width: 1465.69px; background-color: white;" viewBox="0 0 1465.69140625 606.7999877929688" role="graphics-document document" aria-roledescription="flowchart-v2"><style>#my-svg{font-family:"trebuchet ms",verdana,arial,sans-serif;font-size:16px;fill:#333;}@keyframes edge-animation-frame{from{stroke-dashoffset:0;}}@keyframes dash{to{stroke-dashoffset:0;}}#my-svg .edge-animation-slow{stroke-dasharray:9,5!important;stroke-dashoffset:900;animation:dash 50s linear infinite;stroke-linecap:round;}#my-svg .edge-animation-fast{stroke-dasharray:9,5!important;stroke-dashoffset:900;animation:dash 20s linear infinite;stroke-linecap:round;}#my-svg .error-icon{fill:#552222;}#my-svg .error-text{fill:#552222;stroke:#552222;}#my-svg .edge-thickness-normal{stroke-width:1px;}#my-svg .edge-thickness-thick{stroke-width:3.5px;}#my-svg .edge-pattern-solid{stroke-dasharray:0;}#my-svg .edge-thickness-invisible{stroke-width:0;fill:none;}#my-svg .edge-pattern-dashed{stroke-dasharray:3;}#my-svg .edge-pattern-dotted{stroke-dasharray:2;}#my-svg .marker{fill:#333333;stroke:#333333;}#my-svg .marker.cross{stroke:#333333;}#my-svg svg{font-family:"trebuchet ms",verdana,arial,sans-serif;font-size:16px;}#my-svg p{margin:0;}#my-svg .label{font-family:"trebuchet ms",verdana,arial,sans-serif;color:#333;}#my-svg .cluster-label text{fill:#333;}#my-svg .cluster-label span{color:#333;}#my-svg .cluster-label span p{background-color:transparent;}#my-svg .label text,#my-svg span{fill:#333;color:#333;}#my-svg .node rect,#my-svg .node circle,#my-svg .node ellipse,#my-svg .node polygon,#my-svg .node path{fill:#ECECFF;stroke:#9370DB;stroke-width:1px;}#my-svg .rough-node .label text,#my-svg .node .label text,#my-svg .image-shape .label,#my-svg .icon-shape .label{text-anchor:middle;}#my-svg .node .katex path{fill:#000;stroke:#000;stroke-width:1px;}#my-svg .rough-node .label,#my-svg .node .label,#my-svg .image-shape .label,#my-svg .icon-shape .label{text-align:center;}#my-svg .node.clickable{cursor:pointer;}#my-svg .root .anchor path{fill:#333333!important;stroke-width:0;stroke:#333333;}#my-svg .arrowheadPath{fill:#333333;}#my-svg .edgePath .path{stroke:#333333;stroke-width:1px;}#my-svg .flowchart-link{stroke:#333333;fill:none;}#my-svg .edgeLabel{background-color:rgba(232,232,232, 0.8);text-align:center;}#my-svg .edgeLabel p{background-color:rgba(232,232,232, 0.8);}#my-svg .edgeLabel rect{opacity:0.5;background-color:rgba(232,232,232, 0.8);fill:rgba(232,232,232, 0.8);}#my-svg .labelBkg{background-color:rgba(232, 232, 232, 0.5);}#my-svg .cluster rect{fill:#ffffde;stroke:#aaaa33;stroke-width:1px;}#my-svg .cluster text{fill:#333;}#my-svg .cluster span{color:#333;}#my-svg div.mermaidTooltip{position:absolute;text-align:center;max-width:200px;padding:2px;font-family:"trebuchet ms",verdana,arial,sans-serif;font-size:12px;background:hsl(80, 100%, 96.2745098039%);border:1px solid #aaaa33;border-radius:2px;pointer-events:none;z-index:100;}#my-svg .flowchartTitleText{text-anchor:middle;font-size:18px;fill:#333;}#my-svg rect.text{fill:none;stroke-width:0;}#my-svg .icon-shape,#my-svg .image-shape{background-color:rgba(232,232,232, 0.8);text-align:center;}#my-svg .icon-shape p,#my-svg .image-shape p{background-color:rgba(232,232,232, 0.8);padding:2px;}#my-svg .icon-shape .label rect,#my-svg .image-shape .label rect{opacity:0.5;background-color:rgba(232,232,232, 0.8);fill:rgba(232,232,232, 0.8);}#my-svg .label-icon{display:inline-block;height:1em;overflow:visible;vertical-align:-0.125em;}#my-svg .node .label-icon path{fill:currentColor;stroke:revert;stroke-width:revert;}#my-svg .node .neo-node{stroke:#9370DB;}#my-svg [data-look="neo"].node rect,#my-svg [data-look="neo"].cluster rect,#my-svg [data-look="neo"].node polygon{stroke:#9370DB;filter:drop-shadow(1px 2px 2px rgba(185, 185, 185, 1));}#my-svg [data-look="neo"].node path{stroke:#9370DB;stroke-width:1px;}#my-svg [data-look="neo"].node .outer-path{filter:drop-shadow(1px 2px 2px rgba(185, 185, 185, 1));}#my-svg [data-look="neo"].node .neo-line path{stroke:#9370DB;filter:none;}#my-svg [data-look="neo"].node circle{stroke:#9370DB;filter:drop-shadow(1px 2px 2px rgba(185, 185, 185, 1));}#my-svg [data-look="neo"].node circle .state-start{fill:#000000;}#my-svg [data-look="neo"].icon-shape .icon{fill:#9370DB;filter:drop-shadow(1px 2px 2px rgba(185, 185, 185, 1));}#my-svg [data-look="neo"].icon-shape .icon-neo path{stroke:#9370DB;filter:drop-shadow(1px 2px 2px rgba(185, 185, 185, 1));}#my-svg :root{--mermaid-font-family:"trebuchet ms",verdana,arial,sans-serif;}</style><g><marker id="my-svg_flowchart-v2-pointEnd" class="marker flowchart-v2" viewBox="0 0 10 10" refX="5" refY="5" markerUnits="userSpaceOnUse" markerWidth="8" markerHeight="8" orient="auto"><path d="M 0 0 L 10 5 L 0 10 z" class="arrowMarkerPath" style="stroke-width: 1; stroke-dasharray: 1, 0;"/></marker><marker id="my-svg_flowchart-v2-pointStart" class="marker flowchart-v2" viewBox="0 0 10 10" refX="4.5" refY="5" markerUnits="userSpaceOnUse" markerWidth="8" markerHeight="8" orient="auto"><path d="M 0 5 L 10 10 L 10 0 z" class="arrowMarkerPath" style="stroke-width: 1; stroke-dasharray: 1, 0;"/></marker><marker id="my-svg_flowchart-v2-pointEnd-margin" class="marker flowchart-v2" viewBox="0 0 11.5 14" refX="11.5" refY="7" markerUnits="userSpaceOnUse" markerWidth="10.5" markerHeight="14" orient="auto"><path d="M 0 0 L 11.5 7 L 0 14 z" class="arrowMarkerPath" style="stroke-width: 0; stroke-dasharray: 1, 0;"/></marker><marker id="my-svg_flowchart-v2-pointStart-margin" class="marker flowchart-v2" viewBox="0 0 11.5 14" refX="1" refY="7" markerUnits="userSpaceOnUse" markerWidth="11.5" markerHeight="14" orient="auto"><polygon points="0,7 11.5,14 11.5,0" class="arrowMarkerPath" style="stroke-width: 0; stroke-dasharray: 1, 0;"/></marker><marker id="my-svg_flowchart-v2-circleEnd" class="marker flowchart-v2" viewBox="0 0 10 10" refX="11" refY="5" markerUnits="userSpaceOnUse" markerWidth="11" markerHeight="11" orient="auto"><circle cx="5" cy="5" r="5" class="arrowMarkerPath" style="stroke-width: 1; stroke-dasharray: 1, 0;"/></marker><marker id="my-svg_flowchart-v2-circleStart" class="marker flowchart-v2" viewBox="0 0 10 10" refX="-1" refY="5" markerUnits="userSpaceOnUse" markerWidth="11" markerHeight="11" orient="auto"><circle cx="5" cy="5" r="5" class="arrowMarkerPath" style="stroke-width: 1; stroke-dasharray: 1, 0;"/></marker><marker id="my-svg_flowchart-v2-circleEnd-margin" class="marker flowchart-v2" viewBox="0 0 10 10" refY="5" refX="12.25" markerUnits="userSpaceOnUse" markerWidth="14" markerHeight="14" orient="auto"><circle cx="5" cy="5" r="5" class="arrowMarkerPath" style="stroke-width: 0; stroke-dasharray: 1, 0;"/></marker><marker id="my-svg_flowchart-v2-circleStart-margin" class="marker flowchart-v2" viewBox="0 0 10 10" refX="-2" refY="5" markerUnits="userSpaceOnUse" markerWidth="14" markerHeight="14" orient="auto"><circle cx="5" cy="5" r="5" class="arrowMarkerPath" style="stroke-width: 0; stroke-dasharray: 1, 0;"/></marker><marker id="my-svg_flowchart-v2-crossEnd" class="marker cross flowchart-v2" viewBox="0 0 11 11" refX="12" refY="5.2" markerUnits="userSpaceOnUse" markerWidth="11" markerHeight="11" orient="auto"><path d="M 1,1 l 9,9 M 10,1 l -9,9" class="arrowMarkerPath" style="stroke-width: 2; stroke-dasharray: 1, 0;"/></marker><marker id="my-svg_flowchart-v2-crossStart" class="marker cross flowchart-v2" viewBox="0 0 11 11" refX="-1" refY="5.2" markerUnits="userSpaceOnUse" markerWidth="11" markerHeight="11" orient="auto"><path d="M 1,1 l 9,9 M 10,1 l -9,9" class="arrowMarkerPath" style="stroke-width: 2; stroke-dasharray: 1, 0;"/></marker><marker id="my-svg_flowchart-v2-crossEnd-margin" class="marker cross flowchart-v2" viewBox="0 0 15 15" refX="17.7" refY="7.5" markerUnits="userSpaceOnUse" markerWidth="12" markerHeight="12" orient="auto"><path d="M 1,1 L 14,14 M 1,14 L 14,1" class="arrowMarkerPath" style="stroke-width: 2.5;"/></marker><marker id="my-svg_flowchart-v2-crossStart-margin" class="marker cross flowchart-v2" viewBox="0 0 15 15" refX="-3.5" refY="7.5" markerUnits="userSpaceOnUse" markerWidth="12" markerHeight="12" orient="auto"><path d="M 1,1 L 14,14 M 1,14 L 14,1" class="arrowMarkerPath" style="stroke-width: 2.5; stroke-dasharray: 1, 0;"/></marker><g class="root"><g class="clusters"><g class="cluster" id="my-svg-DataLayer" data-look="classic"><rect style="" x="8" y="429.4000015258789" width="859.86328125" height="169.4000015258789"/><g class="cluster-label" transform="translate(374.744140625, 429.4000015258789)"><g><rect class="background" style="stroke: none"/><text y="-10.1" style=""><tspan class="text-outer-tspan row" x="0" y="-0.1em" dy="1.1em"><tspan font-style="normal" class="text-inner-tspan" font-weight="normal">Shared</tspan><tspan font-style="normal" class="text-inner-tspan" font-weight="normal"> data</tspan><tspan font-style="normal" class="text-inner-tspan" font-weight="normal"> layer</tspan></tspan></text></g></g></g></g><g class="edgePaths"><path d="M624.992,42.5L624.909,48.5C624.826,54.5,624.659,66.5,624.576,77.917C624.492,89.333,624.492,100.167,624.492,105.583L624.492,111" id="my-svg-L_Browser_LB_0" class="edge-thickness-normal edge-pattern-solid edge-thickness-normal edge-pattern-solid flowchart-link" style=";" data-edge="true" data-et="edge" data-id="L_Browser_LB_0" data-points="W3sieCI6NjI0Ljk5MjE4NzUsInkiOjQyLjV9LHsieCI6NjI0LjQ5MjE4NzUsInkiOjc4LjV9LHsieCI6NjI0LjQ5MjE4NzUsInkiOjExNX1d" data-look="classic" marker-end="url(#my-svg_flowchart-v2-pointEnd)"/><path d="M518.93,215.842L495.385,225.019C471.841,234.195,424.753,252.547,401.208,267.14C377.664,281.733,377.664,292.567,377.664,297.983L377.664,303.4" id="my-svg-L_LB_AI1_0" class="edge-thickness-normal edge-pattern-solid edge-thickness-normal edge-pattern-solid flowchart-link" style=";" data-edge="true" data-et="edge" data-id="L_LB_AI1_0" data-points="W3sieCI6NTE4LjkyOTY4NzUsInkiOjIxNS44NDI0NDU4NTcyMjQ0fSx7IngiOjM3Ny42NjQwNjI1LCJ5IjoyNzAuOTAwMDAxNTI1ODc4OX0seyJ4IjozNzcuNjY0MDYyNSwieSI6MzA3LjQwMDAwMTUyNTg3ODl9XQ==" data-look="classic" marker-end="url(#my-svg_flowchart-v2-pointEnd)"/><path d="M624.492,234.4L624.492,240.483C624.492,246.567,624.492,258.733,624.492,270.233C624.492,281.733,624.492,292.567,624.492,297.983L624.492,303.4" id="my-svg-L_LB_AI2_0" class="edge-thickness-normal edge-pattern-solid edge-thickness-normal edge-pattern-solid flowchart-link" style=";" data-edge="true" data-et="edge" data-id="L_LB_AI2_0" data-points="W3sieCI6NjI0LjQ5MjE4NzUsInkiOjIzNC40MDAwMDE1MjU4Nzg5fSx7IngiOjYyNC40OTIxODc1LCJ5IjoyNzAuOTAwMDAxNTI1ODc4OX0seyJ4Ijo2MjQuNDkyMTg3NSwieSI6MzA3LjQwMDAwMTUyNTg3ODl9XQ==" data-look="classic" marker-end="url(#my-svg_flowchart-v2-pointEnd)"/><path d="M730.055,215.692L753.75,224.893C777.445,234.095,824.836,252.497,848.531,267.115C872.227,281.733,872.227,292.567,872.227,297.983L872.227,303.4" id="my-svg-L_LB_AIN_0" class="edge-thickness-normal edge-pattern-solid edge-thickness-normal edge-pattern-solid flowchart-link" style=";" data-edge="true" data-et="edge" data-id="L_LB_AIN_0" data-points="W3sieCI6NzMwLjA1NDY4NzUsInkiOjIxNS42OTE5NDA1MzkzMTQwM30seyJ4Ijo4NzIuMjI2NTYyNSwieSI6MjcwLjkwMDAwMTUyNTg3ODl9LHsieCI6ODcyLjIyNjU2MjUsInkiOjMwNy40MDAwMDE1MjU4Nzg5fV0=" data-look="classic" marker-end="url(#my-svg_flowchart-v2-pointEnd)"/><path d="M279.25,350.11L240.708,357.242C202.167,364.373,125.083,378.637,86.542,391.852C48,405.067,48,417.233,51.3,428.322C54.6,439.411,61.201,449.422,64.501,454.428L67.801,459.433" id="my-svg-L_AI1_DB_0" class="edge-thickness-normal edge-pattern-solid edge-thickness-normal edge-pattern-solid flowchart-link" style=";" data-edge="true" data-et="edge" data-id="L_AI1_DB_0" data-points="W3sieCI6Mjc5LjI1LCJ5IjozNTAuMTEwMjI5NzQxMTU0ODV9LHsieCI6NDgsInkiOjM5Mi45MDAwMDE1MjU4Nzg5fSx7IngiOjQ4LCJ5Ijo0MjkuNDAwMDAxNTI1ODc4OX0seyJ4Ijo3MC4wMDI5MzU5MDA5OTM4OSwieSI6NDYyLjc3MjY0NzM2ODYyNDF9XQ==" data-look="classic" marker-end="url(#my-svg_flowchart-v2-pointEnd)"/><path d="M315.984,356.4L300.669,362.483C285.354,368.567,254.724,380.733,239.409,392.9C224.094,405.067,224.094,417.233,229.375,429.552C234.656,441.871,245.219,454.342,250.5,460.578L255.781,466.813" id="my-svg-L_AI1_Cache_0" class="edge-thickness-normal edge-pattern-solid edge-thickness-normal edge-pattern-solid flowchart-link" style=";" data-edge="true" data-et="edge" data-id="L_AI1_Cache_0" data-points="W3sieCI6MzE1Ljk4NDE4Mjg4OTM0NDI1LCJ5IjozNTYuNDAwMDAxNTI1ODc4OX0seyJ4IjoyMjQuMDkzNzUsInkiOjM5Mi45MDAwMDE1MjU4Nzg5fSx7IngiOjIyNC4wOTM3NSwieSI6NDI5LjQwMDAwMTUyNTg3ODl9LHsieCI6MjU4LjM2NjMzNjQ2NDI1NjIsInkiOjQ2OS44NjU0ODI5MzA5NjExfV0=" data-look="classic" marker-end="url(#my-svg_flowchart-v2-pointEnd)"/><path d="M393.289,356.4L397.168,362.483C401.048,368.567,408.807,380.733,412.687,392.9C416.566,405.067,416.566,417.233,439.574,432.669C462.583,448.104,508.599,466.808,531.607,476.161L554.615,485.513" id="my-svg-L_AI1_Storage_0" class="edge-thickness-normal edge-pattern-solid edge-thickness-normal edge-pattern-solid flowchart-link" style=";" data-edge="true" data-et="edge" data-id="L_AI1_Storage_0" data-points="W3sieCI6MzkzLjI4ODc3NDMzNDAxNjQsInkiOjM1Ni40MDAwMDE1MjU4Nzg5fSx7IngiOjQxNi41NjY0MDYyNSwieSI6MzkyLjkwMDAwMTUyNTg3ODl9LHsieCI6NDE2LjU2NjQwNjI1LCJ5Ijo0MjkuNDAwMDAxNTI1ODc4OX0seyJ4Ijo1NTguMzIwMzEyNSwieSI6NDg3LjAxODg2NjA0MzM4NDA0fV0=" data-look="classic" marker-end="url(#my-svg_flowchart-v2-pointEnd)"/><path d="M526.078,345.531L469.081,353.426C412.083,361.321,298.089,377.11,241.091,391.089C184.094,405.067,184.094,417.233,179.885,428.645C175.677,440.057,167.26,450.713,163.052,456.042L158.843,461.37" id="my-svg-L_AI2_DB_0" class="edge-thickness-normal edge-pattern-solid edge-thickness-normal edge-pattern-solid flowchart-link" style=";" data-edge="true" data-et="edge" data-id="L_AI2_DB_0" data-points="W3sieCI6NTI2LjA3ODEyNSwieSI6MzQ1LjUzMTQyNTQ4NTAwNjh9LHsieCI6MTg0LjA5Mzc1LCJ5IjozOTIuOTAwMDAxNTI1ODc4OX0seyJ4IjoxODQuMDkzNzUsInkiOjQyOS40MDAwMDE1MjU4Nzg5fSx7IngiOjE1Ni4zNjM4MjcwMjAwNjU3LCJ5Ijo0NjQuNTA5MTA3MjAyODYzOTZ9XQ==" data-look="classic" marker-end="url(#my-svg_flowchart-v2-pointEnd)"/><path d="M526.078,356.114L501.16,362.245C476.241,368.376,426.404,380.638,401.485,392.852C376.566,405.067,376.566,417.233,371.234,429.562C365.902,441.89,355.237,454.379,349.904,460.624L344.572,466.869" id="my-svg-L_AI2_Cache_0" class="edge-thickness-normal edge-pattern-solid edge-thickness-normal edge-pattern-solid flowchart-link" style=";" data-edge="true" data-et="edge" data-id="L_AI2_Cache_0" data-points="W3sieCI6NTI2LjA3ODEyNSwieSI6MzU2LjExMzkzMjczNjM5MTF9LHsieCI6Mzc2LjU2NjQwNjI1LCJ5IjozOTIuOTAwMDAxNTI1ODc4OX0seyJ4IjozNzYuNTY2NDA2MjUsInkiOjQyOS40MDAwMDE1MjU4Nzg5fSx7IngiOjM0MS45NzQ0ODgwNTc2NDU4MywieSI6NDY5LjkxMDkxNzgzOTQ3MzU0fV0=" data-look="classic" marker-end="url(#my-svg_flowchart-v2-pointEnd)"/><path d="M624.492,356.4L624.492,362.483C624.492,368.567,624.492,380.733,624.492,392.9C624.492,405.067,624.492,417.233,624.524,429.242C624.556,441.25,624.619,453.101,624.651,459.026L624.682,464.951" id="my-svg-L_AI2_Storage_0" class="edge-thickness-normal edge-pattern-solid edge-thickness-normal edge-pattern-solid flowchart-link" style=";" data-edge="true" data-et="edge" data-id="L_AI2_Storage_0" data-points="W3sieCI6NjI0LjQ5MjE4NzUsInkiOjM1Ni40MDAwMDE1MjU4Nzg5fSx7IngiOjYyNC40OTIxODc1LCJ5IjozOTIuOTAwMDAxNTI1ODc4OX0seyJ4Ijo2MjQuNDkyMTg3NSwieSI6NDI5LjQwMDAwMTUyNTg3ODl9LHsieCI6NjI0LjcwMzc3NjEwNDAzMzQsInkiOjQ2OC45NTExMDQwNTQ1NDUzNH1d" data-look="classic" marker-end="url(#my-svg_flowchart-v2-pointEnd)"/><path d="M772.906,340.968L678.104,349.623C583.302,358.279,393.698,375.589,298.896,390.328C204.094,405.067,204.094,417.233,198.699,429.341C193.304,441.448,182.514,453.497,177.119,459.521L171.724,465.545" id="my-svg-L_AIN_DB_0" class="edge-thickness-normal edge-pattern-solid edge-thickness-normal edge-pattern-solid flowchart-link" style=";" data-edge="true" data-et="edge" data-id="L_AIN_DB_0" data-points="W3sieCI6NzcyLjkwNjI1LCJ5IjozNDAuOTY3ODY3ODk3ODgxMX0seyJ4IjoyMDQuMDkzNzUsInkiOjM5Mi45MDAwMDE1MjU4Nzg5fSx7IngiOjIwNC4wOTM3NSwieSI6NDI5LjQwMDAwMTUyNTg3ODl9LHsieCI6MTY5LjA1NTIwOTQxMTg0NjY1LCJ5Ijo0NjguNTI0NjQ1MDAwNTcxMn1d" data-look="classic" marker-end="url(#my-svg_flowchart-v2-pointEnd)"/><path d="M772.906,344.637L710.183,352.681C647.46,360.725,522.013,376.812,459.29,390.94C396.566,405.067,396.566,417.233,389.775,429.867C382.984,442.501,369.402,455.602,362.611,462.153L355.82,468.704" id="my-svg-L_AIN_Cache_0" class="edge-thickness-normal edge-pattern-solid edge-thickness-normal edge-pattern-solid flowchart-link" style=";" data-edge="true" data-et="edge" data-id="L_AIN_Cache_0" data-points="W3sieCI6NzcyLjkwNjI1LCJ5IjozNDQuNjM3MTE4NTI2MTAwNjZ9LHsieCI6Mzk2LjU2NjQwNjI1LCJ5IjozOTIuOTAwMDAxNTI1ODc4OX0seyJ4IjozOTYuNTY2NDA2MjUsInkiOjQyOS40MDAwMDE1MjU4Nzg5fSx7IngiOjM1Mi45NDE0NTc5NTg5NjQwNywieSI6NDcxLjQ4MDYzNzY0NTMzODg1fV0=" data-look="classic" marker-end="url(#my-svg_flowchart-v2-pointEnd)"/><path d="M846.049,356.4L839.55,362.483C833.05,368.567,820.05,380.733,813.551,392.9C807.051,405.067,807.051,417.233,788.409,431.987C769.766,446.742,732.482,464.083,713.839,472.754L695.197,481.425" id="my-svg-L_AIN_Storage_0" class="edge-thickness-normal edge-pattern-solid edge-thickness-normal edge-pattern-solid flowchart-link" style=";" data-edge="true" data-et="edge" data-id="L_AIN_Storage_0" data-points="W3sieCI6ODQ2LjA0OTQwNDQ1Njk2NzIsInkiOjM1Ni40MDAwMDE1MjU4Nzg5fSx7IngiOjgwNy4wNTA3ODEyNSwieSI6MzkyLjkwMDAwMTUyNTg3ODl9LHsieCI6ODA3LjA1MDc4MTI1LCJ5Ijo0MjkuNDAwMDAxNTI1ODc4OX0seyJ4Ijo2OTEuNTcwMzEyNSwieSI6NDgzLjExMTcwOTY4MjUyN31d" data-look="classic" marker-end="url(#my-svg_flowchart-v2-pointEnd)"/><path d="M476.078,342.445L554.557,350.854C633.036,359.263,789.995,376.082,868.474,390.574C946.953,405.067,946.953,417.233,950.389,426.996C953.825,436.759,960.696,444.118,964.132,447.797L967.567,451.476" id="my-svg-L_AI1_LLM_0" class="edge-thickness-normal edge-pattern-solid edge-thickness-normal edge-pattern-solid flowchart-link" style=";" data-edge="true" data-et="edge" data-id="L_AI1_LLM_0" data-points="W3sieCI6NDc2LjA3ODEyNSwieSI6MzQyLjQ0NTE4NTM0ODkwMzh9LHsieCI6OTQ2Ljk1MzEyNSwieSI6MzkyLjkwMDAwMTUyNTg3ODl9LHsieCI6OTQ2Ljk1MzEyNSwieSI6NDI5LjQwMDAwMTUyNTg3ODl9LHsieCI6OTcwLjI5NzIzNDUxNTIyODUsInkiOjQ1NC40MDAwMDE1MjU4Nzg5fV0=" data-look="classic" marker-end="url(#my-svg_flowchart-v2-pointEnd)"/><path d="M722.906,349.43L763.581,356.675C804.255,363.92,885.604,378.41,926.279,391.738C966.953,405.067,966.953,417.233,969.479,426.937C972.004,436.64,977.055,443.88,979.58,447.5L982.105,451.119" id="my-svg-L_AI2_LLM_0" class="edge-thickness-normal edge-pattern-solid edge-thickness-normal edge-pattern-solid flowchart-link" style=";" data-edge="true" data-et="edge" data-id="L_AI2_LLM_0" data-points="W3sieCI6NzIyLjkwNjI1LCJ5IjozNDkuNDI5NzYwODUwNjE5NH0seyJ4Ijo5NjYuOTUzMTI1LCJ5IjozOTIuOTAwMDAxNTI1ODc4OX0seyJ4Ijo5NjYuOTUzMTI1LCJ5Ijo0MjkuNDAwMDAxNTI1ODc4OX0seyJ4Ijo5ODQuMzk0MDQ2ODQ3MDMyMywieSI6NDU0LjQwMDAwMTUyNTg3ODl9XQ==" data-look="classic" marker-end="url(#my-svg_flowchart-v2-pointEnd)"/><path d="M971.547,355.791L997.259,361.976C1022.971,368.16,1074.396,380.53,1100.108,392.798C1125.82,405.067,1125.82,417.233,1121.42,427.052C1117.02,436.87,1108.22,444.341,1103.82,448.076L1099.42,451.811" id="my-svg-L_AIN_LLM_0" class="edge-thickness-normal edge-pattern-solid edge-thickness-normal edge-pattern-solid flowchart-link" style=";" data-edge="true" data-et="edge" data-id="L_AIN_LLM_0" data-points="W3sieCI6OTcxLjU0Njg3NSwieSI6MzU1Ljc5MDcyODU3NDU1NDJ9LHsieCI6MTEyNS44MjAzMTI1LCJ5IjozOTIuOTAwMDAxNTI1ODc4OX0seyJ4IjoxMTI1LjgyMDMxMjUsInkiOjQyOS40MDAwMDE1MjU4Nzg5fSx7IngiOjEwOTYuMzcwMDkzMjQwNDgwOSwieSI6NDU0LjQwMDAwMTUyNTg3ODl9XQ==" data-look="classic" marker-end="url(#my-svg_flowchart-v2-pointEnd)"/><path d="M476.078,339.408L592.94,348.323C709.802,357.239,943.526,375.069,1060.388,390.068C1177.25,405.067,1177.25,417.233,1191.962,431.558C1206.673,445.882,1236.097,462.363,1250.808,470.604L1265.52,478.845" id="my-svg-L_AI1_Obs_0" class="edge-thickness-normal edge-pattern-dotted edge-thickness-normal edge-pattern-solid flowchart-link" style=";" data-edge="true" data-et="edge" data-id="L_AI1_Obs_0" data-points="W3sieCI6NDc2LjA3ODEyNSwieSI6MzM5LjQwNzk1OTc0NjQ0MjI2fSx7IngiOjExNzcuMjUsInkiOjM5Mi45MDAwMDE1MjU4Nzg5fSx7IngiOjExNzcuMjUsInkiOjQyOS40MDAwMDE1MjU4Nzg5fSx7IngiOjEyNjkuMDA5NjQwNjk2MTgxMywieSI6NDgwLjgwMDAwMzA1MTc1Nzh9XQ==" data-look="classic" marker-end="url(#my-svg_flowchart-v2-pointEnd)"/><path d="M722.906,341.836L807.202,350.347C891.497,358.857,1060.089,375.879,1144.384,390.473C1228.68,405.067,1228.68,417.233,1238.263,431.452C1247.846,445.67,1267.013,461.941,1276.597,470.076L1286.18,478.211" id="my-svg-L_AI2_Obs_0" class="edge-thickness-normal edge-pattern-dotted edge-thickness-normal edge-pattern-solid flowchart-link" style=";" data-edge="true" data-et="edge" data-id="L_AI2_Obs_0" data-points="W3sieCI6NzIyLjkwNjI1LCJ5IjozNDEuODM2MDg1NjI2NDI3Mn0seyJ4IjoxMjI4LjY3OTY4NzUsInkiOjM5Mi45MDAwMDE1MjU4Nzg5fSx7IngiOjEyMjguNjc5Njg3NSwieSI6NDI5LjQwMDAwMTUyNTg3ODl9LHsieCI6MTI4OS4yMjkzNDAwOTUwNywieSI6NDgwLjgwMDAwMzA1MTc1Nzh9XQ==" data-look="classic" marker-end="url(#my-svg_flowchart-v2-pointEnd)"/><path d="M971.547,344.895L1032.699,352.896C1093.85,360.896,1216.154,376.898,1277.305,390.982C1338.457,405.067,1338.457,417.233,1337.524,431.221C1336.591,445.209,1334.724,461.018,1333.791,468.923L1332.858,476.828" id="my-svg-L_AIN_Obs_0" class="edge-thickness-normal edge-pattern-dotted edge-thickness-normal edge-pattern-solid flowchart-link" style=";" data-edge="true" data-et="edge" data-id="L_AIN_Obs_0" data-points="W3sieCI6OTcxLjU0Njg3NSwieSI6MzQ0Ljg5NDczMTUzMzAwMDU0fSx7IngiOjEzMzguNDU3MDMxMjUsInkiOjM5Mi45MDAwMDE1MjU4Nzg5fSx7IngiOjEzMzguNDU3MDMxMjUsInkiOjQyOS40MDAwMDE1MjU4Nzg5fSx7IngiOjEzMzIuMzg4NTU0MTQ2OTQzMywieSI6NDgwLjgwMDAwMzA1MTc1Nzh9XQ==" data-look="classic" marker-end="url(#my-svg_flowchart-v2-pointEnd)"/></g><g class="edgeLabels"><g class="edgeLabel" transform="translate(624.4921875, 78.5)"><g class="label" data-id="L_Browser_LB_0" transform="translate(0, -10.5)"><g><rect class="background" style="" x="-49.1328125" y="-1" width="98.265625" height="23"/><text y="-10.1" text-anchor="middle" style=""><tspan class="text-outer-tspan row" x="0" y="-0.1em" dy="1.1em" text-anchor="middle"><tspan font-style="normal" class="text-inner-tspan" font-weight="normal">HTTPS</tspan><tspan font-style="normal" class="text-inner-tspan" font-weight="normal"> +</tspan><tspan font-style="normal" class="text-inner-tspan" font-weight="normal"> JWT</tspan></tspan></text></g></g></g><g class="edgeLabel" transform="translate(377.6640625, 270.9000015258789)"><g class="label" data-id="L_LB_AI1_0" transform="translate(0, -10.5)"><g><rect class="background" style="" x="-42.9765625" y="-1" width="85.953125" height="23"/><text y="-10.1" text-anchor="middle" style=""><tspan class="text-outer-tspan row" x="0" y="-0.1em" dy="1.1em" text-anchor="middle"><tspan font-style="normal" class="text-inner-tspan" font-weight="normal">HTTP</tspan><tspan font-style="normal" class="text-inner-tspan" font-weight="normal"> :8000</tspan></tspan></text></g></g></g><g class="edgeLabel" transform="translate(624.4921875, 270.9000015258789)"><g class="label" data-id="L_LB_AI2_0" transform="translate(0, -10.5)"><g><rect class="background" style="" x="-42.9765625" y="-1" width="85.953125" height="23"/><text y="-10.1" text-anchor="middle" style=""><tspan class="text-outer-tspan row" x="0" y="-0.1em" dy="1.1em" text-anchor="middle"><tspan font-style="normal" class="text-inner-tspan" font-weight="normal">HTTP</tspan><tspan font-style="normal" class="text-inner-tspan" font-weight="normal"> :8000</tspan></tspan></text></g></g></g><g class="edgeLabel" transform="translate(872.2265625, 270.9000015258789)"><g class="label" data-id="L_LB_AIN_0" transform="translate(0, -10.5)"><g><rect class="background" style="" x="-42.9765625" y="-1" width="85.953125" height="23"/><text y="-10.1" text-anchor="middle" style=""><tspan class="text-outer-tspan row" x="0" y="-0.1em" dy="1.1em" text-anchor="middle"><tspan font-style="normal" class="text-inner-tspan" font-weight="normal">HTTP</tspan><tspan font-style="normal" class="text-inner-tspan" font-weight="normal"> :8000</tspan></tspan></text></g></g></g><g class="edgeLabel"><g class="label" data-id="L_AI1_DB_0" transform="translate(0, 0)"><text y="-10.1" text-anchor="middle"><tspan class="text-outer-tspan row" x="0" y="-0.1em" dy="1.1em" text-anchor="middle"/></text></g></g><g><rect class="background" style="stroke: none"/></g><g class="edgeLabel"><g class="label" data-id="L_AI1_Cache_0" transform="translate(0, 0)"><text y="-10.1" text-anchor="middle"><tspan class="text-outer-tspan row" x="0" y="-0.1em" dy="1.1em" text-anchor="middle"/></text></g></g><g><rect class="background" style="stroke: none"/></g><g class="edgeLabel"><g class="label" data-id="L_AI1_Storage_0" transform="translate(0, 0)"><text y="-10.1" text-anchor="middle"><tspan class="text-outer-tspan row" x="0" y="-0.1em" dy="1.1em" text-anchor="middle"/></text></g></g><g><rect class="background" style="stroke: none"/></g><g class="edgeLabel"><g class="label" data-id="L_AI2_DB_0" transform="translate(0, 0)"><text y="-10.1" text-anchor="middle"><tspan class="text-outer-tspan row" x="0" y="-0.1em" dy="1.1em" text-anchor="middle"/></text></g></g><g><rect class="background" style="stroke: none"/></g><g class="edgeLabel"><g class="label" data-id="L_AI2_Cache_0" transform="translate(0, 0)"><text y="-10.1" text-anchor="middle"><tspan class="text-outer-tspan row" x="0" y="-0.1em" dy="1.1em" text-anchor="middle"/></text></g></g><g><rect class="background" style="stroke: none"/></g><g class="edgeLabel"><g class="label" data-id="L_AI2_Storage_0" transform="translate(0, 0)"><text y="-10.1" text-anchor="middle"><tspan class="text-outer-tspan row" x="0" y="-0.1em" dy="1.1em" text-anchor="middle"/></text></g></g><g><rect class="background" style="stroke: none"/></g><g class="edgeLabel"><g class="label" data-id="L_AIN_DB_0" transform="translate(0, 0)"><text y="-10.1" text-anchor="middle"><tspan class="text-outer-tspan row" x="0" y="-0.1em" dy="1.1em" text-anchor="middle"/></text></g></g><g><rect class="background" style="stroke: none"/></g><g class="edgeLabel"><g class="label" data-id="L_AIN_Cache_0" transform="translate(0, 0)"><text y="-10.1" text-anchor="middle"><tspan class="text-outer-tspan row" x="0" y="-0.1em" dy="1.1em" text-anchor="middle"/></text></g></g><g><rect class="background" style="stroke: none"/></g><g class="edgeLabel"><g class="label" data-id="L_AIN_Storage_0" transform="translate(0, 0)"><text y="-10.1" text-anchor="middle"><tspan class="text-outer-tspan row" x="0" y="-0.1em" dy="1.1em" text-anchor="middle"/></text></g></g><g><rect class="background" style="stroke: none"/></g><g class="edgeLabel"><g class="label" data-id="L_AI1_LLM_0" transform="translate(0, 0)"><text y="-10.1" text-anchor="middle"><tspan class="text-outer-tspan row" x="0" y="-0.1em" dy="1.1em" text-anchor="middle"/></text></g></g><g><rect class="background" style="stroke: none"/></g><g class="edgeLabel"><g class="label" data-id="L_AI2_LLM_0" transform="translate(0, 0)"><text y="-10.1" text-anchor="middle"><tspan class="text-outer-tspan row" x="0" y="-0.1em" dy="1.1em" text-anchor="middle"/></text></g></g><g><rect class="background" style="stroke: none"/></g><g class="edgeLabel"><g class="label" data-id="L_AIN_LLM_0" transform="translate(0, 0)"><text y="-10.1" text-anchor="middle"><tspan class="text-outer-tspan row" x="0" y="-0.1em" dy="1.1em" text-anchor="middle"/></text></g></g><g><rect class="background" style="stroke: none"/></g><g class="edgeLabel" transform="translate(1177.25, 392.9000015258789)"><g class="label" data-id="L_AI1_Obs_0" transform="translate(0, -10.5)"><g><rect class="background" style="" x="-31.4296875" y="-1" width="62.859375" height="23"/><text y="-10.1" text-anchor="middle" style=""><tspan class="text-outer-tspan row" x="0" y="-0.1em" dy="1.1em" text-anchor="middle"><tspan font-style="normal" class="text-inner-tspan" font-weight="normal">optional</tspan></tspan></text></g></g></g><g class="edgeLabel"><g class="label" data-id="L_AI2_Obs_0" transform="translate(0, 0)"><text y="-10.1" text-anchor="middle"><tspan class="text-outer-tspan row" x="0" y="-0.1em" dy="1.1em" text-anchor="middle"/></text></g></g><g><rect class="background" style="stroke: none"/></g><g class="edgeLabel"><g class="label" data-id="L_AIN_Obs_0" transform="translate(0, 0)"><text y="-10.1" text-anchor="middle"><tspan class="text-outer-tspan row" x="0" y="-0.1em" dy="1.1em" text-anchor="middle"/></text></g></g><g><rect class="background" style="stroke: none"/></g></g><g class="nodes"><g class="node default" id="my-svg-flowchart-Browser-0" data-look="classic" transform="translate(624.4921875, 25)"><g class="basic label-container outer-path"><path d="M-64.40625 -17 C-20.315114581917882 -17, 23.776020836164236 -17, 64.40625 -17 C64.40625 -17, 64.40625 -17, 64.40625 -17 C64.64964046177364 -16.99219494162171, 64.89303092354729 -16.984389883243427, 65.49544373967211 -16.965071676755716 C65.82762988275155 -16.93302607904513, 66.159816025831 -16.900980481334546, 66.5801617486366 -16.860430234995185 C66.8853317416389 -16.811092717155216, 67.19050173464117 -16.76175519931525, 67.65594668792333 -16.686505668848113 C68.04746875654894 -16.597143311604587, 68.43899082517456 -16.507780954361056, 68.71837792646163 -16.4440126716635 C69.0442841544902 -16.34728541390132, 69.37019038251877 -16.25055815613914, 69.76308970640156 -16.133947699181366 C70.10479767857532 -16.00819600670755, 70.44650565074909 -15.882444314233737, 70.78578908294936 -15.757584874882369 C70.99819738184107 -15.66355802183133, 71.21060568073277 -15.569531168780289, 71.78227356499849 -15.316470754341125 C72.11118332694116 -15.144878742212391, 72.44009308888383 -14.973286730083656, 72.74844838406693 -14.812417970097622 C73.03223599503947 -14.640384252604951, 73.31602360601202 -14.46835053511228, 73.68034332057933 -14.247497783161291 C73.93364489748605 -14.070805568359702, 74.18694647439276 -13.894113353558113, 74.57412901835067 -13.624031571755262 C74.83451621103423 -13.41637971478434, 75.09490340371777 -13.208727857813416, 75.4261327202324 -12.944581292275288 C75.62305234857652 -12.765744096021015, 75.81997197692064 -12.586906899766742, 76.23285336025927 -12.21193895166137 C76.53560471950772 -11.899323316888482, 76.83835607875618 -11.586707682115593, 76.99097595028036 -11.42911513444239 C77.19909884654767 -11.18464213795853, 77.40722174281497 -10.940169141474671, 77.69738520195651 -10.59932663159847 C77.94123153972536 -10.272594753846581, 78.18507787749421 -9.94586287609469, 78.34917832814824 -9.725983222076888 C78.58134760775455 -9.369308862420727, 78.81351688736088 -9.012634502764566, 78.94367697109088 -8.812673661278927 C79.08443705141909 -8.56273988515247, 79.2251971317473 -8.312806109026011, 79.478438208341 -7.863150934094199 C79.61844233217036 -7.5724293753541785, 79.75844645599972 -7.2817078166141584, 79.95126459126881 -6.881316833080699 C80.09242025631015 -6.532659611369459, 80.23357592135149 -6.18400238965822, 80.36021317484592 -5.871205925162238 C80.45035446787018 -5.599714712637809, 80.54049576089444 -5.3282235001133795, 80.70360350162323 -4.836968972727556 C80.80644821502932 -4.444777507329416, 80.90929292843539 -4.052586041931276, 80.980024507091 -3.7828558772573464 C81.02634418045098 -3.54501414422027, 81.07266385381097 -3.3071724111831937, 81.18834031804565 -2.713198215567453 C81.22249383473226 -2.4483102845207445, 81.25664735141889 -2.183422353474036, 81.32769492013637 -1.632391440430593 C81.34260088744868 -1.4002189676609997, 81.357506854761 -1.1680464948914064, 81.3975156754117 -0.5448768187181379 C81.3975156754117 -0.11976417108200066, 81.3975156754117 0.30534847655413655, 81.3975156754117 0.5448768187181336 C81.38191994901005 0.7877928460674054, 81.36632422260841 1.0307088734166772, 81.32769492013637 1.6323914404305815 C81.27498505276432 2.0411987630274937, 81.22227518539229 2.4500060856244064, 81.18834031804565 2.7131982155674415 C81.14580759504928 2.9315947588596063, 81.1032748720529 3.149991302151771, 80.980024507091 3.782855877257343 C80.92172044296271 4.005194542919741, 80.86341637883443 4.227533208582139, 80.70360350162323 4.836968972727545 C80.63421229409181 5.045964233824714, 80.56482108656039 5.254959494921882, 80.36021317484592 5.871205925162227 C80.24163120067077 6.164105694001371, 80.12304922649561 6.457005462840517, 79.95126459126881 6.881316833080694 C79.8493957374259 7.09284968772982, 79.74752688358296 7.304382542378945, 79.478438208341 7.863150934094196 C79.37083161785435 8.054217331852097, 79.2632250273677 8.245283729609998, 78.94367697109088 8.812673661278923 C78.712711415722 9.167498777261171, 78.48174586035313 9.52232389324342, 78.34917832814826 9.725983222076879 C78.092282414481 10.0702003426918, 77.83538650081375 10.414417463306721, 77.69738520195651 10.599326631598467 C77.44124168501496 10.90020738157702, 77.18509816807341 11.201088131555574, 76.99097595028037 11.42911513444238 C76.70520563629621 11.72419644581014, 76.41943532231204 12.019277757177901, 76.23285336025927 12.211938951661365 C75.9334614900148 12.483838726742588, 75.63406961977033 12.755738501823814, 75.42613272023242 12.944581292275275 C75.14051650483819 13.172352623485482, 74.85490028944395 13.400123954695689, 74.57412901835067 13.62403157175526 C74.3327369833615 13.792416205670934, 74.09134494837232 13.960800839586607, 73.68034332057934 14.247497783161286 C73.46953313918507 14.375292153980626, 73.25872295779081 14.503086524799967, 72.74844838406695 14.81241797009762 C72.4670279105386 14.95923485087894, 72.18560743701026 15.106051731660257, 71.78227356499849 15.316470754341124 C71.54949641839103 15.419514292055531, 71.31671927178355 15.52255782976994, 70.78578908294936 15.757584874882367 C70.42779314816113 15.889330688162584, 70.06979721337288 16.021076501442803, 69.76308970640156 16.133947699181363 C69.42323487632956 16.23481482881233, 69.08338004625755 16.335681958443296, 68.71837792646164 16.444012671663497 C68.4438370435987 16.506674836630275, 68.16929616073575 16.56933700159705, 67.65594668792333 16.68650566884811 C67.42532205594506 16.723791270825625, 67.19469742396677 16.76107687280314, 66.58016174863661 16.86043023499518 C66.18285115522072 16.898758310106114, 65.78554056180482 16.937086385217047, 65.49544373967211 16.965071676755716 C65.17264813589696 16.97542310348526, 64.84985253212183 16.9857745302148, 64.40625 17 C64.40625 17, 64.40625 17, 64.40625 17 C24.67445342178594 17, -15.057343156428118 17, -64.40625 17 C-64.72933816981747 16.989639191246926, -65.05242633963493 16.979278382493852, -65.49544373967211 16.965071676755716 C-65.88591509023193 16.927403375177715, -66.27638644079177 16.889735073599713, -66.5801617486366 16.86043023499518 C-66.97025905676159 16.79736232746734, -67.36035636488658 16.7342944199395, -67.65594668792333 16.68650566884811 C-67.8725251922852 16.637073038534336, -68.08910369664707 16.587640408220558, -68.71837792646161 16.4440126716635 C-69.1007074910601 16.330539263779507, -69.4830370556586 16.217065855895513, -69.76308970640154 16.13394769918137 C-70.12453700380752 16.00093175255378, -70.4859843012135 15.86791580592619, -70.78578908294936 15.757584874882369 C-71.16904046700913 15.587930855907493, -71.55229185106887 15.418276836932616, -71.78227356499849 15.316470754341127 C-72.03588068872736 15.184164080334892, -72.28948781245623 15.051857406328656, -72.74844838406693 14.812417970097624 C-73.09333772937993 14.60334402217412, -73.43822707469293 14.394270074250617, -73.68034332057931 14.247497783161299 C-73.9453277646034 14.062656106001793, -74.2103122086275 13.877814428842285, -74.57412901835067 13.624031571755264 C-74.78204934622335 13.458220643269103, -74.98996967409602 13.292409714782943, -75.4261327202324 12.94458129227529 C-75.64334197432828 12.747317594747347, -75.86055122842416 12.550053897219403, -76.23285336025926 12.211938951661377 C-76.51330760568429 11.922346917538253, -76.79376185110934 11.63275488341513, -76.99097595028036 11.429115134442386 C-77.20282478137437 11.18026544289938, -77.41467361246839 10.931415751356376, -77.69738520195651 10.599326631598473 C-77.82775063105557 10.424648833140647, -77.95811606015462 10.24997103468282, -78.34917832814824 9.72598322207689 C-78.57235412664029 9.383125264500071, -78.79552992513233 9.040267306923255, -78.94367697109088 8.812673661278936 C-79.08115770577466 8.568562695413927, -79.21863844045842 8.32445172954892, -79.478438208341 7.863150934094201 C-79.64291182047573 7.521617959324909, -79.80738543261045 7.1800849845556165, -79.95126459126881 6.881316833080701 C-80.09242744110936 6.532641864776511, -80.2335902909499 6.18396689647232, -80.36021317484592 5.87120592516224 C-80.45217845819349 5.594221144397418, -80.54414374154105 5.317236363632595, -80.70360350162323 4.8369689727275516 C-80.80944106037158 4.43336449093195, -80.91527861911995 4.029760009136349, -80.980024507091 3.782855877257349 C-81.0461955793501 3.443081406467976, -81.1123666516092 3.1033069356786025, -81.18834031804565 2.713198215567455 C-81.23290624855072 2.367553659108456, -81.2774721790558 2.021909102649456, -81.32769492013637 1.6323914404306026 C-81.34196892661909 1.4100622676916594, -81.3562429331018 1.1877330949527163, -81.3975156754117 0.54487681871814 C-81.3975156754117 0.238717331421949, -81.3975156754117 -0.06744215587424196, -81.3975156754117 -0.5448768187181317 C-81.37943648510846 -0.8264748009507178, -81.36135729480523 -1.108072783183304, -81.32769492013637 -1.6323914404305793 C-81.28745486307852 -1.944485376673137, -81.24721480602068 -2.2565793129156946, -81.18834031804565 -2.713198215567447 C-81.14272318233614 -2.9474325662507512, -81.09710604662662 -3.1816669169340552, -80.980024507091 -3.782855877257341 C-80.90802963385563 -4.057403531679243, -80.83603476062027 -4.331951186101144, -80.70360350162323 -4.836968972727544 C-80.62947670161863 -5.060227083839737, -80.55534990161402 -5.283485194951931, -80.36021317484594 -5.871205925162218 C-80.26449104199669 -6.107641443961384, -80.16876890914745 -6.344076962760551, -79.95126459126881 -6.881316833080692 C-79.79099778455551 -7.214114286381178, -79.63073097784222 -7.546911739681663, -79.478438208341 -7.863150934094194 C-79.36763673794594 -8.059890164646147, -79.25683526755088 -8.256629395198098, -78.94367697109088 -8.812673661278929 C-78.72686534112161 -9.145754546986247, -78.51005371115232 -9.478835432693565, -78.34917832814826 -9.725983222076884 C-78.17103256188678 -9.964682319454083, -77.9928867956253 -10.20338141683128, -77.69738520195651 -10.599326631598467 C-77.54592865881678 -10.777236105291836, -77.39447211567706 -10.955145578985205, -76.99097595028037 -11.42911513444238 C-76.78247283508706 -11.644411719303589, -76.57396971989375 -11.859708304164796, -76.23285336025927 -12.21193895166136 C-76.03828862273795 -12.388637498377363, -75.84372388521663 -12.56533604509337, -75.42613272023242 -12.944581292275274 C-75.10540553173843 -13.2003526901903, -74.78467834324444 -13.456124088105327, -74.57412901835067 -13.624031571755259 C-74.30783043239201 -13.809789937440039, -74.04153184643333 -13.995548303124817, -73.68034332057934 -14.247497783161284 C-73.45364647068118 -14.38492274578811, -73.22694962078303 -14.522347708414935, -72.74844838406695 -14.812417970097618 C-72.47147562161723 -14.956914482858112, -72.19450285916753 -15.101410995618606, -71.78227356499849 -15.316470754341124 C-71.55626753184181 -15.416516920988812, -71.33026149868513 -15.5165630876365, -70.78578908294936 -15.757584874882365 C-70.38206036081392 -15.906160776655604, -69.97833163867848 -16.054736678428842, -69.76308970640156 -16.133947699181363 C-69.519848310848 -16.206140468581516, -69.27660691529445 -16.278333237981673, -68.71837792646164 -16.444012671663494 C-68.41461543413557 -16.51334447830141, -68.1108529418095 -16.58267628493932, -67.65594668792333 -16.68650566884811 C-67.27274922338921 -16.748458063173267, -66.88955175885509 -16.81041045749842, -66.58016174863661 -16.86043023499518 C-66.16701089676582 -16.900286400788563, -65.75386004489502 -16.94014256658194, -65.49544373967213 -16.965071676755716 C-65.1165391432486 -16.977222409669963, -64.73763454682506 -16.98937314258421, -64.40625 -17 C-64.40625 -17, -64.40625 -17, -64.40625 -17" stroke="none" stroke-width="0" fill="#ECECFF" style=""/><path d="M-64.40625 -17 C-32.04646580723954 -17, 0.3133183855209154 -17, 64.40625 -17 M-64.40625 -17 C-17.22856180865395 -17, 29.9491263826921 -17, 64.40625 -17 M64.40625 -17 C64.40625 -17, 64.40625 -17, 64.40625 -17 M64.40625 -17 C64.40625 -17, 64.40625 -17, 64.40625 -17 M64.40625 -17 C64.6796098847467 -16.99123388055891, 64.95296976949341 -16.98246776111782, 65.49544373967211 -16.965071676755716 M64.40625 -17 C64.83752391516029 -16.98616988496456, 65.26879783032058 -16.97233976992912, 65.49544373967211 -16.965071676755716 M65.49544373967211 -16.965071676755716 C65.8641944305526 -16.92949874109407, 66.23294512143308 -16.893925805432417, 66.5801617486366 -16.860430234995185 M65.49544373967211 -16.965071676755716 C65.85582635469576 -16.93030599930789, 66.21620896971942 -16.895540321860068, 66.5801617486366 -16.860430234995185 M66.5801617486366 -16.860430234995185 C66.89734429528934 -16.809150620639755, 67.21452684194209 -16.757871006284326, 67.65594668792333 -16.686505668848113 M66.5801617486366 -16.860430234995185 C66.79879784996423 -16.825082845680825, 67.01743395129185 -16.78973545636646, 67.65594668792333 -16.686505668848113 M67.65594668792333 -16.686505668848113 C67.97490389922268 -16.613705766759356, 68.29386111052202 -16.540905864670602, 68.71837792646163 -16.4440126716635 M67.65594668792333 -16.686505668848113 C68.00715979548211 -16.606343568927535, 68.35837290304089 -16.526181469006957, 68.71837792646163 -16.4440126716635 M68.71837792646163 -16.4440126716635 C69.05027016759347 -16.345508796633496, 69.3821624087253 -16.24700492160349, 69.76308970640156 -16.133947699181366 M68.71837792646163 -16.4440126716635 C69.08073585875782 -16.33646673941359, 69.44309379105401 -16.228920807163682, 69.76308970640156 -16.133947699181366 M69.76308970640156 -16.133947699181366 C70.0775448563861 -16.01822529719551, 70.39200000637065 -15.902502895209656, 70.78578908294936 -15.757584874882369 M69.76308970640156 -16.133947699181366 C69.99067604812987 -16.050193821640267, 70.21826238985817 -15.966439944099172, 70.78578908294936 -15.757584874882369 M70.78578908294936 -15.757584874882369 C71.05500649097927 -15.638410314398195, 71.32422389900917 -15.519235753914023, 71.78227356499849 -15.316470754341125 M70.78578908294936 -15.757584874882369 C71.07769395735112 -15.628367246035156, 71.36959883175287 -15.499149617187943, 71.78227356499849 -15.316470754341125 M71.78227356499849 -15.316470754341125 C72.01559903252124 -15.194745007386604, 72.24892450004397 -15.073019260432085, 72.74844838406693 -14.812417970097622 M71.78227356499849 -15.316470754341125 C72.16474358663255 -15.116936389038372, 72.54721360826662 -14.91740202373562, 72.74844838406693 -14.812417970097622 M72.74844838406693 -14.812417970097622 C73.07956231110339 -14.611694761686707, 73.41067623813983 -14.410971553275793, 73.68034332057933 -14.247497783161291 M72.74844838406693 -14.812417970097622 C73.08020555275155 -14.611304824819479, 73.41196272143617 -14.410191679541336, 73.68034332057933 -14.247497783161291 M73.68034332057933 -14.247497783161291 C73.89850230509086 -14.095319519516273, 74.1166612896024 -13.943141255871256, 74.57412901835067 -13.624031571755262 M73.68034332057933 -14.247497783161291 C73.93400264385676 -14.070556019978085, 74.18766196713418 -13.893614256794878, 74.57412901835067 -13.624031571755262 M74.57412901835067 -13.624031571755262 C74.87982341424642 -13.380248425897925, 75.18551781014216 -13.13646528004059, 75.4261327202324 -12.944581292275288 M74.57412901835067 -13.624031571755262 C74.85139219951026 -13.402921563063614, 75.12865538066984 -13.181811554371967, 75.4261327202324 -12.944581292275288 M75.4261327202324 -12.944581292275288 C75.5888143499616 -12.796838140475295, 75.75149597969077 -12.6490949886753, 76.23285336025927 -12.21193895166137 M75.4261327202324 -12.944581292275288 C75.68030862414828 -12.713745461464775, 75.93448452806416 -12.482909630654264, 76.23285336025927 -12.21193895166137 M76.23285336025927 -12.21193895166137 C76.46606249487664 -11.971131373342901, 76.699271629494 -11.730323795024432, 76.99097595028036 -11.42911513444239 M76.23285336025927 -12.21193895166137 C76.49333312423157 -11.942972209573627, 76.75381288820387 -11.674005467485886, 76.99097595028036 -11.42911513444239 M76.99097595028036 -11.42911513444239 C77.18206252555608 -11.204653969989373, 77.3731491008318 -10.980192805536358, 77.69738520195651 -10.59932663159847 M76.99097595028036 -11.42911513444239 C77.20882852859755 -11.173213099788136, 77.42668110691476 -10.917311065133882, 77.69738520195651 -10.59932663159847 M77.69738520195651 -10.59932663159847 C77.95531343638807 -10.25372629520573, 78.21324167081963 -9.90812595881299, 78.34917832814824 -9.725983222076888 M77.69738520195651 -10.59932663159847 C77.85527519701373 -10.387768422296249, 78.01316519207096 -10.176210212994025, 78.34917832814824 -9.725983222076888 M78.34917832814824 -9.725983222076888 C78.51472200395202 -9.471663681341086, 78.6802656797558 -9.217344140605285, 78.94367697109088 -8.812673661278927 M78.34917832814824 -9.725983222076888 C78.49443484889306 -9.502830199375543, 78.6396913696379 -9.279677176674197, 78.94367697109088 -8.812673661278927 M78.94367697109088 -8.812673661278927 C79.11266914869668 -8.51261093762625, 79.28166132630248 -8.212548213973575, 79.478438208341 -7.863150934094199 M78.94367697109088 -8.812673661278927 C79.10455719020598 -8.527014541351358, 79.26543740932108 -8.24135542142379, 79.478438208341 -7.863150934094199 M79.478438208341 -7.863150934094199 C79.58838489291864 -7.634844291086553, 79.69833157749628 -7.406537648078907, 79.95126459126881 -6.881316833080699 M79.478438208341 -7.863150934094199 C79.65293578876147 -7.500802974700989, 79.82743336918195 -7.138455015307779, 79.95126459126881 -6.881316833080699 M79.95126459126881 -6.881316833080699 C80.1005187292521 -6.5126562266295345, 80.24977286723538 -6.14399562017837, 80.36021317484592 -5.871205925162238 M79.95126459126881 -6.881316833080699 C80.0542443546107 -6.626954826647933, 80.15722411795261 -6.372592820215168, 80.36021317484592 -5.871205925162238 M80.36021317484592 -5.871205925162238 C80.47500136882503 -5.525482173912185, 80.58978956280414 -5.1797584226621325, 80.70360350162323 -4.836968972727556 M80.36021317484592 -5.871205925162238 C80.477339438058 -5.5184402819032226, 80.59446570127008 -5.165674638644207, 80.70360350162323 -4.836968972727556 M80.70360350162323 -4.836968972727556 C80.7688221411515 -4.588262034269082, 80.83404078067977 -4.339555095810607, 80.980024507091 -3.7828558772573464 M80.70360350162323 -4.836968972727556 C80.77844649637568 -4.551560196577363, 80.85328949112812 -4.266151420427169, 80.980024507091 -3.7828558772573464 M80.980024507091 -3.7828558772573464 C81.05332635715556 -3.4064663695273314, 81.12662820722012 -3.0300768617973164, 81.18834031804565 -2.713198215567453 M80.980024507091 -3.7828558772573464 C81.04342823904825 -3.4572911140403466, 81.1068319710055 -3.131726350823347, 81.18834031804565 -2.713198215567453 M81.18834031804565 -2.713198215567453 C81.23899048127143 -2.3203655515943216, 81.28964064449721 -1.9275328876211903, 81.32769492013637 -1.632391440430593 M81.18834031804565 -2.713198215567453 C81.2386978707416 -2.322634981081158, 81.28905542343756 -1.932071746594863, 81.32769492013637 -1.632391440430593 M81.32769492013637 -1.632391440430593 C81.3482894164711 -1.3116155364388662, 81.36888391280584 -0.9908396324471392, 81.3975156754117 -0.5448768187181379 M81.32769492013637 -1.632391440430593 C81.34205170448202 -1.408772935659435, 81.35640848882765 -1.185154430888277, 81.3975156754117 -0.5448768187181379 M81.3975156754117 -0.5448768187181379 C81.3975156754117 -0.20341872858325993, 81.3975156754117 0.138039361551618, 81.3975156754117 0.5448768187181336 M81.3975156754117 -0.5448768187181379 C81.3975156754117 -0.22005172305742238, 81.3975156754117 0.10477337260329311, 81.3975156754117 0.5448768187181336 M81.3975156754117 0.5448768187181336 C81.37750423199444 0.8565712028882289, 81.35749278857719 1.168265587058324, 81.32769492013637 1.6323914404305815 M81.3975156754117 0.5448768187181336 C81.38079190514179 0.805363039856315, 81.36406813487189 1.0658492609944963, 81.32769492013637 1.6323914404305815 M81.32769492013637 1.6323914404305815 C81.29292006186245 1.9020983741306043, 81.25814520358853 2.171805307830627, 81.18834031804565 2.7131982155674415 M81.32769492013637 1.6323914404305815 C81.29027922438131 1.9225801881419344, 81.25286352862626 2.212768935853288, 81.18834031804565 2.7131982155674415 M81.18834031804565 2.7131982155674415 C81.12214894087649 3.053076947778547, 81.05595756370734 3.3929556799896528, 80.980024507091 3.782855877257343 M81.18834031804565 2.7131982155674415 C81.12121900215384 3.057851986576732, 81.05409768626204 3.402505757586023, 80.980024507091 3.782855877257343 M80.980024507091 3.782855877257343 C80.88275978648313 4.153768411731722, 80.78549506587527 4.524680946206101, 80.70360350162323 4.836968972727545 M80.980024507091 3.782855877257343 C80.91056079800613 4.047751105759918, 80.84109708892126 4.312646334262493, 80.70360350162323 4.836968972727545 M80.70360350162323 4.836968972727545 C80.61408581823588 5.106581972384332, 80.52456813484852 5.376194972041119, 80.36021317484592 5.871205925162227 M80.70360350162323 4.836968972727545 C80.58349161577218 5.198726835680788, 80.46337972992113 5.560484698634032, 80.36021317484592 5.871205925162227 M80.36021317484592 5.871205925162227 C80.22196360841697 6.212685027115274, 80.08371404198802 6.554164129068321, 79.95126459126881 6.881316833080694 M80.36021317484592 5.871205925162227 C80.25161531647002 6.1394447349474515, 80.14301745809414 6.407683544732676, 79.95126459126881 6.881316833080694 M79.95126459126881 6.881316833080694 C79.83830530416228 7.115879209698959, 79.72534601705576 7.350441586317223, 79.478438208341 7.863150934094196 M79.95126459126881 6.881316833080694 C79.83880961755393 7.114831992150602, 79.72635464383907 7.34834715122051, 79.478438208341 7.863150934094196 M79.478438208341 7.863150934094196 C79.3068259405046 8.167865893264214, 79.13521367266819 8.472580852434232, 78.94367697109088 8.812673661278923 M79.478438208341 7.863150934094196 C79.30140116411344 8.17749813306489, 79.12436411988588 8.491845332035586, 78.94367697109088 8.812673661278923 M78.94367697109088 8.812673661278923 C78.74046217507929 9.124866158766098, 78.5372473790677 9.437058656253273, 78.34917832814826 9.725983222076879 M78.94367697109088 8.812673661278923 C78.80699247311371 9.022657755098738, 78.67030797513654 9.232641848918554, 78.34917832814826 9.725983222076879 M78.34917832814826 9.725983222076879 C78.09818250409509 10.062294760118133, 77.84718668004194 10.398606298159388, 77.69738520195651 10.599326631598467 M78.34917832814826 9.725983222076879 C78.14638822386318 9.997703487260322, 77.9435981195781 10.269423752443766, 77.69738520195651 10.599326631598467 M77.69738520195651 10.599326631598467 C77.41985529024373 10.925329057795631, 77.14232537853097 11.251331483992795, 76.99097595028037 11.42911513444238 M77.69738520195651 10.599326631598467 C77.51248838343452 10.816516955561424, 77.32759156491252 11.033707279524378, 76.99097595028037 11.42911513444238 M76.99097595028037 11.42911513444238 C76.73561422176545 11.692797084721853, 76.48025249325053 11.956479035001328, 76.23285336025927 12.211938951661365 M76.99097595028037 11.42911513444238 C76.69154947719461 11.738297551274046, 76.39212300410887 12.047479968105712, 76.23285336025927 12.211938951661365 M76.23285336025927 12.211938951661365 C75.95189001732393 12.467102425832556, 75.67092667438858 12.722265900003746, 75.42613272023242 12.944581292275275 M76.23285336025927 12.211938951661365 C75.99279965018582 12.429949379676954, 75.75274594011238 12.647959807692542, 75.42613272023242 12.944581292275275 M75.42613272023242 12.944581292275275 C75.18451892265306 13.137261866231633, 74.94290512507371 13.32994244018799, 74.57412901835067 13.62403157175526 M75.42613272023242 12.944581292275275 C75.2270361432054 13.103355514271895, 75.02793956617839 13.262129736268516, 74.57412901835067 13.62403157175526 M74.57412901835067 13.62403157175526 C74.29270873739203 13.820338177264393, 74.01128845643339 14.016644782773525, 73.68034332057934 14.247497783161286 M74.57412901835067 13.62403157175526 C74.22641203417524 13.866583887490407, 73.87869504999979 14.109136203225553, 73.68034332057934 14.247497783161286 M73.68034332057934 14.247497783161286 C73.38347214673746 14.427462833352898, 73.08660097289558 14.60742788354451, 72.74844838406695 14.81241797009762 M73.68034332057934 14.247497783161286 C73.41561092200993 14.40798011891432, 73.15087852344053 14.568462454667356, 72.74844838406695 14.81241797009762 M72.74844838406695 14.81241797009762 C72.5187091260705 14.932272793839344, 72.28896986807406 15.052127617581068, 71.78227356499849 15.316470754341124 M72.74844838406695 14.81241797009762 C72.40918370372604 14.989412136522068, 72.06991902338515 15.166406302946514, 71.78227356499849 15.316470754341124 M71.78227356499849 15.316470754341124 C71.42492391358597 15.474658844620668, 71.06757426217345 15.632846934900213, 70.78578908294936 15.757584874882367 M71.78227356499849 15.316470754341124 C71.54930891264378 15.419597295287678, 71.31634426028906 15.522723836234235, 70.78578908294936 15.757584874882367 M70.78578908294936 15.757584874882367 C70.4028334181324 15.898516099538368, 70.01987775331544 16.039447324194366, 69.76308970640156 16.133947699181363 M70.78578908294936 15.757584874882367 C70.48693224799493 15.867566952747897, 70.1880754130405 15.977549030613424, 69.76308970640156 16.133947699181363 M69.76308970640156 16.133947699181363 C69.36538716237058 16.251983726666502, 68.96768461833962 16.370019754151645, 68.71837792646164 16.444012671663497 M69.76308970640156 16.133947699181363 C69.42456222390126 16.234420879020433, 69.08603474140097 16.334894058859508, 68.71837792646164 16.444012671663497 M68.71837792646164 16.444012671663497 C68.49967212109267 16.493930844550206, 68.2809663157237 16.543849017436916, 67.65594668792333 16.68650566884811 M68.71837792646164 16.444012671663497 C68.49118741923196 16.49586742238206, 68.2639969120023 16.547722173100617, 67.65594668792333 16.68650566884811 M67.65594668792333 16.68650566884811 C67.35098940517192 16.73580879734431, 67.0460321224205 16.78511192584051, 66.58016174863661 16.86043023499518 M67.65594668792333 16.68650566884811 C67.34649784797965 16.73653495747861, 67.03704900803596 16.78656424610911, 66.58016174863661 16.86043023499518 M66.58016174863661 16.86043023499518 C66.34554308834126 16.88306361498365, 66.11092442804592 16.90569699497212, 65.49544373967211 16.965071676755716 M66.58016174863661 16.86043023499518 C66.2038542234513 16.896732169373795, 65.82754669826599 16.93303410375241, 65.49544373967211 16.965071676755716 M65.49544373967211 16.965071676755716 C65.1902411108996 16.974858931019572, 64.88503848212709 16.984646185283427, 64.40625 17 M65.49544373967211 16.965071676755716 C65.20992763211753 16.974227622601603, 64.92441152456293 16.98338356844749, 64.40625 17 M64.40625 17 C64.40625 17, 64.40625 17, 64.40625 17 M64.40625 17 C64.40625 17, 64.40625 17, 64.40625 17 M64.40625 17 C30.49571994513174 17, -3.4148101097365213 17, -64.40625 17 M64.40625 17 C35.78335426760363 17, 7.160458535207255 17, -64.40625 17 M-64.40625 17 C-64.73906553663757 16.989327253526177, -65.07188107327514 16.97865450705235, -65.49544373967211 16.965071676755716 M-64.40625 17 C-64.65583605791035 16.991996260912604, -64.90542211582071 16.98399252182521, -65.49544373967211 16.965071676755716 M-65.49544373967211 16.965071676755716 C-65.78975959576125 16.9366793800854, -66.08407545185038 16.908287083415086, -66.5801617486366 16.86043023499518 M-65.49544373967211 16.965071676755716 C-65.73538318300382 16.941925007226907, -65.97532262633553 16.918778337698097, -66.5801617486366 16.86043023499518 M-66.5801617486366 16.86043023499518 C-66.87941001186428 16.812050096501473, -67.17865827509195 16.763669958007764, -67.65594668792333 16.68650566884811 M-66.5801617486366 16.86043023499518 C-66.91241458403354 16.806714173227427, -67.24466741943048 16.752998111459668, -67.65594668792333 16.68650566884811 M-67.65594668792333 16.68650566884811 C-68.04183857032784 16.598428364869147, -68.42773045273236 16.510351060890187, -68.71837792646161 16.4440126716635 M-67.65594668792333 16.68650566884811 C-67.89652520645441 16.63159519191494, -68.13710372498551 16.57668471498177, -68.71837792646161 16.4440126716635 M-68.71837792646161 16.4440126716635 C-69.02050297103482 16.354343544320894, -69.32262801560803 16.264674416978288, -69.76308970640154 16.13394769918137 M-68.71837792646161 16.4440126716635 C-69.1303525348459 16.321740770393898, -69.54232714323017 16.199468869124292, -69.76308970640154 16.13394769918137 M-69.76308970640154 16.13394769918137 C-70.10966196075651 16.00640590589994, -70.4562342151115 15.87886411261851, -70.78578908294936 15.757584874882369 M-69.76308970640154 16.13394769918137 C-70.06459641420489 16.022990443612283, -70.36610312200824 15.912033188043198, -70.78578908294936 15.757584874882369 M-70.78578908294936 15.757584874882369 C-71.14071937835709 15.600467761738502, -71.4956496737648 15.443350648594635, -71.78227356499849 15.316470754341127 M-70.78578908294936 15.757584874882369 C-71.02859375334893 15.650102449841121, -71.27139842374851 15.542620024799874, -71.78227356499849 15.316470754341127 M-71.78227356499849 15.316470754341127 C-71.982479725022 15.212023328895027, -72.18268588504552 15.107575903448927, -72.74844838406693 14.812417970097624 M-71.78227356499849 15.316470754341127 C-72.01096766579909 15.19716118843902, -72.23966176659967 15.077851622536913, -72.74844838406693 14.812417970097624 M-72.74844838406693 14.812417970097624 C-73.0586487325642 14.624372695898996, -73.36884908106144 14.43632742170037, -73.68034332057931 14.247497783161299 M-72.74844838406693 14.812417970097624 C-72.98561740470004 14.668644716029963, -73.22278642533315 14.524871461962302, -73.68034332057931 14.247497783161299 M-73.68034332057931 14.247497783161299 C-74.02981303209505 14.003722840707914, -74.37928274361077 13.759947898254527, -74.57412901835067 13.624031571755264 M-73.68034332057931 14.247497783161299 C-73.86372150829375 14.119581097725513, -74.04709969600819 13.991664412289726, -74.57412901835067 13.624031571755264 M-74.57412901835067 13.624031571755264 C-74.82459078909437 13.424294974654797, -75.07505255983807 13.224558377554331, -75.4261327202324 12.94458129227529 M-74.57412901835067 13.624031571755264 C-74.83439565893264 13.41647585187733, -75.0946622995146 13.208920131999395, -75.4261327202324 12.94458129227529 M-75.4261327202324 12.94458129227529 C-75.71900699899152 12.678600621335045, -76.01188127775062 12.412619950394802, -76.23285336025926 12.211938951661377 M-75.4261327202324 12.94458129227529 C-75.74235360674489 12.657397849890822, -76.05857449325737 12.370214407506353, -76.23285336025926 12.211938951661377 M-76.23285336025926 12.211938951661377 C-76.52041978518317 11.915003008284879, -76.80798621010706 11.61806706490838, -76.99097595028036 11.429115134442386 M-76.23285336025926 12.211938951661377 C-76.44982666794627 11.987896197634676, -76.6667999756333 11.763853443607974, -76.99097595028036 11.429115134442386 M-76.99097595028036 11.429115134442386 C-77.25706295369507 11.116554199452048, -77.5231499571098 10.803993264461711, -77.69738520195651 10.599326631598473 M-76.99097595028036 11.429115134442386 C-77.17944406258283 11.207729765592514, -77.3679121748853 10.986344396742643, -77.69738520195651 10.599326631598473 M-77.69738520195651 10.599326631598473 C-77.9568415806834 10.251678721066792, -78.2162979594103 9.90403081053511, -78.34917832814824 9.72598322207689 M-77.69738520195651 10.599326631598473 C-77.90378908266496 10.322764235229501, -78.11019296337342 10.046201838860531, -78.34917832814824 9.72598322207689 M-78.34917832814824 9.72598322207689 C-78.51364107859746 9.4733242729548, -78.67810382904666 9.220665323832712, -78.94367697109088 8.812673661278936 M-78.34917832814824 9.72598322207689 C-78.52324144298022 9.458575535204067, -78.6973045578122 9.191167848331245, -78.94367697109088 8.812673661278936 M-78.94367697109088 8.812673661278936 C-79.096844860459 8.540708563775203, -79.25001274982712 8.26874346627147, -79.478438208341 7.863150934094201 M-78.94367697109088 8.812673661278936 C-79.05973720852957 8.606596957333124, -79.17579744596826 8.400520253387313, -79.478438208341 7.863150934094201 M-79.478438208341 7.863150934094201 C-79.65053975376442 7.50577839263932, -79.82264129918782 7.148405851184439, -79.95126459126881 6.881316833080701 M-79.478438208341 7.863150934094201 C-79.6208991789374 7.567327680474301, -79.76336014953381 7.2715044268544, -79.95126459126881 6.881316833080701 M-79.95126459126881 6.881316833080701 C-80.06209166050456 6.607571829372763, -80.17291872974033 6.333826825664826, -80.36021317484592 5.87120592516224 M-79.95126459126881 6.881316833080701 C-80.11349535814594 6.4806037023756735, -80.27572612502308 6.079890571670646, -80.36021317484592 5.87120592516224 M-80.36021317484592 5.87120592516224 C-80.42962021224577 5.662162987023537, -80.49902724964562 5.453120048884834, -80.70360350162323 4.8369689727275516 M-80.36021317484592 5.87120592516224 C-80.47937606982251 5.512306271521736, -80.59853896479909 5.153406617881233, -80.70360350162323 4.8369689727275516 M-80.70360350162323 4.8369689727275516 C-80.80757322261522 4.4404873658230235, -80.91154294360719 4.044005758918495, -80.980024507091 3.782855877257349 M-80.70360350162323 4.8369689727275516 C-80.7648915520977 4.603251073859361, -80.82617960257214 4.369533174991169, -80.980024507091 3.782855877257349 M-80.980024507091 3.782855877257349 C-81.03772882349843 3.486556408316817, -81.09543313990585 3.190256939376285, -81.18834031804565 2.713198215567455 M-80.980024507091 3.782855877257349 C-81.02711899987267 3.5410356102480507, -81.07421349265434 3.2992153432387523, -81.18834031804565 2.713198215567455 M-81.18834031804565 2.713198215567455 C-81.22219201822654 2.450651113738817, -81.25604371840741 2.1881040119101796, -81.32769492013637 1.6323914404306026 M-81.18834031804565 2.713198215567455 C-81.22340212793242 2.4412657418231056, -81.2584639378192 2.1693332680787565, -81.32769492013637 1.6323914404306026 M-81.32769492013637 1.6323914404306026 C-81.35322625559989 1.2347202820632528, -81.3787575910634 0.8370491236959029, -81.3975156754117 0.54487681871814 M-81.32769492013637 1.6323914404306026 C-81.34918934057528 1.297598492110714, -81.37068376101419 0.9628055437908253, -81.3975156754117 0.54487681871814 M-81.3975156754117 0.54487681871814 C-81.3975156754117 0.30311111623470555, -81.3975156754117 0.06134541375127106, -81.3975156754117 -0.5448768187181317 M-81.3975156754117 0.54487681871814 C-81.3975156754117 0.24259692390780635, -81.3975156754117 -0.05968297090252728, -81.3975156754117 -0.5448768187181317 M-81.3975156754117 -0.5448768187181317 C-81.37898968735503 -0.8334340366091195, -81.36046369929836 -1.1219912545001072, -81.32769492013637 -1.6323914404305793 M-81.3975156754117 -0.5448768187181317 C-81.38036728504025 -0.811976840684928, -81.3632188946688 -1.0790768626517244, -81.32769492013637 -1.6323914404305793 M-81.32769492013637 -1.6323914404305793 C-81.29584634841002 -1.8794026735282576, -81.26399777668368 -2.126413906625936, -81.18834031804565 -2.713198215567447 M-81.32769492013637 -1.6323914404305793 C-81.283449363144 -1.9755512431899027, -81.23920380615164 -2.318711045949226, -81.18834031804565 -2.713198215567447 M-81.18834031804565 -2.713198215567447 C-81.14348174598094 -2.943537502257169, -81.09862317391622 -3.1738767889468913, -80.980024507091 -3.782855877257341 M-81.18834031804565 -2.713198215567447 C-81.13007777079952 -3.012364081882599, -81.07181522355339 -3.311529948197752, -80.980024507091 -3.782855877257341 M-80.980024507091 -3.782855877257341 C-80.88307088125883 -4.152582072522662, -80.78611725542666 -4.522308267787984, -80.70360350162323 -4.836968972727544 M-80.980024507091 -3.782855877257341 C-80.92448988193631 -3.994633471830973, -80.86895525678162 -4.206411066404605, -80.70360350162323 -4.836968972727544 M-80.70360350162323 -4.836968972727544 C-80.63181686903314 -5.053178872442249, -80.56003023644305 -5.269388772156954, -80.36021317484594 -5.871205925162218 M-80.70360350162323 -4.836968972727544 C-80.57437178307636 -5.226194318712606, -80.44514006452948 -5.615419664697669, -80.36021317484594 -5.871205925162218 M-80.36021317484594 -5.871205925162218 C-80.25138651271985 -6.140009884634046, -80.14255985059374 -6.4088138441058735, -79.95126459126881 -6.881316833080692 M-80.36021317484594 -5.871205925162218 C-80.20926559031881 -6.244049377317225, -80.05831800579169 -6.616892829472231, -79.95126459126881 -6.881316833080692 M-79.95126459126881 -6.881316833080692 C-79.79538155323205 -7.205011296926718, -79.6394985151953 -7.528705760772742, -79.478438208341 -7.863150934094194 M-79.95126459126881 -6.881316833080692 C-79.7788754125949 -7.239286651134595, -79.60648623392099 -7.597256469188498, -79.478438208341 -7.863150934094194 M-79.478438208341 -7.863150934094194 C-79.31309911913411 -8.156727229379296, -79.14776002992721 -8.450303524664399, -78.94367697109088 -8.812673661278929 M-79.478438208341 -7.863150934094194 C-79.302497898266 -8.175550770520651, -79.12655758819099 -8.487950606947107, -78.94367697109088 -8.812673661278929 M-78.94367697109088 -8.812673661278929 C-78.78977872389353 -9.049102696439821, -78.63588047669619 -9.285531731600713, -78.34917832814826 -9.725983222076884 M-78.94367697109088 -8.812673661278929 C-78.75200456482746 -9.107133948547288, -78.56033215856404 -9.401594235815649, -78.34917832814826 -9.725983222076884 M-78.34917832814826 -9.725983222076884 C-78.20299825031388 -9.921851209095898, -78.0568181724795 -10.11771919611491, -77.69738520195651 -10.599326631598467 M-78.34917832814826 -9.725983222076884 C-78.13831907587495 -10.00851541045006, -77.92745982360162 -10.291047598823237, -77.69738520195651 -10.599326631598467 M-77.69738520195651 -10.599326631598467 C-77.48139500030959 -10.85304101264357, -77.26540479866269 -11.106755393688674, -76.99097595028037 -11.42911513444238 M-77.69738520195651 -10.599326631598467 C-77.51059399415064 -10.818742213008067, -77.32380278634477 -11.038157794417668, -76.99097595028037 -11.42911513444238 M-76.99097595028037 -11.42911513444238 C-76.73114272351049 -11.697414273786928, -76.47130949674062 -11.965713413131475, -76.23285336025927 -12.21193895166136 M-76.99097595028037 -11.42911513444238 C-76.82676824673298 -11.59867307005825, -76.66256054318558 -11.76823100567412, -76.23285336025927 -12.21193895166136 M-76.23285336025927 -12.21193895166136 C-75.99315467012418 -12.429626959962237, -75.75345597998911 -12.647314968263112, -75.42613272023242 -12.944581292275274 M-76.23285336025927 -12.21193895166136 C-76.0303211630308 -12.395873334475958, -75.82778896580236 -12.579807717290556, -75.42613272023242 -12.944581292275274 M-75.42613272023242 -12.944581292275274 C-75.19181283020922 -13.13144516905463, -74.95749294018601 -13.318309045833983, -74.57412901835067 -13.624031571755259 M-75.42613272023242 -12.944581292275274 C-75.24196795843217 -13.091447788980835, -75.05780319663192 -13.238314285686396, -74.57412901835067 -13.624031571755259 M-74.57412901835067 -13.624031571755259 C-74.38353809917929 -13.756979546421304, -74.1929471800079 -13.88992752108735, -73.68034332057934 -14.247497783161284 M-74.57412901835067 -13.624031571755259 C-74.23511892431966 -13.860510337840847, -73.89610883028867 -14.096989103926434, -73.68034332057934 -14.247497783161284 M-73.68034332057934 -14.247497783161284 C-73.46158189061397 -14.380112247591153, -73.2428204606486 -14.512726712021022, -72.74844838406695 -14.812417970097618 M-73.68034332057934 -14.247497783161284 C-73.35776131807486 -14.443048888781767, -73.03517931557037 -14.638599994402249, -72.74844838406695 -14.812417970097618 M-72.74844838406695 -14.812417970097618 C-72.40726323318765 -14.990414044771827, -72.06607808230837 -15.168410119446035, -71.78227356499849 -15.316470754341124 M-72.74844838406695 -14.812417970097618 C-72.52786937466213 -14.927493898016511, -72.30729036525732 -15.042569825935404, -71.78227356499849 -15.316470754341124 M-71.78227356499849 -15.316470754341124 C-71.55062650406927 -15.419014036648575, -71.31897944314005 -15.521557318956024, -70.78578908294936 -15.757584874882365 M-71.78227356499849 -15.316470754341124 C-71.4486277189116 -15.464165873151416, -71.11498187282471 -15.611860991961706, -70.78578908294936 -15.757584874882365 M-70.78578908294936 -15.757584874882365 C-70.54212228527973 -15.847256508855978, -70.2984554876101 -15.93692814282959, -69.76308970640156 -16.133947699181363 M-70.78578908294936 -15.757584874882365 C-70.55424419212255 -15.842795535084141, -70.32269930129573 -15.928006195285919, -69.76308970640156 -16.133947699181363 M-69.76308970640156 -16.133947699181363 C-69.34858704887145 -16.256969912167452, -68.93408439134134 -16.37999212515354, -68.71837792646164 -16.444012671663494 M-69.76308970640156 -16.133947699181363 C-69.47158131956147 -16.220465858236757, -69.18007293272136 -16.306984017292148, -68.71837792646164 -16.444012671663494 M-68.71837792646164 -16.444012671663494 C-68.48772747882977 -16.49665713120064, -68.25707703119788 -16.54930159073778, -67.65594668792333 -16.68650566884811 M-68.71837792646164 -16.444012671663494 C-68.34725080030388 -16.528720016378173, -67.97612367414611 -16.613427361092853, -67.65594668792333 -16.68650566884811 M-67.65594668792333 -16.68650566884811 C-67.26336059553181 -16.749975943715356, -66.87077450314028 -16.813446218582598, -66.58016174863661 -16.86043023499518 M-67.65594668792333 -16.68650566884811 C-67.42359309257007 -16.72407079621578, -67.1912394972168 -16.76163592358345, -66.58016174863661 -16.86043023499518 M-66.58016174863661 -16.86043023499518 C-66.15069692140472 -16.90186019037122, -65.7212320941728 -16.943290145747262, -65.49544373967213 -16.965071676755716 M-66.58016174863661 -16.86043023499518 C-66.30859827877514 -16.886627636329862, -66.03703480891366 -16.912825037664543, -65.49544373967213 -16.965071676755716 M-65.49544373967213 -16.965071676755716 C-65.12999043769373 -16.976791052838465, -64.76453713571534 -16.988510428921213, -64.40625 -17 M-65.49544373967213 -16.965071676755716 C-65.2735301380423 -16.972188014031364, -65.05161653641248 -16.97930435130701, -64.40625 -17 M-64.40625 -17 C-64.40625 -17, -64.40625 -17, -64.40625 -17 M-64.40625 -17 C-64.40625 -17, -64.40625 -17, -64.40625 -17" stroke="#9370DB" stroke-width="1.3" fill="none" stroke-dasharray="0 0" style=""/></g><g class="label" style="" transform="translate(0, -9.5)"><rect/><g><rect class="background" style="stroke: none"/><text y="-10.1" style=""><tspan class="text-outer-tspan row" x="0" y="-0.1em" dy="1.1em"><tspan font-style="normal" class="text-inner-tspan" font-weight="normal">TinyMCE</tspan><tspan font-style="normal" class="text-inner-tspan" font-weight="normal"> in</tspan><tspan font-style="normal" class="text-inner-tspan" font-weight="normal"> browser</tspan></tspan></text></g></g></g><g class="node default" id="my-svg-flowchart-LB-2" data-look="classic" transform="translate(624.4921875, 174.70000076293945)"><rect class="basic label-container" style="" x="-105.5625" y="-59.70000076293945" width="211.125" height="119.4000015258789"/><g class="label" style="" transform="translate(0, -44.70000076293945)"><rect/><g><rect class="background" style="stroke: none"/><text y="-10.1" style=""><tspan class="text-outer-tspan row" x="0" y="-0.1em" dy="1.1em"><tspan font-style="normal" class="text-inner-tspan" font-weight="normal">Reverse</tspan><tspan font-style="normal" class="text-inner-tspan" font-weight="normal"> Proxy</tspan><tspan font-style="normal" class="text-inner-tspan" font-weight="normal"> /</tspan><tspan font-style="normal" class="text-inner-tspan" font-weight="normal"> Load</tspan></tspan><tspan class="text-outer-tspan row" x="0" y="1em" dy="1.1em"><tspan font-style="normal" class="text-inner-tspan" font-weight="normal">Balancer</tspan></tspan><tspan class="text-outer-tspan row" x="0" y="2.1em" dy="1.1em"><tspan font-style="normal" class="text-inner-tspan" font-weight="normal">nginx</tspan><tspan font-style="normal" class="text-inner-tspan" font-weight="normal"> ·</tspan><tspan font-style="normal" class="text-inner-tspan" font-weight="normal"> ALB</tspan><tspan font-style="normal" class="text-inner-tspan" font-weight="normal"> ·</tspan><tspan font-style="normal" class="text-inner-tspan" font-weight="normal"> Ingress</tspan></tspan><tspan class="text-outer-tspan row" x="0" y="3.2em" dy="1.1em"><tspan font-style="normal" class="text-inner-tspan" font-weight="normal">TLS</tspan><tspan font-style="normal" class="text-inner-tspan" font-weight="normal"> termination</tspan></tspan><tspan class="text-outer-tspan row" x="0" y="4.300000000000001em" dy="1.1em"><tspan font-style="normal" class="text-inner-tspan" font-weight="normal">proxy_buffering</tspan><tspan font-style="normal" class="text-inner-tspan" font-weight="normal"> off</tspan></tspan></text></g></g></g><g class="node default" id="my-svg-flowchart-AI1-4" data-look="classic" transform="translate(377.6640625, 331.9000015258789)"><rect class="basic label-container" style="" x="-98.4140625" y="-24.5" width="196.828125" height="49"/><g class="label" style="" transform="translate(0, -9.5)"><rect/><g><rect class="background" style="stroke: none"/><text y="-10.1" style=""><tspan class="text-outer-tspan row" x="0" y="-0.1em" dy="1.1em"><tspan font-style="normal" class="text-inner-tspan" font-weight="normal">ai-service</tspan><tspan font-style="normal" class="text-inner-tspan" font-weight="normal"> replica</tspan><tspan font-style="normal" class="text-inner-tspan" font-weight="normal"> 1</tspan></tspan></text></g></g></g><g class="node default" id="my-svg-flowchart-AI2-6" data-look="classic" transform="translate(624.4921875, 331.9000015258789)"><rect class="basic label-container" style="" x="-98.4140625" y="-24.5" width="196.828125" height="49"/><g class="label" style="" transform="translate(0, -9.5)"><rect/><g><rect class="background" style="stroke: none"/><text y="-10.1" style=""><tspan class="text-outer-tspan row" x="0" y="-0.1em" dy="1.1em"><tspan font-style="normal" class="text-inner-tspan" font-weight="normal">ai-service</tspan><tspan font-style="normal" class="text-inner-tspan" font-weight="normal"> replica</tspan><tspan font-style="normal" class="text-inner-tspan" font-weight="normal"> 2</tspan></tspan></text></g></g></g><g class="node default" id="my-svg-flowchart-AIN-8" data-look="classic" transform="translate(872.2265625, 331.9000015258789)"><rect class="basic label-container" style="" x="-99.3203125" y="-24.5" width="198.640625" height="49"/><g class="label" style="" transform="translate(0, -9.5)"><rect/><g><rect class="background" style="stroke: none"/><text y="-10.1" style=""><tspan class="text-outer-tspan row" x="0" y="-0.1em" dy="1.1em"><tspan font-style="normal" class="text-inner-tspan" font-weight="normal">ai-service</tspan><tspan font-style="normal" class="text-inner-tspan" font-weight="normal"> replica</tspan><tspan font-style="normal" class="text-inner-tspan" font-weight="normal"> N</tspan></tspan></text></g></g></g><g class="node default" id="my-svg-flowchart-DB-9" data-look="classic" transform="translate(108.2109375, 514.1000022888184)"><path d="M0,12.765339205970514 a65.2109375,12.765339205970514 0,0,0 130.421875,0 a65.2109375,12.765339205970514 0,0,0 -130.421875,0 l0,81.96533615421271 a65.2109375,12.765339205970514 0,0,0 130.421875,0 l0,-81.96533615421271" class="basic label-container outer-path" style="" transform="translate(-65.2109375, -53.748007283076866)"/><g class="label" style="" transform="translate(0, -18.099998474121094)"><rect/><g><rect class="background" style="stroke: none"/><text y="-10.1" style=""><tspan class="text-outer-tspan row" x="0" y="-0.1em" dy="1.1em"><tspan font-style="normal" class="text-inner-tspan" font-weight="normal">MySQL</tspan><tspan font-style="normal" class="text-inner-tspan" font-weight="normal"> 8.0+</tspan><tspan font-style="normal" class="text-inner-tspan" font-weight="normal"> /</tspan></tspan><tspan class="text-outer-tspan row" x="0" y="1em" dy="1.1em"><tspan font-style="normal" class="text-inner-tspan" font-weight="normal">Postgres</tspan><tspan font-style="normal" class="text-inner-tspan" font-weight="normal"> 13+</tspan></tspan><tspan class="text-outer-tspan row" x="0" y="2.1em" dy="1.1em"><tspan font-style="normal" class="text-inner-tspan" font-weight="normal">Multi-AZ</tspan><tspan font-style="normal" class="text-inner-tspan" font-weight="normal"> in</tspan><tspan font-style="normal" class="text-inner-tspan" font-weight="normal"> prod</tspan></tspan></text></g></g></g><g class="node default" id="my-svg-flowchart-Cache-10" data-look="classic" transform="translate(299.9765625, 514.1000022888184)"><path d="M0,13.763413674925557 a76.5546875,13.763413674925557 0,0,0 153.109375,0 a76.5546875,13.763413674925557 0,0,0 -153.109375,0 l0,65.36341214904665 a76.5546875,13.763413674925557 0,0,0 153.109375,0 l0,-65.36341214904665" class="basic label-container outer-path" style="" transform="translate(-76.5546875, -46.445119749448885)"/><g class="label" style="" transform="translate(0, -9.299999237060547)"><rect/><g><rect class="background" style="stroke: none"/><text y="-10.1" style=""><tspan class="text-outer-tspan row" x="0" y="-0.1em" dy="1.1em"><tspan font-style="normal" class="text-inner-tspan" font-weight="normal">Redis</tspan><tspan font-style="normal" class="text-inner-tspan" font-weight="normal"> 7</tspan></tspan><tspan class="text-outer-tspan row" x="0" y="1em" dy="1.1em"><tspan font-style="normal" class="text-inner-tspan" font-weight="normal">cluster</tspan><tspan font-style="normal" class="text-inner-tspan" font-weight="normal"> or</tspan><tspan font-style="normal" class="text-inner-tspan" font-weight="normal"> managed</tspan></tspan></text></g></g></g><g class="node default" id="my-svg-flowchart-Storage-11" data-look="classic" transform="translate(624.9453125, 514.1000022888184)"><path d="M0,12.899322362052274 a66.625,12.899322362052274 0,0,0 133.25,0 a66.625,12.899322362052274 0,0,0 -133.25,0 l0,64.49932083617337 a66.625,12.899322362052274 0,0,0 133.25,0 l0,-64.49932083617337" class="basic label-container outer-path" style="" transform="translate(-66.625, -45.14898278013896)"/><g class="label" style="" transform="translate(0, -9.299999237060547)"><rect/><g><rect class="background" style="stroke: none"/><text y="-10.1" style=""><tspan class="text-outer-tspan row" x="0" y="-0.1em" dy="1.1em"><tspan font-style="normal" class="text-inner-tspan" font-weight="normal">S3</tspan><tspan font-style="normal" class="text-inner-tspan" font-weight="normal"> ·</tspan><tspan font-style="normal" class="text-inner-tspan" font-weight="normal"> Azure</tspan><tspan font-style="normal" class="text-inner-tspan" font-weight="normal"> Blob</tspan><tspan font-style="normal" class="text-inner-tspan" font-weight="normal"> ·</tspan></tspan><tspan class="text-outer-tspan row" x="0" y="1em" dy="1.1em"><tspan font-style="normal" class="text-inner-tspan" font-weight="normal">filesystem</tspan><tspan font-style="normal" class="text-inner-tspan" font-weight="normal"> ·</tspan><tspan font-style="normal" class="text-inner-tspan" font-weight="normal"> DB</tspan></tspan></text></g></g></g><g class="node default" id="my-svg-flowchart-LLM-31" data-look="classic" transform="translate(1026.04296875, 514.1000022888184)"><rect class="basic label-container" style="" x="-123.1796875" y="-59.70000076293945" width="246.359375" height="119.4000015258789"/><g class="label" style="" transform="translate(0, -44.70000076293945)"><rect/><g><rect class="background" style="stroke: none"/><text y="-10.1" style=""><tspan class="text-outer-tspan row" x="0" y="-0.1em" dy="1.1em"><tspan font-style="normal" class="text-inner-tspan" font-weight="normal">LLM</tspan><tspan font-style="normal" class="text-inner-tspan" font-weight="normal"> Provider</tspan></tspan><tspan class="text-outer-tspan row" x="0" y="1em" dy="1.1em"><tspan font-style="normal" class="text-inner-tspan" font-weight="normal">OpenAI</tspan><tspan font-style="normal" class="text-inner-tspan" font-weight="normal"> ·</tspan><tspan font-style="normal" class="text-inner-tspan" font-weight="normal"> Anthropic</tspan><tspan font-style="normal" class="text-inner-tspan" font-weight="normal"> ·</tspan></tspan><tspan class="text-outer-tspan row" x="0" y="2.1em" dy="1.1em"><tspan font-style="normal" class="text-inner-tspan" font-weight="normal">Google</tspan><tspan font-style="normal" class="text-inner-tspan" font-weight="normal"> ·</tspan></tspan><tspan class="text-outer-tspan row" x="0" y="3.2em" dy="1.1em"><tspan font-style="normal" class="text-inner-tspan" font-weight="normal">Azure</tspan><tspan font-style="normal" class="text-inner-tspan" font-weight="normal"> ·</tspan><tspan font-style="normal" class="text-inner-tspan" font-weight="normal"> Bedrock</tspan><tspan font-style="normal" class="text-inner-tspan" font-weight="normal"> ·</tspan><tspan font-style="normal" class="text-inner-tspan" font-weight="normal"> Vertex</tspan><tspan font-style="normal" class="text-inner-tspan" font-weight="normal"> ·</tspan></tspan><tspan class="text-outer-tspan row" x="0" y="4.300000000000001em" dy="1.1em"><tspan font-style="normal" class="text-inner-tspan" font-weight="normal">self-hosted</tspan></tspan></text></g></g></g><g class="node default" id="my-svg-flowchart-Obs-37" data-look="classic" transform="translate(1328.45703125, 514.1000022888184)"><rect class="basic label-container" style="" x="-129.234375" y="-33.29999923706055" width="258.46875" height="66.5999984741211"/><g class="label" style="" transform="translate(0, -18.299999237060547)"><rect/><g><rect class="background" style="stroke: none"/><text y="-10.1" style=""><tspan class="text-outer-tspan row" x="0" y="-0.1em" dy="1.1em"><tspan font-style="normal" class="text-inner-tspan" font-weight="normal">OpenTelemetry</tspan><tspan font-style="normal" class="text-inner-tspan" font-weight="normal"> ·</tspan><tspan font-style="normal" class="text-inner-tspan" font-weight="normal"> Langfuse</tspan><tspan font-style="normal" class="text-inner-tspan" font-weight="normal"> ·</tspan></tspan><tspan class="text-outer-tspan row" x="0" y="1em" dy="1.1em"><tspan font-style="normal" class="text-inner-tspan" font-weight="normal">log</tspan><tspan font-style="normal" class="text-inner-tspan" font-weight="normal"> aggregator</tspan></tspan></text></g></g></g></g></g></g><defs><filter id="my-svg-drop-shadow" height="130%" width="130%"><feDropShadow dx="4" dy="4" stdDeviation="0" flood-opacity="0.06" flood-color="#000000"/></filter></defs><defs><filter id="my-svg-drop-shadow-small" height="150%" width="150%"><feDropShadow dx="2" dy="2" stdDeviation="0" flood-opacity="0.06" flood-color="#000000"/></filter></defs></svg>