<svg id="my-svg" width="1466" xmlns="http://www.w3.org/2000/svg" xmlns:xlink="http://www.w3.org/1999/xlink" class="flowchart" style="max-width: 1465.69px; background-color: white;" viewBox="0 0 1465.69140625 606.7999877929688" role="graphics-document document" aria-roledescription="flowchart-v2"><style>#my-svg{font-family:"trebuchet ms",verdana,arial,sans-serif;font-size:16px;fill:#333;}@keyframes edge-animation-frame{from{stroke-dashoffset:0;}}@keyframes dash{to{stroke-dashoffset:0;}}#my-svg .edge-animation-slow{stroke-dasharray:9,5!important;stroke-dashoffset:900;animation:dash 50s linear infinite;stroke-linecap:round;}#my-svg .edge-animation-fast{stroke-dasharray:9,5!important;stroke-dashoffset:900;animation:dash 20s linear infinite;stroke-linecap:round;}#my-svg .error-icon{fill:#552222;}#my-svg .error-text{fill:#552222;stroke:#552222;}#my-svg .edge-thickness-normal{stroke-width:1px;}#my-svg .edge-thickness-thick{stroke-width:3.5px;}#my-svg .edge-pattern-solid{stroke-dasharray:0;}#my-svg .edge-thickness-invisible{stroke-width:0;fill:none;}#my-svg .edge-pattern-dashed{stroke-dasharray:3;}#my-svg .edge-pattern-dotted{stroke-dasharray:2;}#my-svg .marker{fill:#333333;stroke:#333333;}#my-svg .marker.cross{stroke:#333333;}#my-svg svg{font-family:"trebuchet ms",verdana,arial,sans-serif;font-size:16px;}#my-svg p{margin:0;}#my-svg .label{font-family:"trebuchet ms",verdana,arial,sans-serif;color:#333;}#my-svg .cluster-label text{fill:#333;}#my-svg .cluster-label span{color:#333;}#my-svg .cluster-label span p{background-color:transparent;}#my-svg .label text,#my-svg span{fill:#333;color:#333;}#my-svg .node rect,#my-svg .node circle,#my-svg .node ellipse,#my-svg .node polygon,#my-svg .node path{fill:#ECECFF;stroke:#9370DB;stroke-width:1px;}#my-svg .rough-node .label text,#my-svg .node .label text,#my-svg .image-shape .label,#my-svg .icon-shape .label{text-anchor:middle;}#my-svg .node .katex path{fill:#000;stroke:#000;stroke-width:1px;}#my-svg .rough-node .label,#my-svg .node .label,#my-svg .image-shape .label,#my-svg .icon-shape .label{text-align:center;}#my-svg .node.clickable{cursor:pointer;}#my-svg .root .anchor path{fill:#333333!important;stroke-width:0;stroke:#333333;}#my-svg .arrowheadPath{fill:#333333;}#my-svg .edgePath .path{stroke:#333333;stroke-width:1px;}#my-svg .flowchart-link{stroke:#333333;fill:none;}#my-svg .edgeLabel{background-color:rgba(232,232,232, 0.8);text-align:center;}#my-svg .edgeLabel p{background-color:rgba(232,232,232, 0.8);}#my-svg .edgeLabel rect{opacity:0.5;background-color:rgba(232,232,232, 0.8);fill:rgba(232,232,232, 0.8);}#my-svg .labelBkg{background-color:rgba(232, 232, 232, 0.5);}#my-svg .cluster rect{fill:#ffffde;stroke:#aaaa33;stroke-width:1px;}#my-svg .cluster text{fill:#333;}#my-svg .cluster span{color:#333;}#my-svg div.mermaidTooltip{position:absolute;text-align:center;max-width:200px;padding:2px;font-family:"trebuchet ms",verdana,arial,sans-serif;font-size:12px;background:hsl(80, 100%, 96.2745098039%);border:1px solid #aaaa33;border-radius:2px;pointer-events:none;z-index:100;}#my-svg .flowchartTitleText{text-anchor:middle;font-size:18px;fill:#333;}#my-svg rect.text{fill:none;stroke-width:0;}#my-svg .icon-shape,#my-svg .image-shape{background-color:rgba(232,232,232, 0.8);text-align:center;}#my-svg .icon-shape p,#my-svg .image-shape p{background-color:rgba(232,232,232, 0.8);padding:2px;}#my-svg .icon-shape .label rect,#my-svg .image-shape .label rect{opacity:0.5;background-color:rgba(232,232,232, 0.8);fill:rgba(232,232,232, 0.8);}#my-svg .label-icon{display:inline-block;height:1em;overflow:visible;vertical-align:-0.125em;}#my-svg .node .label-icon path{fill:currentColor;stroke:revert;stroke-width:revert;}#my-svg .node .neo-node{stroke:#9370DB;}#my-svg [data-look="neo"].node rect,#my-svg [data-look="neo"].cluster rect,#my-svg [data-look="neo"].node polygon{stroke:#9370DB;filter:drop-shadow(1px 2px 2px rgba(185, 185, 185, 1));}#my-svg [data-look="neo"].node path{stroke:#9370DB;stroke-width:1px;}#my-svg [data-look="neo"].node .outer-path{filter:drop-shadow(1px 2px 2px rgba(185, 185, 185, 1));}#my-svg [data-look="neo"].node .neo-line path{stroke:#9370DB;filter:none;}#my-svg [data-look="neo"].node circle{stroke:#9370DB;filter:drop-shadow(1px 2px 2px rgba(185, 185, 185, 1));}#my-svg [data-look="neo"].node circle .state-start{fill:#000000;}#my-svg [data-look="neo"].icon-shape .icon{fill:#9370DB;filter:drop-shadow(1px 2px 2px rgba(185, 185, 185, 1));}#my-svg [data-look="neo"].icon-shape .icon-neo path{stroke:#9370DB;filter:drop-shadow(1px 2px 2px rgba(185, 185, 185, 1));}#my-svg :root{--mermaid-font-family:"trebuchet ms",verdana,arial,sans-serif;}</style><g><marker id="my-svg_flowchart-v2-pointEnd" class="marker flowchart-v2" viewBox="0 0 10 10" refX="5" refY="5" markerUnits="userSpaceOnUse" markerWidth="8" markerHeight="8" orient="auto"><path d="M 0 0 L 10 5 L 0 10 z" class="arrowMarkerPath" style="stroke-width: 1; stroke-dasharray: 1, 0;"/></marker><marker id="my-svg_flowchart-v2-pointStart" class="marker flowchart-v2" viewBox="0 0 10 10" refX="4.5" refY="5" markerUnits="userSpaceOnUse" markerWidth="8" markerHeight="8" orient="auto"><path d="M 0 5 L 10 10 L 10 0 z" class="arrowMarkerPath" style="stroke-width: 1; stroke-dasharray: 1, 0;"/></marker><marker id="my-svg_flowchart-v2-pointEnd-margin" class="marker flowchart-v2" viewBox="0 0 11.5 14" refX="11.5" refY="7" markerUnits="userSpaceOnUse" markerWidth="10.5" markerHeight="14" orient="auto"><path d="M 0 0 L 11.5 7 L 0 14 z" class="arrowMarkerPath" style="stroke-width: 0; stroke-dasharray: 1, 0;"/></marker><marker id="my-svg_flowchart-v2-pointStart-margin" class="marker flowchart-v2" viewBox="0 0 11.5 14" refX="1" refY="7" markerUnits="userSpaceOnUse" markerWidth="11.5" markerHeight="14" orient="auto"><polygon points="0,7 11.5,14 11.5,0" class="arrowMarkerPath" style="stroke-width: 0; stroke-dasharray: 1, 0;"/></marker><marker id="my-svg_flowchart-v2-circleEnd" class="marker flowchart-v2" viewBox="0 0 10 10" refX="11" refY="5" markerUnits="userSpaceOnUse" markerWidth="11" markerHeight="11" orient="auto"><circle cx="5" cy="5" r="5" class="arrowMarkerPath" style="stroke-width: 1; stroke-dasharray: 1, 0;"/></marker><marker id="my-svg_flowchart-v2-circleStart" class="marker flowchart-v2" viewBox="0 0 10 10" refX="-1" refY="5" markerUnits="userSpaceOnUse" markerWidth="11" markerHeight="11" orient="auto"><circle cx="5" cy="5" r="5" class="arrowMarkerPath" style="stroke-width: 1; stroke-dasharray: 1, 0;"/></marker><marker id="my-svg_flowchart-v2-circleEnd-margin" class="marker flowchart-v2" viewBox="0 0 10 10" refY="5" refX="12.25" markerUnits="userSpaceOnUse" markerWidth="14" markerHeight="14" orient="auto"><circle cx="5" cy="5" r="5" class="arrowMarkerPath" style="stroke-width: 0; stroke-dasharray: 1, 0;"/></marker><marker id="my-svg_flowchart-v2-circleStart-margin" class="marker flowchart-v2" viewBox="0 0 10 10" refX="-2" refY="5" markerUnits="userSpaceOnUse" markerWidth="14" markerHeight="14" orient="auto"><circle cx="5" cy="5" r="5" class="arrowMarkerPath" style="stroke-width: 0; stroke-dasharray: 1, 0;"/></marker><marker id="my-svg_flowchart-v2-crossEnd" class="marker cross flowchart-v2" viewBox="0 0 11 11" refX="12" refY="5.2" markerUnits="userSpaceOnUse" markerWidth="11" markerHeight="11" orient="auto"><path d="M 1,1 l 9,9 M 10,1 l -9,9" class="arrowMarkerPath" style="stroke-width: 2; stroke-dasharray: 1, 0;"/></marker><marker id="my-svg_flowchart-v2-crossStart" class="marker cross flowchart-v2" viewBox="0 0 11 11" refX="-1" refY="5.2" markerUnits="userSpaceOnUse" markerWidth="11" markerHeight="11" orient="auto"><path d="M 1,1 l 9,9 M 10,1 l -9,9" class="arrowMarkerPath" style="stroke-width: 2; stroke-dasharray: 1, 0;"/></marker><marker id="my-svg_flowchart-v2-crossEnd-margin" class="marker cross flowchart-v2" viewBox="0 0 15 15" refX="17.7" refY="7.5" markerUnits="userSpaceOnUse" markerWidth="12" markerHeight="12" orient="auto"><path d="M 1,1 L 14,14 M 1,14 L 14,1" class="arrowMarkerPath" style="stroke-width: 2.5;"/></marker><marker id="my-svg_flowchart-v2-crossStart-margin" class="marker cross flowchart-v2" viewBox="0 0 15 15" refX="-3.5" refY="7.5" markerUnits="userSpaceOnUse" markerWidth="12" markerHeight="12" orient="auto"><path d="M 1,1 L 14,14 M 1,14 L 14,1" class="arrowMarkerPath" style="stroke-width: 2.5; stroke-dasharray: 1, 0;"/></marker><g class="root"><g class="clusters"><g class="cluster" id="my-svg-DataLayer" data-look="classic"><rect style="" x="8" y="429.4000015258789" width="859.86328125" height="169.4000015258789"/><g class="cluster-label" transform="translate(374.744140625, 429.4000015258789)"><g><rect class="background" style="stroke: none"/><text y="-10.1" style=""><tspan class="text-outer-tspan row" x="0" y="-0.1em" dy="1.1em"><tspan font-style="normal" class="text-inner-tspan" font-weight="normal">Shared</tspan><tspan font-style="normal" class="text-inner-tspan" font-weight="normal"> data</tspan><tspan font-style="normal" class="text-inner-tspan" font-weight="normal"> layer</tspan></tspan></text></g></g></g></g><g class="edgePaths"><path d="M624.992,42.5L624.909,48.5C624.826,54.5,624.659,66.5,624.576,77.917C624.492,89.333,624.492,100.167,624.492,105.583L624.492,111" id="my-svg-L_Browser_LB_0" class="edge-thickness-normal edge-pattern-solid edge-thickness-normal edge-pattern-solid flowchart-link" style=";" data-edge="true" data-et="edge" data-id="L_Browser_LB_0" data-points="W3sieCI6NjI0Ljk5MjE4NzUsInkiOjQyLjV9LHsieCI6NjI0LjQ5MjE4NzUsInkiOjc4LjV9LHsieCI6NjI0LjQ5MjE4NzUsInkiOjExNX1d" data-look="classic" marker-end="url(#my-svg_flowchart-v2-pointEnd)"/><path d="M518.93,215.842L495.385,225.019C471.841,234.195,424.753,252.547,401.208,267.14C377.664,281.733,377.664,292.567,377.664,297.983L377.664,303.4" id="my-svg-L_LB_AI1_0" class="edge-thickness-normal edge-pattern-solid edge-thickness-normal edge-pattern-solid flowchart-link" style=";" data-edge="true" data-et="edge" data-id="L_LB_AI1_0" data-points="W3sieCI6NTE4LjkyOTY4NzUsInkiOjIxNS44NDI0NDU4NTcyMjQ0fSx7IngiOjM3Ny42NjQwNjI1LCJ5IjoyNzAuOTAwMDAxNTI1ODc4OX0seyJ4IjozNzcuNjY0MDYyNSwieSI6MzA3LjQwMDAwMTUyNTg3ODl9XQ==" data-look="classic" marker-end="url(#my-svg_flowchart-v2-pointEnd)"/><path d="M624.492,234.4L624.492,240.483C624.492,246.567,624.492,258.733,624.492,270.233C624.492,281.733,624.492,292.567,624.492,297.983L624.492,303.4" id="my-svg-L_LB_AI2_0" class="edge-thickness-normal edge-pattern-solid edge-thickness-normal edge-pattern-solid flowchart-link" style=";" data-edge="true" data-et="edge" data-id="L_LB_AI2_0" data-points="W3sieCI6NjI0LjQ5MjE4NzUsInkiOjIzNC40MDAwMDE1MjU4Nzg5fSx7IngiOjYyNC40OTIxODc1LCJ5IjoyNzAuOTAwMDAxNTI1ODc4OX0seyJ4Ijo2MjQuNDkyMTg3NSwieSI6MzA3LjQwMDAwMTUyNTg3ODl9XQ==" data-look="classic" marker-end="url(#my-svg_flowchart-v2-pointEnd)"/><path d="M730.055,215.692L753.75,224.893C777.445,234.095,824.836,252.497,848.531,267.115C872.227,281.733,872.227,292.567,872.227,297.983L872.227,303.4" id="my-svg-L_LB_AIN_0" class="edge-thickness-normal edge-pattern-solid edge-thickness-normal edge-pattern-solid flowchart-link" style=";" data-edge="true" data-et="edge" data-id="L_LB_AIN_0" data-points="W3sieCI6NzMwLjA1NDY4NzUsInkiOjIxNS42OTE5NDA1MzkzMTQwM30seyJ4Ijo4NzIuMjI2NTYyNSwieSI6MjcwLjkwMDAwMTUyNTg3ODl9LHsieCI6ODcyLjIyNjU2MjUsInkiOjMwNy40MDAwMDE1MjU4Nzg5fV0=" data-look="classic" marker-end="url(#my-svg_flowchart-v2-pointEnd)"/><path d="M279.25,350.11L240.708,357.242C202.167,364.373,125.083,378.637,86.542,391.852C48,405.067,48,417.233,51.3,428.322C54.6,439.411,61.201,449.422,64.501,454.428L67.801,459.433" id="my-svg-L_AI1_DB_0" class="edge-thickness-normal edge-pattern-solid edge-thickness-normal edge-pattern-solid flowchart-link" style=";" data-edge="true" data-et="edge" data-id="L_AI1_DB_0" data-points="W3sieCI6Mjc5LjI1LCJ5IjozNTAuMTEwMjI5NzQxMTU0ODV9LHsieCI6NDgsInkiOjM5Mi45MDAwMDE1MjU4Nzg5fSx7IngiOjQ4LCJ5Ijo0MjkuNDAwMDAxNTI1ODc4OX0seyJ4Ijo3MC4wMDI5MzU5MDA5OTM4OSwieSI6NDYyLjc3MjY0NzM2ODYyNDF9XQ==" data-look="classic" marker-end="url(#my-svg_flowchart-v2-pointEnd)"/><path d="M315.984,356.4L300.669,362.483C285.354,368.567,254.724,380.733,239.409,392.9C224.094,405.067,224.094,417.233,229.375,429.552C234.656,441.871,245.219,454.342,250.5,460.578L255.781,466.813" id="my-svg-L_AI1_Cache_0" class="edge-thickness-normal edge-pattern-solid edge-thickness-normal edge-pattern-solid flowchart-link" style=";" data-edge="true" data-et="edge" data-id="L_AI1_Cache_0" data-points="W3sieCI6MzE1Ljk4NDE4Mjg4OTM0NDI1LCJ5IjozNTYuNDAwMDAxNTI1ODc4OX0seyJ4IjoyMjQuMDkzNzUsInkiOjM5Mi45MDAwMDE1MjU4Nzg5fSx7IngiOjIyNC4wOTM3NSwieSI6NDI5LjQwMDAwMTUyNTg3ODl9LHsieCI6MjU4LjM2NjMzNjQ2NDI1NjIsInkiOjQ2OS44NjU0ODI5MzA5NjExfV0=" data-look="classic" marker-end="url(#my-svg_flowchart-v2-pointEnd)"/><path d="M393.289,356.4L397.168,362.483C401.048,368.567,408.807,380.733,412.687,392.9C416.566,405.067,416.566,417.233,439.574,432.669C462.583,448.104,508.599,466.808,531.607,476.161L554.615,485.513" id="my-svg-L_AI1_Storage_0" class="edge-thickness-normal edge-pattern-solid edge-thickness-normal edge-pattern-solid flowchart-link" style=";" data-edge="true" data-et="edge" data-id="L_AI1_Storage_0" data-points="W3sieCI6MzkzLjI4ODc3NDMzNDAxNjQsInkiOjM1Ni40MDAwMDE1MjU4Nzg5fSx7IngiOjQxNi41NjY0MDYyNSwieSI6MzkyLjkwMDAwMTUyNTg3ODl9LHsieCI6NDE2LjU2NjQwNjI1LCJ5Ijo0MjkuNDAwMDAxNTI1ODc4OX0seyJ4Ijo1NTguMzIwMzEyNSwieSI6NDg3LjAxODg2NjA0MzM4NDA0fV0=" data-look="classic" marker-end="url(#my-svg_flowchart-v2-pointEnd)"/><path d="M526.078,345.531L469.081,353.426C412.083,361.321,298.089,377.11,241.091,391.089C184.094,405.067,184.094,417.233,179.885,428.645C175.677,440.057,167.26,450.713,163.052,456.042L158.843,461.37" id="my-svg-L_AI2_DB_0" class="edge-thickness-normal edge-pattern-solid edge-thickness-normal edge-pattern-solid flowchart-link" style=";" data-edge="true" data-et="edge" data-id="L_AI2_DB_0" data-points="W3sieCI6NTI2LjA3ODEyNSwieSI6MzQ1LjUzMTQyNTQ4NTAwNjh9LHsieCI6MTg0LjA5Mzc1LCJ5IjozOTIuOTAwMDAxNTI1ODc4OX0seyJ4IjoxODQuMDkzNzUsInkiOjQyOS40MDAwMDE1MjU4Nzg5fSx7IngiOjE1Ni4zNjM4MjcwMjAwNjU3LCJ5Ijo0NjQuNTA5MTA3MjAyODYzOTZ9XQ==" data-look="classic" marker-end="url(#my-svg_flowchart-v2-pointEnd)"/><path d="M526.078,356.114L501.16,362.245C476.241,368.376,426.404,380.638,401.485,392.852C376.566,405.067,376.566,417.233,371.234,429.562C365.902,441.89,355.237,454.379,349.904,460.624L344.572,466.869" id="my-svg-L_AI2_Cache_0" class="edge-thickness-normal edge-pattern-solid edge-thickness-normal edge-pattern-solid flowchart-link" style=";" data-edge="true" data-et="edge" data-id="L_AI2_Cache_0" data-points="W3sieCI6NTI2LjA3ODEyNSwieSI6MzU2LjExMzkzMjczNjM5MTF9LHsieCI6Mzc2LjU2NjQwNjI1LCJ5IjozOTIuOTAwMDAxNTI1ODc4OX0seyJ4IjozNzYuNTY2NDA2MjUsInkiOjQyOS40MDAwMDE1MjU4Nzg5fSx7IngiOjM0MS45NzQ0ODgwNTc2NDU4MywieSI6NDY5LjkxMDkxNzgzOTQ3MzU0fV0=" data-look="classic" marker-end="url(#my-svg_flowchart-v2-pointEnd)"/><path d="M624.492,356.4L624.492,362.483C624.492,368.567,624.492,380.733,624.492,392.9C624.492,405.067,624.492,417.233,624.524,429.242C624.556,441.25,624.619,453.101,624.651,459.026L624.682,464.951" id="my-svg-L_AI2_Storage_0" class="edge-thickness-normal edge-pattern-solid edge-thickness-normal edge-pattern-solid flowchart-link" style=";" data-edge="true" data-et="edge" data-id="L_AI2_Storage_0" data-points="W3sieCI6NjI0LjQ5MjE4NzUsInkiOjM1Ni40MDAwMDE1MjU4Nzg5fSx7IngiOjYyNC40OTIxODc1LCJ5IjozOTIuOTAwMDAxNTI1ODc4OX0seyJ4Ijo2MjQuNDkyMTg3NSwieSI6NDI5LjQwMDAwMTUyNTg3ODl9LHsieCI6NjI0LjcwMzc3NjEwNDAzMzQsInkiOjQ2OC45NTExMDQwNTQ1NDUzNH1d" data-look="classic" marker-end="url(#my-svg_flowchart-v2-pointEnd)"/><path d="M772.906,340.968L678.104,349.623C583.302,358.279,393.698,375.589,298.896,390.328C204.094,405.067,204.094,417.233,198.699,429.341C193.304,441.448,182.514,453.497,177.119,459.521L171.724,465.545" id="my-svg-L_AIN_DB_0" class="edge-thickness-normal edge-pattern-solid edge-thickness-normal edge-pattern-solid flowchart-link" style=";" data-edge="true" data-et="edge" data-id="L_AIN_DB_0" data-points="W3sieCI6NzcyLjkwNjI1LCJ5IjozNDAuOTY3ODY3ODk3ODgxMX0seyJ4IjoyMDQuMDkzNzUsInkiOjM5Mi45MDAwMDE1MjU4Nzg5fSx7IngiOjIwNC4wOTM3NSwieSI6NDI5LjQwMDAwMTUyNTg3ODl9LHsieCI6MTY5LjA1NTIwOTQxMTg0NjY1LCJ5Ijo0NjguNTI0NjQ1MDAwNTcxMn1d" data-look="classic" marker-end="url(#my-svg_flowchart-v2-pointEnd)"/><path d="M772.906,344.637L710.183,352.681C647.46,360.725,522.013,376.812,459.29,390.94C396.566,405.067,396.566,417.233,389.775,429.867C382.984,442.501,369.402,455.602,362.611,462.153L355.82,468.704" id="my-svg-L_AIN_Cache_0" class="edge-thickness-normal edge-pattern-solid edge-thickness-normal edge-pattern-solid flowchart-link" style=";" data-edge="true" data-et="edge" data-id="L_AIN_Cache_0" data-points="W3sieCI6NzcyLjkwNjI1LCJ5IjozNDQuNjM3MTE4NTI2MTAwNjZ9LHsieCI6Mzk2LjU2NjQwNjI1LCJ5IjozOTIuOTAwMDAxNTI1ODc4OX0seyJ4IjozOTYuNTY2NDA2MjUsInkiOjQyOS40MDAwMDE1MjU4Nzg5fSx7IngiOjM1Mi45NDE0NTc5NTg5NjQwNywieSI6NDcxLjQ4MDYzNzY0NTMzODg1fV0=" data-look="classic" marker-end="url(#my-svg_flowchart-v2-pointEnd)"/><path d="M846.049,356.4L839.55,362.483C833.05,368.567,820.05,380.733,813.551,392.9C807.051,405.067,807.051,417.233,788.409,431.987C769.766,446.742,732.482,464.083,713.839,472.754L695.197,481.425" id="my-svg-L_AIN_Storage_0" class="edge-thickness-normal edge-pattern-solid edge-thickness-normal edge-pattern-solid flowchart-link" style=";" data-edge="true" data-et="edge" data-id="L_AIN_Storage_0" data-points="W3sieCI6ODQ2LjA0OTQwNDQ1Njk2NzIsInkiOjM1Ni40MDAwMDE1MjU4Nzg5fSx7IngiOjgwNy4wNTA3ODEyNSwieSI6MzkyLjkwMDAwMTUyNTg3ODl9LHsieCI6ODA3LjA1MDc4MTI1LCJ5Ijo0MjkuNDAwMDAxNTI1ODc4OX0seyJ4Ijo2OTEuNTcwMzEyNSwieSI6NDgzLjExMTcwOTY4MjUyN31d" data-look="classic" marker-end="url(#my-svg_flowchart-v2-pointEnd)"/><path d="M476.078,342.445L554.557,350.854C633.036,359.263,789.995,376.082,868.474,390.574C946.953,405.067,946.953,417.233,950.389,426.996C953.825,436.759,960.696,444.118,964.132,447.797L967.567,451.476" id="my-svg-L_AI1_LLM_0" class="edge-thickness-normal edge-pattern-solid edge-thickness-normal edge-pattern-solid flowchart-link" style=";" data-edge="true" data-et="edge" data-id="L_AI1_LLM_0" data-points="W3sieCI6NDc2LjA3ODEyNSwieSI6MzQyLjQ0NTE4NTM0ODkwMzh9LHsieCI6OTQ2Ljk1MzEyNSwieSI6MzkyLjkwMDAwMTUyNTg3ODl9LHsieCI6OTQ2Ljk1MzEyNSwieSI6NDI5LjQwMDAwMTUyNTg3ODl9LHsieCI6OTcwLjI5NzIzNDUxNTIyODUsInkiOjQ1NC40MDAwMDE1MjU4Nzg5fV0=" data-look="classic" marker-end="url(#my-svg_flowchart-v2-pointEnd)"/><path d="M722.906,349.43L763.581,356.675C804.255,363.92,885.604,378.41,926.279,391.738C966.953,405.067,966.953,417.233,969.479,426.937C972.004,436.64,977.055,443.88,979.58,447.5L982.105,451.119" id="my-svg-L_AI2_LLM_0" class="edge-thickness-normal edge-pattern-solid edge-thickness-normal edge-pattern-solid flowchart-link" style=";" data-edge="true" data-et="edge" data-id="L_AI2_LLM_0" data-points="W3sieCI6NzIyLjkwNjI1LCJ5IjozNDkuNDI5NzYwODUwNjE5NH0seyJ4Ijo5NjYuOTUzMTI1LCJ5IjozOTIuOTAwMDAxNTI1ODc4OX0seyJ4Ijo5NjYuOTUzMTI1LCJ5Ijo0MjkuNDAwMDAxNTI1ODc4OX0seyJ4Ijo5ODQuMzk0MDQ2ODQ3MDMyMywieSI6NDU0LjQwMDAwMTUyNTg3ODl9XQ==" data-look="classic" marker-end="url(#my-svg_flowchart-v2-pointEnd)"/><path d="M971.547,355.791L997.259,361.976C1022.971,368.16,1074.396,380.53,1100.108,392.798C1125.82,405.067,1125.82,417.233,1121.42,427.052C1117.02,436.87,1108.22,444.341,1103.82,448.076L1099.42,451.811" id="my-svg-L_AIN_LLM_0" class="edge-thickness-normal edge-pattern-solid edge-thickness-normal edge-pattern-solid flowchart-link" style=";" data-edge="true" data-et="edge" data-id="L_AIN_LLM_0" data-points="W3sieCI6OTcxLjU0Njg3NSwieSI6MzU1Ljc5MDcyODU3NDU1NDJ9LHsieCI6MTEyNS44MjAzMTI1LCJ5IjozOTIuOTAwMDAxNTI1ODc4OX0seyJ4IjoxMTI1LjgyMDMxMjUsInkiOjQyOS40MDAwMDE1MjU4Nzg5fSx7IngiOjEwOTYuMzcwMDkzMjQwNDgwOSwieSI6NDU0LjQwMDAwMTUyNTg3ODl9XQ==" data-look="classic" marker-end="url(#my-svg_flowchart-v2-pointEnd)"/><path d="M476.078,339.408L592.94,348.323C709.802,357.239,943.526,375.069,1060.388,390.068C1177.25,405.067,1177.25,417.233,1191.962,431.558C1206.673,445.882,1236.097,462.363,1250.808,470.604L1265.52,478.845" id="my-svg-L_AI1_Obs_0" class="edge-thickness-normal edge-pattern-dotted edge-thickness-normal edge-pattern-solid flowchart-link" style=";" data-edge="true" data-et="edge" data-id="L_AI1_Obs_0" data-points="W3sieCI6NDc2LjA3ODEyNSwieSI6MzM5LjQwNzk1OTc0NjQ0MjI2fSx7IngiOjExNzcuMjUsInkiOjM5Mi45MDAwMDE1MjU4Nzg5fSx7IngiOjExNzcuMjUsInkiOjQyOS40MDAwMDE1MjU4Nzg5fSx7IngiOjEyNjkuMDA5NjQwNjk2MTgxMywieSI6NDgwLjgwMDAwMzA1MTc1Nzh9XQ==" data-look="classic" marker-end="url(#my-svg_flowchart-v2-pointEnd)"/><path d="M722.906,341.836L807.202,350.347C891.497,358.857,1060.089,375.879,1144.384,390.473C1228.68,405.067,1228.68,417.233,1238.263,431.452C1247.846,445.67,1267.013,461.941,1276.597,470.076L1286.18,478.211" id="my-svg-L_AI2_Obs_0" class="edge-thickness-normal edge-pattern-dotted edge-thickness-normal edge-pattern-solid flowchart-link" style=";" data-edge="true" data-et="edge" data-id="L_AI2_Obs_0" data-points="W3sieCI6NzIyLjkwNjI1LCJ5IjozNDEuODM2MDg1NjI2NDI3Mn0seyJ4IjoxMjI4LjY3OTY4NzUsInkiOjM5Mi45MDAwMDE1MjU4Nzg5fSx7IngiOjEyMjguNjc5Njg3NSwieSI6NDI5LjQwMDAwMTUyNTg3ODl9LHsieCI6MTI4OS4yMjkzNDAwOTUwNywieSI6NDgwLjgwMDAwMzA1MTc1Nzh9XQ==" data-look="classic" marker-end="url(#my-svg_flowchart-v2-pointEnd)"/><path d="M971.547,344.895L1032.699,352.896C1093.85,360.896,1216.154,376.898,1277.305,390.982C1338.457,405.067,1338.457,417.233,1337.524,431.221C1336.591,445.209,1334.724,461.018,1333.791,468.923L1332.858,476.828" id="my-svg-L_AIN_Obs_0" class="edge-thickness-normal edge-pattern-dotted edge-thickness-normal edge-pattern-solid flowchart-link" style=";" data-edge="true" data-et="edge" data-id="L_AIN_Obs_0" data-points="W3sieCI6OTcxLjU0Njg3NSwieSI6MzQ0Ljg5NDczMTUzMzAwMDU0fSx7IngiOjEzMzguNDU3MDMxMjUsInkiOjM5Mi45MDAwMDE1MjU4Nzg5fSx7IngiOjEzMzguNDU3MDMxMjUsInkiOjQyOS40MDAwMDE1MjU4Nzg5fSx7IngiOjEzMzIuMzg4NTU0MTQ2OTQzMywieSI6NDgwLjgwMDAwMzA1MTc1Nzh9XQ==" data-look="classic" marker-end="url(#my-svg_flowchart-v2-pointEnd)"/></g><g class="edgeLabels"><g class="edgeLabel" transform="translate(624.4921875, 78.5)"><g class="label" data-id="L_Browser_LB_0" transform="translate(0, -10.5)"><g><rect class="background" style="" x="-49.1328125" y="-1" width="98.265625" height="23"/><text y="-10.1" text-anchor="middle" style=""><tspan class="text-outer-tspan row" x="0" y="-0.1em" dy="1.1em" text-anchor="middle"><tspan font-style="normal" class="text-inner-tspan" font-weight="normal">HTTPS</tspan><tspan font-style="normal" class="text-inner-tspan" font-weight="normal"> +</tspan><tspan font-style="normal" class="text-inner-tspan" font-weight="normal"> JWT</tspan></tspan></text></g></g></g><g class="edgeLabel" transform="translate(377.6640625, 270.9000015258789)"><g class="label" data-id="L_LB_AI1_0" transform="translate(0, -10.5)"><g><rect class="background" style="" x="-42.9765625" y="-1" width="85.953125" height="23"/><text y="-10.1" text-anchor="middle" style=""><tspan class="text-outer-tspan row" x="0" y="-0.1em" dy="1.1em" text-anchor="middle"><tspan font-style="normal" class="text-inner-tspan" font-weight="normal">HTTP</tspan><tspan font-style="normal" class="text-inner-tspan" font-weight="normal"> :8000</tspan></tspan></text></g></g></g><g class="edgeLabel" transform="translate(624.4921875, 270.9000015258789)"><g class="label" data-id="L_LB_AI2_0" transform="translate(0, -10.5)"><g><rect class="background" style="" x="-42.9765625" y="-1" width="85.953125" height="23"/><text y="-10.1" text-anchor="middle" style=""><tspan class="text-outer-tspan row" x="0" y="-0.1em" dy="1.1em" text-anchor="middle"><tspan font-style="normal" class="text-inner-tspan" font-weight="normal">HTTP</tspan><tspan font-style="normal" class="text-inner-tspan" font-weight="normal"> :8000</tspan></tspan></text></g></g></g><g class="edgeLabel" transform="translate(872.2265625, 270.9000015258789)"><g class="label" data-id="L_LB_AIN_0" transform="translate(0, -10.5)"><g><rect class="background" style="" x="-42.9765625" y="-1" width="85.953125" height="23"/><text y="-10.1" text-anchor="middle" style=""><tspan class="text-outer-tspan row" x="0" y="-0.1em" dy="1.1em" text-anchor="middle"><tspan font-style="normal" class="text-inner-tspan" font-weight="normal">HTTP</tspan><tspan font-style="normal" class="text-inner-tspan" font-weight="normal"> :8000</tspan></tspan></text></g></g></g><g class="edgeLabel"><g class="label" data-id="L_AI1_DB_0" transform="translate(0, 0)"><text y="-10.1" text-anchor="middle"><tspan class="text-outer-tspan row" x="0" y="-0.1em" dy="1.1em" text-anchor="middle"/></text></g></g><g><rect class="background" style="stroke: none"/></g><g class="edgeLabel"><g class="label" data-id="L_AI1_Cache_0" transform="translate(0, 0)"><text y="-10.1" text-anchor="middle"><tspan class="text-outer-tspan row" x="0" y="-0.1em" dy="1.1em" text-anchor="middle"/></text></g></g><g><rect class="background" style="stroke: none"/></g><g class="edgeLabel"><g class="label" data-id="L_AI1_Storage_0" transform="translate(0, 0)"><text y="-10.1" text-anchor="middle"><tspan class="text-outer-tspan row" x="0" y="-0.1em" dy="1.1em" text-anchor="middle"/></text></g></g><g><rect class="background" style="stroke: none"/></g><g class="edgeLabel"><g class="label" data-id="L_AI2_DB_0" transform="translate(0, 0)"><text y="-10.1" text-anchor="middle"><tspan class="text-outer-tspan row" x="0" y="-0.1em" dy="1.1em" text-anchor="middle"/></text></g></g><g><rect class="background" style="stroke: none"/></g><g class="edgeLabel"><g class="label" data-id="L_AI2_Cache_0" transform="translate(0, 0)"><text y="-10.1" text-anchor="middle"><tspan class="text-outer-tspan row" x="0" y="-0.1em" dy="1.1em" text-anchor="middle"/></text></g></g><g><rect class="background" style="stroke: none"/></g><g class="edgeLabel"><g class="label" data-id="L_AI2_Storage_0" transform="translate(0, 0)"><text y="-10.1" text-anchor="middle"><tspan class="text-outer-tspan row" x="0" y="-0.1em" dy="1.1em" text-anchor="middle"/></text></g></g><g><rect class="background" style="stroke: none"/></g><g class="edgeLabel"><g class="label" data-id="L_AIN_DB_0" transform="translate(0, 0)"><text y="-10.1" text-anchor="middle"><tspan class="text-outer-tspan row" x="0" y="-0.1em" dy="1.1em" text-anchor="middle"/></text></g></g><g><rect class="background" style="stroke: none"/></g><g class="edgeLabel"><g class="label" data-id="L_AIN_Cache_0" transform="translate(0, 0)"><text y="-10.1" text-anchor="middle"><tspan class="text-outer-tspan row" x="0" y="-0.1em" dy="1.1em" text-anchor="middle"/></text></g></g><g><rect class="background" style="stroke: none"/></g><g class="edgeLabel"><g class="label" data-id="L_AIN_Storage_0" transform="translate(0, 0)"><text y="-10.1" text-anchor="middle"><tspan class="text-outer-tspan row" x="0" y="-0.1em" dy="1.1em" text-anchor="middle"/></text></g></g><g><rect class="background" style="stroke: none"/></g><g class="edgeLabel"><g class="label" data-id="L_AI1_LLM_0" transform="translate(0, 0)"><text y="-10.1" text-anchor="middle"><tspan class="text-outer-tspan row" x="0" y="-0.1em" dy="1.1em" text-anchor="middle"/></text></g></g><g><rect class="background" style="stroke: none"/></g><g class="edgeLabel"><g class="label" data-id="L_AI2_LLM_0" transform="translate(0, 0)"><text y="-10.1" text-anchor="middle"><tspan class="text-outer-tspan row" x="0" y="-0.1em" dy="1.1em" text-anchor="middle"/></text></g></g><g><rect class="background" style="stroke: none"/></g><g class="edgeLabel"><g class="label" data-id="L_AIN_LLM_0" transform="translate(0, 0)"><text y="-10.1" text-anchor="middle"><tspan class="text-outer-tspan row" x="0" y="-0.1em" dy="1.1em" text-anchor="middle"/></text></g></g><g><rect class="background" style="stroke: none"/></g><g class="edgeLabel" transform="translate(1177.25, 392.9000015258789)"><g class="label" data-id="L_AI1_Obs_0" transform="translate(0, -10.5)"><g><rect class="background" style="" x="-31.4296875" y="-1" width="62.859375" height="23"/><text y="-10.1" text-anchor="middle" style=""><tspan class="text-outer-tspan row" x="0" y="-0.1em" dy="1.1em" text-anchor="middle"><tspan font-style="normal" class="text-inner-tspan" font-weight="normal">optional</tspan></tspan></text></g></g></g><g class="edgeLabel"><g class="label" data-id="L_AI2_Obs_0" transform="translate(0, 0)"><text y="-10.1" text-anchor="middle"><tspan class="text-outer-tspan row" x="0" y="-0.1em" dy="1.1em" text-anchor="middle"/></text></g></g><g><rect class="background" style="stroke: none"/></g><g class="edgeLabel"><g class="label" data-id="L_AIN_Obs_0" transform="translate(0, 0)"><text y="-10.1" text-anchor="middle"><tspan class="text-outer-tspan row" x="0" y="-0.1em" dy="1.1em" text-anchor="middle"/></text></g></g><g><rect class="background" style="stroke: none"/></g></g><g class="nodes"><g class="node default" id="my-svg-flowchart-Browser-0" data-look="classic" transform="translate(624.4921875, 25)"><g class="basic label-container outer-path"><path d="M-64.40625 -17 C-34.411719979644765 -17, -4.41718995928953 -17, 64.40625 -17 C64.40625 -17, 64.40625 -17, 64.40625 -17 C64.64581119839707 -16.992317738644992, 64.88537239679412 -16.98463547728998, 65.49544373967211 -16.965071676755716 C65.85951455348317 -16.92995020320658, 66.22358536729422 -16.894828729657444, 66.5801617486366 -16.860430234995185 C66.83217922926876 -16.81968600315133, 67.08419670990092 -16.778941771307476, 67.65594668792333 -16.686505668848113 C67.95011658054223 -16.619363310495796, 68.24428647316114 -16.552220952143482, 68.71837792646163 -16.4440126716635 C68.95315361585244 -16.37433247941505, 69.18792930524326 -16.304652287166594, 69.76308970640156 -16.133947699181366 C70.0580368741443 -16.025404414990305, 70.35298404188704 -15.916861130799244, 70.78578908294936 -15.757584874882369 C71.08472603136582 -15.625254355467915, 71.38366297978226 -15.49292383605346, 71.78227356499849 -15.316470754341125 C71.99057014606537 -15.207802561418866, 72.19886672713223 -15.099134368496607, 72.74844838406693 -14.812417970097622 C72.96781242190207 -14.679438201235786, 73.1871764597372 -14.546458432373951, 73.68034332057933 -14.247497783161291 C73.87556393018151 -14.11132033686679, 74.0707845397837 -13.975142890572286, 74.57412901835067 -13.624031571755262 C74.87111383281642 -13.387194085316656, 75.16809864728216 -13.150356598878048, 75.4261327202324 -12.944581292275288 C75.59340687761714 -12.79266732837015, 75.76068103500187 -12.640753364465013, 76.23285336025927 -12.21193895166137 C76.52235263633352 -11.913007180782108, 76.81185191240777 -11.614075409902844, 76.99097595028036 -11.42911513444239 C77.25203265496577 -11.122463074571593, 77.51308935965119 -10.815811014700797, 77.69738520195651 -10.59932663159847 C77.94405060939697 -10.268817457309154, 78.19071601683743 -9.938308283019838, 78.34917832814824 -9.725983222076888 C78.48306362354843 -9.520299455106459, 78.61694891894861 -9.31461568813603, 78.94367697109088 -8.812673661278927 C79.10821200583393 -8.520525046113718, 79.27274704057699 -8.22837643094851, 79.478438208341 -7.863150934094199 C79.57422847825498 -7.664240389034399, 79.67001874816894 -7.465329843974599, 79.95126459126881 -6.881316833080699 C80.0567547390464 -6.620754128556784, 80.162244886824 -6.360191424032868, 80.36021317484592 -5.871205925162238 C80.48432458476032 -5.497402132967857, 80.60843599467469 -5.123598340773476, 80.70360350162323 -4.836968972727556 C80.77614124603413 -4.560351115231512, 80.84867899044502 -4.283733257735467, 80.980024507091 -3.7828558772573464 C81.02440323134962 -3.554980507636021, 81.06878195560824 -3.327105138014695, 81.18834031804565 -2.713198215567453 C81.22180616929916 -2.453643681824997, 81.25527202055268 -2.1940891480825404, 81.32769492013637 -1.632391440430593 C81.35506892120331 -1.2060192779169288, 81.38244292227027 -0.7796471154032645, 81.3975156754117 -0.5448768187181379 C81.3975156754117 -0.1291583582025297, 81.3975156754117 0.2865601023130785, 81.3975156754117 0.5448768187181336 C81.3745714159825 0.9022521796007038, 81.3516271565533 1.259627540483274, 81.32769492013637 1.6323914404305815 C81.28653865586351 1.9515912989072264, 81.24538239159065 2.2707911573838713, 81.18834031804565 2.7131982155674415 C81.13183875260138 3.003321812513674, 81.07533718715712 3.2934454094599057, 80.980024507091 3.782855877257343 C80.90659743380407 4.062865131195307, 80.83317036051713 4.34287438513327, 80.70360350162323 4.836968972727545 C80.59550651536945 5.162539872408109, 80.48740952911565 5.488110772088673, 80.36021317484592 5.871205925162227 C80.25390023625934 6.133800938891912, 80.14758729767277 6.396395952621597, 79.95126459126881 6.881316833080694 C79.7675675052289 7.262767762730559, 79.58387041918898 7.6442186923804245, 79.478438208341 7.863150934094196 C79.2766262458905 8.221488509102235, 79.07481428343999 8.579826084110273, 78.94367697109088 8.812673661278923 C78.735170390146 9.132995761466844, 78.52666380920112 9.453317861654767, 78.34917832814826 9.725983222076879 C78.11601934353625 10.038395020236484, 77.88286035892426 10.350806818396089, 77.69738520195651 10.599326631598467 C77.46685919391207 10.870115597948926, 77.23633318586762 11.140904564299383, 76.99097595028037 11.42911513444238 C76.79347515041398 11.633050925421655, 76.59597435054759 11.83698671640093, 76.23285336025927 12.211938951661365 C76.04266339600906 12.384664445042704, 75.85247343175885 12.557389938424041, 75.42613272023242 12.944581292275275 C75.09802313168535 13.206239957778717, 74.76991354313829 13.467898623282156, 74.57412901835067 13.62403157175526 C74.33940623344459 13.787764025520154, 74.10468344853851 13.95149647928505, 73.68034332057934 14.247497783161286 C73.38112158176963 14.428887759649854, 73.08189984295991 14.61027773613842, 72.74844838406695 14.81241797009762 C72.54406698276566 14.91904361624397, 72.33968558146435 15.025669262390318, 71.78227356499849 15.316470754341124 C71.44447450467483 15.466004377893313, 71.10667544435115 15.615538001445502, 70.78578908294936 15.757584874882367 C70.41247161559033 15.894969153779327, 70.03915414823132 16.032353432676285, 69.76308970640156 16.133947699181363 C69.521459878449 16.205662163776836, 69.27983005049643 16.27737662837231, 68.71837792646164 16.444012671663497 C68.30333403048753 16.53874373250505, 67.88829013451343 16.633474793346604, 67.65594668792333 16.68650566884811 C67.33802174045005 16.7379053088108, 67.02009679297676 16.78930494877349, 66.58016174863661 16.86043023499518 C66.19624344771545 16.897466371755737, 65.81232514679428 16.93450250851629, 65.49544373967211 16.965071676755716 C65.07001089466989 16.97871448004014, 64.64457804966769 16.992357283324566, 64.40625 17 C64.40625 17, 64.40625 17, 64.40625 17 C20.171136006219577 17, -24.063977987560847 17, -64.40625 17 C-64.79797289896582 16.987438209072533, -65.18969579793165 16.97487641814507, -65.49544373967211 16.965071676755716 C-65.90188904996798 16.925862386493478, -66.30833436026386 16.886653096231235, -66.5801617486366 16.86043023499518 C-66.84633258183528 16.81739779886926, -67.11250341503397 16.774365362743335, -67.65594668792333 16.68650566884811 C-68.07123758948516 16.59171823059302, -68.486528491047 16.496930792337928, -68.71837792646161 16.4440126716635 C-69.07525850103373 16.33809239043486, -69.43213907560586 16.232172109206218, -69.76308970640154 16.13394769918137 C-69.98309131838475 16.05298507229894, -70.20309293036797 15.97202244541651, -70.78578908294936 15.757584874882369 C-71.09388188686164 15.621201329838714, -71.40197469077393 15.48481778479506, -71.78227356499849 15.316470754341127 C-72.09840030055598 15.15154763888962, -72.41452703611348 14.98662452343811, -72.74844838406693 14.812417970097624 C-73.03712602824827 14.63741988573676, -73.3258036724296 14.462421801375895, -73.68034332057931 14.247497783161299 C-73.94218234795775 14.064850212490908, -74.2040213753362 13.882202641820518, -74.57412901835067 13.624031571755264 C-74.83244445365101 13.418031886165672, -75.09075988895135 13.212032200576079, -75.4261327202324 12.94458129227529 C-75.74777015952283 12.652478679972027, -76.06940759881326 12.360376067668764, -76.23285336025926 12.211938951661377 C-76.50950972166513 11.926268544600129, -76.78616608307098 11.64059813753888, -76.99097595028036 11.429115134442386 C-77.23613097177136 11.14114209648315, -77.48128599326238 10.853169058523918, -77.69738520195651 10.599326631598473 C-77.93523782078084 10.28062579119321, -78.17309043960518 9.961924950787946, -78.34917832814824 9.72598322207689 C-78.47244116067758 9.536618410606769, -78.59570399320691 9.347253599136646, -78.94367697109088 8.812673661278936 C-79.0805898311801 8.569571014260076, -79.21750269126933 8.326468367241214, -79.478438208341 7.863150934094201 C-79.6217007461961 7.565663208910845, -79.76496328405119 7.2681754837274894, -79.95126459126881 6.881316833080701 C-80.07847453463904 6.567105813519298, -80.20568447800926 6.2528947939578945, -80.36021317484592 5.87120592516224 C-80.48648075593458 5.490908088930194, -80.61274833702322 5.110610252698147, -80.70360350162323 4.8369689727275516 C-80.79156293899374 4.501541516172545, -80.87952237636422 4.166114059617538, -80.980024507091 3.782855877257349 C-81.02538067865193 3.5499615223222625, -81.07073685021285 3.317067167387176, -81.18834031804565 2.713198215567455 C-81.2346574630736 2.3539715850854117, -81.28097460810157 1.994744954603368, -81.32769492013637 1.6323914404306026 C-81.35340898186065 1.2318741730577591, -81.37912304358495 0.8313569056849155, -81.3975156754117 0.54487681871814 C-81.3975156754117 0.30580105246947376, -81.3975156754117 0.06672528622080748, -81.3975156754117 -0.5448768187181317 C-81.3698805152155 -0.9753167454736255, -81.34224535501932 -1.4057566722291193, -81.32769492013637 -1.6323914404305793 C-81.28538465423244 -1.9605415076743788, -81.24307438832852 -2.2886915749181784, -81.18834031804565 -2.713198215567447 C-81.136857350035 -2.9775523753729862, -81.08537438202436 -3.2419065351785257, -80.980024507091 -3.782855877257341 C-80.90619913343612 -4.064384023122751, -80.83237375978123 -4.345912168988161, -80.70360350162323 -4.836968972727544 C-80.56773383442837 -5.246186762426857, -80.4318641672335 -5.655404552126171, -80.36021317484594 -5.871205925162218 C-80.25982374421032 -6.1191697597297825, -80.1594343135747 -6.367133594297346, -79.95126459126881 -6.881316833080692 C-79.81565627636363 -7.162910400534434, -79.68004796145844 -7.444503967988177, -79.478438208341 -7.863150934094194 C-79.35612497515791 -8.08033046516868, -79.23381174197482 -8.297509996243168, -78.94367697109088 -8.812673661278929 C-78.74361128705546 -9.120028277115741, -78.54354560302004 -9.427382892952552, -78.34917832814826 -9.725983222076884 C-78.17818232001186 -9.95510229492284, -78.00718631187546 -10.184221367768796, -77.69738520195651 -10.599326631598467 C-77.41743923364508 -10.928167095353926, -77.13749326533366 -11.257007559109384, -76.99097595028037 -11.42911513444238 C-76.81072774584528 -11.615236204174405, -76.6304795414102 -11.801357273906428, -76.23285336025927 -12.21193895166136 C-75.9753616297787 -12.445786128425956, -75.71786989929814 -12.679633305190553, -75.42613272023242 -12.944581292275274 C-75.21808882364559 -13.11049076352267, -75.01004492705877 -13.276400234770065, -74.57412901835067 -13.624031571755259 C-74.29391130738738 -13.819499316494054, -74.01369359642409 -14.014967061232852, -73.68034332057934 -14.247497783161284 C-73.4030286931673 -14.415607539980105, -73.12571406575526 -14.583717296798925, -72.74844838406695 -14.812417970097618 C-72.47116926234183 -14.957074310295857, -72.19389014061672 -15.101730650494096, -71.78227356499849 -15.316470754341124 C-71.5483900484005 -15.420004049231034, -71.31450653180252 -15.523537344120946, -70.78578908294936 -15.757584874882365 C-70.38603371725375 -15.904698544756444, -69.98627835155813 -16.051812214630523, -69.76308970640156 -16.133947699181363 C-69.50959938862499 -16.20918229489962, -69.25610907084842 -16.284416890617873, -68.71837792646164 -16.444012671663494 C-68.43846616465943 -16.5079007046999, -68.15855440285722 -16.571788737736302, -67.65594668792333 -16.68650566884811 C-67.3541555039066 -16.73529692705435, -67.05236431988985 -16.78408818526059, -66.58016174863661 -16.86043023499518 C-66.18820152101522 -16.898242166752677, -65.79624129339382 -16.93605409851017, -65.49544373967213 -16.965071676755716 C-65.26385873754302 -16.972498157021136, -65.03227373541391 -16.979924637286555, -64.40625 -17 C-64.40625 -17, -64.40625 -17, -64.40625 -17" stroke="none" stroke-width="0" fill="#ECECFF" style=""/><path d="M-64.40625 -17 C-26.498471691090472 -17, 11.409306617819055 -17, 64.40625 -17 M-64.40625 -17 C-31.240396289116575 -17, 1.9254574217668505 -17, 64.40625 -17 M64.40625 -17 C64.40625 -17, 64.40625 -17, 64.40625 -17 M64.40625 -17 C64.40625 -17, 64.40625 -17, 64.40625 -17 M64.40625 -17 C64.71620087253157 -16.990060478800686, 65.02615174506315 -16.980120957601372, 65.49544373967211 -16.965071676755716 M64.40625 -17 C64.69332513254157 -16.99079405925724, 64.98040026508313 -16.981588118514477, 65.49544373967211 -16.965071676755716 M65.49544373967211 -16.965071676755716 C65.87599567044388 -16.92836028967482, 66.25654760121566 -16.89164890259393, 66.5801617486366 -16.860430234995185 M65.49544373967211 -16.965071676755716 C65.79732314282137 -16.93594973379701, 66.09920254597063 -16.9068277908383, 66.5801617486366 -16.860430234995185 M66.5801617486366 -16.860430234995185 C66.8072648257469 -16.82371397069866, 67.0343679028572 -16.786997706402133, 67.65594668792333 -16.686505668848113 M66.5801617486366 -16.860430234995185 C66.90955420479757 -16.80717661715973, 67.23894666095855 -16.75392299932427, 67.65594668792333 -16.686505668848113 M67.65594668792333 -16.686505668848113 C67.9146167135203 -16.62746592348527, 68.17328673911726 -16.56842617812243, 68.71837792646163 -16.4440126716635 M67.65594668792333 -16.686505668848113 C68.0019082714211 -16.607542195025065, 68.34786985491887 -16.528578721202017, 68.71837792646163 -16.4440126716635 M68.71837792646163 -16.4440126716635 C69.01000895015213 -16.357458114634642, 69.30163997384261 -16.270903557605784, 69.76308970640156 -16.133947699181366 M68.71837792646163 -16.4440126716635 C69.08519961573637 -16.335141919773093, 69.45202130501113 -16.226271167882686, 69.76308970640156 -16.133947699181366 M69.76308970640156 -16.133947699181366 C69.97639377967617 -16.055449828455068, 70.1896978529508 -15.976951957728769, 70.78578908294936 -15.757584874882369 M69.76308970640156 -16.133947699181366 C70.1005198431135 -16.00977028970138, 70.43794997982546 -15.88559288022139, 70.78578908294936 -15.757584874882369 M70.78578908294936 -15.757584874882369 C71.17186095339086 -15.58668231025305, 71.55793282383236 -15.415779745623729, 71.78227356499849 -15.316470754341125 M70.78578908294936 -15.757584874882369 C71.06145412107966 -15.635556139814904, 71.33711915920995 -15.51352740474744, 71.78227356499849 -15.316470754341125 M71.78227356499849 -15.316470754341125 C72.14373701418535 -15.127895504428727, 72.50520046337222 -14.939320254516328, 72.74844838406693 -14.812417970097622 M71.78227356499849 -15.316470754341125 C72.01716410519985 -15.193928509972647, 72.2520546454012 -15.071386265604168, 72.74844838406693 -14.812417970097622 M72.74844838406693 -14.812417970097622 C72.97279072174625 -14.67642032661451, 73.19713305942555 -14.540422683131396, 73.68034332057933 -14.247497783161291 M72.74844838406693 -14.812417970097622 C73.11400126463703 -14.59081766566886, 73.4795541452071 -14.369217361240096, 73.68034332057933 -14.247497783161291 M73.68034332057933 -14.247497783161291 C74.00559439890995 -14.020616710810097, 74.33084547724059 -13.793735638458905, 74.57412901835067 -13.624031571755262 M73.68034332057933 -14.247497783161291 C73.9300098271557 -14.073341236062493, 74.17967633373206 -13.899184688963697, 74.57412901835067 -13.624031571755262 M74.57412901835067 -13.624031571755262 C74.83903355369515 -13.412777254223794, 75.1039380890396 -13.201522936692324, 75.4261327202324 -12.944581292275288 M74.57412901835067 -13.624031571755262 C74.7703489066437 -13.467551432472098, 74.96656879493672 -13.311071293188931, 75.4261327202324 -12.944581292275288 M75.4261327202324 -12.944581292275288 C75.60416324505908 -12.782898680057254, 75.78219376988578 -12.621216067839221, 76.23285336025927 -12.21193895166137 M75.4261327202324 -12.944581292275288 C75.73101382384402 -12.667696340687174, 76.03589492745564 -12.39081138909906, 76.23285336025927 -12.21193895166137 M76.23285336025927 -12.21193895166137 C76.52421880313202 -11.911080210347524, 76.81558424600475 -11.610221469033679, 76.99097595028036 -11.42911513444239 M76.23285336025927 -12.21193895166137 C76.43318395415956 -12.005081166011685, 76.63351454805984 -11.798223380361998, 76.99097595028036 -11.42911513444239 M76.99097595028036 -11.42911513444239 C77.14402997536139 -11.249329167561468, 77.29708400044242 -11.069543200680549, 77.69738520195651 -10.59932663159847 M76.99097595028036 -11.42911513444239 C77.18510722133234 -11.20107749708247, 77.37923849238435 -10.97303985972255, 77.69738520195651 -10.59932663159847 M77.69738520195651 -10.59932663159847 C77.89682050810542 -10.33210149028908, 78.09625581425433 -10.06487634897969, 78.34917832814824 -9.725983222076888 M77.69738520195651 -10.59932663159847 C77.94863753216836 -10.262671398672742, 78.19988986238022 -9.926016165747015, 78.34917832814824 -9.725983222076888 M78.34917832814824 -9.725983222076888 C78.58651504077528 -9.361370297650843, 78.82385175340231 -8.9967573732248, 78.94367697109088 -8.812673661278927 M78.34917832814824 -9.725983222076888 C78.49461587739097 -9.5025520909898, 78.64005342663371 -9.279120959902714, 78.94367697109088 -8.812673661278927 M78.94367697109088 -8.812673661278927 C79.11558073851309 -8.507441115076782, 79.2874845059353 -8.202208568874637, 79.478438208341 -7.863150934094199 M78.94367697109088 -8.812673661278927 C79.06564816423379 -8.596101456931086, 79.18761935737672 -8.379529252583245, 79.478438208341 -7.863150934094199 M79.478438208341 -7.863150934094199 C79.6251468328674 -7.558507336203451, 79.77185545739378 -7.253863738312703, 79.95126459126881 -6.881316833080699 M79.478438208341 -7.863150934094199 C79.63966130491471 -7.528367724437239, 79.80088440148843 -7.193584514780278, 79.95126459126881 -6.881316833080699 M79.95126459126881 -6.881316833080699 C80.04038366722347 -6.66119099247258, 80.12950274317812 -6.4410651518644615, 80.36021317484592 -5.871205925162238 M79.95126459126881 -6.881316833080699 C80.08302467415584 -6.5558668809418315, 80.21478475704286 -6.230416928802964, 80.36021317484592 -5.871205925162238 M80.36021317484592 -5.871205925162238 C80.44172022301728 -5.62571968245464, 80.52322727118865 -5.380233439747041, 80.70360350162323 -4.836968972727556 M80.36021317484592 -5.871205925162238 C80.48615593229106 -5.491886405990849, 80.61209868973619 -5.11256688681946, 80.70360350162323 -4.836968972727556 M80.70360350162323 -4.836968972727556 C80.79374996643932 -4.493201432658804, 80.88389643125542 -4.149433892590051, 80.980024507091 -3.7828558772573464 M80.70360350162323 -4.836968972727556 C80.79036416709533 -4.506112952972174, 80.87712483256743 -4.175256933216793, 80.980024507091 -3.7828558772573464 M80.980024507091 -3.7828558772573464 C81.04553299567543 -3.4464836336002587, 81.11104148425986 -3.110111389943171, 81.18834031804565 -2.713198215567453 M80.980024507091 -3.7828558772573464 C81.03960250381107 -3.4769354559138512, 81.09918050053113 -3.171015034570356, 81.18834031804565 -2.713198215567453 M81.18834031804565 -2.713198215567453 C81.23213870626911 -2.37350656547629, 81.27593709449258 -2.0338149153851273, 81.32769492013637 -1.632391440430593 M81.18834031804565 -2.713198215567453 C81.23027132708525 -2.387989589670581, 81.27220233612485 -2.062780963773709, 81.32769492013637 -1.632391440430593 M81.32769492013637 -1.632391440430593 C81.35520487783897 -1.2039016435743415, 81.38271483554158 -0.7754118467180897, 81.3975156754117 -0.5448768187181379 M81.32769492013637 -1.632391440430593 C81.34340927601734 -1.3876276631847013, 81.35912363189831 -1.1428638859388096, 81.3975156754117 -0.5448768187181379 M81.3975156754117 -0.5448768187181379 C81.3975156754117 -0.2676430455328599, 81.3975156754117 0.009590727652418085, 81.3975156754117 0.5448768187181336 M81.3975156754117 -0.5448768187181379 C81.3975156754117 -0.3106872599762346, 81.3975156754117 -0.0764977012343313, 81.3975156754117 0.5448768187181336 M81.3975156754117 0.5448768187181336 C81.3706410489908 0.9634708180315277, 81.34376642256991 1.3820648173449217, 81.32769492013637 1.6323914404305815 M81.3975156754117 0.5448768187181336 C81.37792441044671 0.8500265843322328, 81.35833314548172 1.155176349946332, 81.32769492013637 1.6323914404305815 M81.32769492013637 1.6323914404305815 C81.28511659062495 1.9626205560789172, 81.24253826111354 2.292849671727253, 81.18834031804565 2.7131982155674415 M81.32769492013637 1.6323914404305815 C81.29925654034058 1.8529538983334362, 81.27081816054479 2.073516356236291, 81.18834031804565 2.7131982155674415 M81.18834031804565 2.7131982155674415 C81.14120731029065 2.955216248824653, 81.09407430253565 3.1972342820818644, 80.980024507091 3.782855877257343 M81.18834031804565 2.7131982155674415 C81.10921493260118 3.1194903466686834, 81.0300895471567 3.5257824777699254, 80.980024507091 3.782855877257343 M80.980024507091 3.782855877257343 C80.87589725909804 4.1799382028892555, 80.77177001110508 4.577020528521167, 80.70360350162323 4.836968972727545 M80.980024507091 3.782855877257343 C80.90439643926801 4.071258477278338, 80.82876837144502 4.359661077299333, 80.70360350162323 4.836968972727545 M80.70360350162323 4.836968972727545 C80.62684186123914 5.068162803257927, 80.55008022085507 5.299356633788308, 80.36021317484592 5.871205925162227 M80.70360350162323 4.836968972727545 C80.60678826401607 5.128561042986988, 80.50997302640893 5.420153113246431, 80.36021317484592 5.871205925162227 M80.36021317484592 5.871205925162227 C80.23957373574318 6.16918767215089, 80.11893429664043 6.467169419139552, 79.95126459126881 6.881316833080694 M80.36021317484592 5.871205925162227 C80.2237131320623 6.208363669886589, 80.08721308927866 6.545521414610951, 79.95126459126881 6.881316833080694 M79.95126459126881 6.881316833080694 C79.7931742647707 7.209594778645121, 79.6350839382726 7.537872724209548, 79.478438208341 7.863150934094196 M79.95126459126881 6.881316833080694 C79.81533249780432 7.163582733640581, 79.67940040433983 7.445848634200469, 79.478438208341 7.863150934094196 M79.478438208341 7.863150934094196 C79.30887658803502 8.164224760923371, 79.13931496772904 8.465298587752548, 78.94367697109088 8.812673661278923 M79.478438208341 7.863150934094196 C79.27440165354373 8.225438498078306, 79.07036509874648 8.587726062062417, 78.94367697109088 8.812673661278923 M78.94367697109088 8.812673661278923 C78.80062294288925 9.032443063981862, 78.65756891468762 9.252212466684801, 78.34917832814826 9.725983222076879 M78.94367697109088 8.812673661278923 C78.74298994036768 9.1209828324831, 78.54230290964449 9.429292003687278, 78.34917832814826 9.725983222076879 M78.34917832814826 9.725983222076879 C78.12698772811423 10.0236983841424, 77.90479712808019 10.321413546207918, 77.69738520195651 10.599326631598467 M78.34917832814826 9.725983222076879 C78.19599458119478 9.931235487668093, 78.04281083424131 10.136487753259308, 77.69738520195651 10.599326631598467 M77.69738520195651 10.599326631598467 C77.52714666696204 10.799298501650036, 77.35690813196756 10.999270371701604, 76.99097595028037 11.42911513444238 M77.69738520195651 10.599326631598467 C77.51773837381556 10.810350018126927, 77.33809154567462 11.021373404655385, 76.99097595028037 11.42911513444238 M76.99097595028037 11.42911513444238 C76.73629773665003 11.69209129948591, 76.48161952301969 11.955067464529439, 76.23285336025927 12.211938951661365 M76.99097595028037 11.42911513444238 C76.78018925119703 11.646769707155764, 76.5694025521137 11.864424279869148, 76.23285336025927 12.211938951661365 M76.23285336025927 12.211938951661365 C75.91348285621616 12.501982793352834, 75.59411235217304 12.792026635044303, 75.42613272023242 12.944581292275275 M76.23285336025927 12.211938951661365 C75.94923148207467 12.469516837204944, 75.66560960389006 12.727094722748523, 75.42613272023242 12.944581292275275 M75.42613272023242 12.944581292275275 C75.17054130798306 13.148408641971013, 74.91494989573368 13.352235991666753, 74.57412901835067 13.62403157175526 M75.42613272023242 12.944581292275275 C75.2174868752475 13.110970801351623, 75.0088410302626 13.27736031042797, 74.57412901835067 13.62403157175526 M74.57412901835067 13.62403157175526 C74.35792982112027 13.774842772630793, 74.14173062388984 13.925653973506327, 73.68034332057934 14.247497783161286 M74.57412901835067 13.62403157175526 C74.38763398104301 13.754122436541044, 74.20113894373534 13.884213301326826, 73.68034332057934 14.247497783161286 M73.68034332057934 14.247497783161286 C73.46364877937918 14.37885928747529, 73.24695423817904 14.510220791789294, 72.74844838406695 14.81241797009762 M73.68034332057934 14.247497783161286 C73.41597954937127 14.407756654841583, 73.15161577816319 14.568015526521881, 72.74844838406695 14.81241797009762 M72.74844838406695 14.81241797009762 C72.41737971322702 14.985136283615207, 72.08631104238708 15.157854597132792, 71.78227356499849 15.316470754341124 M72.74844838406695 14.81241797009762 C72.41828188403932 14.984665621680294, 72.0881153840117 15.15691327326297, 71.78227356499849 15.316470754341124 M71.78227356499849 15.316470754341124 C71.40813971534398 15.48208871129685, 71.03400586568945 15.647706668252576, 70.78578908294936 15.757584874882367 M71.78227356499849 15.316470754341124 C71.45117141062201 15.463039856287153, 71.12006925624551 15.609608958233183, 70.78578908294936 15.757584874882367 M70.78578908294936 15.757584874882367 C70.3915774611384 15.902658395761087, 69.99736583932744 16.047731916639805, 69.76308970640156 16.133947699181363 M70.78578908294936 15.757584874882367 C70.56060327268496 15.840455334654482, 70.33541746242054 15.923325794426596, 69.76308970640156 16.133947699181363 M69.76308970640156 16.133947699181363 C69.3515808126164 16.256081378802538, 68.94007191883124 16.378215058423713, 68.71837792646164 16.444012671663497 M69.76308970640156 16.133947699181363 C69.3538595298714 16.25540506748248, 68.94462935334126 16.3768624357836, 68.71837792646164 16.444012671663497 M68.71837792646164 16.444012671663497 C68.37837633119284 16.521615817065843, 68.03837473592404 16.599218962468186, 67.65594668792333 16.68650566884811 M68.71837792646164 16.444012671663497 C68.3294489142664 16.53278318069807, 67.94051990207114 16.621553689732643, 67.65594668792333 16.68650566884811 M67.65594668792333 16.68650566884811 C67.31569976757399 16.741514152275915, 66.97545284722464 16.796522635703724, 66.58016174863661 16.86043023499518 M67.65594668792333 16.68650566884811 C67.42691010991962 16.72353452657456, 67.1978735319159 16.76056338430101, 66.58016174863661 16.86043023499518 M66.58016174863661 16.86043023499518 C66.20412036762167 16.896706494765766, 65.82807898660673 16.932982754536347, 65.49544373967211 16.965071676755716 M66.58016174863661 16.86043023499518 C66.2629525898808 16.891031021040526, 65.94574343112497 16.921631807085873, 65.49544373967211 16.965071676755716 M65.49544373967211 16.965071676755716 C65.27130955219926 16.97225922389724, 65.0471753647264 16.979446771038766, 64.40625 17 M65.49544373967211 16.965071676755716 C65.06473727590496 16.978883594729457, 64.6340308121378 16.992695512703197, 64.40625 17 M64.40625 17 C64.40625 17, 64.40625 17, 64.40625 17 M64.40625 17 C64.40625 17, 64.40625 17, 64.40625 17 M64.40625 17 C18.597935170268038 17, -27.210379659463925 17, -64.40625 17 M64.40625 17 C23.434007570277885 17, -17.53823485944423 17, -64.40625 17 M-64.40625 17 C-64.66074163393974 16.99183894863747, -64.91523326787947 16.983677897274934, -65.49544373967211 16.965071676755716 M-64.40625 17 C-64.79339498107677 16.98758501398886, -65.18053996215356 16.97517002797772, -65.49544373967211 16.965071676755716 M-65.49544373967211 16.965071676755716 C-65.8547630791262 16.93040857222331, -66.21408241858028 16.895745467690908, -66.5801617486366 16.86043023499518 M-65.49544373967211 16.965071676755716 C-65.7756558623765 16.938039950282807, -66.05586798508088 16.911008223809898, -66.5801617486366 16.86043023499518 M-66.5801617486366 16.86043023499518 C-66.90497092451447 16.807917606372026, -67.22978010039235 16.75540497774887, -67.65594668792333 16.68650566884811 M-66.5801617486366 16.86043023499518 C-66.97371801468825 16.796803109974377, -67.3672742807399 16.733175984953572, -67.65594668792333 16.68650566884811 M-67.65594668792333 16.68650566884811 C-67.90989504157663 16.62854361429462, -68.16384339522992 16.570581559741136, -68.71837792646161 16.4440126716635 M-67.65594668792333 16.68650566884811 C-67.99597057625402 16.60889743519986, -68.33599446458473 16.531289201551616, -68.71837792646161 16.4440126716635 M-68.71837792646161 16.4440126716635 C-68.9827731556487 16.365541555479652, -69.24716838483579 16.287070439295803, -69.76308970640154 16.13394769918137 M-68.71837792646161 16.4440126716635 C-69.08402430018361 16.335490747259794, -69.44967067390563 16.226968822856083, -69.76308970640154 16.13394769918137 M-69.76308970640154 16.13394769918137 C-70.11821702038765 16.00325756487358, -70.47334433437375 15.872567430565791, -70.78578908294936 15.757584874882369 M-69.76308970640154 16.13394769918137 C-70.01890726420731 16.039804473157265, -70.27472482201308 15.945661247133161, -70.78578908294936 15.757584874882369 M-70.78578908294936 15.757584874882369 C-71.01259780305057 15.657183382535203, -71.23940652315176 15.55678189018804, -71.78227356499849 15.316470754341127 M-70.78578908294936 15.757584874882369 C-71.0771673541718 15.628600357641512, -71.36854562539423 15.499615840400653, -71.78227356499849 15.316470754341127 M-71.78227356499849 15.316470754341127 C-72.0169695519627 15.194030008271849, -72.25166553892693 15.07158926220257, -72.74844838406693 14.812417970097624 M-71.78227356499849 15.316470754341127 C-72.0845529498617 15.158771792877173, -72.38683233472491 15.001072831413222, -72.74844838406693 14.812417970097624 M-72.74844838406693 14.812417970097624 C-72.97404126985636 14.675662237001127, -73.19963415564577 14.53890650390463, -73.68034332057931 14.247497783161299 M-72.74844838406693 14.812417970097624 C-73.07511978793481 14.61438784533866, -73.40179119180269 14.416357720579697, -73.68034332057931 14.247497783161299 M-73.68034332057931 14.247497783161299 C-73.86256228095033 14.120389724538137, -74.04478124132135 13.993281665914974, -74.57412901835067 13.624031571755264 M-73.68034332057931 14.247497783161299 C-73.98765410229926 14.033131085102792, -74.29496488401922 13.818764387044283, -74.57412901835067 13.624031571755264 M-74.57412901835067 13.624031571755264 C-74.78250099724228 13.457860463600447, -74.99087297613387 13.29168935544563, -75.4261327202324 12.94458129227529 M-74.57412901835067 13.624031571755264 C-74.88685953649681 13.374637305642313, -75.19959005464295 13.125243039529362, -75.4261327202324 12.94458129227529 M-75.4261327202324 12.94458129227529 C-75.74805304936734 12.652221766900093, -76.06997337850228 12.359862241524896, -76.23285336025926 12.211938951661377 M-75.4261327202324 12.94458129227529 C-75.6286040801337 12.76070216031155, -75.83107544003501 12.576823028347809, -76.23285336025926 12.211938951661377 M-76.23285336025926 12.211938951661377 C-76.53585402355073 11.899065889995835, -76.8388546868422 11.586192828330294, -76.99097595028036 11.429115134442386 M-76.23285336025926 12.211938951661377 C-76.47241069305929 11.964576337522546, -76.71196802585932 11.717213723383713, -76.99097595028036 11.429115134442386 M-76.99097595028036 11.429115134442386 C-77.19045605897071 11.194794448034957, -77.38993616766108 10.96047376162753, -77.69738520195651 10.599326631598473 M-76.99097595028036 11.429115134442386 C-77.21635158423409 11.164376090563461, -77.44172721818784 10.899637046684537, -77.69738520195651 10.599326631598473 M-77.69738520195651 10.599326631598473 C-77.87105851926607 10.366620208368358, -78.04473183657562 10.133913785138244, -78.34917832814824 9.72598322207689 M-77.69738520195651 10.599326631598473 C-77.83759193070857 10.41146238816646, -77.97779865946065 10.223598144734446, -78.34917832814824 9.72598322207689 M-78.34917832814824 9.72598322207689 C-78.5481141396862 9.420364393809434, -78.74704995122417 9.114745565541979, -78.94367697109088 8.812673661278936 M-78.34917832814824 9.72598322207689 C-78.57771749905534 9.374885684203393, -78.80625666996245 9.023788146329895, -78.94367697109088 8.812673661278936 M-78.94367697109088 8.812673661278936 C-79.05801941090034 8.609647080969676, -79.17236185070982 8.406620500660418, -79.478438208341 7.863150934094201 M-78.94367697109088 8.812673661278936 C-79.1419247229714 8.460664703053371, -79.34017247485191 8.108655744827809, -79.478438208341 7.863150934094201 M-79.478438208341 7.863150934094201 C-79.60238131507363 7.60578042100625, -79.72632442180625 7.348409907918298, -79.95126459126881 6.881316833080701 M-79.478438208341 7.863150934094201 C-79.6673734287293 7.470822906391769, -79.85630864911762 7.078494878689336, -79.95126459126881 6.881316833080701 M-79.95126459126881 6.881316833080701 C-80.10820477507568 6.493671544845698, -80.26514495888254 6.106026256610696, -80.36021317484592 5.87120592516224 M-79.95126459126881 6.881316833080701 C-80.09592792475686 6.523995602489938, -80.2405912582449 6.166674371899175, -80.36021317484592 5.87120592516224 M-80.36021317484592 5.87120592516224 C-80.43667570700016 5.640912960963719, -80.51313823915442 5.410619996765199, -80.70360350162323 4.8369689727275516 M-80.36021317484592 5.87120592516224 C-80.49445630932144 5.4668869928608546, -80.62869944379693 5.062568060559469, -80.70360350162323 4.8369689727275516 M-80.70360350162323 4.8369689727275516 C-80.79283047399322 4.49670785586637, -80.88205744636319 4.156446739005188, -80.980024507091 3.782855877257349 M-80.70360350162323 4.8369689727275516 C-80.81129500903589 4.426294581168572, -80.91898651644853 4.015620189609593, -80.980024507091 3.782855877257349 M-80.980024507091 3.782855877257349 C-81.06188407693647 3.362524287127131, -81.14374364678191 2.942192696996913, -81.18834031804565 2.713198215567455 M-80.980024507091 3.782855877257349 C-81.03436963737865 3.5038051190776467, -81.08871476766629 3.2247543608979443, -81.18834031804565 2.713198215567455 M-81.18834031804565 2.713198215567455 C-81.21912848676857 2.4744112587641154, -81.24991665549148 2.2356243019607756, -81.32769492013637 1.6323914404306026 M-81.18834031804565 2.713198215567455 C-81.24362908514635 2.2843894559363878, -81.29891785224706 1.8555806963053203, -81.32769492013637 1.6323914404306026 M-81.32769492013637 1.6323914404306026 C-81.3448541759083 1.3651221810808805, -81.36201343168023 1.0978529217311583, -81.3975156754117 0.54487681871814 M-81.32769492013637 1.6323914404306026 C-81.35553726191665 1.1987244932689685, -81.38337960369692 0.7650575461073343, -81.3975156754117 0.54487681871814 M-81.3975156754117 0.54487681871814 C-81.3975156754117 0.2686564752803405, -81.3975156754117 -0.007563868157459019, -81.3975156754117 -0.5448768187181317 M-81.3975156754117 0.54487681871814 C-81.3975156754117 0.18355645719033542, -81.3975156754117 -0.17776390433746914, -81.3975156754117 -0.5448768187181317 M-81.3975156754117 -0.5448768187181317 C-81.37501941935838 -0.8952741653995012, -81.35252316330507 -1.2456715120808708, -81.32769492013637 -1.6323914404305793 M-81.3975156754117 -0.5448768187181317 C-81.38115687559548 -0.7996783304411414, -81.36479807577928 -1.0544798421641515, -81.32769492013637 -1.6323914404305793 M-81.32769492013637 -1.6323914404305793 C-81.28904379607609 -1.932161926114405, -81.25039267201579 -2.2319324117982307, -81.18834031804565 -2.713198215567447 M-81.32769492013637 -1.6323914404305793 C-81.29420024718357 -1.8921695095811932, -81.26070557423077 -2.151947578731807, -81.18834031804565 -2.713198215567447 M-81.18834031804565 -2.713198215567447 C-81.10525138941227 -3.1398423032485097, -81.02216246077892 -3.5664863909295725, -80.980024507091 -3.782855877257341 M-81.18834031804565 -2.713198215567447 C-81.12870580258817 -3.0194088486822714, -81.0690712871307 -3.3256194817970957, -80.980024507091 -3.782855877257341 M-80.980024507091 -3.782855877257341 C-80.87016608112143 -4.20179366842234, -80.76030765515185 -4.620731459587339, -80.70360350162323 -4.836968972727544 M-80.980024507091 -3.782855877257341 C-80.90398686785173 -4.072820350597994, -80.82794922861245 -4.362784823938647, -80.70360350162323 -4.836968972727544 M-80.70360350162323 -4.836968972727544 C-80.63364522368008 -5.0476721595544385, -80.56368694573693 -5.258375346381333, -80.36021317484594 -5.871205925162218 M-80.70360350162323 -4.836968972727544 C-80.58106283831454 -5.206041926410072, -80.45852217500585 -5.575114880092601, -80.36021317484594 -5.871205925162218 M-80.36021317484594 -5.871205925162218 C-80.20345452647408 -6.258402817362995, -80.04669587810221 -6.645599709563773, -79.95126459126881 -6.881316833080692 M-80.36021317484594 -5.871205925162218 C-80.22040666601268 -6.216530704955326, -80.08060015717942 -6.561855484748434, -79.95126459126881 -6.881316833080692 M-79.95126459126881 -6.881316833080692 C-79.81363501104649 -7.16710760121363, -79.67600543082415 -7.452898369346566, -79.478438208341 -7.863150934094194 M-79.95126459126881 -6.881316833080692 C-79.81564180507053 -7.162940450484187, -79.68001901887224 -7.444564067887681, -79.478438208341 -7.863150934094194 M-79.478438208341 -7.863150934094194 C-79.28716200443108 -8.202781202952188, -79.09588580052116 -8.542411471810183, -78.94367697109088 -8.812673661278929 M-79.478438208341 -7.863150934094194 C-79.30917746613265 -8.163690521393812, -79.1399167239243 -8.464230108693432, -78.94367697109088 -8.812673661278929 M-78.94367697109088 -8.812673661278929 C-78.81112354275471 -9.016311322782652, -78.67857011441853 -9.219948984286376, -78.34917832814826 -9.725983222076884 M-78.94367697109088 -8.812673661278929 C-78.7242978217447 -9.149698946224662, -78.50491867239852 -9.486724231170397, -78.34917832814826 -9.725983222076884 M-78.34917832814826 -9.725983222076884 C-78.19179171180377 -9.936866949762768, -78.0344050954593 -10.147750677448652, -77.69738520195651 -10.599326631598467 M-78.34917832814826 -9.725983222076884 C-78.19348831010245 -9.934593662605833, -78.03779829205665 -10.14320410313478, -77.69738520195651 -10.599326631598467 M-77.69738520195651 -10.599326631598467 C-77.5220128363144 -10.805328991251988, -77.34664047067228 -11.01133135090551, -76.99097595028037 -11.42911513444238 M-77.69738520195651 -10.599326631598467 C-77.45970409595431 -10.87852038314671, -77.22202298995212 -11.157714134694954, -76.99097595028037 -11.42911513444238 M-76.99097595028037 -11.42911513444238 C-76.77489175722502 -11.652239804614208, -76.55880756416967 -11.875364474786037, -76.23285336025927 -12.21193895166136 M-76.99097595028037 -11.42911513444238 C-76.78508381032816 -11.641715673002095, -76.57919167037596 -11.854316211561809, -76.23285336025927 -12.21193895166136 M-76.23285336025927 -12.21193895166136 C-76.03273339519282 -12.393682609050588, -75.83261343012637 -12.575426266439814, -75.42613272023242 -12.944581292275274 M-76.23285336025927 -12.21193895166136 C-75.93058135083432 -12.486454392941997, -75.62830934140936 -12.760969834222635, -75.42613272023242 -12.944581292275274 M-75.42613272023242 -12.944581292275274 C-75.15962176104023 -13.157116690076563, -74.89311080184805 -13.369652087877853, -74.57412901835067 -13.624031571755259 M-75.42613272023242 -12.944581292275274 C-75.24514912911533 -13.08891089001552, -75.06416553799825 -13.233240487755765, -74.57412901835067 -13.624031571755259 M-74.57412901835067 -13.624031571755259 C-74.39470342248556 -13.749191100221898, -74.21527782662046 -13.874350628688537, -73.68034332057934 -14.247497783161284 M-74.57412901835067 -13.624031571755259 C-74.38372447741658 -13.75684953703115, -74.1933199364825 -13.88966750230704, -73.68034332057934 -14.247497783161284 M-73.68034332057934 -14.247497783161284 C-73.36187729549215 -14.440553759083235, -73.04341127040497 -14.633609735005184, -72.74844838406695 -14.812417970097618 M-73.68034332057934 -14.247497783161284 C-73.34861082682248 -14.448595970353217, -73.0168783330656 -14.649694157545152, -72.74844838406695 -14.812417970097618 M-72.74844838406695 -14.812417970097618 C-72.5456662769691 -14.918209265482423, -72.34288416987127 -15.024000560867227, -71.78227356499849 -15.316470754341124 M-72.74844838406695 -14.812417970097618 C-72.4948771381962 -14.944705926648247, -72.24130589232547 -15.076993883198877, -71.78227356499849 -15.316470754341124 M-71.78227356499849 -15.316470754341124 C-71.4881885971149 -15.446653445902568, -71.19410362923132 -15.576836137464014, -70.78578908294936 -15.757584874882365 M-71.78227356499849 -15.316470754341124 C-71.48925044017639 -15.446183399477704, -71.19622731535429 -15.575896044614282, -70.78578908294936 -15.757584874882365 M-70.78578908294936 -15.757584874882365 C-70.38950962698922 -15.903419377842834, -69.99323017102908 -16.049253880803303, -69.76308970640156 -16.133947699181363 M-70.78578908294936 -15.757584874882365 C-70.40077005206534 -15.899275437324594, -70.01575102118132 -16.040965999766822, -69.76308970640156 -16.133947699181363 M-69.76308970640156 -16.133947699181363 C-69.36678033544021 -16.251570240212352, -68.97047096447886 -16.36919278124334, -68.71837792646164 -16.444012671663494 M-69.76308970640156 -16.133947699181363 C-69.5433141167646 -16.199175940559996, -69.32353852712765 -16.264404181938634, -68.71837792646164 -16.444012671663494 M-68.71837792646164 -16.444012671663494 C-68.41475087884884 -16.513313563929465, -68.11112383123603 -16.582614456195433, -67.65594668792333 -16.68650566884811 M-68.71837792646164 -16.444012671663494 C-68.3985361896177 -16.517014460935734, -68.07869445277377 -16.590016250207974, -67.65594668792333 -16.68650566884811 M-67.65594668792333 -16.68650566884811 C-67.41613611005963 -16.725276383318306, -67.17632553219593 -16.764047097788502, -66.58016174863661 -16.86043023499518 M-67.65594668792333 -16.68650566884811 C-67.38144584966523 -16.730884835591887, -67.1069450114071 -16.775264002335664, -66.58016174863661 -16.86043023499518 M-66.58016174863661 -16.86043023499518 C-66.16749520221887 -16.900239680423965, -65.75482865580115 -16.940049125852752, -65.49544373967213 -16.965071676755716 M-66.58016174863661 -16.86043023499518 C-66.36319149988653 -16.881361093947202, -66.14622125113645 -16.90229195289922, -65.49544373967213 -16.965071676755716 M-65.49544373967213 -16.965071676755716 C-65.1909904327959 -16.974834901724826, -64.88653712591967 -16.984598126693935, -64.40625 -17 M-65.49544373967213 -16.965071676755716 C-65.06827402341472 -16.97877017812068, -64.6411043071573 -16.992468679485643, -64.40625 -17 M-64.40625 -17 C-64.40625 -17, -64.40625 -17, -64.40625 -17 M-64.40625 -17 C-64.40625 -17, -64.40625 -17, -64.40625 -17" stroke="#9370DB" stroke-width="1.3" fill="none" stroke-dasharray="0 0" style=""/></g><g class="label" style="" transform="translate(0, -9.5)"><rect/><g><rect class="background" style="stroke: none"/><text y="-10.1" style=""><tspan class="text-outer-tspan row" x="0" y="-0.1em" dy="1.1em"><tspan font-style="normal" class="text-inner-tspan" font-weight="normal">TinyMCE</tspan><tspan font-style="normal" class="text-inner-tspan" font-weight="normal"> in</tspan><tspan font-style="normal" class="text-inner-tspan" font-weight="normal"> browser</tspan></tspan></text></g></g></g><g class="node default" id="my-svg-flowchart-LB-2" data-look="classic" transform="translate(624.4921875, 174.70000076293945)"><rect class="basic label-container" style="" x="-105.5625" y="-59.70000076293945" width="211.125" height="119.4000015258789"/><g class="label" style="" transform="translate(0, -44.70000076293945)"><rect/><g><rect class="background" style="stroke: none"/><text y="-10.1" style=""><tspan class="text-outer-tspan row" x="0" y="-0.1em" dy="1.1em"><tspan font-style="normal" class="text-inner-tspan" font-weight="normal">Reverse</tspan><tspan font-style="normal" class="text-inner-tspan" font-weight="normal"> Proxy</tspan><tspan font-style="normal" class="text-inner-tspan" font-weight="normal"> /</tspan><tspan font-style="normal" class="text-inner-tspan" font-weight="normal"> Load</tspan></tspan><tspan class="text-outer-tspan row" x="0" y="1em" dy="1.1em"><tspan font-style="normal" class="text-inner-tspan" font-weight="normal">Balancer</tspan></tspan><tspan class="text-outer-tspan row" x="0" y="2.1em" dy="1.1em"><tspan font-style="normal" class="text-inner-tspan" font-weight="normal">nginx</tspan><tspan font-style="normal" class="text-inner-tspan" font-weight="normal"> ·</tspan><tspan font-style="normal" class="text-inner-tspan" font-weight="normal"> ALB</tspan><tspan font-style="normal" class="text-inner-tspan" font-weight="normal"> ·</tspan><tspan font-style="normal" class="text-inner-tspan" font-weight="normal"> Ingress</tspan></tspan><tspan class="text-outer-tspan row" x="0" y="3.2em" dy="1.1em"><tspan font-style="normal" class="text-inner-tspan" font-weight="normal">TLS</tspan><tspan font-style="normal" class="text-inner-tspan" font-weight="normal"> termination</tspan></tspan><tspan class="text-outer-tspan row" x="0" y="4.300000000000001em" dy="1.1em"><tspan font-style="normal" class="text-inner-tspan" font-weight="normal">proxy_buffering</tspan><tspan font-style="normal" class="text-inner-tspan" font-weight="normal"> off</tspan></tspan></text></g></g></g><g class="node default" id="my-svg-flowchart-AI1-4" data-look="classic" transform="translate(377.6640625, 331.9000015258789)"><rect class="basic label-container" style="" x="-98.4140625" y="-24.5" width="196.828125" height="49"/><g class="label" style="" transform="translate(0, -9.5)"><rect/><g><rect class="background" style="stroke: none"/><text y="-10.1" style=""><tspan class="text-outer-tspan row" x="0" y="-0.1em" dy="1.1em"><tspan font-style="normal" class="text-inner-tspan" font-weight="normal">ai-service</tspan><tspan font-style="normal" class="text-inner-tspan" font-weight="normal"> replica</tspan><tspan font-style="normal" class="text-inner-tspan" font-weight="normal"> 1</tspan></tspan></text></g></g></g><g class="node default" id="my-svg-flowchart-AI2-6" data-look="classic" transform="translate(624.4921875, 331.9000015258789)"><rect class="basic label-container" style="" x="-98.4140625" y="-24.5" width="196.828125" height="49"/><g class="label" style="" transform="translate(0, -9.5)"><rect/><g><rect class="background" style="stroke: none"/><text y="-10.1" style=""><tspan class="text-outer-tspan row" x="0" y="-0.1em" dy="1.1em"><tspan font-style="normal" class="text-inner-tspan" font-weight="normal">ai-service</tspan><tspan font-style="normal" class="text-inner-tspan" font-weight="normal"> replica</tspan><tspan font-style="normal" class="text-inner-tspan" font-weight="normal"> 2</tspan></tspan></text></g></g></g><g class="node default" id="my-svg-flowchart-AIN-8" data-look="classic" transform="translate(872.2265625, 331.9000015258789)"><rect class="basic label-container" style="" x="-99.3203125" y="-24.5" width="198.640625" height="49"/><g class="label" style="" transform="translate(0, -9.5)"><rect/><g><rect class="background" style="stroke: none"/><text y="-10.1" style=""><tspan class="text-outer-tspan row" x="0" y="-0.1em" dy="1.1em"><tspan font-style="normal" class="text-inner-tspan" font-weight="normal">ai-service</tspan><tspan font-style="normal" class="text-inner-tspan" font-weight="normal"> replica</tspan><tspan font-style="normal" class="text-inner-tspan" font-weight="normal"> N</tspan></tspan></text></g></g></g><g class="node default" id="my-svg-flowchart-DB-9" data-look="classic" transform="translate(108.2109375, 514.1000022888184)"><path d="M0,12.765339205970514 a65.2109375,12.765339205970514 0,0,0 130.421875,0 a65.2109375,12.765339205970514 0,0,0 -130.421875,0 l0,81.96533615421271 a65.2109375,12.765339205970514 0,0,0 130.421875,0 l0,-81.96533615421271" class="basic label-container outer-path" style="" transform="translate(-65.2109375, -53.748007283076866)"/><g class="label" style="" transform="translate(0, -18.099998474121094)"><rect/><g><rect class="background" style="stroke: none"/><text y="-10.1" style=""><tspan class="text-outer-tspan row" x="0" y="-0.1em" dy="1.1em"><tspan font-style="normal" class="text-inner-tspan" font-weight="normal">MySQL</tspan><tspan font-style="normal" class="text-inner-tspan" font-weight="normal"> 8.0+</tspan><tspan font-style="normal" class="text-inner-tspan" font-weight="normal"> /</tspan></tspan><tspan class="text-outer-tspan row" x="0" y="1em" dy="1.1em"><tspan font-style="normal" class="text-inner-tspan" font-weight="normal">Postgres</tspan><tspan font-style="normal" class="text-inner-tspan" font-weight="normal"> 13+</tspan></tspan><tspan class="text-outer-tspan row" x="0" y="2.1em" dy="1.1em"><tspan font-style="normal" class="text-inner-tspan" font-weight="normal">Multi-AZ</tspan><tspan font-style="normal" class="text-inner-tspan" font-weight="normal"> in</tspan><tspan font-style="normal" class="text-inner-tspan" font-weight="normal"> prod</tspan></tspan></text></g></g></g><g class="node default" id="my-svg-flowchart-Cache-10" data-look="classic" transform="translate(299.9765625, 514.1000022888184)"><path d="M0,13.763413674925557 a76.5546875,13.763413674925557 0,0,0 153.109375,0 a76.5546875,13.763413674925557 0,0,0 -153.109375,0 l0,65.36341214904665 a76.5546875,13.763413674925557 0,0,0 153.109375,0 l0,-65.36341214904665" class="basic label-container outer-path" style="" transform="translate(-76.5546875, -46.445119749448885)"/><g class="label" style="" transform="translate(0, -9.299999237060547)"><rect/><g><rect class="background" style="stroke: none"/><text y="-10.1" style=""><tspan class="text-outer-tspan row" x="0" y="-0.1em" dy="1.1em"><tspan font-style="normal" class="text-inner-tspan" font-weight="normal">Redis</tspan><tspan font-style="normal" class="text-inner-tspan" font-weight="normal"> 7</tspan></tspan><tspan class="text-outer-tspan row" x="0" y="1em" dy="1.1em"><tspan font-style="normal" class="text-inner-tspan" font-weight="normal">cluster</tspan><tspan font-style="normal" class="text-inner-tspan" font-weight="normal"> or</tspan><tspan font-style="normal" class="text-inner-tspan" font-weight="normal"> managed</tspan></tspan></text></g></g></g><g class="node default" id="my-svg-flowchart-Storage-11" data-look="classic" transform="translate(624.9453125, 514.1000022888184)"><path d="M0,12.899322362052274 a66.625,12.899322362052274 0,0,0 133.25,0 a66.625,12.899322362052274 0,0,0 -133.25,0 l0,64.49932083617337 a66.625,12.899322362052274 0,0,0 133.25,0 l0,-64.49932083617337" class="basic label-container outer-path" style="" transform="translate(-66.625, -45.14898278013896)"/><g class="label" style="" transform="translate(0, -9.299999237060547)"><rect/><g><rect class="background" style="stroke: none"/><text y="-10.1" style=""><tspan class="text-outer-tspan row" x="0" y="-0.1em" dy="1.1em"><tspan font-style="normal" class="text-inner-tspan" font-weight="normal">S3</tspan><tspan font-style="normal" class="text-inner-tspan" font-weight="normal"> ·</tspan><tspan font-style="normal" class="text-inner-tspan" font-weight="normal"> Azure</tspan><tspan font-style="normal" class="text-inner-tspan" font-weight="normal"> Blob</tspan><tspan font-style="normal" class="text-inner-tspan" font-weight="normal"> ·</tspan></tspan><tspan class="text-outer-tspan row" x="0" y="1em" dy="1.1em"><tspan font-style="normal" class="text-inner-tspan" font-weight="normal">filesystem</tspan><tspan font-style="normal" class="text-inner-tspan" font-weight="normal"> ·</tspan><tspan font-style="normal" class="text-inner-tspan" font-weight="normal"> DB</tspan></tspan></text></g></g></g><g class="node default" id="my-svg-flowchart-LLM-31" data-look="classic" transform="translate(1026.04296875, 514.1000022888184)"><rect class="basic label-container" style="" x="-123.1796875" y="-59.70000076293945" width="246.359375" height="119.4000015258789"/><g class="label" style="" transform="translate(0, -44.70000076293945)"><rect/><g><rect class="background" style="stroke: none"/><text y="-10.1" style=""><tspan class="text-outer-tspan row" x="0" y="-0.1em" dy="1.1em"><tspan font-style="normal" class="text-inner-tspan" font-weight="normal">LLM</tspan><tspan font-style="normal" class="text-inner-tspan" font-weight="normal"> Provider</tspan></tspan><tspan class="text-outer-tspan row" x="0" y="1em" dy="1.1em"><tspan font-style="normal" class="text-inner-tspan" font-weight="normal">OpenAI</tspan><tspan font-style="normal" class="text-inner-tspan" font-weight="normal"> ·</tspan><tspan font-style="normal" class="text-inner-tspan" font-weight="normal"> Anthropic</tspan><tspan font-style="normal" class="text-inner-tspan" font-weight="normal"> ·</tspan></tspan><tspan class="text-outer-tspan row" x="0" y="2.1em" dy="1.1em"><tspan font-style="normal" class="text-inner-tspan" font-weight="normal">Google</tspan><tspan font-style="normal" class="text-inner-tspan" font-weight="normal"> ·</tspan></tspan><tspan class="text-outer-tspan row" x="0" y="3.2em" dy="1.1em"><tspan font-style="normal" class="text-inner-tspan" font-weight="normal">Azure</tspan><tspan font-style="normal" class="text-inner-tspan" font-weight="normal"> ·</tspan><tspan font-style="normal" class="text-inner-tspan" font-weight="normal"> Bedrock</tspan><tspan font-style="normal" class="text-inner-tspan" font-weight="normal"> ·</tspan><tspan font-style="normal" class="text-inner-tspan" font-weight="normal"> Vertex</tspan><tspan font-style="normal" class="text-inner-tspan" font-weight="normal"> ·</tspan></tspan><tspan class="text-outer-tspan row" x="0" y="4.300000000000001em" dy="1.1em"><tspan font-style="normal" class="text-inner-tspan" font-weight="normal">self-hosted</tspan></tspan></text></g></g></g><g class="node default" id="my-svg-flowchart-Obs-37" data-look="classic" transform="translate(1328.45703125, 514.1000022888184)"><rect class="basic label-container" style="" x="-129.234375" y="-33.29999923706055" width="258.46875" height="66.5999984741211"/><g class="label" style="" transform="translate(0, -18.299999237060547)"><rect/><g><rect class="background" style="stroke: none"/><text y="-10.1" style=""><tspan class="text-outer-tspan row" x="0" y="-0.1em" dy="1.1em"><tspan font-style="normal" class="text-inner-tspan" font-weight="normal">OpenTelemetry</tspan><tspan font-style="normal" class="text-inner-tspan" font-weight="normal"> ·</tspan><tspan font-style="normal" class="text-inner-tspan" font-weight="normal"> Langfuse</tspan><tspan font-style="normal" class="text-inner-tspan" font-weight="normal"> ·</tspan></tspan><tspan class="text-outer-tspan row" x="0" y="1em" dy="1.1em"><tspan font-style="normal" class="text-inner-tspan" font-weight="normal">log</tspan><tspan font-style="normal" class="text-inner-tspan" font-weight="normal"> aggregator</tspan></tspan></text></g></g></g></g></g></g><defs><filter id="my-svg-drop-shadow" height="130%" width="130%"><feDropShadow dx="4" dy="4" stdDeviation="0" flood-opacity="0.06" flood-color="#000000"/></filter></defs><defs><filter id="my-svg-drop-shadow-small" height="150%" width="150%"><feDropShadow dx="2" dy="2" stdDeviation="0" flood-opacity="0.06" flood-color="#000000"/></filter></defs></svg>