<svg xmlns="http://www.w3.org/2000/svg" width="2400" height="500" opacity="0.4">
  <path d="M1162,987L-248,988L1326,1002Z" fill="#6285ae" stroke="#6285ae" stroke-width="1.51"></path>
  <path d="M694,-734L1825,-517L1943,-544Z" fill="#6a8db6" stroke="#6a8db6" stroke-width="1.51"></path>
  <path d="M694,-734L1943,-544L2442,-643Z" fill="#6083ac" stroke="#6083ac" stroke-width="1.51"></path>
  <path d="M2442,-643L2513,-429L3029,356Z" fill="#2e4d71" stroke="#2e4d71" stroke-width="1.51"></path>
  <path d="M2513,-429L2561,-216L3029,356Z" fill="#27415f" stroke="#27415f" stroke-width="1.51"></path>
  <path d="M2662,270L2602,492L3029,356Z" fill="#1c2d42" stroke="#1c2d42" stroke-width="1.51"></path>
  <path d="M2602,492L2525,916L3029,356Z" fill="#263f5d" stroke="#263f5d" stroke-width="1.51"></path>
  <path d="M2614,59L2662,270L3029,356Z" fill="#182636" stroke="#182636" stroke-width="1.51"></path>
  <path d="M2561,-216L2614,59L3029,356Z" fill="#1f334b" stroke="#1f334b" stroke-width="1.51"></path>
  <path d="M2513,-429L2499,-268L2561,-216Z" fill="#37587f" stroke="#37587f" stroke-width="1.51"></path>
  <path d="M2255,440L2525,916L2602,492Z" fill="#334d6d" stroke="#334d6d" stroke-width="1.51"></path>
  <path d="M2561,-216L2541,-183L2614,59Z" fill="#2d4867" stroke="#2d4867" stroke-width="1.51"></path>
  <path d="M2541,-183L2498,31L2614,59Z" fill="#2b435e" stroke="#2b435e" stroke-width="1.51"></path>
  <path d="M2614,59L2557,290L2662,270Z" fill="#202f41" stroke="#202f41" stroke-width="1.51"></path>
  <path d="M2557,290L2602,492L2662,270Z" fill="#223347" stroke="#223347" stroke-width="1.51"></path>
  <path d="M2498,31L2395,54L2557,290Z" fill="#293b50" stroke="#293b50" stroke-width="1.51"></path>
  <path d="M2557,290L2255,440L2602,492Z" fill="#2b3e54" stroke="#2b3e54" stroke-width="1.51"></path>
  <path d="M2498,31L2557,290L2614,59Z" fill="#26374c" stroke="#26374c" stroke-width="1.51"></path>
  <path d="M2255,440L1993,970L2525,916Z" fill="#426388" stroke="#426388" stroke-width="1.51"></path>
  <path d="M2320,-142L2498,31L2541,-183Z" fill="#334d6b" stroke="#334d6b" stroke-width="1.51"></path>
  <path d="M2499,-268L2541,-183L2561,-216Z" fill="#335275" stroke="#335275" stroke-width="1.51"></path>
  <path d="M2395,54L2255,440L2557,290Z" fill="#293747" stroke="#293747" stroke-width="1.51"></path>
  <path d="M1575,926L1326,1002L1993,970Z" fill="#6386af" stroke="#6386af" stroke-width="1.51"></path>
  <path d="M2320,-142L2395,54L2498,31Z" fill="#324964" stroke="#324964" stroke-width="1.51"></path>
  <path d="M2499,-268L2320,-142L2541,-183Z" fill="#365476" stroke="#365476" stroke-width="1.51"></path>
  <path d="M2170,390L2255,440L2395,54Z" fill="#303f51" stroke="#303f51" stroke-width="1.51"></path>
  <path d="M2442,-643L2009,-441L2513,-429Z" fill="#42658e" stroke="#42658e" stroke-width="1.51"></path>
  <path d="M2009,-441L2035,-313L2513,-429Z" fill="#486b94" stroke="#486b94" stroke-width="1.51"></path>
  <path d="M2320,-142L2499,-268L2513,-429Z" fill="#3a5a80" stroke="#3a5a80" stroke-width="1.51"></path>
  <path d="M2035,-313L2320,-142L2513,-429Z" fill="#416289" stroke="#416289" stroke-width="1.51"></path>
  <path d="M1888,614L1993,970L2255,440Z" fill="#496687" stroke="#496687" stroke-width="1.51"></path>
  <path d="M2084,174L2170,390L2395,54Z" fill="#334253" stroke="#334253" stroke-width="1.51"></path>
  <path d="M1943,-544L2009,-441L2442,-643Z" fill="#4b6e97" stroke="#4b6e97" stroke-width="1.51"></path>
  <path d="M2320,-142L2084,174L2395,54Z" fill="#374c65" stroke="#374c65" stroke-width="1.51"></path>
  <path d="M694,-734L1187,-444L1825,-517Z" fill="#7699c2" stroke="#7699c2" stroke-width="1.51"></path>
  <path d="M2038,390L1888,614L2170,390Z" fill="#425770" stroke="#425770" stroke-width="1.51"></path>
  <path d="M2170,390L1888,614L2255,440Z" fill="#3f556e" stroke="#3f556e" stroke-width="1.51"></path>
  <path d="M1931,90L2084,174L2320,-142Z" fill="#3e536b" stroke="#3e536b" stroke-width="1.51"></path>
  <path d="M2035,-313L1931,90L2320,-142Z" fill="#455f7f" stroke="#455f7f" stroke-width="1.51"></path>
  <path d="M1817,-132L1931,90L2035,-313Z" fill="#4c6786" stroke="#4c6786" stroke-width="1.51"></path>
  <path d="M2084,174L2038,390L2170,390Z" fill="#3a495c" stroke="#3a495c" stroke-width="1.51"></path>
  <path d="M1925,408L1888,614L2038,390Z" fill="#465b74" stroke="#465b74" stroke-width="1.51"></path>
  <path d="M1867,243L2038,390L2084,174Z" fill="#3d4b5b" stroke="#3d4b5b" stroke-width="1.51"></path>
  <path d="M1931,90L1867,243L2084,174Z" fill="#415164" stroke="#415164" stroke-width="1.51"></path>
  <path d="M183,849L-248,988L1162,987Z" fill="#50739c" stroke="#50739c" stroke-width="1.51"></path>
  <path d="M2009,-441L1754,-366L2035,-313Z" fill="#5477a0" stroke="#5477a0" stroke-width="1.51"></path>
  <path d="M1754,-366L1817,-132L2035,-313Z" fill="#55759a" stroke="#55759a" stroke-width="1.51"></path>
  <path d="M1867,243L1925,408L2038,390Z" fill="#425367" stroke="#425367" stroke-width="1.51"></path>
  <path d="M1888,614L1575,926L1993,970Z" fill="#597ca4" stroke="#597ca4" stroke-width="1.51"></path>
  <path d="M1943,-544L1825,-517L2009,-441Z" fill="#5578a1" stroke="#5578a1" stroke-width="1.51"></path>
  <path d="M1825,-517L1754,-366L2009,-441Z" fill="#587ba4" stroke="#587ba4" stroke-width="1.51"></path>
  <path d="M1847,399L1748,510L1888,614Z" fill="#4d647e" stroke="#4d647e" stroke-width="1.51"></path>
  <path d="M1847,399L1888,614L1925,408Z" fill="#495f78" stroke="#495f78" stroke-width="1.51"></path>
  <path d="M1867,243L1847,399L1925,408Z" fill="#45566a" stroke="#45566a" stroke-width="1.51"></path>
  <path d="M1781,311L1847,399L1867,243Z" fill="#465669" stroke="#465669" stroke-width="1.51"></path>
  <path d="M1817,-132L1867,243L1931,90Z" fill="#485d74" stroke="#485d74" stroke-width="1.51"></path>
  <path d="M1817,-132L1531,276L1867,243Z" fill="#4d5e73" stroke="#4d5e73" stroke-width="1.51"></path>
  <path d="M1531,276L1781,311L1867,243Z" fill="#4a5869" stroke="#4a5869" stroke-width="1.51"></path>
  <path d="M1748,510L1575,926L1888,614Z" fill="#587597" stroke="#587597" stroke-width="1.51"></path>
  <path d="M1363,-50L1531,276L1817,-132Z" fill="#586d86" stroke="#586d86" stroke-width="1.51"></path>
  <path d="M1781,311L1778,315L1847,399Z" fill="#49596d" stroke="#49596d" stroke-width="1.51"></path>
  <path d="M1778,315L1686,433L1847,399Z" fill="#4b5e73" stroke="#4b5e73" stroke-width="1.51"></path>
  <path d="M1686,433L1748,510L1847,399Z" fill="#4e637b" stroke="#4e637b" stroke-width="1.51"></path>
  <path d="M1374,678L1575,926L1748,510Z" fill="#617fa1" stroke="#617fa1" stroke-width="1.51"></path>
  <path d="M1548,299L1602,342L1781,311Z" fill="#4f5f71" stroke="#4f5f71" stroke-width="1.51"></path>
  <path d="M1531,276L1548,299L1781,311Z" fill="#505f70" stroke="#505f70" stroke-width="1.51"></path>
  <path d="M1282,-333L1754,-366L1825,-517Z" fill="#6386af" stroke="#6386af" stroke-width="1.51"></path>
  <path d="M1187,-444L1282,-333L1825,-517Z" fill="#6c8fb8" stroke="#6c8fb8" stroke-width="1.51"></path>
  <path d="M1754,-366L1363,-50L1817,-132Z" fill="#5c799b" stroke="#5c799b" stroke-width="1.51"></path>
  <path d="M1678,449L1375,609L1748,510Z" fill="#59708b" stroke="#59708b" stroke-width="1.51"></path>
  <path d="M1375,609L1374,678L1748,510Z" fill="#607a99" stroke="#607a99" stroke-width="1.51"></path>
  <path d="M1282,-333L1363,-50L1754,-366Z" fill="#6787ab" stroke="#6787ab" stroke-width="1.51"></path>
  <path d="M1602,342L1686,433L1778,315Z" fill="#4f6075" stroke="#4f6075" stroke-width="1.51"></path>
  <path d="M1602,342L1778,315L1781,311Z" fill="#4c5c6e" stroke="#4c5c6e" stroke-width="1.51"></path>
  <path d="M1686,433L1678,449L1748,510Z" fill="#52677f" stroke="#52677f" stroke-width="1.51"></path>
  <path d="M1520,423L1375,609L1678,449Z" fill="#5b718b" stroke="#5b718b" stroke-width="1.51"></path>
  <path d="M1602,342L1678,449L1686,433Z" fill="#52657b" stroke="#52657b" stroke-width="1.51"></path>
  <path d="M1602,342L1520,423L1678,449Z" fill="#54677e" stroke="#54677e" stroke-width="1.51"></path>
  <path d="M694,-734L1090,-443L1187,-444Z" fill="#6d90b9" stroke="#6d90b9" stroke-width="1.51"></path>
  <path d="M1363,-50L1313,255L1531,276Z" fill="#5c6c80" stroke="#5c6c80" stroke-width="1.51"></path>
  <path d="M1374,678L1319,825L1575,926Z" fill="#6b8db4" stroke="#6b8db4" stroke-width="1.51"></path>
  <path d="M1548,299L1520,423L1602,342Z" fill="#55667a" stroke="#55667a" stroke-width="1.51"></path>
  <path d="M1362,491L1375,609L1520,423Z" fill="#617792" stroke="#617792" stroke-width="1.51"></path>
  <path d="M1319,825L1326,1002L1575,926Z" fill="#6e91ba" stroke="#6e91ba" stroke-width="1.51"></path>
  <path d="M1313,255L1520,423L1531,276Z" fill="#58687b" stroke="#58687b" stroke-width="1.51"></path>
  <path d="M1531,276L1520,423L1548,299Z" fill="#556679" stroke="#556679" stroke-width="1.51"></path>
  <path d="M1313,255L1362,491L1520,423Z" fill="#5e7085" stroke="#5e7085" stroke-width="1.51"></path>
  <path d="M1313,255L1130,360L1362,491Z" fill="#637589" stroke="#637589" stroke-width="1.51"></path>
  <path d="M1190,-44L1313,255L1363,-50Z" fill="#657991" stroke="#657991" stroke-width="1.51"></path>
  <path d="M1282,-333L1190,-44L1363,-50Z" fill="#6c88a8" stroke="#6c88a8" stroke-width="1.51"></path>
  <path d="M1062,616L1319,825L1374,678Z" fill="#708eb1" stroke="#708eb1" stroke-width="1.51"></path>
  <path d="M1360,606L1374,678L1375,609Z" fill="#6883a2" stroke="#6883a2" stroke-width="1.51"></path>
  <path d="M1362,491L1360,606L1375,609Z" fill="#657e9b" stroke="#657e9b" stroke-width="1.51"></path>
  <path d="M1360,606L1062,616L1374,678Z" fill="#6d88a8" stroke="#6d88a8" stroke-width="1.51"></path>
  <path d="M1319,825L1162,987L1326,1002Z" fill="#7497c0" stroke="#7497c0" stroke-width="1.51"></path>
  <path d="M1062,616L1360,606L1362,491Z" fill="#6b84a1" stroke="#6b84a1" stroke-width="1.51"></path>
  <path d="M1130,360L1062,616L1362,491Z" fill="#6a809a" stroke="#6a809a" stroke-width="1.51"></path>
  <path d="M1190,-44L1101,287L1313,255Z" fill="#657589" stroke="#657589" stroke-width="1.51"></path>
  <path d="M1062,616L1162,987L1319,825Z" fill="#7597be" stroke="#7597be" stroke-width="1.51"></path>
  <path d="M1101,287L1130,360L1313,255Z" fill="#637284" stroke="#637284" stroke-width="1.51"></path>
  <path d="M1187,-444L1090,-443L1282,-333Z" fill="#779ac3" stroke="#779ac3" stroke-width="1.51"></path>
  <path d="M910,-276L1190,-44L1282,-333Z" fill="#6f8eb1" stroke="#6f8eb1" stroke-width="1.51"></path>
  <path d="M1090,-443L910,-276L1282,-333Z" fill="#7295be" stroke="#7295be" stroke-width="1.51"></path>
  <path d="M944,184L1101,287L1190,-44Z" fill="#607185" stroke="#607185" stroke-width="1.51"></path>
  <path d="M910,-276L944,184L1190,-44Z" fill="#647c98" stroke="#647c98" stroke-width="1.51"></path>
  <path d="M694,-734L719,-491L1090,-443Z" fill="#6689b2" stroke="#6689b2" stroke-width="1.51"></path>
  <path d="M901,542L1062,616L1130,360Z" fill="#637a94" stroke="#637a94" stroke-width="1.51"></path>
  <path d="M1062,616L901,542L1162,987Z" fill="#6b89ad" stroke="#6b89ad" stroke-width="1.51"></path>
  <path d="M901,542L183,849L1162,987Z" fill="#6081a7" stroke="#6081a7" stroke-width="1.51"></path>
  <path d="M964,307L869,424L1130,360Z" fill="#5c6d82" stroke="#5c6d82" stroke-width="1.51"></path>
  <path d="M869,424L901,542L1130,360Z" fill="#5e728a" stroke="#5e728a" stroke-width="1.51"></path>
  <path d="M1101,287L964,307L1130,360Z" fill="#5e6e80" stroke="#5e6e80" stroke-width="1.51"></path>
  <path d="M944,184L964,307L1101,287Z" fill="#596777" stroke="#596777" stroke-width="1.51"></path>
  <path d="M910,-276L724,172L944,184Z" fill="#5a6f88" stroke="#5a6f88" stroke-width="1.51"></path>
  <path d="M719,-491L910,-276L1090,-443Z" fill="#698cb5" stroke="#698cb5" stroke-width="1.51"></path>
  <path d="M719,-491L747,-350L910,-276Z" fill="#6487b0" stroke="#6487b0" stroke-width="1.51"></path>
  <path d="M302,566L183,849L901,542Z" fill="#4d698a" stroke="#4d698a" stroke-width="1.51"></path>
  <path d="M747,-350L724,172L910,-276Z" fill="#5d7999" stroke="#5d7999" stroke-width="1.51"></path>
  <path d="M944,184L724,172L964,307Z" fill="#546273" stroke="#546273" stroke-width="1.51"></path>
  <path d="M724,172L869,424L964,307Z" fill="#536374" stroke="#536374" stroke-width="1.51"></path>
  <path d="M507,124L724,172L747,-350Z" fill="#526984" stroke="#526984" stroke-width="1.51"></path>
  <path d="M724,172L622,363L869,424Z" fill="#4e5e71" stroke="#4e5e71" stroke-width="1.51"></path>
  <path d="M622,363L302,566L901,542Z" fill="#4e647e" stroke="#4e647e" stroke-width="1.51"></path>
  <path d="M869,424L622,363L901,542Z" fill="#566a82" stroke="#566a82" stroke-width="1.51"></path>
  <path d="M394,393L302,566L622,363Z" fill="#445970" stroke="#445970" stroke-width="1.51"></path>
  <path d="M694,-734L556,-682L719,-491Z" fill="#5e81aa" stroke="#5e81aa" stroke-width="1.51"></path>
  <path d="M556,-682L635,-464L719,-491Z" fill="#5d80a9" stroke="#5d80a9" stroke-width="1.51"></path>
  <path d="M635,-464L314,-400L747,-350Z" fill="#597ca5" stroke="#597ca5" stroke-width="1.51"></path>
  <path d="M314,-400L507,124L747,-350Z" fill="#527093" stroke="#527093" stroke-width="1.51"></path>
  <path d="M719,-491L635,-464L747,-350Z" fill="#6083ac" stroke="#6083ac" stroke-width="1.51"></path>
  <path d="M507,124L622,363L724,172Z" fill="#475667" stroke="#475667" stroke-width="1.51"></path>
  <path d="M507,124L420,238L622,363Z" fill="#424f5f" stroke="#424f5f" stroke-width="1.51"></path>
  <path d="M556,-682L314,-400L635,-464Z" fill="#5679a2" stroke="#5679a2" stroke-width="1.51"></path>
  <path d="M314,-400L50,-57L507,124Z" fill="#435e7d" stroke="#435e7d" stroke-width="1.51"></path>
  <path d="M420,238L394,393L622,363Z" fill="#425366" stroke="#425366" stroke-width="1.51"></path>
  <path d="M380,288L394,393L420,238Z" fill="#3e4d5f" stroke="#3e4d5f" stroke-width="1.51"></path>
  <path d="M50,-57L211,183L507,124Z" fill="#3b4e65" stroke="#3b4e65" stroke-width="1.51"></path>
  <path d="M-314,-358L314,-400L556,-682Z" fill="#476a93" stroke="#476a93" stroke-width="1.51"></path>
  <path d="M380,288L378,292L394,393Z" fill="#3e4e60" stroke="#3e4e60" stroke-width="1.51"></path>
  <path d="M211,183L420,238L507,124Z" fill="#3d4d60" stroke="#3d4d60" stroke-width="1.51"></path>
  <path d="M378,292L324,346L394,393Z" fill="#3d4e62" stroke="#3d4e62" stroke-width="1.51"></path>
  <path d="M233,212L380,288L420,238Z" fill="#394757" stroke="#394757" stroke-width="1.51"></path>
  <path d="M211,183L233,212L420,238Z" fill="#384758" stroke="#384758" stroke-width="1.51"></path>
  <path d="M324,346L302,566L394,393Z" fill="#40546b" stroke="#40546b" stroke-width="1.51"></path>
  <path d="M233,212L324,346L378,292Z" fill="#394758" stroke="#394758" stroke-width="1.51"></path>
  <path d="M233,212L378,292L380,288Z" fill="#394757" stroke="#394757" stroke-width="1.51"></path>
  <path d="M50,-57L30,35L211,183Z" fill="#344961" stroke="#344961" stroke-width="1.51"></path>
  <path d="M83,360L44,559L302,566Z" fill="#384f68" stroke="#384f68" stroke-width="1.51"></path>
  <path d="M44,559L183,849L302,566Z" fill="#405c7d" stroke="#405c7d" stroke-width="1.51"></path>
  <path d="M83,360L302,566L324,346Z" fill="#3a4e65" stroke="#3a4e65" stroke-width="1.51"></path>
  <path d="M149,282L83,360L324,346Z" fill="#344558" stroke="#344558" stroke-width="1.51"></path>
  <path d="M233,212L149,282L324,346Z" fill="#354454" stroke="#354454" stroke-width="1.51"></path>
  <path d="M-314,-358L50,-57L314,-400Z" fill="#3c5c82" stroke="#3c5c82" stroke-width="1.51"></path>
  <path d="M44,559L-24,592L183,849Z" fill="#3b5778" stroke="#3b5778" stroke-width="1.51"></path>
  <path d="M211,183L149,282L233,212Z" fill="#334152" stroke="#334152" stroke-width="1.51"></path>
  <path d="M30,35L149,282L211,183Z" fill="#324255" stroke="#324255" stroke-width="1.51"></path>
  <path d="M-24,592L-126,649L183,849Z" fill="#395779" stroke="#395779" stroke-width="1.51"></path>
  <path d="M-126,649L-248,988L183,849Z" fill="#3a5d85" stroke="#3a5d85" stroke-width="1.51"></path>
  <path d="M-170,128L83,360L149,282Z" fill="#2a3847" stroke="#2a3847" stroke-width="1.51"></path>
  <path d="M30,35L-170,128L149,282Z" fill="#2c3e51" stroke="#2c3e51" stroke-width="1.51"></path>
  <path d="M-290,-43L-197,13L50,-57Z" fill="#2c435f" stroke="#2c435f" stroke-width="1.51"></path>
  <path d="M-314,-358L-290,-43L50,-57Z" fill="#2e4a6b" stroke="#2e4a6b" stroke-width="1.51"></path>
  <path d="M-24,592L44,559L83,360Z" fill="#334a64" stroke="#334a64" stroke-width="1.51"></path>
  <path d="M-226,381L-24,592L83,360Z" fill="#2d4159" stroke="#2d4159" stroke-width="1.51"></path>
  <path d="M-170,128L-226,381L83,360Z" fill="#253445" stroke="#253445" stroke-width="1.51"></path>
  <path d="M-197,13L30,35L50,-57Z" fill="#304661" stroke="#304661" stroke-width="1.51"></path>
  <path d="M-197,13L-170,128L30,35Z" fill="#2a3e56" stroke="#2a3e56" stroke-width="1.51"></path>
  <path d="M-258,179L-226,381L-170,128Z" fill="#1f2d3e" stroke="#1f2d3e" stroke-width="1.51"></path>
  <path d="M-226,381L-126,649L-24,592Z" fill="#2d4561" stroke="#2d4561" stroke-width="1.51"></path>
  <path d="M-226,381L-672,265L-126,649Z" fill="#1f334a" stroke="#1f334a" stroke-width="1.51"></path>
  <path d="M-672,265L-248,988L-126,649Z" fill="#264161" stroke="#264161" stroke-width="1.51"></path>
  <path d="M-197,13L-258,179L-170,128Z" fill="#24364c" stroke="#24364c" stroke-width="1.51"></path>
  <path d="M-314,-358L-491,-98L-290,-43Z" fill="#264364" stroke="#264364" stroke-width="1.51"></path>
  <path d="M-290,-43L-258,179L-197,13Z" fill="#243951" stroke="#243951" stroke-width="1.51"></path>
  <path d="M-290,-43L-424,180L-258,179Z" fill="#1e3147" stroke="#1e3147" stroke-width="1.51"></path>
  <path d="M-258,179L-424,180L-226,381Z" fill="#1a2838" stroke="#1a2838" stroke-width="1.51"></path>
  <path d="M-424,180L-672,265L-226,381Z" fill="#162535" stroke="#162535" stroke-width="1.51"></path>
  <path d="M-491,-98L-424,180L-290,-43Z" fill="#1e344e" stroke="#1e344e" stroke-width="1.51"></path>
  <path d="M-491,-98L-672,265L-424,180Z" fill="#1a2d42" stroke="#1a2d42" stroke-width="1.51"></path>
</svg>
