<?xml version="1.0" encoding="UTF-8" standalone="no"?>
<svg width="43px" height="35px" viewBox="0 0 43 35" version="1.1" xmlns="http://www.w3.org/2000/svg" xmlns:xlink="http://www.w3.org/1999/xlink" xmlns:sketch="http://www.bohemiancoding.com/sketch/ns">
    <!-- Generator: Sketch 3.3.3 (12081) - http://www.bohemiancoding.com/sketch -->
    <title>btn-twitter@2x</title>
    <desc>Created with Sketch.</desc>
    <defs></defs>
    <g id="assets" stroke="none" stroke-width="1" fill="none" fill-rule="evenodd" sketch:type="MSPage">
        <g id="symbols" sketch:type="MSArtboardGroup" transform="translate(-2359.000000, -508.000000)" fill="#BBBBBB">
            <g id="navbars" sketch:type="MSLayerGroup" transform="translate(0.000000, 459.000000)">
                <g id="navbars/fixed-navbar" sketch:type="MSShapeGroup">
                    <g id="btn-twitter" transform="translate(2359.000000, 49.000000)">
                        <path d="M37.9597245,5.54448325 C39.8898395,4.35552359 41.167824,2.73268954 41.7936781,0.668789809 C39.9161158,1.66837888 38.0457197,2.35394836 36.1777123,2.73268954 C34.4984168,0.920484898 32.3724238,1.66977543e-13 29.8236209,1.66977543e-13 C27.3321482,1.66977543e-13 25.227654,0.877337169 23.5101383,2.58406958 C21.8021777,4.30278748 20.9398367,6.39065817 20.9398367,8.8285049 C20.9398367,9.56920759 21.0329982,10.2308061 21.2193211,10.7917266 C13.8715071,10.5400315 7.7897339,7.48133689 2.99788901,1.5940689 C2.1857119,3.03472365 1.77962335,4.50174646 1.77962335,6.01910828 C1.77962335,9.13773029 3.0910505,11.6091364 5.70912727,13.4237381 C4.21615466,13.296692 2.89995,12.9179508 1.77962335,12.2971029 C1.77962335,14.5240052 2.43175379,16.3841518 3.73840342,18.0213684 C5.04983056,19.6418054 6.73390367,20.6749538 8.79062274,21.1160195 C8.04533081,21.3077871 7.25943003,21.3988768 6.45203044,21.3988768 C5.70673851,21.3988768 5.1788234,21.3365523 4.86589634,21.1999178 C5.41531026,23.0145196 6.45203044,24.4863366 7.94978057,25.6129717 C9.44275318,26.7444011 11.1602689,27.341278 13.0903839,27.3940141 C9.90856064,29.8989795 6.27048497,31.1382782 2.15465807,31.1382782 C1.14660297,31.1382782 0.432364869,31.1238956 4.97379915e-14,31.0471885 C4.05371924,33.6887884 8.56607966,35 13.5585801,35 C18.6681295,35 23.1828787,33.7007739 27.1123826,31.1023218 C31.0418866,28.5182522 33.9418366,25.3301144 35.8050664,21.5762619 C37.6778512,17.8272036 38.6046886,13.9247312 38.6046886,9.84966783 L38.6046886,8.72782686 C40.4153658,7.36148209 41.8796734,5.8225464 43,4.12300527 C41.3756458,4.82535443 39.6963502,5.30237655 37.9597245,5.54448325 L37.9597245,5.54448325 Z"></path>
                    </g>
                </g>
            </g>
        </g>
    </g>
</svg>