<?xml version="1.0" encoding="UTF-8" standalone="no"?>
<svg width="41px" height="35px" viewBox="0 0 41 35" version="1.1" xmlns="http://www.w3.org/2000/svg" xmlns:xlink="http://www.w3.org/1999/xlink" xmlns:sketch="http://www.bohemiancoding.com/sketch/ns">
    <!-- Generator: Sketch 3.3.3 (12081) - http://www.bohemiancoding.com/sketch -->
    <title>btn-github@2x</title>
    <desc>Created with Sketch.</desc>
    <defs></defs>
    <g id="assets" stroke="none" stroke-width="1" fill="none" fill-rule="evenodd" sketch:type="MSPage">
        <g id="symbols" sketch:type="MSArtboardGroup" transform="translate(-2216.000000, -745.000000)" fill="#FFFFFF" opacity="0.6">
            <g id="navbars" sketch:type="MSLayerGroup" transform="translate(0.000000, 459.000000)">
                <g id="navbars/top-navbar" transform="translate(0.000000, 235.000000)" sketch:type="MSShapeGroup">
                    <path d="M2243.63107,71.3689975 C2244.41886,71.3689975 2245.07193,71.7611626 2245.64007,72.536647 C2246.20236,73.3180286 2246.50107,74.2704297 2246.50107,75.4115417 C2246.50107,76.5467565 2246.20236,77.5080034 2245.64007,78.2805392 C2245.07486,79.0619208 2244.41886,79.4481887 2243.63107,79.4481887 C2242.81693,79.4481887 2242.10236,79.0619208 2241.53714,78.2805392 C2240.97486,77.5080034 2240.67614,76.5467565 2240.67614,75.4115417 C2240.67614,74.2704297 2240.97486,73.3180286 2241.53714,72.536647 C2242.09943,71.758214 2242.814,71.3689975 2243.63107,71.3689975 M2253.70536,60.8748947 C2255.89007,63.2662174 2257,66.1676495 2257,69.5821398 C2257,71.7877001 2256.74814,73.7780118 2256.2415,75.5471778 C2255.729,77.3074979 2255.08764,78.7434709 2254.32621,79.8491997 C2253.55307,80.957877 2252.60421,81.9279697 2251.47379,82.7653749 C2250.34336,83.6086773 2249.30371,84.216091 2248.35486,84.6023589 C2247.40307,84.9915754 2246.3195,85.289385 2245.10121,85.5046335 C2243.88,85.7139848 2242.97507,85.8319292 2242.33957,85.8673126 L2240.3335,85.9085931 L2238.73157,85.9528222 C2237.85007,85.9911542 2237.09157,86 2236.5,86 C2235.90843,86 2235.14993,85.9911542 2234.26843,85.9528222 L2232.6665,85.9085931 L2230.66043,85.8673126 C2230.022,85.8319292 2229.12,85.7139848 2227.89879,85.5046335 C2226.66,85.2923336 2225.59693,84.9915754 2224.64514,84.6023589 C2223.69629,84.216091 2222.65371,83.6086773 2221.52914,82.7653749 C2220.39579,81.9279697 2219.44693,80.957877 2218.67379,79.8491997 C2217.90943,78.7434709 2217.271,77.3074979 2216.7585,75.5471778 C2216.25186,73.7780118 2216,71.7877001 2216,69.5821398 C2216,66.1676495 2217.10993,63.2632687 2219.29464,60.8748947 C2219.0545,60.7540017 2219.04571,59.556866 2219.27121,57.2864364 C2219.45571,55.0130581 2219.936,52.9165965 2220.72086,51 C2223.45614,51.2919124 2226.84157,52.8546757 2230.88593,55.6617523 C2232.25064,55.3108677 2234.11029,55.1221567 2236.5,55.1221567 C2238.99514,55.1221567 2240.8665,55.3108677 2242.117,55.6647009 C2243.95907,54.4115417 2245.71914,53.3913227 2247.40307,52.6158382 C2249.11336,51.8462511 2250.34629,51.3892165 2251.11943,51.2683235 L2252.27914,51.0029486 C2253.06986,52.9165965 2253.55014,55.0130581 2253.73171,57.289385 C2253.95429,59.556866 2253.9455,60.7540017 2253.70536,60.8748947 M2236.58786,83.9330244 C2241.53129,83.9330244 2245.23886,83.3374052 2247.77793,82.1432182 C2250.28186,80.9519798 2251.56164,78.4928391 2251.56164,74.7834878 C2251.56164,72.6310025 2250.76214,70.8323505 2249.15436,69.3934288 C2248.34021,68.6179444 2247.35914,68.1402696 2246.258,67.9604044 C2245.15979,67.7805392 2243.47879,67.7805392 2241.22086,67.9604044 C2238.96879,68.1432182 2237.41957,68.2257793 2236.58786,68.2257793 C2235.46036,68.2257793 2234.245,68.1727043 2232.72507,68.0518113 C2231.20221,67.9338669 2230.00736,67.8601516 2229.14343,67.8218197 C2228.28243,67.7952822 2227.35993,67.9014322 2226.33786,68.1402696 C2225.3275,68.3820556 2224.49579,68.8007582 2223.83979,69.3934288 C2222.314,70.7763269 2221.52621,72.5690817 2221.52621,74.7834878 C2221.52621,78.4928391 2222.77379,80.9519798 2225.27479,82.1432182 C2227.76407,83.3374052 2231.46286,83.9330244 2236.40921,83.9330244 L2236.58786,83.9330244 M2229.45971,71.3689975 C2230.24457,71.3689975 2230.90057,71.7611626 2231.46579,72.536647 C2232.02807,73.3180286 2232.32679,74.2704297 2232.32679,75.4115417 C2232.32679,76.5467565 2232.02807,77.5080034 2231.46579,78.2805392 C2230.9035,79.0619208 2230.24457,79.4481887 2229.45971,79.4481887 C2228.64264,79.4481887 2227.931,79.0619208 2227.36286,78.2805392 C2226.80057,77.5080034 2226.50186,76.5467565 2226.50186,75.4115417 C2226.50186,74.2704297 2226.80057,73.3180286 2227.36286,72.536647 C2227.92807,71.758214 2228.63971,71.3689975 2229.45971,71.3689975" id="btn-github"></path>
                </g>
            </g>
        </g>
    </g>
</svg>