<?xml version="1.0" encoding="UTF-8" standalone="no"?>
<svg width="43px" height="35px" viewBox="0 0 43 35" version="1.1" xmlns="http://www.w3.org/2000/svg" xmlns:xlink="http://www.w3.org/1999/xlink" xmlns:sketch="http://www.bohemiancoding.com/sketch/ns">
    <!-- Generator: Sketch 3.3.3 (12081) - http://www.bohemiancoding.com/sketch -->
    <title>btn-twitter@2x</title>
    <desc>Created with Sketch.</desc>
    <defs></defs>
    <g id="assets" stroke="none" stroke-width="1" fill="none" fill-rule="evenodd" sketch:type="MSPage">
        <g id="symbols" sketch:type="MSArtboardGroup" transform="translate(-2359.000000, -745.000000)" fill="#FFFFFF" opacity="0.6">
            <g id="navbars" sketch:type="MSLayerGroup" transform="translate(0.000000, 459.000000)">
                <g id="navbars/top-navbar" transform="translate(0.000000, 235.000000)" sketch:type="MSShapeGroup">
                    <path d="M2396.95972,56.5444833 C2398.88984,55.3555236 2400.16782,53.7326895 2400.79368,51.6687898 C2398.91612,52.6683789 2397.04572,53.3539484 2395.17771,53.7326895 C2393.49842,51.9204849 2391.37242,51 2388.82362,51 C2386.33215,51 2384.22765,51.8773372 2382.51014,53.5840696 C2380.80218,55.3027875 2379.93984,57.3906582 2379.93984,59.8285049 C2379.93984,60.5692076 2380.033,61.2308061 2380.21932,61.7917266 C2372.87151,61.5400315 2366.78973,58.4813369 2361.99789,52.5940689 C2361.18571,54.0347236 2360.77962,55.5017465 2360.77962,57.0191083 C2360.77962,60.1377303 2362.09105,62.6091364 2364.70913,64.4237381 C2363.21615,64.296692 2361.89995,63.9179508 2360.77962,63.2971029 C2360.77962,65.5240052 2361.43175,67.3841518 2362.7384,69.0213684 C2364.04983,70.6418054 2365.7339,71.6749538 2367.79062,72.1160195 C2367.04533,72.3077871 2366.25943,72.3988768 2365.45203,72.3988768 C2364.70674,72.3988768 2364.17882,72.3365523 2363.8659,72.1999178 C2364.41531,74.0145196 2365.45203,75.4863366 2366.94978,76.6129717 C2368.44275,77.7444011 2370.16027,78.341278 2372.09038,78.3940141 C2368.90856,80.8989795 2365.27048,82.1382782 2361.15466,82.1382782 C2360.1466,82.1382782 2359.43236,82.1238956 2359,82.0471885 C2363.05372,84.6887884 2367.56608,86 2372.55858,86 C2377.66813,86 2382.18288,84.7007739 2386.11238,82.1023218 C2390.04189,79.5182522 2392.94184,76.3301144 2394.80507,72.5762619 C2396.67785,68.8272036 2397.60469,64.9247312 2397.60469,60.8496678 L2397.60469,59.7278269 C2399.41537,58.3614821 2400.87967,56.8225464 2402,55.1230053 C2400.37565,55.8253544 2398.69635,56.3023765 2396.95972,56.5444833 L2396.95972,56.5444833 Z" id="btn-twitter"></path>
                </g>
            </g>
        </g>
    </g>
</svg>