<?xml version="1.0" encoding="UTF-8" standalone="no"?>
<svg width="41px" height="35px" viewBox="0 0 41 35" version="1.1" xmlns="http://www.w3.org/2000/svg" xmlns:xlink="http://www.w3.org/1999/xlink" xmlns:sketch="http://www.bohemiancoding.com/sketch/ns">
    <!-- Generator: Sketch 3.3.3 (12081) - http://www.bohemiancoding.com/sketch -->
    <title>btn-github@2x</title>
    <desc>Created with Sketch.</desc>
    <defs></defs>
    <g id="assets" stroke="none" stroke-width="1" fill="none" fill-rule="evenodd" sketch:type="MSPage">
        <g id="symbols" sketch:type="MSArtboardGroup" transform="translate(-2216.000000, -508.000000)" fill="#BBBBBB">
            <g id="navbars" sketch:type="MSLayerGroup" transform="translate(0.000000, 459.000000)">
                <g id="navbars/fixed-navbar" sketch:type="MSShapeGroup">
                    <g id="btn-github" transform="translate(2216.000000, 49.000000)">
                        <path d="M27.6310714,20.3689975 C28.4188571,20.3689975 29.0719286,20.7611626 29.6400714,21.536647 C30.2023571,22.3180286 30.5010714,23.2704297 30.5010714,24.4115417 C30.5010714,25.5467565 30.2023571,26.5080034 29.6400714,27.2805392 C29.0748571,28.0619208 28.4188571,28.4481887 27.6310714,28.4481887 C26.8169286,28.4481887 26.1023571,28.0619208 25.5371429,27.2805392 C24.9748571,26.5080034 24.6761429,25.5467565 24.6761429,24.4115417 C24.6761429,23.2704297 24.9748571,22.3180286 25.5371429,21.536647 C26.0994286,20.758214 26.814,20.3689975 27.6310714,20.3689975 M37.7053571,9.87489469 C39.8900714,12.2662174 41,15.1676495 41,18.5821398 C41,20.7877001 40.7481429,22.7780118 40.2415,24.5471778 C39.729,26.3074979 39.0876429,27.7434709 38.3262143,28.8491997 C37.5530714,29.957877 36.6042143,30.9279697 35.4737857,31.7653749 C34.3433571,32.6086773 33.3037143,33.216091 32.3548571,33.6023589 C31.4030714,33.9915754 30.3195,34.289385 29.1012143,34.5046335 C27.88,34.7139848 26.9750714,34.8319292 26.3395714,34.8673126 L24.3335,34.9085931 L22.7315714,34.9528222 C21.8500714,34.9911542 21.0915714,35 20.5,35 C19.9084286,35 19.1499286,34.9911542 18.2684286,34.9528222 L16.6665,34.9085931 L14.6604286,34.8673126 C14.022,34.8319292 13.12,34.7139848 11.8987857,34.5046335 C10.66,34.2923336 9.59692857,33.9915754 8.64514286,33.6023589 C7.69628571,33.216091 6.65371429,32.6086773 5.52914286,31.7653749 C4.39578571,30.9279697 3.44692857,29.957877 2.67378571,28.8491997 C1.90942857,27.7434709 1.271,26.3074979 0.7585,24.5471778 C0.251857143,22.7780118 1.42108547e-14,20.7877001 1.42108547e-14,18.5821398 C1.42108547e-14,15.1676495 1.10992857,12.2632687 3.29464286,9.87489469 C3.0545,9.75400168 3.04571429,8.55686605 3.27121429,6.28643639 C3.45571429,4.01305813 3.936,1.91659646 4.72085714,1.56319402e-13 C7.45614286,0.291912384 10.8415714,1.85467565 14.8859286,4.66175232 C16.2506429,4.31086773 18.1102857,4.1221567 20.5,4.1221567 C22.9951429,4.1221567 24.8665,4.31086773 26.117,4.66470093 C27.9590714,3.4115417 29.7191429,2.39132266 31.4030714,1.61583825 C33.1133571,0.846251053 34.3462857,0.389216512 35.1194286,0.268323505 L36.2791429,0.00294860994 C37.0698571,1.91659646 37.5501429,4.01305813 37.7317143,6.289385 C37.9542857,8.55686605 37.9455,9.75400168 37.7053571,9.87489469 M20.5878571,32.9330244 C25.5312857,32.9330244 29.2388571,32.3374052 31.7779286,31.1432182 C34.2818571,29.9519798 35.5616429,27.4928391 35.5616429,23.7834878 C35.5616429,21.6310025 34.7621429,19.8323505 33.1543571,18.3934288 C32.3402143,17.6179444 31.3591429,17.1402696 30.258,16.9604044 C29.1597857,16.7805392 27.4787857,16.7805392 25.2208571,16.9604044 C22.9687857,17.1432182 21.4195714,17.2257793 20.5878571,17.2257793 C19.4603571,17.2257793 18.245,17.1727043 16.7250714,17.0518113 C15.2022143,16.9338669 14.0073571,16.8601516 13.1434286,16.8218197 C12.2824286,16.7952822 11.3599286,16.9014322 10.3378571,17.1402696 C9.3275,17.3820556 8.49578571,17.8007582 7.83978571,18.3934288 C6.314,19.7763269 5.52621429,21.5690817 5.52621429,23.7834878 C5.52621429,27.4928391 6.77378571,29.9519798 9.27478571,31.1432182 C11.7640714,32.3374052 15.4628571,32.9330244 20.4092143,32.9330244 L20.5878571,32.9330244 M13.4597143,20.3689975 C14.2445714,20.3689975 14.9005714,20.7611626 15.4657857,21.536647 C16.0280714,22.3180286 16.3267857,23.2704297 16.3267857,24.4115417 C16.3267857,25.5467565 16.0280714,26.5080034 15.4657857,27.2805392 C14.9035,28.0619208 14.2445714,28.4481887 13.4597143,28.4481887 C12.6426429,28.4481887 11.931,28.0619208 11.3628571,27.2805392 C10.8005714,26.5080034 10.5018571,25.5467565 10.5018571,24.4115417 C10.5018571,23.2704297 10.8005714,22.3180286 11.3628571,21.536647 C11.9280714,20.758214 12.6397143,20.3689975 13.4597143,20.3689975"></path>
                    </g>
                </g>
            </g>
        </g>
    </g>
</svg>