<svg xmlns="http://www.w3.org/2000/svg" width="815" height="879" viewBox="0 0 815 879">
  <path fill="#DDDDDE" fill-rule="evenodd" d="M-8.12109375,384.291831 L66.8919361,384.291831 C85.0575755,384.291831 102.314674,386.322078 118.66375,390.382633 C135.012825,394.443188 149.277981,401.014776 161.459645,410.097596 C173.641309,419.180416 183.311695,430.987904 190.471094,445.520416 C197.630493,460.052927 201.210139,477.684018 201.210139,498.414219 C201.210139,516.793571 197.737349,532.982119 190.791663,546.980347 C183.845977,560.978575 174.496156,572.732636 162.741919,582.242882 C150.987682,591.753129 137.417084,598.965848 122.029719,603.881256 C106.642354,608.796665 90.5072337,611.254332 73.6238747,611.254332 L-8.12109375,611.254332 L-8.12109375,384.291831 Z M41.8875928,565.092467 L67.8536417,565.092467 C79.3941655,565.092467 90.133103,563.917061 100.070776,561.566214 C110.00845,559.215366 118.610285,555.315155 125.876541,549.865464 C133.142797,544.415772 138.859544,537.25648 143.026956,528.387374 C147.194367,519.518267 149.278042,508.672475 149.278042,495.849671 C149.278042,484.736574 147.194367,475.066187 143.026956,466.838221 C138.859544,458.610255 133.249652,451.824956 126.197109,446.482121 C119.144567,441.139286 110.863297,437.13222 101.35305,434.460802 C91.8428038,431.789385 81.851852,430.453696 71.3798952,430.453696 L41.8875928,430.453696 L41.8875928,565.092467 Z M226.350481,384.291831 L314.186251,384.291831 C325.726775,384.291831 336.679423,385.41381 347.044523,387.657801 C357.409623,389.901791 366.492306,393.64172 374.292846,398.877698 C382.093385,404.113677 388.290981,411.166113 392.885819,420.035219 C397.480657,428.904326 399.778042,439.963829 399.778042,453.21406 C399.778042,469.242565 395.610693,482.86659 387.27587,494.086544 C378.941047,505.306498 366.759566,512.412362 350.731061,515.404349 L408.433391,611.254332 L348.487081,611.254332 L301.042942,520.533445 L276.359168,520.533445 L276.359168,611.254332 L226.350481,611.254332 L226.350481,384.291831 Z M276.359168,478.218403 L305.85147,478.218403 C310.339452,478.218403 315.094503,478.05812 320.116768,477.73755 C325.139033,477.41698 329.680375,476.455284 333.74093,474.852434 C337.801485,473.249583 341.16742,470.738488 343.838838,467.319074 C346.510255,463.899659 347.845944,459.09118 347.845944,452.893491 C347.845944,447.123229 346.670538,442.52846 344.31969,439.109045 C341.968843,435.689631 338.9769,433.071681 335.343772,431.255117 C331.710644,429.438553 327.543296,428.20972 322.841601,427.568579 C318.139906,426.927439 313.545137,426.606874 309.057155,426.606874 L276.359168,426.606874 L276.359168,478.218403 Z M499.931413,384.291831 L541.28475,384.291831 L640.01985,611.254332 L583.599793,611.254332 L564.045114,563.169056 L475.888776,563.169056 L456.975234,611.254332 L401.837451,611.254332 L499.931413,384.291831 Z M519.165524,450.328943 L491.596632,520.854014 L547.054983,520.854014 L519.165524,450.328943 Z M655.863705,384.291831 L808.133744,384.291831 L808.133744,430.453696 L705.872391,430.453696 L705.872391,476.61556 L800.4401,476.61556 L800.4401,522.777425 L705.872391,522.777425 L705.872391,611.254332 L655.863705,611.254332 L655.863705,384.291831 Z M879.115382,428.530285 L814.360544,428.530285 L814.360544,384.291831 L993.878906,384.291831 L993.878906,428.530285 L929.124068,428.530285 L929.124068,611.254332 L879.115382,611.254332 L879.115382,428.530285 Z" transform="rotate(-46 393.06 542.982)"/>
</svg>
