<svg xmlns="http://www.w3.org/2000/svg" width="24" height="24" viewBox="0 0 24 24"><path fill="#000000" fill-rule="evenodd" d="M3.6 2.25A1.35 1.35 0 0 0 2.25 3.6v16.8c0 .746.604 1.35 1.35 1.35h16.8a1.35 1.35 0 0 0 1.35-1.35V3.6a1.35 1.35 0 0 0-1.35-1.35H3.6Zm6 4A1.35 1.35 0 0 0 8.25 7.6v9.3c0 .746.604 1.35 1.35 1.35H12v-.75v.75h.02a2.51 2.51 0 0 0 .158-.007c.1-.006.24-.02.404-.045c.326-.05.773-.15 1.23-.36c.459-.21.95-.54 1.326-1.057c.382-.525.612-1.198.612-2.031c0-.833-.23-1.506-.612-2.031a3.182 3.182 0 0 0-.877-.815a2.8 2.8 0 0 0 .472-.543c.326-.488.517-1.105.517-1.861s-.191-1.373-.517-1.861a2.943 2.943 0 0 0-1.148-.997A3.85 3.85 0 0 0 12 6.25H9.6Zm.15 6.5h2.261l.069.004a3.184 3.184 0 0 1 1.108.272c.291.133.55.319.737.575c.18.249.325.607.325 1.149s-.145.9-.325 1.149a1.837 1.837 0 0 1-.738.575a3.184 3.184 0 0 1-1.107.272a1.938 1.938 0 0 1-.07.004H9.75v-4Zm2.247 4H12h-.002Zm-.001-5.5H9.75v-3.5h2.249h-.001h.001c.03.001.48.016.916.233c.223.112.424.268.57.488c.144.215.265.535.265 1.029c0 .494-.121.814-.265 1.03a1.45 1.45 0 0 1-.57.487a2.322 2.322 0 0 1-.912.233h-.007Z" clip-rule="evenodd"/></svg>